<?xml version="1.0" encoding="utf-8"?>
<!-- Generator: Adobe Illustrator 23.0.1, SVG Export Plug-In . SVG Version: 6.00 Build 0)  -->
<svg version="1.1" id="Layer_1" xmlns="http://www.w3.org/2000/svg" xmlns:xlink="http://www.w3.org/1999/xlink" x="0px" y="0px"
	 viewBox="0 0 2871.1 1424.2" style="enable-background:new 0 0 2871.1 1424.2;" xml:space="preserve">
<style type="text/css">
	.st0{fill:#FFFFFF;}
</style>
<ellipse class="st0" cx="1137.2" cy="3.4" rx="3.7" ry="3.4"/>
<ellipse class="st0" cx="1251.4" cy="79.7" rx="3.7" ry="3.4"/>
<ellipse class="st0" cx="1305.7" cy="35.9" rx="3.7" ry="3.4"/>
<ellipse class="st0" cx="1012.8" cy="88.3" rx="3.7" ry="3.4"/>
<ellipse class="st0" cx="1474.3" cy="38" rx="3.7" ry="3.4"/>
<ellipse class="st0" cx="1290.2" cy="263.3" rx="3.7" ry="3.4"/>
<ellipse class="st0" cx="1334.5" cy="103.7" rx="3.7" ry="3.4"/>
<ellipse class="st0" cx="623.2" cy="872" rx="3.7" ry="3.4"/>
<ellipse class="st0" cx="509" cy="795.7" rx="3.7" ry="3.4"/>
<ellipse class="st0" cx="454.7" cy="839.5" rx="3.7" ry="3.4"/>
<ellipse class="st0" cx="747.5" cy="787.1" rx="3.7" ry="3.4"/>
<ellipse class="st0" cx="286.1" cy="837.4" rx="3.7" ry="3.4"/>
<ellipse class="st0" cx="470.1" cy="612.1" rx="3.7" ry="3.4"/>
<ellipse class="st0" cx="425.8" cy="771.7" rx="3.7" ry="3.4"/>
<ellipse class="st0" cx="391.6" cy="263.6" rx="3.7" ry="3.4"/>
<ellipse class="st0" cx="505.8" cy="187.3" rx="3.7" ry="3.4"/>
<ellipse class="st0" cx="560.1" cy="231.1" rx="3.7" ry="3.4"/>
<ellipse class="st0" cx="267.2" cy="178.7" rx="3.7" ry="3.4"/>
<ellipse class="st0" cx="728.7" cy="229" rx="3.7" ry="3.4"/>
<ellipse class="st0" cx="544.6" cy="3.7" rx="3.7" ry="3.4"/>
<ellipse class="st0" cx="588.9" cy="163.3" rx="3.7" ry="3.4"/>
<ellipse class="st0" cx="85" cy="360.8" rx="3.7" ry="3.4"/>
<ellipse class="st0" cx="199.3" cy="437.1" rx="3.7" ry="3.4"/>
<ellipse class="st0" cx="253.5" cy="393.2" rx="3.7" ry="3.4"/>
<ellipse class="st0" cx="422.1" cy="395.4" rx="3.7" ry="3.4"/>
<ellipse class="st0" cx="238.1" cy="620.6" rx="3.7" ry="3.4"/>
<ellipse class="st0" cx="282.4" cy="461.1" rx="3.7" ry="3.4"/>
<ellipse class="st0" cx="1596.8" cy="376.7" rx="3.7" ry="3.4"/>
<ellipse class="st0" cx="1711.1" cy="453" rx="3.7" ry="3.4"/>
<ellipse class="st0" cx="1765.3" cy="409.2" rx="3.7" ry="3.4"/>
<ellipse class="st0" cx="1472.5" cy="461.6" rx="3.7" ry="3.4"/>
<ellipse class="st0" cx="1933.9" cy="411.3" rx="3.7" ry="3.4"/>
<ellipse class="st0" cx="1749.9" cy="636.6" rx="3.7" ry="3.4"/>
<ellipse class="st0" cx="1794.2" cy="477" rx="3.7" ry="3.4"/>
<ellipse class="st0" cx="1082.8" cy="1245.3" rx="3.7" ry="3.4"/>
<ellipse class="st0" cx="968.6" cy="1169" rx="3.7" ry="3.4"/>
<ellipse class="st0" cx="914.4" cy="1212.8" rx="3.7" ry="3.4"/>
<ellipse class="st0" cx="1207.2" cy="1160.4" rx="3.7" ry="3.4"/>
<ellipse class="st0" cx="745.7" cy="1210.7" rx="3.7" ry="3.4"/>
<ellipse class="st0" cx="929.8" cy="985.4" rx="3.7" ry="3.4"/>
<ellipse class="st0" cx="885.5" cy="1145" rx="3.7" ry="3.4"/>
<ellipse class="st0" cx="851.3" cy="636.9" rx="3.7" ry="3.4"/>
<ellipse class="st0" cx="965.5" cy="560.6" rx="3.7" ry="3.4"/>
<ellipse class="st0" cx="1019.7" cy="604.4" rx="3.7" ry="3.4"/>
<ellipse class="st0" cx="726.9" cy="552" rx="3.7" ry="3.4"/>
<ellipse class="st0" cx="1188.4" cy="602.3" rx="3.7" ry="3.4"/>
<ellipse class="st0" cx="1004.3" cy="377" rx="3.7" ry="3.4"/>
<ellipse class="st0" cx="1048.6" cy="536.6" rx="3.7" ry="3.4"/>
<ellipse class="st0" cx="1304.4" cy="743.2" rx="3.7" ry="3.4"/>
<ellipse class="st0" cx="1418.6" cy="819.5" rx="3.7" ry="3.4"/>
<ellipse class="st0" cx="1472.9" cy="775.7" rx="3.7" ry="3.4"/>
<ellipse class="st0" cx="1180.1" cy="828.1" rx="3.7" ry="3.4"/>
<ellipse class="st0" cx="1641.5" cy="777.8" rx="3.7" ry="3.4"/>
<ellipse class="st0" cx="1457.5" cy="1003.1" rx="3.7" ry="3.4"/>
<ellipse class="st0" cx="1501.8" cy="843.5" rx="3.7" ry="3.4"/>
<ellipse class="st0" cx="2816.2" cy="759.2" rx="3.7" ry="3.4"/>
<ellipse class="st0" cx="2691.9" cy="844.1" rx="3.7" ry="3.4"/>
<ellipse class="st0" cx="2149.2" cy="1367.9" rx="3.7" ry="3.4"/>
<ellipse class="st0" cx="2070.6" cy="1019.3" rx="3.7" ry="3.4"/>
<ellipse class="st0" cx="2184.9" cy="943" rx="3.7" ry="3.4"/>
<ellipse class="st0" cx="2239.1" cy="986.8" rx="3.7" ry="3.4"/>
<ellipse class="st0" cx="1946.3" cy="934.4" rx="3.7" ry="3.4"/>
<ellipse class="st0" cx="2407.7" cy="984.7" rx="3.7" ry="3.4"/>
<ellipse class="st0" cx="2223.7" cy="759.5" rx="3.7" ry="3.4"/>
<ellipse class="st0" cx="2268" cy="919" rx="3.7" ry="3.4"/>
<ellipse class="st0" cx="1764.1" cy="1116.5" rx="3.7" ry="3.4"/>
<ellipse class="st0" cx="1878.3" cy="1192.8" rx="3.7" ry="3.4"/>
<ellipse class="st0" cx="1932.6" cy="1149" rx="3.7" ry="3.4"/>
<ellipse class="st0" cx="1639.7" cy="1201.4" rx="3.7" ry="3.4"/>
<ellipse class="st0" cx="2101.2" cy="1151.1" rx="3.7" ry="3.4"/>
<ellipse class="st0" cx="1917.1" cy="1376.4" rx="3.7" ry="3.4"/>
<ellipse class="st0" cx="1961.4" cy="1216.8" rx="3.7" ry="3.4"/>
<ellipse class="st0" cx="2530.3" cy="1392.6" rx="3.7" ry="3.4"/>
<ellipse class="st0" cx="2644.5" cy="1316.3" rx="3.7" ry="3.4"/>
<ellipse class="st0" cx="2698.8" cy="1360.1" rx="3.7" ry="3.4"/>
<ellipse class="st0" cx="2406" cy="1307.7" rx="3.7" ry="3.4"/>
<ellipse class="st0" cx="2867.4" cy="1358" rx="3.7" ry="3.4"/>
<ellipse class="st0" cx="2683.3" cy="1132.8" rx="3.7" ry="3.4"/>
<ellipse class="st0" cx="2727.7" cy="1292.3" rx="3.7" ry="3.4"/>
<ellipse class="st0" cx="3.7" cy="1402.8" rx="3.7" ry="3.4"/>
<ellipse class="st0" cx="172.3" cy="1404.9" rx="3.7" ry="3.4"/>
<ellipse class="st0" cx="1347" cy="1386.2" rx="3.7" ry="3.4"/>
<ellipse class="st0" cx="1515.5" cy="1418.7" rx="3.7" ry="3.4"/>
<ellipse class="st0" cx="1684.1" cy="1420.8" rx="3.7" ry="3.4"/>
<ellipse class="st0" cx="754.5" cy="1386.5" rx="3.7" ry="3.4"/>
<ellipse class="st0" cx="2142.9" cy="181" rx="3.7" ry="3.4"/>
<ellipse class="st0" cx="2028.7" cy="104.8" rx="3.7" ry="3.4"/>
<ellipse class="st0" cx="1974.4" cy="148.6" rx="3.7" ry="3.4"/>
<ellipse class="st0" cx="2267.3" cy="96.1" rx="3.7" ry="3.4"/>
<ellipse class="st0" cx="1805.8" cy="146.5" rx="3.7" ry="3.4"/>
<ellipse class="st0" cx="1945.6" cy="80.7" rx="3.7" ry="3.4"/>
<ellipse class="st0" cx="2602.6" cy="554.3" rx="3.7" ry="3.4"/>
<ellipse class="st0" cx="2488.4" cy="478.1" rx="3.7" ry="3.4"/>
<ellipse class="st0" cx="2434.1" cy="521.9" rx="3.7" ry="3.4"/>
<ellipse class="st0" cx="2726.9" cy="469.4" rx="3.7" ry="3.4"/>
<ellipse class="st0" cx="2265.5" cy="519.8" rx="3.7" ry="3.4"/>
<ellipse class="st0" cx="2449.6" cy="294.5" rx="3.7" ry="3.4"/>
<ellipse class="st0" cx="2405.2" cy="454" rx="3.7" ry="3.4"/>
<ellipse class="st0" cx="2839.5" cy="61.9" rx="3.7" ry="3.4"/>
<ellipse class="st0" cx="2715.2" cy="146.8" rx="3.7" ry="3.4"/>
</svg>
