<?xml version="1.0" encoding="utf-8"?>
<!-- Generator: Adobe Illustrator 23.0.1, SVG Export Plug-In . SVG Version: 6.00 Build 0)  -->
<svg version="1.1" id="Layer_1" xmlns="http://www.w3.org/2000/svg" xmlns:xlink="http://www.w3.org/1999/xlink" x="0px" y="0px"
	 viewBox="0 0 873.9 449.7" style="enable-background:new 0 0 873.9 449.7;" xml:space="preserve">
<style type="text/css">
	.s3-0{fill:none;stroke:#667682;stroke-width:5;stroke-linecap:round;stroke-linejoin:round;stroke-miterlimit:10;}
	.spaceship-helmet{fill:#F1F6FB;}
	.s3-2{fill:#C3CED4;}
	.s3-3{fill:none;stroke:#667682;stroke-width:5;stroke-miterlimit:10;}
	.s3-4{fill:#FFFFFF;}
	.s3-5{fill:#8FCFF1;stroke:#667682;stroke-width:5;stroke-linecap:round;stroke-linejoin:round;stroke-miterlimit:10;}
	.s3-6{fill:#4B9DD6;stroke:#667682;stroke-width:5;stroke-miterlimit:10;}
	.s3-7{fill:#52AFE2;}
	.s3-8{fill:#C3CED4;stroke:#667682;stroke-width:5;stroke-miterlimit:10;}
	.s3-9{fill:#667682;}
	.spaceship-engine{fill:#FFFDAB;stroke:#667682;stroke-width:5;stroke-miterlimit:10;}
</style>
<path class="s3-0" d="M577.9,323.1"/>
<g class="spaceship-helmet-wrap">
	<path class="spaceship-helmet" d="M517.5,190.3c13.4-13.4,31.9-21.7,52.4-21.7c40.9,0,74.1,33.2,74.1,74.1c0,22.8-10.3,43.2-26.5,56.8
		c-9.7,4.7-20.2,7.2-30.7,7.6c-0.9,0-1.7,0-2.6,0c-5.2,0-10.5-0.5-15.6-1.5c-14.4-2.9-28.1-9.9-39.3-21.1
		C503.8,259,499.9,220,517.5,190.3z"/>
	<path class="s3-2" d="M517.5,190.3c-17.7,29.7-13.7,68.7,11.8,94.2c11.2,11.2,24.9,18.2,39.3,21.1c5.2,1,10.4,1.6,15.6,1.5
		c0.9,0,1.7,0,2.6,0c10.5-0.4,21-2.9,30.7-7.6c-5.5,4.6-11.6,8.4-18.2,11.3c0,0-0.1,0-0.3,0.1c-0.1,0.1-0.3,0.1-0.6,0.3
		c0,0-0.1,0-0.1,0c-1.2,0.5-2.3,0.9-3.5,1.3c-4.4,1.6-8.9,2.7-13.6,3.4c-3.7,0.6-7.4,0.8-11.2,0.8c-1.7,0-3.4-0.1-5.1-0.2
		c-5.7-0.4-11.2-1.4-16.4-3c-0.1,0-0.3-0.1-0.4-0.1c-1.7-0.5-3.4-1.1-5-1.8c-2.5-1-4.9-2.1-7.2-3.3c-23.7-12.4-39.9-37.2-39.9-65.8
		C495.8,222.3,504.1,203.7,517.5,190.3z"/>
	<path class="s3-3" d="M517.5,190.3c13.4-13.4,31.9-21.7,52.4-21.7c40.9,0,74.1,33.2,74.1,74.1c0,22.8-10.3,43.2-26.5,56.8
		c-5.5,4.6-11.6,8.4-18.2,11.3c-0.1,0-0.2,0.1-0.3,0.1c-0.2,0.1-1.2,0.5-1.4,0.6l-0.4,0.1c-0.8,0.3-1.6,0.6-2.4,0.9
		c-4.4,1.6-8.9,2.7-13.6,3.4c-3.7,0.6-7.4,0.8-11.2,0.8c-1.7,0-3.4-0.1-5.1-0.2c-5.7-0.4-11.2-1.4-16.4-3l-0.2,0
		c-1.7-0.5-3.8-1.3-5.3-1.8c-2.5-1-4.9-2.1-7.2-3.3c-23.7-12.4-39.9-37.2-39.9-65.8C495.8,222.3,504.1,203.7,517.5,190.3z"/>
	<path class="s3-4" d="M608.5,203.3c0.9,0,1.7-0.3,2.3-1c1.2-1.3,1.1-3.3-0.2-4.5c-5.1-4.7-10.9-8.4-17.3-11.2
		c-7.6-3.3-15.8-4.9-24.1-4.9c-1.8,0-3.2,1.4-3.2,3.2c0,1.8,1.4,3.2,3.2,3.2c7.5,0,14.8,1.5,21.6,4.4c5.7,2.4,10.9,5.8,15.5,10
		C606.9,203.1,607.7,203.3,608.5,203.3z"/>
	<path class="s3-4" d="M627.4,246.2c1.8,0,3.2-1.4,3.2-3.2c0-5.8-0.8-11.5-2.4-17c-0.5-1.7-2.2-2.7-3.9-2.2c-1.7,0.5-2.7,2.2-2.2,3.9
		c1.4,4.9,2.1,10,2.1,15.2C624.2,244.8,625.6,246.2,627.4,246.2z"/>
</g>
<g class="spaceship-helmet-wrap">
	<path class="spaceship-helmet" d="M358.5,190.3c-13.4-13.4-31.9-21.7-52.4-21.7c-40.9,0-74.1,33.2-74.1,74.1c0,22.8,10.3,43.2,26.5,56.8
		c9.7,4.7,20.2,7.2,30.7,7.6c0.9,0,1.7,0,2.6,0c5.2,0,10.5-0.5,15.6-1.5c14.4-2.9,28.1-9.9,39.3-21.1
		C372.3,259,376.2,220,358.5,190.3z"/>
	<path class="s3-2" d="M358.5,190.3c17.7,29.7,13.7,68.7-11.8,94.2c-11.2,11.2-24.9,18.2-39.3,21.1c-5.2,1-10.4,1.6-15.6,1.5
		c-0.9,0-1.7,0-2.6,0c-10.5-0.4-21-2.9-30.7-7.6c5.5,4.6,11.6,8.4,18.2,11.3c0,0,0.1,0,0.3,0.1c0.1,0.1,0.3,0.1,0.6,0.3
		c0,0,0.1,0,0.1,0c1.2,0.5,2.3,0.9,3.5,1.3c4.4,1.6,8.9,2.7,13.6,3.4c3.7,0.6,7.4,0.8,11.2,0.8c1.7,0,3.4-0.1,5.1-0.2
		c5.7-0.4,11.2-1.4,16.4-3c0.1,0,0.3-0.1,0.4-0.1c1.7-0.5,3.4-1.1,5-1.8c2.5-1,4.9-2.1,7.2-3.3c23.7-12.4,39.9-37.2,39.9-65.8
		C380.3,222.3,372,203.7,358.5,190.3z"/>
	<path class="s3-3" d="M358.5,190.3c-13.4-13.4-31.9-21.7-52.4-21.7c-40.9,0-74.1,33.2-74.1,74.1c0,22.8,10.3,43.2,26.5,56.8
		c5.5,4.6,11.6,8.4,18.2,11.3c0.1,0,0.2,0.1,0.3,0.1c0.2,0.1,1.2,0.5,1.4,0.6l0.4,0.1c0.8,0.3,1.6,0.6,2.4,0.9
		c4.4,1.6,8.9,2.7,13.6,3.4c3.7,0.6,7.4,0.8,11.2,0.8c1.7,0,3.4-0.1,5.1-0.2c5.7-0.4,11.2-1.4,16.4-3l0.2,0c1.7-0.5,3.8-1.3,5.3-1.8
		c2.5-1,4.9-2.1,7.2-3.3c23.7-12.4,39.9-37.2,39.9-65.8C380.3,222.3,372,203.7,358.5,190.3z"/>
	<path class="s3-4" d="M267.6,203.3c-0.9,0-1.7-0.3-2.3-1c-1.2-1.3-1.1-3.3,0.2-4.5c5.1-4.7,10.9-8.4,17.3-11.2
		c7.6-3.3,15.8-4.9,24.1-4.9c1.8,0,3.2,1.4,3.2,3.2c0,1.8-1.4,3.2-3.2,3.2c-7.5,0-14.8,1.5-21.6,4.4c-5.7,2.4-10.9,5.8-15.5,10
		C269.2,203.1,268.4,203.3,267.6,203.3z"/>
	<path class="s3-4" d="M248.7,246.2c-1.8,0-3.2-1.4-3.2-3.2c0-5.8,0.8-11.5,2.4-17c0.5-1.7,2.2-2.7,3.9-2.2c1.7,0.5,2.7,2.2,2.2,3.9
		c-1.4,4.9-2.1,10-2.1,15.2C251.9,244.8,250.5,246.2,248.7,246.2z"/>
</g>
<g class="spaceship-form">
<g>
	<circle class="s3-5" cx="621.9" cy="409.7" r="23.5"/>
	<circle class="s3-6" cx="621.9" cy="409.7" r="13.9"/>
	<g>
		<polygon class="s3-5" points="871.4,416.8 866,447.2 595.3,399.5 615.9,282.7 616.2,282.7 		"/>
		<path class="s3-7" d="M721.5,396L626,362.2l-31.2,37.2L715,420.5C730.4,423.2,736.2,401.2,721.5,396z"/>
		<path class="s3-0" d="M730.1,409.7c0.8-5.4-1.6-11.3-8.4-13.7"/>
		<line class="s3-0" x1="698.1" y1="387.7" x2="626.2" y2="362.2"/>
		<circle class="s3-5" cx="676.3" cy="429.3" r="13.9"/>
		<line class="s3-0" x1="757.9" y1="397.3" x2="830.3" y2="410.1"/>
		<polygon class="s3-0" points="871.4,416.8 866,447.2 595.3,399.5 615.9,282.7 616.2,282.7 		"/>
	</g>
	<polygon class="s3-5" points="871.4,416.8 866,447.2 595.3,399.5 615.9,282.7 616.2,282.7 	"/>
	<path class="s3-7" d="M721.5,396L626,362.2l-31.2,37.2L715,420.5C730.4,423.2,736.2,401.2,721.5,396z"/>
	<circle class="s3-5" cx="686.3" cy="419.3" r="27.9"/>
	<path class="s3-0" d="M730.1,409.7c0.8-5.4-1.6-11.3-8.4-13.7"/>
	<circle class="s3-5" cx="254.1" cy="407.1" r="23.5"/>
	<line class="s3-0" x1="698.1" y1="387.7" x2="626.2" y2="362.2"/>
	<circle class="s3-6" cx="254.1" cy="407.1" r="13.9"/>
	<line class="s3-0" x1="757.9" y1="397.3" x2="830.3" y2="410.1"/>
	<polygon class="s3-0" points="871.4,416.8 866,447.2 595.3,399.5 615.9,282.7 616.2,282.7 	"/>
	<polygon class="s3-5" points="258,279.9 257.6,280 2.5,414.1 7.9,444.4 278.6,396.7 	"/>
	<polygon class="s3-5" points="258,279.9 257.6,280 2.5,414.1 7.9,444.4 278.6,396.7 	"/>
	<line class="s3-0" x1="43" y1="407.4" x2="115.4" y2="394.7"/>
	<path class="s3-7" d="M151.9,393.4l95.5-33.8l31.2,37.2l-120.2,21.2C143,420.6,137.2,398.6,151.9,393.4z"/>
	<path class="s3-0" d="M143.5,407.1c-0.8-5.4,1.6-11.3,8.4-13.7"/>
	<circle class="s3-5" cx="192.6" cy="418.1" r="27.9"/>
	<line class="s3-0" x1="175.5" y1="385" x2="247.3" y2="359.6"/>
	<polygon class="s3-0" points="258,279.9 257.6,280 2.5,414.1 7.9,444.4 278.6,396.7 	"/>
</g>
<g class="spaceship-tail">
	<polygon class="s3-5" points="444.7,2.5 431.4,2.5 431.4,2.5 390.3,204 390.3,287.5 485.8,287.5 485.8,204 	"/>
	<polygon class="s3-7" points="444.7,2.5 431.4,2.5 431.4,2.8 472.4,204 472.4,287.5 485.8,287.5 485.8,204 	"/>
	<line class="s3-0" x1="438" y1="206.6" x2="438" y2="133.6"/>
	<line class="s3-0" x1="438" y1="85" x2="438" y2="54.6"/>
	<polygon class="s3-0" points="444.7,2.5 431.4,2.5 431.4,2.5 390.3,204 390.3,287.5 485.8,287.5 485.8,204 	"/>
	<polygon class="s3-0" points="444.7,2.5 431.4,2.5 431.4,2.5 390.3,204 390.3,287.5 485.8,287.5 485.8,204 	"/>
</g>
<g>
	<polygon class="s3-5" points="527.7,217.9 438,217.9 438,428.4 527.7,428.4 623.2,323.1 	"/>
	<polygon class="s3-5" points="533.9,217.9 342.9,217.9 247.3,323.1 342.9,428.4 533.9,428.4 629.5,323.1 	"/>
	<polygon class="s3-7" points="515.4,217.9 548.5,217.9 644,323.1 548.5,428.4 515.4,428.4 611,323.1 	"/>
	<polygon class="s3-5" points="566.3,217.9 533.9,217.9 629.5,323.1 533.9,428.4 476.7,428.4 476.7,428.4 566.3,428.4 661.8,323.1 	
		"/>
	<polygon class="s3-7" points="361.9,217.9 328.8,217.9 233.2,323.1 328.8,428.4 361.9,428.4 266.3,323.1 	"/>
	<polygon class="s3-0" points="533.9,217.9 342.9,217.9 247.3,323.1 342.9,428.4 533.9,428.4 629.5,323.1 	"/>
	<polygon class="s3-5" points="342.9,217.9 309.8,217.9 214.3,323.1 309.8,428.4 342.9,428.4 247.3,323.1 	"/>
	<circle class="s3-8" cx="438" cy="323.1" r="93.2"/>
	<g>
		<circle class="s3-8" cx="438" cy="323.1" r="116.5"/>
		<circle class="s3-8" cx="438" cy="323.1" r="93.2"/>
		<path class="s3-9" d="M359.4,337.7c0-51.5,41.7-93.2,93.2-93.2c22,0,42.2,7.7,58.2,20.4c-17.1-21.3-43.3-35-72.8-35
			c-51.5,0-93.2,41.7-93.2,93.2c0,29.5,13.7,55.7,35,72.8C367.1,380,359.4,359.7,359.4,337.7z"/>
		<circle class="spaceship-engine" cx="438" cy="323.1" r="74.6"/>
	</g>
	<circle class="s3-8" cx="438" cy="323.1" r="116.5"/>
	<circle class="s3-8" cx="438" cy="323.1" r="93.2"/>
	<path class="s3-9" d="M359.4,337.7c0-51.5,41.7-93.2,93.2-93.2c22,0,42.2,7.7,58.2,20.4c-17.1-21.3-43.3-35-72.8-35
		c-51.5,0-93.2,41.7-93.2,93.2c0,29.5,13.7,55.7,35,72.8C367.1,380,359.4,359.7,359.4,337.7z"/>
	<circle class="spaceship-engine" cx="438" cy="323.1" r="74.6"/>
</g>
</g>
</svg>
