<?xml version="1.0" encoding="utf-8"?>
<!-- Generator: Adobe Illustrator 23.0.1, SVG Export Plug-In . SVG Version: 6.00 Build 0)  -->
<svg version="1.1" id="Layer_1" xmlns="http://www.w3.org/2000/svg" xmlns:xlink="http://www.w3.org/1999/xlink" x="0px" y="0px"
	 viewBox="0 0 377.2 736.1" style="enable-background:new 0 0 377.2 736.1;" xml:space="preserve">
<style type="text/css">
	.st0{fill:#FBC595;stroke:#667682;stroke-width:5;stroke-linecap:round;stroke-linejoin:round;stroke-miterlimit:10;}
	.st1{fill:#939393;}
	.st2{fill:#FDF3F5;}
	.st3{fill:#C3CED4;}
	.st4{fill:#ABB3B7;}
	.st5{fill:#8FCFF1;}
	.st6{fill:#F1F6FB;}
	.st7{fill:#EFDFE4;}
	.st8{fill:#C1DFF4;}
	.st9{fill:#FFFFFF;}
	.st10{fill:#A0CDAA;}
	.st11{fill:#B6D5BB;}
	.st12{fill:none;stroke:#667682;stroke-width:5;stroke-miterlimit:10;}
	.st13{fill:none;stroke:#667682;stroke-width:5;stroke-linecap:round;stroke-linejoin:round;stroke-miterlimit:10;}
	.st14{fill:none;}
</style>
<g>
	<path class="st0" d="M136.6,242.7c-7.7,1.8-20.3-9.8-20.3-9.8s-1.5,14.3-8.1,16.3c-8.9,2.7-15.4-6-15.4-6s-0.8,10.8-11,13.6
		c-10.7,2.9-11-11-11-11s-4.6,8-12.5,7.6c-10.5-0.4-13.6-8.2-13.6-8.2s-5.7,7.5-13.3,5.5c-7.9-2.1-9.9-12.2-9.9-12.2
		c-6.4,3.6-14.5,3.3-18-5.4c-4.4-10.8,8.2-15.4,8.2-15.4s-9.8,0.3-7.6-12.6c2-11.9,18.3-11,18.3-11s-5.8-7.5,0.7-14.6
		c10.9-11.9,21.5,2,21.5,2s0.8-13,12.9-14.9c9.8-1.5,13.4,11,13.4,11s3.5-12.1,13.7-10.9c10.2,1.2,9.7,12.3,9.7,12.3
		s7.1-3.6,15.4-2.2c7.7,1.3,5.7,14.1,5.7,14.1s8-9.6,16.1-7.4c8.1,2.2,11.9,11.4,11.9,11.4L136.6,242.7z"/>
	<g>
		<path class="st1" d="M362.8,281.4c7.8,5.3,12.4,9.3,11.8,10.3c-0.8,1.3-9.9-2.4-22.5-8.9c-0.5-3.1-3.4-4.2-6.2-4.4
			c-0.5,0-1.2-0.1-2,0c-0.6-0.3-1.3-0.7-2-1.1c0-0.7-0.1-1.3-0.2-1.8c0.7-0.2,1.4-0.7,1.9-1.3c1.9,0.7,4.9,2.1,8.3,4.4
			C357.4,282.2,361.2,283.2,362.8,281.4z"/>
		<path class="st2" d="M356.8,270.3c8.1,6.5,7.6,8.1,6.3,10.6c-0.1,0.2-0.2,0.4-0.3,0.5c-5-3.4-11.3-7.4-18.3-11.6
			c-1-2.7-5.1-4.4-9.9-5.7c-1.6-0.9-3.1-1.7-4.6-2.5c3,0.1,5.7,0.2,7.8,0.4C347.2,262.7,348.7,263.8,356.8,270.3z"/>
		<path class="st1" d="M362.8,281.4c-1.6,1.9-5.4,0.8-10.8-2.8c-3.4-2.3-6.4-3.7-8.3-4.4c0.4-0.6,0.8-1.4,0.9-2.4
			c0.1-0.7,0.1-1.4-0.2-2C351.5,274,357.8,278,362.8,281.4z"/>
		<path class="st2" d="M352.2,282.8c0.1,0.5,0.1,1.1,0.1,1.7c-0.3,3.2-3,4-7,4.1c-1-0.9-2.4-1.4-3.7-1.7c0,0-0.1,0-0.1,0
			c0.7-2.9,0.8-6,0.7-8.5c0.7,0,1.3-0.1,1.9-0.1C346.8,280,349.6,281.5,352.2,282.8z"/>
		<path class="st2" d="M345.2,288.7c1.4,1.1,2.2,2.8,1.6,5.3c-1,4.3-5.7,3.4-12.1,2.5c-0.3,0-0.5-0.1-0.8-0.1
			c-0.1-0.1-0.1-0.2-0.2-0.4c2.4-1,4.4-2.2,5.5-3.9c0.7-1,1.2-2.1,1.6-3.3C342.4,288.7,343.9,288.7,345.2,288.7z"/>
		<path class="st2" d="M346,278.5c2.8,0.2,5.7,1.3,6.2,4.4c-2.6-1.4-5.4-2.8-8.2-4.4C344.7,278.4,345.4,278.4,346,278.5z"/>
		<path class="st2" d="M344.5,269.8c0.2,0.6,0.3,1.3,0.2,2c-0.2,1-0.5,1.8-0.9,2.4c-1.3-0.5-2.1-0.7-2.1-0.7s0.1,0.8,0.2,2
			c-0.8,0.3-1.7,0.3-2.6,0.3c-1.4-0.8-2.8-1.6-4.2-2.4c-7-4-13.4-7.9-18.8-11.5c2.2-0.2,4.5-0.4,6.9-0.4c3.5,0.8,7.7,1.5,11.5,2.5
			c1.4,0.8,2.9,1.7,4.4,2.5C340.9,267.6,342.7,268.7,344.5,269.8z"/>
		<path class="st2" d="M345.2,288.7c-1.3,0.1-2.8,0-4.4,0c0.2-0.6,0.3-1.1,0.5-1.7c0.1,0,0.1,0,0.1,0
			C342.9,287.3,344.2,287.8,345.2,288.7z"/>
		<path class="st2" d="M342,278.5c0.1,2.5,0,5.6-0.7,8.5c-2-0.4-6.6-1-10.4-0.5c-0.6-0.8-0.8-1.9-0.4-3.3
			C331.5,279.7,337.6,278.7,342,278.5z"/>
		<path class="st2" d="M342,277.3c0,0.4,0,0.7,0.1,1.1c-4.4,0.2-10.5,1.3-11.5,4.7c-0.4,1.5-0.2,2.5,0.4,3.3c-2.5,0.4-4.6,1.2-5.4,3
			c-0.4,1-0.5,1.8-0.4,2.5c-3.4-0.7-7.1-0.7-8.7,1.7c-1.3,2-1,3.6,0.4,4.9c-1.7,0-3.2-0.1-4.5-0.2c-2.7-0.2-4.6-0.8-6.1-1.7
			l-48,32.7l-0.1-0.1c-19.8,8.8-29.5-3-29.5-3l-50.1-49.8l-1.3-1.3l13.7-13.7l50.2,50.2L299,278c-0.2,2.1-0.2,4.3-0.1,6.5l20.1-2.4
			c3.2-1.5,2.4-9.6,2.4-9.6s8.5,1.4,12.6,2.3c1.6,0.4,3.5,0.9,5.2,1C340.1,276.3,341.1,276.8,342,277.3z"/>
		<path class="st1" d="M341.8,275.5c0.1,0.5,0.1,1.1,0.2,1.8c-0.9-0.5-1.8-1-2.8-1.5C340.2,275.8,341,275.8,341.8,275.5z"/>
		<path class="st2" d="M343.7,274.2c-0.5,0.7-1.1,1.1-1.9,1.3c-0.1-1.2-0.2-2-0.2-2S342.4,273.7,343.7,274.2z"/>
		<path class="st2" d="M341.3,287c-0.1,0.6-0.3,1.2-0.5,1.7c-0.1,0-0.2,0-0.2,0c-4.5,0-8.2-0.4-9.7-2.2
			C334.7,286,339.3,286.6,341.3,287z"/>
		<path class="st2" d="M340.6,288.7c0.1,0,0.2,0,0.2,0c-0.4,1.2-0.9,2.3-1.6,3.3c-1.2,1.7-3.1,3-5.5,3.9c-0.7-1-1.8-1.8-3-2.3
			c-1.1-0.4-3.2-1.2-5.6-1.7c-0.1-0.7,0-1.5,0.4-2.5c0.8-1.8,2.9-2.6,5.4-3C332.4,288.4,336.1,288.7,340.6,288.7z"/>
		<path class="st2" d="M344.5,269.8c-1.8-1.1-3.6-2.1-5.5-3.2c-1.5-0.9-3-1.7-4.4-2.5C339.4,265.3,343.5,267,344.5,269.8z"/>
		<path class="st3" d="M310,39.9c23.2,23.1,37.5,55.1,37.5,90.4c0,49.3-28,92.2-68.9,113.5c-4,2.1-8.2,4-12.4,5.7
			c-0.3,0.1-0.7,0.3-1,0.4c-0.2,0.1-0.4,0.1-0.6,0.2c-2.3,0.9-5.1,1.8-7.5,2.6l-0.3,0.1c-9.1,2.7-18.5,4.5-28.3,5.2
			c-2.9,0.2-5.9,0.3-8.8,0.3c-6.6,0-13-0.5-19.4-1.4c-6.1-0.9-12-2.3-17.8-4l-14-14c7.2,1.5,14.6,2.3,21.9,2.6c1.5,0,3,0.1,4.4,0.1
			c9,0,18.1-0.9,27-2.7c24.8-5,48.5-17.1,67.7-36.4C333.6,158.3,340.4,91.1,310,39.9z"/>
		<path class="st2" d="M335,273.4c1.4,0.8,2.8,1.6,4.2,2.4c-1.7-0.1-3.6-0.6-5.2-1c-4.1-0.9-12.6-2.3-12.6-2.3s0.8,8.1-2.4,9.6
			l-20.1,2.4c-0.1-2.2-0.1-4.4,0.1-6.5l0.4-0.2c1.5-4,4.5-7.3,5.8-11.5c0.7-2.5,5.3-3.7,11.1-4.3C321.7,265.4,328.1,269.4,335,273.4
			z"/>
		<path class="st2" d="M334,296.3c0.7,1.2,0.9,2.8,0,4.8c-1.7,3.9-5.6,2.4-10.9,0.5c-2.6-0.9-4.9-1.9-6.2-3.1c5,0,11.4-0.5,16.3-2.4
			C333.5,296.2,333.7,296.3,334,296.3z"/>
		<path class="st2" d="M333.8,296c0.1,0.1,0.2,0.2,0.2,0.4c-0.3,0-0.5-0.1-0.8-0.1C333.4,296.1,333.6,296,333.8,296z"/>
		<path class="st2" d="M333.8,296c-0.2,0.1-0.4,0.2-0.6,0.2c-4.3-0.7-7.6-1.8-8-4.1c2.4,0.5,4.5,1.2,5.6,1.7
			C331.9,294.2,333,294.9,333.8,296z"/>
		<path class="st1" d="M330,261.5c1.5,0.8,3,1.7,4.6,2.5c-3.8-1-8-1.8-11.5-2.5C325.5,261.4,327.8,261.4,330,261.5z"/>
		<path class="st1" d="M330,261.5c-2.2-0.1-4.5-0.1-6.9,0c-0.1,0-0.1,0-0.2,0c-3-0.7-5.7-0.8-8.1-0.5c-9.9-6.5-16.1-11.5-15.4-12.7
			C300.3,246.7,313.3,252.4,330,261.5z"/>
		<path class="st2" d="M325.2,292c0.5,2.3,3.7,3.4,8,4.1c-4.9,1.8-11.3,2.4-16.3,2.4c-1.4-1.3-1.7-2.8-0.4-4.9
			C318,291.3,321.8,291.4,325.2,292z"/>
		<path class="st2" d="M322.9,261.5c0.1,0,0.1,0,0.2,0c-2.4,0.1-4.7,0.2-6.9,0.4c-0.5-0.3-1-0.6-1.4-0.9
			C317.2,260.7,319.9,260.8,322.9,261.5z"/>
		<path class="st4" d="M320.1,635.9c1.5,3.4,2.2,6.9,2.2,10.2c0,5.5-2,10.3-6,12.9c-1.3,0.9-2.7,1.5-4,1.8l-0.7-2.1
			c7.3-20.7-9.1-43.8-9.1-43.8l-0.4-0.9c1.8,0.3,3.7,0.4,5.5,0.4c0.7,0,1.4,0,2-0.1L320.1,635.9z"/>
		<path class="st2" d="M314.8,261c0.5,0.3,1,0.6,1.4,0.9c-5.7,0.6-10.3,1.9-11.1,4.3c-1.2,4.1-4.3,7.5-5.8,11.5L299,278
			c0.4-4.5,1.8-8.6,4.5-11.3C306.4,263.9,310.1,261.6,314.8,261z"/>
		<path class="st5" d="M313.4,416.5c0.8,4,0.4,8.2,0,12.2c-2.2,22.9-3.8,45.8-5.4,68.7c-2.2,32.4-4.8,64.7-7.2,97.1l-0.7,0l-0.7-1.4
			c-1.7-2.6-4-4.6-6.6-6c2.3-31.8,11-151.3,11-165.5c0-16.4-16.3-24.7-16.3-24.7c5.2,1,10.6,2.5,15.1,5.1
			C307.9,405.1,312,409.7,313.4,416.5z"/>
		<path class="st3" d="M311.7,658.6l0.7,2.1c-6.4,1.8-12.1-2.3-16.4-9l-25.7-40c-3.7-5.7-3.5-12.8-0.3-18.2l4.8,0.1
			c0.7,1.4,1.4,2.8,2.3,4.1c5.8,9.1,15.1,14.7,25.1,16.2l0.4,0.9C302.6,614.9,319,637.9,311.7,658.6z"/>
		<path class="st6" d="M310,39.9c30.5,51.2,23.7,118.4-20.4,162.5c-19.2,19.2-42.9,31.4-67.7,36.4c-8.9,1.8-17.9,2.7-27,2.7
			c-1.5,0-3,0-4.4-0.1c-7.4-0.3-14.7-1.1-21.9-2.6l-3.2-3.2c-0.2-0.2-0.4-0.4-0.6-0.6c-2.3-2.8-5-5.1-8-6.6c0,0-13.1-6.5-13.2-6.5
			c-5.8-2.9-5.8-3.7-10.9,0.8l-0.9,0.4c-24.6-23.3-39.9-56.3-39.9-92.8C91.8,59.7,149,2.5,219.6,2.5C254.9,2.5,286.8,16.8,310,39.9z
			 M226.3,30.6c0-3-2.5-5.5-5.5-5.5c-14.4,0-28.4,2.9-41.6,8.5c-11,4.7-21,11.2-29.8,19.3c-2.2,2-2.4,5.5-0.3,7.7
			c1.1,1.2,2.6,1.8,4,1.8c1.3,0,2.6-0.5,3.7-1.4c7.9-7.2,16.9-13.1,26.7-17.3c11.8-5.1,24.4-7.6,37.3-7.6
			C223.9,36,226.3,33.6,226.3,30.6z M129.7,104.6c0.8-2.9-0.8-5.9-3.7-6.8c-2.9-0.8-5.9,0.8-6.8,3.7c-2.7,9.5-4.1,19.3-4.1,29.3
			c0,3,2.4,5.5,5.5,5.5c3,0,5.5-2.5,5.5-5.5C126,121.9,127.3,113.1,129.7,104.6z"/>
		<path class="st7" d="M300.1,594.5l9.6,19.9c-0.7,0-1.4,0.1-2,0.1c-1.9,0-3.7-0.1-5.5-0.4l-9.9-19.2c0,0,0-0.2,0-0.6L300.1,594.5z"
			/>
		<path class="st2" d="M292.3,594.8l9.9,19.2c-9.9-1.5-19.2-7.1-25.1-16.2c-0.9-1.3-1.6-2.7-2.3-4.1l17.5,0.5
			C292.3,594.6,292.3,594.8,292.3,594.8z"/>
		<path class="st8" d="M299.4,593l0.7,1.4l-7.8-0.2c0.1-1.1,0.3-3.5,0.5-7.2C295.4,588.4,297.7,590.4,299.4,593z"/>
		<path class="st8" d="M83.4,386.4c13.5,3.1,26,2.9,33.9,1.1c9-2,18.1-6.8,25.1-17.7c7.8,1.4,15.5,2.9,23.3,4.4
			c18.5,3.5,37,6.9,55.5,10.4c22.1,4.1,44.3,8.3,66.4,12.3c0,0,16.3,8.3,16.3,24.7c0,14.2-8.7,133.7-11,165.5
			c-5.3-2.8-12-2.7-17.4,0.8c-0.8,0.5-1.6,1.1-2.3,1.8c-1.3,1.2-2.3,2.5-3.2,3.9l-0.6,0l-1.8-151.1c-0.3,0-0.6-0.1-0.9-0.1
			c-21.4-2.2-42.8-4.3-64.3-6.5c-7.8-0.8-15.7-1.6-23.5-2.3l0-0.1l-50.4-39.5c0,0-1.6,6.8-4.3,8.9l-0.5,0.6l35.1,28
			c7.3,5.4,14.7,10.8,22,16.2c18.1,13.4,36.2,26.7,54.4,40c0,0,11.4,14,5.4,28c-5.3,12.2-67.8,119.2-83.4,145.9
			c-4.4-6.8-13.3-9.8-21.1-6.6c-0.9,0.4-1.8,0.8-2.6,1.3c0,0-0.1,0.1-0.1,0.1l64.1-136.5c-0.3-0.2-0.5-0.3-0.8-0.5
			c-18.3-11.3-36.7-22.6-55-33.8c-16.1-9.9-29.6-18.2-45.7-28c-16-9.8-7.9-4.6-28.9-17.9c-4.6-2.9-19.3-12.7-26.7-20.7
			c-7.9-8.5-12.6-19.1-13.1-27c-0.6-10.4,3.4-22.2,10.1-30.9c5.9,5.9,14.3,12.1,25.5,17.8C69.7,382.5,76.6,384.9,83.4,386.4z"/>
		<path class="st8" d="M292.8,587.1c-0.3,3.6-0.4,6.1-0.5,7.2l-17.5-0.5c-0.6-1.3-1.2-2.7-1.6-4.1c0.7-0.6,1.5-1.2,2.3-1.8
			C280.9,584.4,287.5,584.3,292.8,587.1z"/>
		<path class="st8" d="M274.8,593.7l-4.8-0.1c0.8-1.4,1.9-2.8,3.2-3.9C273.7,591,274.2,592.3,274.8,593.7z"/>
		<path class="st3" d="M257,252.6c2.4-0.7,5.2-1.7,7.5-2.6c-2.3,0.9-4.7,1.7-7,2.4C257.4,252.5,257.2,252.6,257,252.6z"/>
		<path class="st7" d="M258.3,329.3l-14.3,9.8c-2.9,1.8-6.4,1.7-9.5,0.2c-1.4-0.6-2.8-1.4-3.9-2.6l-57.6-57.6l4.2-4.2l1.3,1.3
			l50.1,49.8c0,0,9.7,11.9,29.5,3L258.3,329.3z"/>
		<path class="st5" d="M246.6,499c3.4,5.1,5.2,11,3.4,17.7c-1,4-3.2,7.5-5.3,11c-11.9,19.6-23.4,39.5-34.8,59.5
			c-16.1,28.2-32.5,56.1-48.8,84.2l-0.6-0.3l-1.8-6.5c-0.4-1-0.9-2-1.5-2.9c15.6-26.7,78.1-133.7,83.4-145.9c6.1-14-5.4-28-5.4-28
			C239.5,490.9,243.7,494.6,246.6,499z"/>
		<path class="st9" d="M220.9,25.1c3,0,5.5,2.5,5.5,5.5s-2.5,5.5-5.5,5.5c-12.9,0-25.5,2.6-37.3,7.6c-9.8,4.2-18.8,10-26.7,17.3
			c-1,1-2.4,1.4-3.7,1.4c-1.5,0-3-0.6-4-1.8c-2-2.2-1.9-5.7,0.3-7.7c8.8-8.1,18.9-14.6,29.8-19.3C192.4,27.9,206.4,25.1,220.9,25.1z
			"/>
		<path class="st10" d="M191.1,261.2L177.3,275l-4.2,4.2l-1.7-1.7c0.6-2.2,1-3.7,1.2-4.5c2.1-7.8,1.7-16.4-0.6-24l0.3,0.1
			c0.6,0.3,1.3,0.5,2,0.8c0.8,0.3,1.6,0.6,2.4,0.9c1.9,0.7,3.8,1.3,5.8,1.9L191.1,261.2z"/>
		<path class="st3" d="M168.5,238.7l14,14c-1.9-0.6-3.9-1.2-5.8-1.9c-0.8-0.3-1.6-0.6-2.4-0.9c-0.6-0.2-1.2-0.5-1.8-0.7l-0.2-0.1
			c-0.1,0-0.2-0.1-0.4-0.1c-1.1-3.8-2.8-7.4-4.8-10.6C167.7,238.6,168.1,238.6,168.5,238.7z"/>
		<path class="st5" d="M178.9,433.4L178.9,433.4c-6.7-0.6-13.4-1.2-20.1-1.9l-35.1-28l0.5-0.6c2.7-2.2,4.3-8.9,4.3-8.9L178.9,433.4z
			"/>
		<path class="st3" d="M172.6,249.2c0.6,0.2,1.2,0.5,1.8,0.7c-0.7-0.2-1.3-0.5-2-0.8L172.6,249.2z"/>
		<path class="st10" d="M172,249c2.3,7.7,2.8,16.2,0.6,24c-0.2,0.7-0.6,2.3-1.2,4.5l-9.5-9.5c1.6-9.6,2.3-17.1,1.9-20.6l0.8-1.7
			c1.4,0.7,2.8,1.3,4.2,1.9c0,0,0,0,0,0c0.2,0.1,0.3,0.1,0.5,0.2c0.3,0.1,2.1,0.9,2.5,1L172,249z"/>
		<path class="st11" d="M172.4,249.2L172,249c0,0,0,0,0,0C172.2,249.1,172.3,249.1,172.4,249.2z"/>
		<path class="st11" d="M172,249C172,249,172,249,172,249l-0.1,0c-0.4-0.1-2.1-0.9-2.5-1c-0.2-0.1-0.3-0.2-0.5-0.2
			c0.1,0,0.3,0.1,0.5,0.2c0.3,0.1,0.6,0.3,1,0.5c0.1,0,0.1,0.1,0.2,0.1C171.1,248.7,171.6,248.8,172,249z"/>
		<path class="st3" d="M172,249c-0.4-0.2-0.9-0.4-1.3-0.6c-0.1,0-0.1,0-0.2-0.1c-0.4-0.2-0.8-0.3-1-0.5c-0.3-0.1-0.5-0.2-0.5-0.2
			c0,0,0,0,0,0c-1.4-0.6-2.8-1.3-4.2-1.9c-5.7-2.7-11.2-5.8-16.4-9.3l0.9-0.9c0.6-0.6,1.3-1.1,2-1.6c5.3,1.9,10.6,3.4,16.1,4.5
			C169.3,241.6,170.9,245.2,172,249z"/>
		<path class="st4" d="M171.3,710.5c0.5,2.1,0.7,4.1,0.7,6.1c0,7.2-3.1,13.6-8.6,15.9c-1.5,0.6-3,1-4.4,1.1
			c10.8-10.3-0.4-44.3-1.6-47.9c2.4,0.9,5,1.5,7.5,1.8L171.3,710.5z"/>
		<path class="st10" d="M162,268.1l9.5,9.5c-1.5,5.1-3.9,13.7-6.7,23.4c-2.4-1.1-5.1-2.1-6.9-2.8c-2.7-1.2-7.6-2.6-12.2-3.4
			c1.8-1.2,4.9-1.3,9.2-2c6.9-1.1,11.2-3,10.5-7.3c-0.2-1.3-2.7-1.9-6.3-2l0-0.2C160.2,277.8,161.2,272.7,162,268.1z"/>
		<path class="st2" d="M164.7,300.9c3.8,1.7,7.1,3.8,5.7,6.2c-1.4,2.2-4.2,2.2-7.9,1.5C163.3,306,164,303.4,164.7,300.9z"/>
		<path class="st6" d="M165.3,235.5l3.2,3.2c-0.4-0.1-0.9-0.2-1.3-0.3c-0.8-1.2-1.6-2.4-2.6-3.5
			C164.9,235.1,165.1,235.3,165.3,235.5z"/>
		<path class="st2" d="M162.3,309.5c2.5,1.4,4,3,3.3,5.4c-0.7,1.8-2.8,2-5.3,1.6C161,314.1,161.6,311.8,162.3,309.5z"/>
		<path class="st2" d="M165.4,285.4c0.7,4.3-3.6,6.2-10.5,7.3c-4.3,0.7-7.4,0.8-9.2,2c-3.6-0.6-7.1-0.9-9.3-0.4l3.9,8.5
			c-2.3-0.2-3.9-0.3-3.9-0.3l-0.7,8.2l-24.1-11c0,0-0.1,0.1-0.2,0.2c6.2-5.5,14.3-11.8,20.3-13.1c5.5-1.2,19.4-3.5,27.5-3.3
			C162.7,283.5,165.2,284.1,165.4,285.4z"/>
		<path class="st6" d="M164.7,234.9c0.9,1.1,1.8,2.3,2.6,3.5c-5.4-1.2-10.8-2.7-16.1-4.5C155.3,231.3,160.9,231.7,164.7,234.9z"/>
		<path class="st7" d="M160.5,671.1l4.5,16.4c-2.6-0.3-5.1-0.9-7.5-1.8c-0.1-0.2-0.1-0.3-0.1-0.3l-3.6-17.6c0,0,0-0.1,0.1-0.2
			L160.5,671.1z"/>
		<path class="st11" d="M164.6,245.8l-0.8,1.7c0.4,3.5-0.3,11-1.9,20.6l-14.6-14.6c-4.4-4.4-4.4-11.7,0-16.1l0.9-0.9
			C153.5,239.9,158.9,243.1,164.6,245.8z"/>
		<path class="st2" d="M164.7,300.9c-0.7,2.5-1.4,5.1-2.2,7.7c-1.3-0.3-2.7-0.6-4.1-1c-1.3-0.6-2.7-1.1-4-1.8
			c-1.6-0.7-3.5-1.3-5.6-1.8c-1.6-1.7-4.8-2.9-4.8-5.8c0-1.8,0.6-2.9,1.7-3.6c4.6,0.8,9.5,2.2,12.2,3.4
			C159.6,298.9,162.3,299.8,164.7,300.9z"/>
		<path class="st11" d="M162.5,308.6c-0.1,0.3-0.2,0.6-0.2,0.9c-1.1-0.6-2.5-1.2-3.9-1.9C159.9,308,161.3,308.4,162.5,308.6z"/>
		<path class="st11" d="M147.4,253.5l14.6,14.6c-0.8,4.6-1.7,9.7-2.9,15.2l0,0.2c-8.2-0.2-22,2.1-27.5,3.3
			c-6,1.3-14.1,7.6-20.3,13.1c0,0,0,0,0,0c-0.9,0.7-4.2,3.2-7.5,6.6l-29.5-10c5.8-8.6,11.6-17.1,17.3-25.7l14.1-6.9l-2.8-6.2
			l-7.6-17.1c-0.8,0.4-1.6,0.8-2.4,1.2c7-3.5,14-6.9,21-10.4l17.8-8.2c1.9,1.8,3.8,3.5,5.8,5.2c3.4,2.9,7.1,5.6,10.8,8.1l-0.9,0.9
			C142.9,241.8,142.9,249,147.4,253.5z"/>
		<path class="st8" d="M158.7,664.6l1.8,6.5l-6.7-3.5c0.3-0.6,1.5-2.6,3.4-5.9C157.8,662.6,158.3,663.6,158.7,664.6z"/>
		<path class="st2" d="M162.3,309.5c-0.7,2.3-1.3,4.6-2,7c-3.2-0.6-7.1-2.2-9.3-2.7c-1.7-0.4-4.4-1-7.1-1.5c2.3-1.4,4-2.7,4.7-3.7
			c0.8-1.2,1.1-2.1,1-2.9c3,0.4,6.1,1.2,8.8,2C159.8,308.2,161.2,308.8,162.3,309.5z"/>
		<path class="st11" d="M160.3,316.5c-0.4,1.5-0.8,3-1.3,4.4c-1.1-2.3-5.3-4.2-11-6.6c-1.8-0.8-3.2-1.3-4.4-1.8
			c0.1-0.1,0.2-0.1,0.4-0.2c2.7,0.5,5.4,1.1,7.1,1.5C153.2,314.3,157.1,315.9,160.3,316.5z"/>
		<path class="st3" d="M157.5,685.7c1.2,3.6,12.3,37.6,1.6,47.9c-6.5,0.5-11.4-4.6-14.4-11.8l-18-44c-3.2-7.9-0.2-16.8,6.8-21.2
			l-0.1,0.3l0.4,0.2c0.4,2.8,1.2,5.5,2.3,8.2c2.6,6.2,6.7,11.4,11.7,15.2C150.6,682.7,154,684.4,157.5,685.7z"/>
		<path class="st2" d="M159,320.9c0.6,1.1,0.4,2.3-0.7,3.7c-0.1,0.2-0.3,0.3-0.5,0.4C158.2,323.7,158.6,322.3,159,320.9z"/>
		<path class="st2" d="M159,320.9c-0.4,1.4-0.8,2.8-1.2,4.1c-1.5,1-4.9-0.1-8.7-1.5c-3.6-1.3-7.7-3-11.3-3.4c-8-1-7.6,3.9-14.6,5.4
			c-7,1.5-9.3,1.5-15.2,1c-0.2,0-3-0.3-4.5-0.6c-1.2-0.3-6.5-1.5-7.8-1.9c-12.3-3.1-23.3-5.9-34.2-8.7c0.4-0.6,0.8-1.2,1.1-1.7
			c3.8-5.7,7.7-11.4,11.5-17.1l29.5,10c3.2-3.5,6.5-5.9,7.5-6.6c-2,1.8-3.8,3.4-5.2,4.8c0,0,1,7.5,3.8,15.1
			c2.3,6.1,23.5-1.3,33.7-7.3c1.2,0.4,2.6,1,4.4,1.8C153.7,316.7,157.9,318.6,159,320.9z"/>
		<path class="st6" d="M164.7,234.9c-3.8-3.3-9.4-3.6-13.5-1c-4.6-1.6-9.2-3.5-13.7-5.7c-2-1.7-3.9-3.4-5.8-5.2l0.9-0.4
			c5.1-4.5,5.1-3.7,10.9-0.8c0,0,13.2,6.5,13.2,6.5C159.6,229.8,162.3,232.1,164.7,234.9z"/>
		<path class="st2" d="M157.4,685.4c0,0,0,0.1,0.1,0.3c-3.5-1.2-6.8-3-9.8-5.2c-5.1-3.8-9.2-8.9-11.7-15.2c-1.1-2.7-1.9-5.4-2.3-8.2
			l20.1,10.5c-0.1,0.1-0.1,0.2-0.1,0.2L157.4,685.4z"/>
		<path class="st10" d="M149.1,323.5c3.8,1.4,7.2,2.5,8.7,1.5c-4.9,16.8-9,31.2-9,31.2c-1.9,5.3-4.1,9.8-6.5,13.6
			c-3.9-0.7-7.8-1.5-11.7-2.2c6-7.4,12.5-24.2,18.1-43.2L149.1,323.5z"/>
		<path class="st2" d="M154.4,305.8c1.3,0.6,2.7,1.2,4,1.8c-2.8-0.7-5.8-1.5-8.8-2c-0.1-0.6-0.4-1.1-0.8-1.6
			C150.8,304.5,152.8,305.1,154.4,305.8z"/>
		<path class="st8" d="M157.2,661.7c-1.9,3.2-3.1,5.3-3.4,5.9L133.7,657c0-0.2-0.1-0.4-0.1-0.6c0.8-0.5,1.7-1,2.6-1.3
			C143.9,652,152.8,654.9,157.2,661.7z"/>
		<path class="st3" d="M151.2,234c-0.7,0.4-1.4,1-2,1.6l-0.9,0.9c-3.7-2.5-7.4-5.3-10.8-8.1C142,230.5,146.5,232.3,151.2,234z"/>
		<path class="st2" d="M149.6,305.7c0.1,0.8-0.2,1.7-1,2.9c-0.7,1-2.4,2.3-4.7,3.7c-0.7-0.1-1.4-0.2-2-0.4c-2.1-0.6-3.6-0.8-5.9-1.1
			l-0.3-0.1l0.7-8.2c0,0,1.6,0.1,3.9,0.3l1.4,3.1C144.1,305.2,146.9,305.3,149.6,305.7z"/>
		<path class="st11" d="M149.1,323.5l-0.3,1c-5.6,18.9-12.1,35.8-18.1,43.2c-4.3-0.8-8.7-1.6-13-2.4c-8.4-1.6-16.9-3.2-25.3-4.7
			c-0.3-0.1-0.7-0.1-1-0.2l-2.8,19.3c-1.7-1.3-3.4-2.6-5.2-3.8c-5.8-4.3-10.8-24.5-17.8-26.5c-10.9-3-21.1,2.7-28.2,12
			c-11.5-11.5-13.6-22.1-9.2-26.7c0,0,9.6,0.2,16.9-3.6c8.1-4.2,13-10.4,16.5-15.6c10.9,2.8,21.9,5.6,34.2,8.7
			c1.2,0.4,6.6,1.6,7.8,1.9c1.5,0.3,4.3,0.6,4.5,0.6c5.9,0.5,8.2,0.5,15.2-1c7-1.5,6.6-6.4,14.6-5.4
			C141.4,320.5,145.5,322.2,149.1,323.5z"/>
		<path class="st2" d="M148.8,304.1c0.4,0.5,0.7,1,0.8,1.6c-2.7-0.4-5.4-0.4-8,0.1l-1.4-3.1C142.6,303,145.8,303.4,148.8,304.1z"/>
		<path class="st2" d="M145.7,294.7c-1.1,0.7-1.6,1.8-1.7,3.6c-0.1,2.9,3.2,4.1,4.8,5.8c-3-0.7-6.2-1.1-8.6-1.3l-3.9-8.5
			C138.5,293.8,142,294.1,145.7,294.7z"/>
		<path class="st2" d="M143.9,312.3c-0.1,0.1-0.2,0.1-0.4,0.2c-0.6-0.2-1.2-0.4-1.7-0.6C142.5,312,143.2,312.1,143.9,312.3z"/>
		<path class="st10" d="M130.7,367.6c3.9,0.7,7.8,1.5,11.7,2.2c-7,10.9-16.1,15.7-25.1,17.7c-7.9,1.8-20.3,2-33.9-1.1
			c5.7-0.2,32.6-2,46.8-18.2C130.3,368,130.5,367.8,130.7,367.6z"/>
		<path class="st2" d="M141.9,311.9c0.5,0.2,1.1,0.3,1.7,0.6c-10.2,6-31.4,13.4-33.7,7.3c-2.8-7.6-3.8-15.1-3.8-15.1
			c1.5-1.4,3.2-3.1,5.2-4.8c0,0,0,0,0,0c0.2-0.1,0.2-0.2,0.2-0.2l24.1,11l-0.1,0.7C136.5,311.1,139,311.4,141.9,311.9z"/>
		<path class="st2" d="M135.9,310.8c2.3,0.3,3.8,0.5,5.9,1.1c-2.9-0.5-5.4-0.8-6.3-0.6l0.1-0.7L135.9,310.8z"/>
		<path class="st8" d="M133.6,656.5c0,0.2,0.1,0.4,0.1,0.6l-0.4-0.2l0.1-0.3C133.5,656.5,133.5,656.5,133.6,656.5z"/>
		<path class="st11" d="M130.7,367.6c-0.2,0.2-0.3,0.4-0.5,0.6c-14.2,16.2-41.1,18-46.8,18.2c-6.7-1.6-13.7-4-20.5-7.4
			c-11.2-5.7-19.6-11.9-25.5-17.8c7.1-9.2,17.3-15,28.2-12c7,1.9,12,22.2,17.8,26.5c1.7,1.3,3.5,2.6,5.2,3.8l2.8-19.3
			c0.3,0.1,0.7,0.1,1,0.2c8.4,1.6,16.9,3.2,25.3,4.7C122,366,126.3,366.8,130.7,367.6z"/>
		<path class="st9" d="M126,97.9c2.9,0.8,4.6,3.9,3.7,6.8c-2.4,8.5-3.7,17.3-3.7,26.2c0,3-2.5,5.5-5.5,5.5c-3,0-5.5-2.5-5.5-5.5
			c0-9.9,1.4-19.8,4.1-29.3C120,98.7,123,97,126,97.9z"/>
		<path class="st7" d="M102.9,257.7l2.8,6.2l-14.1,6.9c2.6-3.9,5.3-7.8,7.9-11.7c2-0.8,3.2-1.3,3.2-1.3L102.9,257.7z"/>
		<path class="st2" d="M102.9,257.7l-0.2,0.1c0,0-1.2,0.5-3.2,1.3c0-0.1,0.1-0.1,0.1-0.2l-6.9-17.1c0.1,0,0.1-0.1,0.2-0.1
			c0.8-0.4,1.6-0.8,2.4-1.2L102.9,257.7z"/>
		<path class="st2" d="M92.7,241.8l6.9,17.1c0,0.1-0.1,0.1-0.1,0.2c-11.7,4.9-51,22.3-45.9,30.3l20.7,7c-3.8,5.7-7.7,11.4-11.5,17.1
			c-0.4,0.6-0.7,1.1-1.1,1.7c-12.3-3.2-24.5-6.3-38.4-9.7c-3.2-0.8-6.6-1.6-9.3-3.5c-5.3-3.5-7.6-11.1-4.5-16.7
			c2.3-4.2,7-6.5,11.3-8.6C44.7,265.3,68.7,253.6,92.7,241.8z"/>
		<path class="st7" d="M99.5,259.1c-2.6,3.9-5.3,7.8-7.9,11.7l-38,18.7C48.5,281.4,87.8,264,99.5,259.1z"/>
	</g>
	<path class="st12" d="M133.4,656.6c-6.9,4.4-10,13.3-6.8,21.2l18,44c3,7.3,7.8,12.3,14.4,11.8c1.4-0.1,2.9-0.4,4.4-1.1
		c5.5-2.2,8.6-8.6,8.6-15.9c0-2-0.2-4.1-0.7-6.1l-6.3-23"/>
	<path class="st13" d="M133.7,657c0.4,2.8,1.2,5.5,2.3,8.2c2.6,6.2,6.7,11.4,11.7,15.2c3,2.2,6.3,4,9.8,5.2c2.4,0.9,5,1.5,7.5,1.8
		l-4.5-16.4"/>
	<path class="st12" d="M270,593.5c-3.3,5.5-3.4,12.5,0.3,18.2l25.7,40c4.3,6.7,10,10.8,16.4,9c1.3-0.4,2.6-1,4-1.8
		c4-2.5,6-7.4,6-12.9c0-3.3-0.7-6.8-2.2-10.2l-10.4-21.5"/>
	<path class="st13" d="M274.8,593.7c0.7,1.4,1.4,2.8,2.3,4.1c5.8,9.1,15.1,14.7,25.1,16.2c1.8,0.3,3.7,0.4,5.5,0.4
		c0.7,0,1.4,0,2-0.1l-9.6-19.9"/>
	<path class="st13" d="M37.4,361.2c-6.7,8.7-10.7,20.5-10.1,30.9c0.5,8,5.2,18.5,13.1,27c7.4,8,22.2,17.8,26.7,20.7
		c21,13.4,12.8,8.1,28.9,17.9c16.1,9.9,29.6,18.2,45.7,28c18.4,11.3,36.7,22.5,55,33.8c0.3,0.2,0.5,0.3,0.8,0.5l-64.1,136.5
		l-0.1,0.3l0.4,0.2l20.1,10.5l6.7,3.5l0.6,0.3c16.3-28.1,32.7-56.1,48.8-84.2c11.4-19.9,22.8-39.9,34.8-59.5c2.1-3.5,4.3-7,5.3-11
		c1.7-6.8,0-12.7-3.4-17.7c-2.9-4.3-7.1-8-11.3-11.2c-18.1-13.3-36.3-26.7-54.4-40c-7.3-5.4-14.7-10.8-22-16.2
		c6.7,0.7,13.4,1.3,20.1,2c7.8,0.8,15.7,1.6,23.5,2.3c21.4,2.1,42.8,4.3,64.3,6.5c0.3,0,0.6,0.1,0.9,0.1l1.8,151.1l0.6,0l4.8,0.1
		l17.5,0.5l7.8,0.2l0.7,0c2.4-32.4,5-64.7,7.2-97.1c1.5-22.9,3.2-45.8,5.4-68.7c0.4-4.1,0.8-8.2,0-12.2c-1.4-6.8-5.5-11.4-10.8-14.5
		c-4.5-2.6-9.9-4.2-15.1-5.1c-22.1-4.1-44.3-8.2-66.4-12.3c-18.5-3.5-37-6.9-55.5-10.4c-7.8-1.5-15.5-2.9-23.3-4.4"/>
	<polyline class="st13" points="158.9,431.5 123.7,403.5 123.6,403.4 	"/>
	<path class="st14" d="M124.2,402.9c2.7-2.2,4.3-8.9,4.3-8.9l50.4,39.5"/>
	<path class="st13" d="M342,278.5c0-0.4,0-0.8-0.1-1.1"/>
	<path class="st13" d="M173.1,279.2l57.6,57.6c1.1,1.1,2.5,2,3.9,2.6c3.1,1.5,6.6,1.6,9.5-0.2l14.3-9.8l48-32.7
		c1.5,0.9,3.5,1.5,6.1,1.7c1.2,0.1,2.8,0.2,4.5,0.2"/>
	<polyline class="st13" points="299,278 241.2,311.4 191.1,261.2 	"/>
	<path class="st13" d="M362.8,281.4c0.1-0.2,0.2-0.3,0.3-0.5c1.3-2.5,1.8-4.1-6.3-10.6c-8.1-6.5-9.6-7.6-19-8.4
		c-2.1-0.2-4.8-0.3-7.8-0.4"/>
	<polyline class="st13" points="171.4,277.5 173.1,279.2 177.3,275 191.1,261.2 182.5,252.7 	"/>
	<path class="st13" d="M92.9,241.7c7-3.5,14-6.9,21-10.4l17.8-8.2"/>
	<path class="st13" d="M74.3,296.4c5.8-8.6,11.6-17.1,17.3-25.7"/>
	<path class="st13" d="M157.8,325c-4.9,16.8-9,31.2-9,31.2c-1.9,5.3-4.1,9.8-6.5,13.6c-7,10.9-16.1,15.7-25.1,17.7
		c-7.9,1.8-20.3,2-33.9-1.1c-6.7-1.6-13.7-4-20.5-7.4c-11.2-5.7-19.6-11.9-25.5-17.8c-11.5-11.5-13.6-22.1-9.2-26.7
		c0,0,9.6,0.2,16.9-3.6c8.1-4.2,13-10.4,16.5-15.6"/>
	<path class="st13" d="M160.3,316.5c-0.4,1.5-0.8,3-1.3,4.4"/>
	<path class="st13" d="M162.5,308.6c-0.1,0.3-0.2,0.6-0.2,0.9"/>
	<path class="st13" d="M172,249C172,249,172,249,172,249c2.3,7.7,2.8,16.3,0.7,24.1c-0.2,0.7-0.6,2.3-1.2,4.5
		c-1.5,5.1-3.9,13.7-6.7,23.4"/>
	<path class="st12" d="M334.6,264c-1.6-0.9-3.1-1.7-4.6-2.5c-16.7-9.1-29.7-14.8-30.6-13.2c-0.7,1.2,5.5,6.2,15.4,12.7"/>
	<path class="st12" d="M352.2,282.8c12.6,6.5,21.7,10.2,22.5,8.9c0.6-1-4-5-11.8-10.3c-5-3.4-11.3-7.4-18.3-11.6"/>
	<path class="st12" d="M339.2,275.8c0.9,0.5,1.9,1,2.8,1.5c0.7,0.4,1.3,0.7,2,1.1"/>
	<path class="st13" d="M298.9,284.5c-0.1-2.2-0.1-4.4,0.1-6.5c0.4-4.5,1.8-8.6,4.5-11.3c2.9-2.8,6.6-5.1,11.3-5.7
		c2.4-0.3,5.1-0.2,8.1,0.5c0.1,0,0.1,0,0.2,0c3.5,0.8,7.7,1.5,11.5,2.5c4.8,1.3,8.9,3,9.9,5.7c0.2,0.6,0.3,1.3,0.2,2
		c-0.2,1-0.5,1.8-0.9,2.4c-0.5,0.7-1.1,1.1-1.9,1.3c-0.8,0.3-1.7,0.3-2.6,0.3c-1.7-0.1-3.6-0.6-5.2-1c-4.1-0.9-12.6-2.3-12.6-2.3
		s0.8,8.1-2.4,9.6"/>
	<path class="st13" d="M325.2,292c-3.4-0.7-7.1-0.7-8.7,1.7c-1.3,2-1,3.6,0.4,4.9c1.3,1.2,3.6,2.2,6.2,3.1c5.4,1.8,9.2,3.4,10.9-0.5
		c0.8-2,0.7-3.5,0-4.8"/>
	<path class="st13" d="M331,286.5c-2.5,0.4-4.6,1.2-5.4,3c-0.4,1-0.5,1.8-0.4,2.5c0.5,2.3,3.7,3.4,8,4.1c0.3,0,0.5,0.1,0.8,0.1
		c0.3,0,0.5,0.1,0.8,0.1c6.4,0.9,11.1,1.8,12.1-2.5c0.6-2.5-0.2-4.1-1.6-5.3"/>
	<path class="st13" d="M143.9,312.3c-0.1,0.1-0.2,0.1-0.4,0.2"/>
	<path class="st13" d="M111.3,299.8c6.2-5.5,14.3-11.8,20.3-13.1c5.5-1.2,19.4-3.5,27.5-3.3c3.6,0.1,6.1,0.6,6.3,2
		c0.7,4.3-3.6,6.2-10.5,7.3c-4.3,0.7-7.4,0.8-9.2,2"/>
	<path class="st13" d="M136.3,294.3c2.2-0.4,5.7-0.2,9.3,0.4c4.6,0.8,9.5,2.2,12.2,3.4c1.8,0.8,4.5,1.7,6.9,2.8
		c3.8,1.7,7.1,3.8,5.7,6.2c-1.4,2.2-4.2,2.2-7.9,1.5c-1.3-0.3-2.7-0.6-4.1-1"/>
	<path class="st13" d="M136.3,302.5c0,0,1.6,0.1,3.9,0.3c2.4,0.2,5.6,0.7,8.6,1.3c2.1,0.5,4,1,5.6,1.8c1.3,0.6,2.7,1.2,4,1.8
		c1.4,0.6,2.7,1.2,3.9,1.9c2.5,1.4,4,3,3.3,5.4c-0.7,1.8-2.8,2-5.3,1.6c-3.2-0.6-7.1-2.2-9.3-2.7c-1.7-0.4-4.4-1-7.1-1.5
		c-0.7-0.1-1.4-0.2-2-0.4"/>
	<path class="st13" d="M111.5,299.6c0,0-0.1,0.1-0.2,0.2c0,0,0,0,0,0c-0.9,0.7-4.2,3.2-7.5,6.6l-29.5-10l-20.7-7l38-18.7l14.1-6.9
		l-2.8-6.2l-7.6-17.1c-0.8,0.4-1.6,0.8-2.4,1.2c-0.1,0-0.1,0.1-0.2,0.1c-24,11.8-47.9,23.5-72.1,34.9c-4.4,2.1-9,4.4-11.3,8.6
		c-3,5.5-0.7,13.1,4.5,16.7c2.8,1.9,6.1,2.7,9.3,3.5c13.9,3.5,26.1,6.6,38.4,9.7c10.9,2.8,21.9,5.6,34.2,8.7
		c1.2,0.4,6.6,1.6,7.8,1.9c1.5,0.3,4.3,0.6,4.5,0.6c5.9,0.5,8.2,0.5,15.2-1c7-1.5,6.6-6.4,14.6-5.4c3.5,0.5,7.6,2.1,11.3,3.4
		c3.8,1.4,7.2,2.5,8.7,1.5c0.2-0.1,0.3-0.3,0.5-0.4c1.1-1.4,1.3-2.6,0.7-3.7c-1.1-2.3-5.3-4.2-11-6.6c-1.8-0.8-3.2-1.3-4.4-1.8
		c-0.6-0.2-1.2-0.4-1.7-0.6c-2.1-0.6-3.6-0.8-5.9-1.1"/>
	<path class="st13" d="M352.2,282.8c-0.5-3.1-3.4-4.2-6.2-4.4c-0.5,0-1.2-0.1-2,0c-0.6,0-1.2,0-1.9,0.1c-4.4,0.2-10.5,1.3-11.5,4.7
		c-0.4,1.5-0.2,2.5,0.4,3.3c1.4,1.8,5.2,2.2,9.7,2.2c0.1,0,0.2,0,0.2,0c1.6,0,3,0,4.4,0c4-0.2,6.7-0.9,7-4.1
		C352.3,283.9,352.3,283.3,352.2,282.8z"/>
	<path class="st12" d="M310,39.9c-23.1-23.1-55.1-37.4-90.3-37.4C149,2.5,91.8,59.7,91.8,130.3c0,36.5,15.3,69.5,39.9,92.8
		c1.9,1.8,3.8,3.5,5.8,5.2c3.4,2.9,7.1,5.6,10.8,8.1c5.2,3.5,10.7,6.6,16.4,9.3c1.4,0.7,2.8,1.3,4.2,1.9c0,0,0,0,0,0
		c0.2,0.1,0.3,0.1,0.5,0.2c0.3,0.1,2.1,0.9,2.5,1l0.1,0l0.3,0.1l0.2,0.1c0.6,0.2,1.2,0.5,1.8,0.7c0.8,0.3,1.6,0.6,2.4,0.9
		c1.9,0.7,3.8,1.3,5.8,1.9c5.8,1.8,11.7,3.1,17.8,4c6.3,1,12.8,1.4,19.4,1.4c3,0,5.9-0.1,8.8-0.3c9.8-0.7,19.3-2.4,28.3-5.2l0.3-0.1
		c2.4-0.7,5.2-1.7,7.5-2.6c0.2-0.1,0.4-0.2,0.6-0.2c0.3-0.1,0.7-0.3,1-0.4c4.3-1.7,8.4-3.5,12.4-5.7c40.9-21.3,68.9-64.1,68.9-113.5
		C347.5,95,333.1,63,310,39.9z"/>
	<path class="st14" d="M102.6,257.8c0,0-1.2,0.5-3.2,1.3c-11.7,4.9-51,22.3-45.9,30.3"/>
	<path class="st14" d="M178.6,276.3l50.1,49.8c0,0,9.7,11.9,29.5,3"/>
	<path class="st14" d="M148.8,324.5c-5.6,18.9-12.1,35.8-18.1,43.2c-0.2,0.2-0.3,0.4-0.5,0.6c-14.2,16.2-41.1,18-46.8,18.2
		c-0.7,0-1.1,0-1.1,0"/>
	<path class="st14" d="M163.9,247.4c0.4,3.5-0.3,11-1.9,20.6c-0.8,4.6-1.7,9.7-2.9,15.2"/>
	<path class="st14" d="M235.3,487.8c0,0,11.4,14,5.4,28c-5.3,12.2-67.8,119.2-83.4,145.9c-1.9,3.2-3.1,5.3-3.4,5.9
		c-0.1,0.1-0.1,0.2-0.1,0.2l3.6,17.6c0,0,0,0.1,0.1,0.3c1.2,3.6,12.3,37.6,1.6,47.9c-0.1,0.2-0.3,0.3-0.5,0.4"/>
	<path class="st14" d="M287.6,396.9c0,0,16.3,8.3,16.3,24.7c0,14.2-8.7,133.7-11,165.5c-0.3,3.6-0.4,6.1-0.5,7.2c0,0.4,0,0.6,0,0.6
		l9.9,19.2l0.4,0.9c0,0,16.4,23.1,9.1,43.8"/>
	<path class="st13" d="M123.6,402.6c3.2-1.4,6.3-7.6,6.3-7.6"/>
</g>
</svg>
