<?xml version="1.0" encoding="utf-8"?>
<!-- Generator: Adobe Illustrator 23.0.1, SVG Export Plug-In . SVG Version: 6.00 Build 0)  -->
<svg version="1.1" id="Layer_1" xmlns="http://www.w3.org/2000/svg" xmlns:xlink="http://www.w3.org/1999/xlink" x="0px" y="0px"
	 viewBox="0 0 966.5 1647.99" style="enable-background:new 0 0 966.5 1647.99;" xml:space="preserve">
<style type="text/css">
	.ufo2-0{opacity:0.9;fill:#FFFDAB;}
	.ufo2-1{fill:#C1DFF4;}
	.ufo2-2{fill:#FACBC8;}
	.ufo2-3{fill:none;stroke:#667682;stroke-width:5;stroke-miterlimit:10;}
	.ufo2-4{fill:none;stroke:#667682;stroke-width:5;stroke-linecap:round;stroke-miterlimit:10;}
	.ufo2-5{fill:none;stroke:#FCFCFC;stroke-width:5;stroke-linecap:round;stroke-miterlimit:10;}
	.ufo2-6{fill:#8FCFF1;stroke:#667682;stroke-width:5;stroke-linecap:round;stroke-linejoin:round;stroke-miterlimit:10;}
	.ufo2-7{fill:#71BFF4;}
	.ufo2-8{fill:none;stroke:#667682;stroke-width:5;stroke-linecap:round;stroke-linejoin:round;stroke-miterlimit:10;}
	.ufo2-9{fill:#C1DFF4;stroke:#667682;stroke-width:5;stroke-miterlimit:10;}
	.ufo2-10{fill:#C1DFF4;stroke:#FFFFFF;stroke-width:5;stroke-linecap:round;stroke-linejoin:round;stroke-miterlimit:10;}
	.ufo2-11{fill:#F9B4B2;}
	.ufo2-12{fill:none;stroke:#FCFCFC;stroke-width:5;stroke-linecap:round;stroke-linejoin:round;stroke-miterlimit:10;}
	.ufo2-13{fill:#B6D5BB;stroke:#667682;stroke-width:5;stroke-miterlimit:10;}
	.ufo2-14{fill:#97C69F;}
	.ufo2-15{fill:#667682;}
	.ufo2-16{fill:#CCB9DA;stroke:#667682;stroke-width:5;stroke-linecap:round;stroke-linejoin:round;stroke-miterlimit:10;}
	.ufo2-17{fill:#AA95C1;}
	.ufo2-18{fill:#AA95C1;stroke:#667682;stroke-width:5;stroke-linecap:round;stroke-linejoin:round;stroke-miterlimit:10;}
	.ufo2-19{fill:#CCB9DA;}
	.ufo2-20{fill:#FBC595;stroke:#667682;stroke-width:5;stroke-linecap:round;stroke-linejoin:round;stroke-miterlimit:10;}
	.ufo2-21{fill:#EAA97D;}
	.ufo2-22{fill:#FFDAA4;}
	.ufo2-23{clip-path:url(#SVGID_2_ufo2);}
	.ufo2-24{fill:#FFFFFF;stroke:#667682;stroke-width:5;stroke-linecap:round;stroke-linejoin:round;stroke-miterlimit:10;}
</style>
<g class="ufo2-beam">
<path class="ufo2-0" d="M709.55,445.54c0-13.53-5.12-20.47-9.64-26.58c-4.5-6.09-8.38-11.35-8.38-22.21c0-10.86,3.88-16.12,8.38-22.21
	c4.52-6.12,9.64-13.05,9.64-26.58c0-13.53-5.12-20.47-9.64-26.58c-4.5-6.09-8.38-11.35-8.38-22.21c0-10.86,3.88-16.12,8.38-22.21
	c3.79-5.13,7.99-10.85,9.25-20.54H602.97h-46.64h-52.26h-53.93h-52.26h-46.64H245.05c1.44,8.99,5.46,14.44,9.09,19.37
	c4.5,6.09,8.38,11.35,8.38,22.21c0,10.86-3.88,16.12-8.38,22.21c-4.52,6.12-9.64,13.05-9.64,26.58c0,13.53,5.12,20.47,9.64,26.58
	c4.5,6.09,8.38,11.35,8.38,22.21c0,10.86-3.88,16.12-8.38,22.21c-4.52,6.12-9.64,13.05-9.64,26.58c0,13.53,5.12,20.47,9.64,26.58
	c4.5,6.09,8.38,11.35,8.38,22.21c0,10.86-3.88,16.12-8.38,22.21c-4.52,6.12-9.64,13.05-9.64,26.58c0,13.53,5.12,20.47,9.64,26.58
	c4.5,6.09,8.38,11.35,8.38,22.21s-3.88,16.12-8.38,22.21c-4.52,6.12-9.64,13.05-9.64,26.58c0,13.53,5.12,20.47,9.64,26.58
	c4.5,6.09,8.38,11.34,8.38,22.21s-3.88,16.12-8.38,22.21c-4.52,6.12-9.64,13.05-9.64,26.58c0,13.53,5.12,20.47,9.64,26.58
	c4.5,6.09,8.38,11.35,8.38,22.21c0,10.86-3.88,16.12-8.38,22.21c-4.52,6.12-9.64,13.05-9.64,26.58c0,13.53,5.12,20.47,9.64,26.59
	c4.5,6.09,8.38,11.35,8.38,22.21c0,10.86-3.88,16.12-8.38,22.21c-4.52,6.12-9.64,13.05-9.64,26.58c0,13.53,5.12,20.47,9.64,26.59
	c4.5,6.09,8.38,11.35,8.38,22.21s-3.88,16.12-8.38,22.21c-4.52,6.12-9.64,13.05-9.64,26.58c0,13.53,5.12,20.47,9.64,26.58
	c4.5,6.09,8.38,11.35,8.38,22.21c0,10.86-3.88,16.12-8.38,22.21c-4.52,6.12-9.64,13.05-9.64,26.58c0,13.54,5.12,20.47,9.64,26.59
	c4.5,6.09,8.38,11.35,8.38,22.21s-3.88,16.12-8.38,22.21c-4.52,6.12-9.64,13.05-9.64,26.59c0,13.53,5.12,20.47,9.64,26.59
	c4.5,6.09,8.38,11.35,8.38,22.21c0,10.86-3.88,16.12-8.38,22.21c-4.52,6.12-9.64,13.05-9.64,26.58c0,13.53,5.12,20.47,9.64,26.59
	c4.5,6.09,8.38,11.35,8.38,22.21c0,10.86-3.88,16.12-8.38,22.21c-4.52,6.12-9.64,13.05-9.64,26.59c0,13.54,5.12,20.47,9.64,26.59
	c4.5,6.09,8.38,11.35,8.38,22.21c0,10.86-3.88,16.12-8.38,22.21c-4.52,6.12-9.64,13.05-9.64,26.59c0,13.54,5.12,20.47,9.64,26.59
	c4.5,6.09,8.38,11.35,8.38,22.21c0,10.86-3.88,16.12-8.38,22.21c-4.52,6.12-9.64,13.05-9.64,26.59c0,0.03,0,0.05,0,0.08h106.19
	h47.55h51.35h54.84h51.35h47.55h106.19c-0.27-12.82-5.22-19.56-9.62-25.51c-4.5-6.09-8.38-11.35-8.38-22.21
	c0-10.86,3.88-16.12,8.38-22.21c4.52-6.12,9.64-13.05,9.64-26.59c0-13.54-5.12-20.47-9.64-26.59c-4.5-6.09-8.38-11.35-8.38-22.21
	c0-10.86,3.88-16.12,8.38-22.21c4.52-6.12,9.64-13.05,9.64-26.59c0-13.53-5.12-20.47-9.64-26.59c-4.5-6.09-8.38-11.35-8.38-22.21
	c0-10.86,3.88-16.12,8.38-22.21c4.52-6.12,9.64-13.05,9.64-26.58c0-13.53-5.12-20.47-9.64-26.59c-4.5-6.09-8.38-11.35-8.38-22.21
	c0-10.86,3.88-16.12,8.38-22.21c4.52-6.12,9.64-13.05,9.64-26.59c0-13.54-5.12-20.47-9.64-26.59c-4.5-6.09-8.38-11.35-8.38-22.21
	c0-10.86,3.88-16.12,8.38-22.21c4.52-6.12,9.64-13.05,9.64-26.58c0-13.53-5.12-20.47-9.64-26.58c-4.5-6.09-8.38-11.35-8.38-22.21
	c0-10.86,3.88-16.12,8.38-22.21c4.52-6.12,9.64-13.05,9.64-26.58c0-13.53-5.12-20.47-9.64-26.58c-4.5-6.09-8.38-11.35-8.38-22.21
	c0-10.86,3.88-16.12,8.38-22.21c4.52-6.12,9.64-13.05,9.64-26.58c0-13.53-5.12-20.47-9.64-26.59c-4.5-6.09-8.38-11.35-8.38-22.21
	c0-10.86,3.88-16.12,8.38-22.21c4.52-6.12,9.64-13.05,9.64-26.58c0-13.53-5.12-20.47-9.64-26.58c-4.5-6.09-8.38-11.34-8.38-22.21
	c0-10.86,3.88-16.12,8.38-22.2c4.52-6.12,9.64-13.05,9.64-26.58c0-13.53-5.12-20.47-9.64-26.58c-4.5-6.09-8.38-11.34-8.38-22.2
	c0-10.86,3.88-16.12,8.38-22.21c4.52-6.12,9.64-13.05,9.64-26.58c0-13.53-5.12-20.47-9.64-26.58c-4.5-6.09-8.38-11.35-8.38-22.21
	c0-10.86,3.88-16.12,8.38-22.21c4.52-6.12,9.64-13.05,9.64-26.58c0-13.53-5.12-20.47-9.64-26.58c-4.5-6.09-8.38-11.35-8.38-22.21
	c0-10.86,3.88-16.12,8.38-22.21C704.43,466.01,709.55,459.08,709.55,445.54z"/>
</g>
<g class="ufo-trashes">
<g class="ufo2-trash1">
	<path class="ufo2-1" d="M465.19,202.72c20.15-20.15,52.82-20.15,72.97,0l-85.69,85.69l-10.2,10.2l-2.75,2.75l-8.78,8.78
		c-10.08-10.08-15.11-23.28-15.11-36.49c0.01-13.21,5.04-26.41,15.12-36.49L465.19,202.72z"/>
	<path class="ufo2-2" d="M533.83,257.6l10.55,10.55c-1.79,2.65-3.87,5.18-6.22,7.53l-2.91,2.91l-31.53,31.53
		c-2.35,2.35-4.88,4.43-7.53,6.22l-10.55-10.55L533.83,257.6z"/>
	<path class="ufo2-2" d="M538.16,202.72c10.08,10.08,15.11,23.28,15.12,36.49c-0.01,10.13-2.96,20.25-8.9,28.95l-10.55-10.55
		l-48.2,48.2l10.55,10.55c-20.08,13.66-47.65,11.58-65.45-6.22l8.78-8.78l2.75-2.75l10.2-10.2L538.16,202.72z"/>
	<path class="ufo2-3" d="M430.74,310.14c-10.08-10.08-15.11-23.28-15.11-36.49c0.01-13.21,5.04-26.41,15.12-36.49l34.44-34.44
		c20.15-20.15,52.82-20.15,72.97,0"/>
	<path class="ufo2-4" d="M452.48,288.4l85.69-85.69c10.08,10.08,15.11,23.28,15.12,36.49c-0.01,10.13-2.96,20.25-8.9,28.95
		c-1.79,2.65-3.87,5.18-6.22,7.53l-2.91,2.91l-31.53,31.53c-2.35,2.35-4.88,4.43-7.53,6.22c-20.08,13.66-47.65,11.58-65.45-6.22
		l8.78-8.78l2.75-2.75"/>
	<path class="ufo2-5" d="M488.63,201.08c5.95-1.69,12.27-2.48,18.8-2.21"/>
</g>
<g class="ufo2-trash5">
	<path class="ufo2-1" d="M494.41,1213.63c24.77,14.1,56.27,5.45,70.37-19.32l-105.32-59.94l-12.54-7.14l-3.38-1.92l-10.8-6.14
		c-7.05,12.38-8.41,26.45-4.91,39.19c3.5,12.74,11.86,24.13,24.24,31.18L494.41,1213.63z"/>
	<path class="ufo2-2" d="M546.07,1142.53l7.38-12.97c-2.43-2.09-5.1-3.97-8-5.62l-3.58-2.04l-38.75-22.05
		c-2.89-1.65-5.88-2.98-8.91-4.01l-7.38,12.97L546.07,1142.53z"/>
	<path class="ufo2-2" d="M564.78,1194.31c7.05-12.38,8.41-26.45,4.92-39.19c-2.69-9.77-8.22-18.74-16.25-25.56l-7.38,12.97
		l-59.24-33.71l7.38-12.97c-22.97-7.85-49.01,1.45-61.46,23.33l10.8,6.14l3.38,1.92l12.54,7.14L564.78,1194.31z"/>
	<path class="ufo2-3" d="M432.75,1119.16c-7.05,12.38-8.41,26.45-4.91,39.19c3.5,12.74,11.86,24.13,24.24,31.18l42.33,24.09
		c24.77,14.1,56.27,5.45,70.37-19.32"/>
	<path class="ufo2-4" d="M459.46,1134.37l105.32,59.94c7.05-12.38,8.41-26.45,4.92-39.19c-2.69-9.77-8.22-18.74-16.25-25.56
		c-2.43-2.09-5.1-3.97-8-5.62l-3.58-2.04l-38.75-22.05c-2.89-1.65-5.88-2.98-8.91-4.01c-22.97-7.85-49.01,1.45-61.46,23.33
		l10.8,6.14l3.38,1.92"/>
	<path class="ufo2-5" d="M517.45,1209c6.19,0.06,12.49-0.86,18.71-2.85"/>
</g>
<g class="ufo2-trash2">
	
		<rect x="410.07" y="418.4" transform="matrix(0.9189 0.3944 -0.3944 0.9189 231.9035 -137.6091)" class="ufo2-6" width="81.23" height="153.8"/>
	
		<rect x="471.78" y="431.08" transform="matrix(0.9189 0.3944 -0.3944 0.9189 239.302 -148.236)" class="ufo2-7" width="16.91" height="153.8"/>
	
		<rect x="410.07" y="418.4" transform="matrix(0.9189 0.3944 -0.3944 0.9189 231.9035 -137.6091)" class="ufo2-8" width="81.23" height="153.8"/>
	<line class="ufo2-4" x1="484.52" y1="476.56" x2="486.99" y2="470.82"/>
	<line class="ufo2-4" x1="468.92" y1="512.9" x2="478.03" y2="491.67"/>
</g>
<g class="ufo2-trash4">
	<path class="ufo2-9" d="M463.44,890.79c-46.1,17.37-69.39,68.82-52.02,114.92l166.94-62.89C560.99,896.71,509.54,873.42,463.44,890.79
		z"/>
	<path class="ufo2-10" d="M470.4,906.22c12.49-4.71,25.52-5.37,37.64-2.63"/>
</g>
<g class="ufo2-trash3">
	<g>
		<polygon class="ufo2-2" points="567.27,756.13 468.22,797.66 445.04,737.88 544.09,696.35 		"/>
		<polygon class="ufo2-11" points="567.27,756.13 546.65,764.78 523.46,705 544.09,696.35 		"/>
		<polygon class="ufo2-8" points="567.27,756.13 468.22,797.66 445.04,737.88 544.09,696.35 		"/>
		<path class="ufo2-4" d="M529.51,720.58"/>
		<line class="ufo2-4" x1="535.7" y1="736.04" x2="529.82" y2="721.4"/>
	</g>
	<g>
		<path class="ufo2-1" d="M444.84,737.83c-11.94-28.24,0.59-60.52,27.99-72.11c27.39-11.58,59.27,1.93,71.21,30.17l-52.74,22.3
			L444.84,737.83z"/>
		<path class="ufo2-8" d="M544.04,695.9c-11.94-28.24-43.82-41.75-71.21-30.17c-27.4,11.58-39.93,43.87-27.99,72.11l46.46-19.64
			L544.04,695.9z"/>
		<path class="ufo2-12" d="M524.14,695.32c-4.27-6.34-10.16-11.14-16.83-14.04"/>
	</g>
</g>
</g>
<g class="ufo2-spaceship">
	<ellipse class="ufo2-13" cx="483.25" cy="112.8" rx="157.44" ry="110.3"/>
	<path class="ufo2-12" d="M565.21,32.3c35.82,17.93,59.18,47.31,59.18,80.5c0,54.61-63.19,98.88-141.13,98.88
		s-141.13-44.27-141.13-98.88s63.19-98.88,141.13-98.88c16.24,0,31.83,1.92,46.35,5.46"/>
	<ellipse class="ufo2-14" cx="483.25" cy="112.8" rx="120.05" ry="84.1"/>
	<ellipse class="ufo2-15" cx="483.25" cy="68.34" rx="46.35" ry="39.46"/>
	<path class="ufo2-16" d="M935.97,152.68C849.31,118.64,679.08,95.5,483.25,95.5s-366.06,23.14-452.72,57.18H935.97z"/>
	<path class="ufo2-16" d="M935.97,152.68C849.31,118.64,679.08,95.5,483.25,95.5s-366.06,23.14-452.72,57.18H935.97z"/>
	<path class="ufo2-17" d="M76.25,137.79c-17.08,4.68-32.4,9.65-45.73,14.89h905.45c-13.33-5.24-28.65-10.21-45.73-14.89H76.25z"/>
	<path class="ufo2-8" d="M935.97,152.68C849.31,118.64,679.08,95.5,483.25,95.5s-366.06,23.14-452.72,57.18H935.97z"/>
	<path class="ufo2-18" d="M964,186.34c-92.03,60.43-272.79,101.52-480.75,101.52S94.53,246.78,2.5,186.34H964z"/>
	<path class="ufo2-19" d="M656.12,263.72c-19.7,1.23-39.41,0.68-59.15,0.68c-19.94,0-39.89,0-59.83,0c-22.47,0-44.93,0-67.4,0
		c-21.84,0-43.68,0-65.53,0c-27.09,0-54.2,0.98-81.28-0.02c-27.27-1-54.23-4.98-81.05-9.66c-32.69-5.7-65.14-12.78-97.05-21.7
		c-27.81-7.78-55.25-16.94-81.74-28.23c-13.07-5.57-25.9-11.66-38.33-18.45H2.5c65.28,42.87,175.21,75.99,307.82,91.63v-0.27h345.86
		v0.27c132.61-15.64,242.54-48.77,307.82-91.63c0,0-22.26,0-22.26,0c-1.97,0-5.99,3.21-7.79,4.14c-2.79,1.44-5.6,2.85-8.42,4.23
		c-5.86,2.86-11.79,5.59-17.77,8.2c-12.81,5.6-25.87,10.67-39.08,15.33c-29.7,10.47-60.17,18.88-90.96,25.86
		c-16.94,3.84-33.99,7.25-51.12,10.27c-21.44,3.78-43,7.18-64.73,8.94C659.95,263.47,658.04,263.6,656.12,263.72z"/>
	<path class="ufo2-8" d="M964,186.34c-92.03,60.43-272.79,101.52-480.75,101.52S94.53,246.78,2.5,186.34H964z"/>
	<path class="ufo2-15" d="M933.25,214.18h-900c-16.98,0-30.75-13.77-30.75-30.75v0c0-16.98,13.77-30.75,30.75-30.75h900
		c16.98,0,30.75,13.77,30.75,30.75v0C964,200.41,950.23,214.18,933.25,214.18z"/>
	<path class="ufo2-20" d="M649.46,99.79H317.04v-9.22c0-13.43,10.89-24.32,24.32-24.32h283.78c13.43,0,24.32,10.89,24.32,24.32V99.79z"
		/>
	<path class="ufo2-21" d="M367.51,66.25h-25.95c-13.43,0-24.32,10.89-24.32,24.32v9.22h25.95v-9.22
		C343.2,77.14,354.08,66.25,367.51,66.25z"/>
	<path class="ufo2-22" d="M599.19,66.25h25.95c13.43,0,24.32,10.89,24.32,24.32v9.22h-25.95v-9.22
		C623.51,77.14,612.62,66.25,599.19,66.25z"/>
	<path class="ufo2-8" d="M649.46,99.79H317.04v-9.22c0-13.43,10.89-24.32,24.32-24.32h283.78c13.43,0,24.32,10.89,24.32,24.32V99.79z"
		/>
	<path class="ufo2-20" d="M740.27,264.24H218.19v9.22c0,13.43,10.89,24.32,24.32,24.32h473.44c13.43,0,24.32-10.89,24.32-24.32V264.24z
		"/>
	<path class="ufo2-21" d="M244.48,273.45v-9.22h-26.29v9.22c0,13.43,10.89,24.32,24.32,24.32h26.28
		C255.37,297.77,244.48,286.88,244.48,273.45z"/>
	<path class="ufo2-22" d="M707.31,273.45v-9.22h32.96v9.22c0,13.43-13.65,24.32-30.49,24.32h-32.96
		C693.66,297.77,707.31,286.88,707.31,273.45z"/>
	<path class="ufo2-8" d="M740.27,264.24H218.19v9.22c0,13.43,10.89,24.32,24.32,24.32h473.44c13.43,0,24.32-10.89,24.32-24.32V264.24z"
		/>
	<g>
		<defs>
			<path id="SVGID_1_ufo2" d="M933.25,214.18h-900c-16.98,0-30.75-13.77-30.75-30.75v0c0-16.98,13.77-30.75,30.75-30.75h900
				c16.98,0,30.75,13.77,30.75,30.75v0C964,200.41,950.23,214.18,933.25,214.18z"/>
		</defs>
		<clipPath id="SVGID_2_ufo2">
			<use xlink:href="#SVGID_1_ufo2"  style="overflow:visible;"/>
		</clipPath>
		<g class="ufo2-23">
			<g>
				<polygon class="ufo2-24" points="10.72,152.68 43.06,185.68 75.4,152.68 				"/>
				<polygon class="ufo2-24" points="75.4,152.68 107.73,185.68 140.07,152.68 				"/>
				<polygon class="ufo2-24" points="140.07,152.68 172.41,185.68 204.75,152.68 				"/>
				<polygon class="ufo2-24" points="204.75,152.68 237.08,185.68 269.42,152.68 				"/>
				<polygon class="ufo2-24" points="269.42,152.68 301.76,185.68 334.1,152.68 				"/>
				<polygon class="ufo2-24" points="334.1,152.68 366.43,185.68 398.77,152.68 				"/>
				<polygon class="ufo2-24" points="398.77,152.68 431.11,185.68 463.45,152.68 				"/>
				<polygon class="ufo2-24" points="463.45,152.68 495.78,185.68 528.12,152.68 				"/>
				<polygon class="ufo2-24" points="528.12,152.68 560.46,185.68 592.8,152.68 				"/>
				<polygon class="ufo2-24" points="592.8,152.68 625.13,185.68 657.47,152.68 				"/>
				<polygon class="ufo2-24" points="657.47,152.68 689.81,185.68 722.15,152.68 				"/>
				<polygon class="ufo2-24" points="722.15,152.68 754.48,185.68 786.82,152.68 				"/>
				<polygon class="ufo2-24" points="786.82,152.68 819.16,185.68 851.49,152.68 				"/>
				<polygon class="ufo2-24" points="851.49,152.68 883.83,185.68 916.17,152.68 				"/>
				<polygon class="ufo2-24" points="916.17,152.68 948.51,185.68 980.84,152.68 				"/>
				<polygon class="ufo2-24" points="-53.95,152.68 -21.62,185.68 10.72,152.68 				"/>
			</g>
			<g>
				<polygon class="ufo2-24" points="876.35,214.18 844.57,181.17 812.79,214.18 				"/>
				<polygon class="ufo2-24" points="939.91,214.18 908.13,181.17 876.35,214.18 				"/>
				<polygon class="ufo2-24" points="813.25,214.18 781.47,181.17 749.69,214.18 				"/>
				<polygon class="ufo2-24" points="749.69,214.18 717.91,181.17 686.13,214.18 				"/>
				<polygon class="ufo2-24" points="686.13,214.18 654.35,181.17 622.57,214.18 				"/>
				<polygon class="ufo2-24" points="622.57,214.18 590.79,181.17 559.01,214.18 				"/>
				<polygon class="ufo2-24" points="559.01,214.18 527.23,181.17 495.45,214.18 				"/>
				<polygon class="ufo2-24" points="495.45,214.18 463.67,181.17 431.89,214.18 				"/>
				<polygon class="ufo2-24" points="431.89,214.18 400.11,181.17 368.33,214.18 				"/>
				<polygon class="ufo2-24" points="368.33,214.18 336.55,181.17 304.77,214.18 				"/>
				<polygon class="ufo2-24" points="304.77,214.18 272.99,181.17 241.22,214.18 				"/>
				<polygon class="ufo2-24" points="241.22,214.18 209.44,181.17 177.66,214.18 				"/>
				<polygon class="ufo2-24" points="177.66,214.18 145.88,181.17 114.1,214.18 				"/>
				<polygon class="ufo2-24" points="114.1,214.18 82.32,181.17 50.54,214.18 				"/>
				<polygon class="ufo2-24" points="50.54,214.18 18.76,181.17 -13.02,214.18 				"/>
			</g>
		</g>
	</g>
	<path class="ufo2-3" d="M933.25,214.18h-900c-16.98,0-30.75-13.77-30.75-30.75v0c0-16.98,13.77-30.75,30.75-30.75h900
		c16.98,0,30.75,13.77,30.75,30.75v0C964,200.41,950.23,214.18,933.25,214.18z"/>
</g>
</svg>
