<?xml version="1.0" encoding="utf-8"?>
<!-- Generator: Adobe Illustrator 23.0.1, SVG Export Plug-In . SVG Version: 6.00 Build 0)  -->
<svg version="1.1" id="Layer_1" xmlns="http://www.w3.org/2000/svg" xmlns:xlink="http://www.w3.org/1999/xlink" x="0px" y="0px"
	 viewBox="0 0 450.9 733" style="enable-background:new 0 0 450.9 733;" xml:space="preserve">
<style type="text/css">
	.st0{fill:#C3CED4;}
	.st1{fill:#F1F6FB;}
	.st2{fill:#FDF3F5;}
	.st3{fill:#8FCFF1;}
	.st4{fill:#C1DFF4;}
	.st5{fill:#ABB3B7;}
	.st6{fill:#FFFFFF;}
	.st7{fill:none;stroke:#667682;stroke-width:5;stroke-linecap:round;stroke-linejoin:round;stroke-miterlimit:10;}
	.st8{fill:none;stroke:#FFFFFF;stroke-width:7;stroke-linecap:round;stroke-linejoin:round;stroke-miterlimit:10;}
	.st9{fill:none;stroke:#667682;stroke-width:5;stroke-miterlimit:10;}
	.st10{fill:none;}
</style>
<g>
	<g>
		<path class="st0" d="M441.4,671.3c3.9,12,7.4,27.8,6.9,40.2l-0.9,0c-10.3-7.3-12.5-39.3-21.6-58.2c-7.7-16-17.9-14.6-20.8-13.8
			l2.9-8c3.6-1.6,7.8-2.5,12.8-2.5C427,629.9,436.5,655.9,441.4,671.3z"/>
		<path class="st1" d="M447.5,711.4l0.9,0c-0.3,8.1-2.3,14.7-7,17.7c-11.3,7.1-39.2-15.7-45.8-41.2c-1.2-4.8-2.2-9.9-2.8-14.8
			l12.3-33.7c2.9-0.8,13-2.2,20.8,13.8C435.1,672.1,437.2,704.2,447.5,711.4z M408.5,695.2l8.6-19.6
			C409.5,680.4,407.5,685.8,408.5,695.2z M402.4,683.3l7.9-19.3C403.6,667.2,400.4,675.4,402.4,683.3z"/>
		<path class="st2" d="M424.3,373.5c3.9,8.1,7.2,18,5.4,26.5c-0.6,2.9-1.2,5.2-1.9,7c-1.7-0.9-3.5-3.2-5.1-6L424.3,373.5z"/>
		<path class="st2" d="M422.7,401c1.6,2.7,3.4,5,5.1,6c-1.4,3.6-3.1,5.2-5.8,5L422.7,401z"/>
		<path class="st2" d="M424.3,373.5l-1.6,27.5c-0.1-0.1-0.1-0.2-0.2-0.4c0.2-2.9,0.1-5.6-0.1-7.4c-1-6.9-5.4-16.6-5.4-16.6
			l-18.5-10.8l12.6-2.1c-0.7-2-1.4-4-2.1-5.9c5.9,1.6,11.4,4,14.6,6c9.8,6.1,11.5,11.3,13,20.6c1.4,8.6-1.6,23.7-7.5,22.9
			c-0.4-0.1-0.8-0.2-1.1-0.4c0.7-1.8,1.3-4.2,1.9-7C431.5,391.6,428.2,381.6,424.3,373.5z"/>
		<path class="st2" d="M422.4,393.3c0.2,1.8,0.3,4.5,0.1,7.4c-3.5-6.1-6.3-14-6.3-14s-12.1-11.8-16.7-14c-3.3-1.6-12-1.2-15-4.5
			l14-2.3l18.5,10.8C417,376.7,421.4,386.4,422.4,393.3z"/>
		<path class="st2" d="M422.5,400.7c-0.5,7.3-2.5,15.9-6.8,14.2c-4.9-2,2.6-19.6-11.1-34c0,0-1.6-3.4-10.2-5.4
			c-8.6-2.1-8.5,4.8-18.4,7.3c-9.9,2.5-9.3-8.1-3.4-9.2c2.8-0.5,5.1-3.3,7.2-6.4c0.2,0.6,0.4,1.1,0.6,1.7l4-0.7
			c3,3.2,11.7,2.9,15,4.5c4.7,2.2,16.7,14,16.7,14S419,394.6,422.5,400.7z"/>
		<path class="st1" d="M417.1,675.5l-8.6,19.6C407.5,685.8,409.5,680.4,417.1,675.5z"/>
		<path class="st2" d="M399.4,356.1c3.1,0.2,6.4,0.9,9.5,1.7c0.7,2,1.5,4,2.1,5.9l-12.6,2.1l-11.7-6.8
			C389.8,356.5,394.4,355.8,399.4,356.1z"/>
		<path class="st1" d="M410.3,663.9l-7.9,19.3C400.4,675.4,403.6,667.2,410.3,663.9z"/>
		<path class="st3" d="M408.1,631.4L408.1,631.4c-3.4,1.5-6.2,3.6-8.4,6.2c-8.8-4-28.5-13.3-44-22.9c-20.7-12.8-45-32.8-64.4-71.7
			c-19.4-38.9-9.7-93-2.4-119.1c7.3-26.1,22.5-45,21.9-59.6l-0.4-0.6c4.3-3.2,7.6-6.6,10.7-10.1c0.3-0.3,0.5-0.6,0.8-0.9
			c1.7,6,2,12.6,0.1,19.5c-3,10.9-9.6,17.6-18,35.1c-15,31.3-17.8,67.5-10.3,101.4c8.7,39.4,32.2,74.6,65.2,97.7
			C372.1,615.9,393.4,626.6,408.1,631.4z"/>
		<path class="st3" d="M408.1,631.4l-2.9,8c-0.5,0.1-0.8,0.3-0.8,0.3s-1.7-0.7-4.6-2.1C401.9,635.1,404.7,633,408.1,631.4z"/>
		<path class="st4" d="M405.2,639.5l-12.3,33.7c-1.6-13.7-0.3-27.1,6.9-35.5c2.9,1.3,4.6,2.1,4.6,2.1S404.7,639.6,405.2,639.5z"/>
		<path class="st2" d="M398.5,365.9l-14,2.3c-1.2-1.3-1.5-3.2-0.2-6c0.6-1.3,1.4-2.3,2.5-3.2L398.5,365.9z"/>
		<path class="st2" d="M386.8,359c-1,0.8-1.8,1.9-2.5,3.2c-1.3,2.8-1,4.7,0.2,6l-4,0.7c-0.2-0.6-0.4-1.1-0.6-1.7
			C382.1,363.8,384.2,360.2,386.8,359L386.8,359z"/>
		<path class="st0" d="M309.2,207.5l27.8-4.6C335.3,213.9,322.5,208.4,309.2,207.5z"/>
		<path class="st5" d="M331.9,165.9l-0.8,1.4c0,11.4-16.4,34.6-26,39.7l0,0.4c-4,0.1-7.9,0.8-11.4,2.7l-0.3-0.2
			c11.7-14.8,20.3-32.2,24.5-51.2C322.7,160.2,327.4,162.7,331.9,165.9z"/>
		<path class="st0" d="M327.2,334.5c2.3,5.7,0.2,11.8-5.3,18.4c-2.7-9.8-9.1-18.2-15.8-24.1l0.5-0.5c5.5,4.5,12,7.4,19.5,7.1
			L327.2,334.5z"/>
		<path class="st5" d="M327.2,334.5l-1.2,0.8c-7.5,0.3-14-2.5-19.5-7.1c-5.2-4.3-9.5-10.1-12.8-16c-6.7-12.3-15.2-44.4-5.3-46.4l0,0
			c0.1,0.2,1.4,4.2,2.2,6.3c3.3,8.8,7.5,21.6,11.4,32.3c5.8,16.2,16.8,19.9,21.2,24.2C325,330.5,326.4,332.5,327.2,334.5z"/>
		<path class="st0" d="M321.9,352.8c-0.3,0.3-0.5,0.6-0.8,0.9c-3.1,3.5-6.4,6.9-10.7,10.1c-5,3.7-11.5,7.2-20.8,10.3
			c-5.3,1.8-12.2,3.4-19,4.6l-0.9-5l30.9-49.3c1.8,1.2,3.7,2.7,5.5,4.3C312.7,334.6,319.1,343,321.9,352.8z"/>
		<path class="st4" d="M310.8,364.4c0.6,14.6-14.6,33.4-21.9,59.6c-7.3,26.1-17,80.2,2.4,119.1c19.5,38.9,43.8,58.9,64.4,71.7
			c15.5,9.6,35.2,18.9,44,22.9c-7.1,8.4-8.5,21.8-6.9,35.5l-1.4,3.8c-18.6-6.3-43.7-18.9-60.6-30.8c-22.4-15.7-41.3-36-55.7-59.2
			c-15.1-24.4-25.3-51.8-29.9-80.1c-5.3-32-3.5-64.8,5.7-96c0.6-2.1,1.3-4.2,2-6.3c1.9-0.4,3.8-0.8,5.8-1.2
			c5.3-0.9,10.6-1.5,15.8-1.7l-4-23.1c6.9-1.2,13.7-2.8,19-4.6c9.3-3.1,15.8-6.6,20.8-10.3L310.8,364.4z"/>
		<path class="st0" d="M305.2,207.4c1.3,0,2.7,0,4.1,0.1l-15.5,2.6C297.3,208.1,301.2,207.4,305.2,207.4z"/>
		<path class="st0" d="M305.1,207c9.6-5,26-28.3,26-39.7l0.8-1.4c5.1,3.6,10,8.1,14.7,13.7c13.9,16.4,16.4,38.7-1.4,47.9
			c-18,9.2-40.3-13-62.6-5.8c3.8-3.7,7.4-7.7,10.8-11.9l0.3,0.2l15.5-2.6c13.2,0.9,26.1,6.5,27.8-4.6l-27.8,4.6
			c-1.4-0.1-2.7-0.1-4.1-0.1L305.1,207z"/>
		<path class="st0" d="M293.1,156.8c8.1-1.7,16.6-1.2,24.9,1.8c-4.3,19-12.8,36.4-24.5,51.2c-3.3,4.2-6.9,8.2-10.8,11.9
			c-3.4,1.1-6.8,2.9-10.2,5.6c-4-1.1-8.1-2.2-12.2-3c1.3-6.5,1.3-13.4,1.2-20.2c0.6-0.6,1.2-1.2,1.8-1.8
			C276.7,188.9,286.6,173.4,293.1,156.8z"/>
		<path class="st0" d="M293.1,156.8c14.9-37.9,11.7-81.3-9.5-116.9c23.2,23.1,37.5,55.1,37.5,90.4c0,9.7-1.1,19.1-3.1,28.2
			C309.7,155.6,301.3,155,293.1,156.8z"/>
		<path class="st1" d="M126.8,62.3c1.3,0,2.6-0.5,3.7-1.4c7.9-7.2,16.9-13.1,26.7-17.3c11.8-5.1,24.4-7.6,37.3-7.6
			c3,0,5.5-2.4,5.5-5.5c0-3-2.5-5.5-5.5-5.5c-14.4,0-28.4,2.9-41.6,8.5c-11,4.7-21,11.2-29.8,19.3c-2.2,2-2.4,5.5-0.3,7.7
			C123.8,61.7,125.3,62.3,126.8,62.3z M94.2,136.3c3,0,5.5-2.4,5.5-5.5c0-8.9,1.2-17.8,3.7-26.2c0.8-2.9-0.8-5.9-3.7-6.8
			c-2.9-0.8-5.9,0.8-6.8,3.7c-2.7,9.5-4.1,19.3-4.1,29.3C88.7,133.9,91.2,136.3,94.2,136.3z M283.6,39.9
			c21.2,35.6,24.4,79,9.5,116.9c-7.8,1.6-15.3,5.4-22.2,11c-10.2,8.4-9.7,22.1-9.5,36.3c-6.8,6.5-14.1,12.2-21.7,17
			c-12.7-1.3-25.7-1.3-38.8,0.1c-2,0.2-4.1,0.5-6.1,0.7c-17.8,2.4-36,8.3-53.4,16.6c-10.4-2.2-20.5-5.6-30.2-10.3
			c-27.9-23.5-45.7-58.6-45.7-98c0-70.6,57.2-127.8,127.8-127.8C228.6,2.5,260.5,16.8,283.6,39.9z"/>
		<path class="st5" d="M277.2,228.7c55.7,17.3,110.3,72.7,131.7,129.1c-3.1-0.9-6.4-1.5-9.5-1.7c-2.3-5-8.7-17.8-17.2-30.6
			c-10.9-16.4-25.4-37-53.8-58.3c-19.4-14.6-48.6-25.5-68.8-24.6c1.1-1.8,2.2-3.4,3.3-5c4.4-2.9,8.6-6,12.6-9.3
			C276.1,228.4,276.6,228.6,277.2,228.7z"/>
		<path class="st0" d="M282.7,221.7c-2.3,2.3-4.7,4.4-7.2,6.5c-1-0.3-2-0.6-3.1-0.9C275.8,224.6,279.3,222.8,282.7,221.7z"/>
		<path class="st0" d="M275.5,228.2c-4,3.4-8.2,6.5-12.6,9.3c3.2-4.3,6.3-7.7,9.5-10.2C273.5,227.6,274.5,227.9,275.5,228.2z"/>
		<path class="st1" d="M270.9,167.8c6.9-5.7,14.4-9.4,22.2-11c-6.5,16.6-16.5,32.2-29.9,45.6c-0.6,0.6-1.2,1.2-1.8,1.8
			C261.2,189.9,260.7,176.2,270.9,167.8z"/>
		<path class="st0" d="M269.6,373.7l0.9,5c-1.5,0.3-3,0.5-4.4,0.7L269.6,373.7z"/>
		<path class="st0" d="M266.4,355.5l3.2,18.2l-3.6,5.7c-7.8,1.1-15.3,1.5-20.3,0.8c-9.6-1.4-17.8-5.5-23.7-15
			c9.1-3.4,18.7-6,28.7-7.8C255.9,356.5,261.2,355.9,266.4,355.5z"/>
		<path class="st0" d="M261.4,204.1c0.1,6.8,0.1,13.7-1.2,20.2c-6.7-1.4-13.6-2.5-20.5-3.2C247.4,216.3,254.7,210.6,261.4,204.1z"/>
		<path class="st4" d="M256.5,394.7l0.2,0.2C256.7,394.8,256.6,394.8,256.5,394.7C256.4,394.7,256.5,394.7,256.5,394.7z"/>
		<path class="st4" d="M256.5,394.7l-7.3-5.5c-14.9,12.3-69,33.5-83.6,79.1s-14.6,80.2,7.9,111.8c17.6,24.7,35.5,37.5,42.5,41.9
			c-7.6,8.6-11,22.7-11.8,36.8c-42.9-22.4-75.3-63.7-84.3-115.1c-13.6-77.6,30.9-152,102.2-178.6c5.9,9.5,14.2,13.6,23.7,15
			c5,0.7,12.5,0.3,20.3-0.8L256.5,394.7C256.5,394.7,256.5,394.7,256.5,394.7z"/>
		<path class="st4" d="M256.5,394.7l9.5-15.2c1.5-0.2,3-0.4,4.4-0.7l4,23.1c-5.2,0.2-10.5,0.7-15.8,1.7c-1.9,0.3-3.9,0.7-5.8,1.2
			C254,401.3,255.2,398,256.5,394.7c0.1,0.2,0.2,0.2,0.2,0.2L256.5,394.7C256.5,394.7,256.5,394.7,256.5,394.7z"/>
		<path class="st4" d="M249.1,389.2l7.3,5.5c0,0,0,0,0,0.1C255.2,394.2,250.5,391.8,249.1,389.2z"/>
		<path class="st3" d="M249.1,389.2c1.3,2.6,6.1,4.9,7.3,5.5c-1.2,3.2-2.4,6.5-3.5,9.9c-59,13.4-97.7,70.9-87.1,131.2
			c6.2,35.4,28,64.1,57.2,80.3l-0.3,0.6c-2.6,1.4-4.8,3.2-6.8,5.5c-7-4.4-25-17.2-42.5-41.9c-22.5-31.6-22.5-66.2-7.9-111.8
			S234.2,401.5,249.1,389.2z"/>
		<path class="st0" d="M252.4,661.1c0.6,9.8,0.4,21.8-1.4,32.2l-0.4-0.1c-8.5-7.9-5-59.7-13.4-68.1c-8.2-8.2-14.9-4.2-17.3-2.1
			l2.8-6.4c5.3-2.9,12-3.8,20.3-1.7C248.7,617.4,251.4,644.9,252.4,661.1z"/>
		<path class="st1" d="M250.6,693.2l0.4,0.1c-2,11.8-6,21.5-13,23.8c-12.7,4.1-34.1-25-34.1-51.3c0-2.3,0.1-4.6,0.2-6.9
			c0.1,0.1,0.2,0.1,0.3,0.2l15.6-36c2.4-2,9.1-6.1,17.3,2.1C245.6,633.5,242.1,685.3,250.6,693.2z M213.8,675.9l13.2-16.9
			C221,660.8,215.1,667.2,213.8,675.9z M210.9,662.9l12.5-16.7C216.9,649.2,211.9,654.9,210.9,662.9z"/>
		<path class="st0" d="M260.2,224.3c-2.1,10.1-7.3,19.2-20.4,25.1c-0.3,0.1-0.7,0.3-1,0.4c-0.1,0-0.1,0-0.2,0.1l6.1-8.7l-42.8,6.9
			c-4.4-3.9-8.9-6.5-13-8.2c2.2-0.3,4.4-0.7,6.5-1.1c15.4-3.1,30.4-9,44.2-17.6C246.7,221.8,253.5,222.9,260.2,224.3z"/>
		<path class="st0" d="M244.7,241.2l-6.1,8.7v0c-0.3,0.1-0.6,0.2-0.9,0.4c-0.4,0.1-0.7,0.3-1.1,0.4c-1.9,0.7-4,1.4-5.8,1.9
			c0,0-0.1,0-0.1,0l-0.3,0.1c-6.5,2-13.2,3.4-20.1,4.4c-1.4-1.7-2.9-3.5-4.7-5.4c-1.2-1.3-2.4-2.5-3.6-3.5L244.7,241.2z"/>
		<path class="st0" d="M252.2,243.8c-4,2.1-8.2,4-12.4,5.7c13.1-6,18.4-15,20.4-25.1c4.1,0.9,8.2,1.9,12.2,3
			c-3.2,2.5-6.4,5.9-9.5,10.2C259.5,239.8,255.9,241.9,252.2,243.8z"/>
		<path class="st0" d="M239.8,249.4c-0.3,0.1-0.6,0.3-1,0.4C239.1,249.7,239.5,249.6,239.8,249.4z"/>
		<path class="st0" d="M238.8,249.8c0.3-0.1,0.7-0.3,1-0.4c-0.4,0.2-0.9,0.4-1.3,0.6l0.1-0.2C238.7,249.9,238.7,249.9,238.8,249.8z"
			/>
		<path class="st0" d="M238.8,249.8c-0.1,0-0.1,0-0.2,0.1v0C238.7,249.9,238.7,249.9,238.8,249.8z"/>
		<path class="st0" d="M237.7,250.3c-0.4,0.1-0.7,0.3-1.1,0.4C237,250.5,237.3,250.4,237.7,250.3z"/>
		<path class="st0" d="M230.8,252.6c1.8-0.6,3.9-1.3,5.8-1.9c-1.8,0.7-3.6,1.3-5.4,1.8C231,252.5,230.9,252.5,230.8,252.6z"/>
		<path class="st1" d="M239.7,221.1c-13.8,8.6-28.8,14.5-44.2,17.6c-2.2,0.4-4.3,0.8-6.5,1.1c-8.9-3.8-16-3.6-16-3.6s1,2,2.9,4.9
			c-2.5,0.1-4.9,0.2-7.4,0.2c-1.5,0-3,0-4.4-0.1c-7.6-0.3-15.3-1.2-22.8-2.8c17.5-8.4,35.6-14.2,53.4-16.6c2-0.3,4.1-0.5,6.1-0.7
			C214.1,219.8,227,219.8,239.7,221.1z"/>
		<path class="st1" d="M227.1,659l-13.2,16.9C215.1,667.2,221,660.8,227.1,659z"/>
		<path class="st1" d="M223.4,646.1l-12.5,16.7C211.9,654.9,216.9,649.2,223.4,646.1z"/>
		<path class="st3" d="M222.7,616.7L220,623c-0.6,0.5-1,0.9-1,0.9s-1.1-0.6-3.1-1.8C217.9,619.9,220.1,618,222.7,616.7z"/>
		<path class="st0" d="M259.6,242.5c-15.5,25-39.1,33.3-39.1,33.3l18.1-25.7c0.4-0.2,0.9-0.4,1.3-0.6c4.3-1.7,8.4-3.5,12.4-5.7
			c3.7-1.9,7.2-4,10.7-6.2C261.8,239.1,260.7,240.8,259.6,242.5z"/>
		<path class="st0" d="M220.4,275.8c0,0,1.6-17.4,18.1-25.7L220.4,275.8z"/>
		<path class="st2" d="M238.5,250.1c-16.5,8.4-18.1,25.7-18.1,25.7s-0.2-6.5-10.1-18.8c6.9-0.9,13.6-2.4,20.1-4.4l0.3-0.1
			c0,0,0.1,0,0.1,0c0.1,0,0.2-0.1,0.4-0.1c1.8-0.6,3.6-1.2,5.4-1.8c0.4-0.1,0.7-0.2,1.1-0.4c0.3-0.1,0.6-0.2,0.9-0.4L238.5,250.1z"
			/>
		<path class="st0" d="M300.5,324.4l-30.9,49.3l-3.2-18.2c-5.2,0.4-10.5,1-15.7,2c-9.9,1.7-19.5,4.4-28.7,7.8
			c-2.1-3.4-4-7.5-5.4-12.4l-28.5-94.8c0.9,0,1.8,0.1,2.8,0.1c0,0,0,0,0,0c9.2,7.3,28.9,17.3,29.6,17.7c0,0,0,0,0,0
			s23.6-8.3,39.1-33.3c20.2-0.9,49.4,10,68.8,24.6c28.4,21.3,42.8,41.9,53.8,58.3c8.6,12.8,14.9,25.7,17.2,30.6
			c-5-0.4-9.6,0.3-12.7,2.9l0,0c-2.5,1.2-4.6,4.8-6.9,8.2c-15.3-39.4-54.4-84.1-91.4-101.4l0,0c-9.9,2-1.4,34.1,5.3,46.4
			c3.3,6,7.6,11.8,12.8,16l-0.5,0.5C304.2,327.1,302.3,325.6,300.5,324.4z"/>
		<path class="st0" d="M210.3,257.1c10,12.3,10.1,18.8,10.1,18.8s0,0,0,0l-18.9-17.9c0.2,0,0.4,0,0.6,0
			C204.9,257.7,207.6,257.4,210.3,257.1z"/>
		<path class="st4" d="M220,623l-15.6,36c-0.1-0.1-0.2-0.1-0.3-0.2c0.8-14.1,4.2-28.2,11.8-36.8c2,1.2,3.1,1.8,3.1,1.8
			S219.3,623.5,220,623z"/>
		<path class="st0" d="M205.6,251.7c1.8,1.9,3.3,3.7,4.7,5.4c-2.7,0.4-5.4,0.6-8.2,0.8c-0.2,0-0.4,0-0.6,0l-8.8-8.3l9.2-1.5
			C203.2,249.2,204.4,250.4,205.6,251.7z"/>
		<path class="st0" d="M202,248.1l-9.2,1.5l8.8,8.3c-2.7,0.2-5.5,0.3-8.3,0.3c-0.8,0-1.6,0-2.5,0c0,0,0,0,0,0
			c-0.5-0.4-0.9-0.8-1.4-1.1c-0.8-0.7-1.6-1.4-2.4-2.2l-0.3-1.1c-0.2,0-0.4,0.1-0.6,0.1c-4.5-4.5-8-9.3-10.2-12.7
			c4.4-0.2,8.7-0.7,13-1.3C193.1,241.6,197.6,244.2,202,248.1z"/>
		<path class="st0" d="M193.3,258.2c2.8,0,5.5-0.1,8.3-0.3l18.9,17.9c-0.6-0.3-20.4-10.4-29.6-17.7
			C191.6,258.2,192.5,258.2,193.3,258.2z"/>
		<path class="st0" d="M189.5,257c0.4,0.4,0.9,0.7,1.4,1.1c-0.9,0-1.9,0-2.8-0.1l-1-3.2C187.9,255.6,188.7,256.3,189.5,257z"/>
		<path class="st0" d="M187.1,254.8l1,3.2c-4.6-0.2-9.2-0.6-13.7-1.3c3.9-1.2,7.8-2.1,11.8-2.9C186.5,254.2,186.8,254.5,187.1,254.8
			z"/>
		<path class="st0" d="M186.8,253.8l0.3,1.1c-0.3-0.3-0.6-0.6-0.9-0.9C186.4,253.9,186.6,253.8,186.8,253.8z"/>
		<path class="st1" d="M189,239.9c-4.3,0.7-8.7,1.1-13,1.3c-1.9-3-2.9-4.9-2.9-4.9S180.1,236.1,189,239.9z"/>
		<path class="st5" d="M173.9,256.7c0.2,0,0.3,0,0.5,0.1c-20.1,6-40,17.1-57.7,31.1c4.3-11.3,19.7-24.1,39.1-35.3
			C161.7,254.4,167.7,255.8,173.9,256.7z"/>
		<path class="st0" d="M168.5,241.4c2.5,0,5-0.1,7.4-0.2c2.2,3.4,5.7,8.2,10.2,12.7c-3.9,0.7-7.8,1.7-11.8,2.9c-0.2,0-0.3,0-0.5-0.1
			c-6.2-0.9-12.3-2.3-18.2-4.1c-1.8-0.6-3.6-1.1-5.4-1.8c-0.8-0.3-1.6-0.6-2.4-0.9c-0.6-0.2-1.2-0.5-1.8-0.7l-0.2-0.1
			c-0.6-0.2-1.1-0.5-1.7-0.7c-0.1,0-0.1,0-0.2-0.1c-0.4-0.2-0.8-0.3-1-0.4c-0.3-0.1-0.5-0.2-0.5-0.2c0,0,0,0,0,0
			c-3.4-1.4-6.6-3-9.9-4.8c2.9-1.5,5.8-3,8.7-4.4c7.5,1.6,15.1,2.5,22.8,2.8C165.6,241.4,167.1,241.4,168.5,241.4z"/>
		<path class="st0" d="M146.2,249.2c0.6,0.2,1.2,0.5,1.8,0.7c-0.7-0.2-1.3-0.5-2-0.8L146.2,249.2z"/>
		<path class="st0" d="M145.6,249l0.5,0.2c0.6,0.3,1.3,0.5,2,0.8c0.8,0.3,1.6,0.6,2.4,0.9c1.8,0.6,3.6,1.2,5.4,1.8
			c-19.4,11.2-34.8,24-39.1,35.3c-22.4,17.6-41.3,39.7-52.7,61.3l-1.6-1c-1.4-2.7-2.6-5.5-4.6-6.6c-2.4-6.7-10.8-8.2-19.5-7.5
			l-0.6-0.4c18.7-34.9,54.6-69.3,95.1-90.8c3.2,1.7,6.5,3.3,9.9,4.8c0,0,0,0,0,0c0.2,0.1,0.3,0.2,0.5,0.2
			C143.5,248.1,145.2,248.9,145.6,249z"/>
		<path class="st0" d="M144.2,248.4c0.1,0,0.1,0.1,0.2,0.1c0.6,0.2,1.1,0.5,1.7,0.7l-0.5-0.2c-0.4-0.1-2.1-0.9-2.5-1
			c-0.2-0.1-0.4-0.1-0.5-0.2c0.1,0,0.3,0.1,0.5,0.2C143.4,248,143.7,248.2,144.2,248.4z"/>
		<path class="st6" d="M194.5,25.1c3,0,5.5,2.5,5.5,5.5c0,3-2.5,5.5-5.5,5.5c-12.9,0-25.5,2.6-37.3,7.6c-9.8,4.2-18.8,10-26.7,17.3
			c-1,1-2.4,1.4-3.7,1.4c-1.5,0-3-0.6-4-1.8c-2-2.2-1.9-5.7,0.3-7.7c8.8-8.1,18.9-14.6,29.8-19.3C166.1,27.9,180.1,25.1,194.5,25.1z
			"/>
		<path class="st0" d="M111.1,228.3c9.7,4.7,19.9,8.1,30.2,10.3c-2.9,1.4-5.8,2.8-8.7,4.4C125,238.8,117.8,233.9,111.1,228.3z"/>
		<path class="st6" d="M99.6,97.9c2.9,0.8,4.6,3.9,3.7,6.8c-2.4,8.5-3.7,17.3-3.7,26.2c0,3-2.5,5.5-5.5,5.5c-3,0-5.5-2.4-5.5-5.5
			c0-9.9,1.4-19.8,4.1-29.3C93.7,98.7,96.7,97,99.6,97.9z"/>
		<path class="st2" d="M68.2,354.1c5.8,1.7,5.3,12.3-4.3,8.8c-9.6-3.5-8.8-10.3-17.5-9.2s-10.7,4.3-10.7,4.3
			c-15.1,12.9-9.4,31.2-14.6,32.6c-4.5,1.3-5.6-7.5-5.3-14.8c4.1-5.7,7.7-13.3,7.7-13.3s13.2-10.5,18.1-12.2
			c4-1.4,15.1,0.5,16.6-4.7l4.3,2.5C63.7,350.8,65.3,353.3,68.2,354.1z"/>
		<path class="st0" d="M57.7,341.6c2.1,1.1,3.2,3.9,4.6,6.6l-4.3-2.5C58.4,344.7,58.3,343.4,57.7,341.6z"/>
		<path class="st0" d="M57.7,341.6c0.6,1.7,0.7,3.1,0.4,4.1l-4.7-2.7L57.7,341.6z"/>
		<path class="st2" d="M53.4,343l4.7,2.7c-1.5,5.2-12.5,3.2-16.6,4.7c-4.9,1.7-18.1,12.2-18.1,12.2s-3.6,7.6-7.7,13.3
			c0.1-2.9,0.5-5.6,0.9-7.3c1.7-6.8,7.1-16,7.1-16L53.4,343z"/>
		<path class="st0" d="M57.7,341.6l-4.3,1.4l-15.1-8.9C47,333.4,55.4,334.9,57.7,341.6z"/>
		<path class="st2" d="M16.7,348.7l-1.3,27.5c-1.9,2.6-3.9,4.7-5.7,5.4c-0.5-1.9-0.9-4.3-1.1-7.2C7.7,365.9,12.1,356.4,16.7,348.7z"
			/>
		<path class="st2" d="M15.5,376.2l1.3-27.5c-4.7,7.7-9,17.2-8.2,25.8c0.3,2.9,0.6,5.3,1.1,7.2c-0.4,0.2-0.8,0.2-1.2,0.3
			c-5.9,0.2-7.3-15.1-5-23.5c2.4-9.1,4.7-14.1,15-19.1c4.1-2,12-4.4,19.7-5l15.1,8.9l-29.7,9.6c0,0-5.4,9.2-7.1,16
			c-0.4,1.7-0.8,4.4-0.9,7.3C15.6,376,15.6,376.1,15.5,376.2z"/>
		<path class="st2" d="M15.5,376.2l-0.5,11c-2.7-0.1-4.2-1.9-5.2-5.6C11.6,380.9,13.6,378.8,15.5,376.2z"/>
	</g>
	<path class="st7" d="M204.1,658.9c-0.1,2.3-0.2,4.6-0.2,6.9c0,26.3,21.4,55.4,34.1,51.3c7.1-2.3,11-12.1,13-23.8
		c1.8-10.4,2-22.4,1.4-32.2c-1-16.2-3.7-43.7-9.3-46.2c-8.3-2-15-1.2-20.3,1.7"/>
	<path class="st7" d="M213.8,675.9c1.3-8.8,7.2-15.1,13.2-16.9"/>
	<path class="st7" d="M210.9,662.9c1.1-8,6.1-13.7,12.5-16.7"/>
	<path class="st7" d="M222,365.2c-71.3,26.6-115.8,101-102.2,178.6c9,51.3,41.4,92.7,84.3,115.1c0.1,0.1,0.2,0.1,0.3,0.2l15.6-36
		l2.8-6.4l0.3-0.6c-29.1-16.2-51-44.9-57.2-80.3C155.3,475.5,194,418,252.9,404.6"/>
	<path class="st7" d="M392.9,673.1c0.6,5,1.6,10,2.8,14.8c6.5,25.5,34.5,48.3,45.8,41.2c4.7-3,6.7-9.6,7-17.7
		c0.4-12.3-3.1-28.1-6.9-40.2c-5-15.4-14.5-41.4-20.5-42.4c-5,0.1-9.3,1-12.8,2.5"/>
	<path class="st7" d="M408.5,695.2c-1-9.3,1-14.8,8.6-19.6"/>
	<path class="st7" d="M402.4,683.3c-2-7.9,1.2-16.1,7.9-19.3"/>
	<g>
		<g>
			<polyline class="st8" points="252.4,289.5 269.7,298.4 257,315.8 			"/>
			<polyline class="st8" points="220.9,298.8 207.9,316.7 224.9,325.3 			"/>
		</g>
		<line class="st8" x1="243.5" y1="282.8" x2="234.3" y2="333.4"/>
	</g>
	<path class="st7" d="M256.4,394.7c-1.2-0.6-6-3-7.3-5.5L256.4,394.7"/>
	<path class="st7" d="M15.5,376.2c0.1-0.1,0.2-0.2,0.3-0.3"/>
	<path class="st7" d="M38.3,334.2c-7.7,0.6-15.6,3-19.7,5c-10.3,5-12.6,10-15,19.1c-2.3,8.5-0.9,23.7,5,23.5c0.4,0,0.8-0.1,1.2-0.3"
		/>
	<path class="st7" d="M16.7,348.7c-4.7,7.7-9,17.2-8.2,25.8c0.3,2.9,0.6,5.3,1.1,7.2c1,3.7,2.5,5.5,5.2,5.6"/>
	<path class="st7" d="M62.4,348.2c1.3,2.6,2.9,5.1,5.8,5.9c5.8,1.7,5.3,12.3-4.3,8.8c-9.6-3.5-8.8-10.3-17.5-9.2s-10.7,4.3-10.7,4.3
		c-15.1,12.9-9.4,31.2-14.6,32.6c-4.5,1.3-5.6-7.5-5.3-14.8c0.1-2.9,0.5-5.6,0.9-7.3c1.7-6.8,7.1-16,7.1-16"/>
	<path class="st7" d="M321.9,352.8c1.7,6,2,12.6,0.1,19.5c-3,10.9-9.6,17.6-18,35.1c-15,31.3-17.8,67.5-10.3,101.4
		c8.7,39.4,32.2,74.6,65.2,97.7c13.3,9.4,34.7,20,49.4,24.9l0,0l-2.9,8l-12.3,33.7l-1.4,3.8c-18.6-6.3-43.7-18.9-60.6-30.8
		c-22.4-15.7-41.3-36-55.7-59.2c-15.1-24.4-25.3-51.8-29.9-80.1c-5.3-32-3.5-64.8,5.7-96c0.6-2.1,1.3-4.2,2-6.3
		c1.1-3.3,2.3-6.6,3.5-9.9c0,0,0,0,0-0.1c0,0,0,0,0,0"/>
	<path class="st7" d="M288.5,265.8L288.5,265.8c37,17.3,76.1,62,91.4,101.4"/>
	<path class="st7" d="M188.1,258.1l28.5,94.8c1.5,4.9,3.3,9,5.4,12.4c5.9,9.5,14.2,13.6,23.7,15c5,0.7,12.5,0.3,20.3-0.8
		c1.5-0.2,3-0.4,4.4-0.7c6.9-1.2,13.7-2.8,19-4.6c9.3-3.1,15.8-6.6,20.8-10.3c4.3-3.2,7.6-6.6,10.7-10.1c0.3-0.3,0.5-0.6,0.8-0.9
		c5.6-6.6,7.7-12.6,5.3-18.4c-0.8-2-2.2-3.9-4.1-5.9c-4.4-4.4-15.4-8.1-21.2-24.2c-3.8-10.7-8.1-23.5-11.4-32.3
		c-0.8-2.1-2.1-6-2.2-6.3"/>
	<path class="st7" d="M132.7,242.9c-40.5,21.5-76.4,55.9-95.1,90.8l0.6,0.4l15.1,8.9l4.7,2.7l4.3,2.5l1.6,1
		c11.4-21.6,30.3-43.7,52.7-61.3c17.7-14,37.6-25.1,57.7-31.1"/>
	<path class="st7" d="M408.9,357.9c-21.4-56.4-76-111.8-131.7-129.1c-0.6-0.2-1.1-0.3-1.7-0.5"/>
	<line class="st7" x1="238.5" y1="250.1" x2="238.6" y2="249.9"/>
	<path class="st7" d="M239.8,249.4c-0.4,0.2-0.9,0.4-1.3,0.6c-16.5,8.4-18.1,25.7-18.1,25.7s23.6-8.3,39.1-33.3
		c1.1-1.8,2.2-3.4,3.3-5"/>
	<path class="st7" d="M282.7,221.7c22.3-7.3,44.6,15,62.6,5.8c17.8-9.1,15.3-31.4,1.4-47.9c-4.7-5.6-9.6-10.1-14.7-13.7
		c-4.6-3.2-9.3-5.7-14-7.4"/>
	<path class="st7" d="M210.3,257.1c10,12.3,10.1,18.8,10.1,18.8s0,0,0,0c-0.6-0.3-20.4-10.4-29.6-17.7"/>
	<path class="st9" d="M283.6,39.9c-23.1-23.1-55.1-37.4-90.3-37.4c-70.6,0-127.8,57.2-127.8,127.8c0,39.3,17.7,74.5,45.7,98
		c6.6,5.6,13.9,10.5,21.6,14.6c3.2,1.7,6.5,3.3,9.9,4.8c0,0,0,0,0,0c0.2,0.1,0.3,0.2,0.5,0.2c0.3,0.1,2.1,0.9,2.5,1l0.5,0.2l0.2,0.1
		c0.6,0.2,1.2,0.5,1.8,0.7c0.8,0.3,1.6,0.6,2.4,0.9c1.8,0.6,3.6,1.2,5.4,1.8c5.9,1.8,11.9,3.2,18.2,4.1c0.2,0,0.3,0,0.5,0.1
		c4.5,0.7,9,1.1,13.7,1.3c0.9,0,1.8,0.1,2.8,0.1c0,0,0,0,0,0c0.8,0,1.6,0,2.5,0c2.8,0,5.5-0.1,8.3-0.3c0.2,0,0.4,0,0.6,0
		c2.8-0.2,5.5-0.5,8.2-0.8c6.9-0.9,13.6-2.4,20.1-4.4l0.3-0.1c0,0,0.1,0,0.1,0c1.8-0.6,3.9-1.3,5.8-1.9c0.4-0.1,0.7-0.3,1.1-0.4
		c0.3-0.1,0.6-0.2,0.9-0.4c0.1,0,0.1-0.1,0.2-0.1c0.3-0.1,0.7-0.3,1-0.4c4.3-1.7,8.4-3.5,12.4-5.7c3.7-1.9,7.2-4,10.7-6.2
		c4.4-2.9,8.6-6,12.6-9.3c2.5-2.1,4.9-4.2,7.2-6.5c3.8-3.7,7.4-7.7,10.8-11.9c11.7-14.8,20.3-32.2,24.5-51.2
		c2.1-9.1,3.1-18.5,3.1-28.2C321.1,95,306.8,63,283.6,39.9z"/>
	<path class="st7" d="M386.8,359c3-2.6,7.6-3.3,12.7-2.9c3.1,0.2,6.4,0.9,9.5,1.7c5.9,1.6,11.4,4,14.6,6c9.8,6.1,11.5,11.3,13,20.6
		c1.4,8.6-1.6,23.7-7.5,22.9c-0.4-0.1-0.8-0.2-1.1-0.4"/>
	<path class="st7" d="M422.7,401c-0.1-0.1-0.1-0.2-0.2-0.4"/>
	<path class="st7" d="M424.3,373.5c3.9,8.1,7.2,18,5.4,26.5c-0.6,2.9-1.2,5.2-1.9,7c-1.4,3.6-3.1,5.2-5.8,5"/>
	<path class="st7" d="M386.7,359c-2.5,1.2-4.6,4.8-6.9,8.2c-2.1,3-4.3,5.9-7.2,6.4c-5.9,1.1-6.5,11.7,3.4,9.2
		c9.9-2.5,9.8-9.4,18.4-7.3c8.6,2.1,10.2,5.4,10.2,5.4c13.6,14.4,6.1,32,11.1,34c4.4,1.8,6.4-6.9,6.8-14.2c0.2-2.9,0.1-5.6-0.1-7.4
		c-1-6.9-5.4-16.6-5.4-16.6"/>
	<path class="st7" d="M337.1,202.9c-1.7,11-14.6,5.5-27.8,4.6c-1.4-0.1-2.7-0.1-4.1-0.1c-4,0.1-7.9,0.8-11.4,2.7"/>
	<path class="st10" d="M259.6,242.5c20.2-0.9,49.4,10,68.8,24.6c28.4,21.3,42.8,41.9,53.8,58.3c8.6,12.8,14.9,25.7,17.2,30.6
		c0.7,1.4,1,2.2,1,2.2"/>
	<path class="st10" d="M155.8,252.6C155.8,252.6,155.8,252.6,155.8,252.6c-19.4,11.2-34.8,24-39.1,35.3c-0.1,0.4-0.3,0.8-0.4,1.1"/>
	<path class="st10" d="M288.5,265.8c-9.9,2-1.4,34.1,5.3,46.4c3.3,6,7.6,11.8,12.8,16c5.5,4.5,12,7.4,19.5,7.1"/>
	<path class="st10" d="M310.8,364.4c0.6,14.6-14.6,33.4-21.9,59.6c-7.3,26.1-17,80.2,2.4,119.1c19.5,38.9,43.8,58.9,64.4,71.7
		c15.5,9.6,35.2,18.9,44,22.9c2.9,1.3,4.6,2.1,4.6,2.1s0.3-0.1,0.8-0.3c2.9-0.8,13-2.2,20.8,13.8c9.1,18.8,11.2,50.9,21.6,58.2"/>
	<path class="st10" d="M249.1,389.2c-14.9,12.3-69,33.5-83.6,79.1s-14.6,80.2,7.9,111.8c17.6,24.7,35.5,37.5,42.5,41.9
		c2,1.2,3.1,1.8,3.1,1.8s0.3-0.4,1-0.9c2.4-2,9.1-6.1,17.3,2.1c8.3,8.3,4.9,60.2,13.4,68.1"/>
	<path class="st10" d="M331.1,167.3c0,11.4-16.4,34.6-26,39.7"/>
</g>
</svg>
