<?xml version="1.0" encoding="utf-8"?>
<!-- Generator: Adobe Illustrator 23.0.1, SVG Export Plug-In . SVG Version: 6.00 Build 0)  -->
<svg version="1.1" id="Layer_1" xmlns="http://www.w3.org/2000/svg" xmlns:xlink="http://www.w3.org/1999/xlink" x="0px" y="0px"
	 viewBox="0 0 253.9 877.9" style="enable-background:new 0 0 253.9 877.9;" xml:space="preserve">
<style type="text/css">
	.st0{fill:#85C2DD;}
	.st1{fill:#C3CED4;}
	.st2{fill:#ABB3B7;}
	.st3{fill:#8FCFF1;}
	.st4{fill:#C1DFF4;}
	.st5{fill:#F1F6FB;}
	.st6{fill:#E6E7E8;}
	.st7{fill:none;stroke:#667682;stroke-width:5;stroke-linecap:round;stroke-linejoin:round;stroke-miterlimit:10;}
	.st8{fill:none;stroke:#667682;stroke-width:5;stroke-miterlimit:10;}
	.st9{fill:#FFFFFF;}
	.st10{fill:none;stroke:#FFFFFF;stroke-width:7;stroke-linecap:round;stroke-linejoin:round;stroke-miterlimit:10;}
</style>
<ellipse id="DEVELOP_SHADOW" class="st0" cx="117.6" cy="861.7" rx="117.6" ry="16.2"/>
<g>
	<path class="st1" d="M182.2,810.8h-19.2v-0.3c0,0,1.4-8.4,3.1-22.9C175.6,793.3,181.7,801.5,182.2,810.8z"/>
	<path class="st1" d="M170.5,787.9c-1.7,14.5-3.1,22.9-3.1,22.9v0.3h-25.8c-0.2-5.1-2.2-9.9-5.5-14.1v-16.4c1.7-0.1,3.4-0.2,5.1-0.2
		C152.4,780.4,162.6,783.2,170.5,787.9z"/>
	<path class="st1" d="M136.1,811.1h5.5c0,0.3,0,0.7,0,1H95.8c0-0.3,0-0.7,0-1H136.1z"/>
	<path class="st1" d="M141.6,811.1h-5.5V797C139.4,801.2,141.4,806,141.6,811.1z"/>
	<path class="st1" d="M136.1,797v14.1H95.8c0.5-11,9.1-20.6,21.8-26c0.4-0.2,0.7-0.3,1.1-0.5C126.1,787.5,132.1,791.8,136.1,797z"/>
	<path class="st1" d="M117.8,784.2c0.3,0.1,0.6,0.2,0.9,0.3c-0.4,0.1-0.7,0.3-1.1,0.5l0,0C117.6,785,117.7,784.7,117.8,784.2z"/>
	<path class="st1" d="M117.8,784.2c-0.2,0.5-0.2,0.8-0.2,0.8l0,0c-12.7,5.4-21.3,15-21.8,26H85.5v-29.8c3.4-0.6,7.1-0.9,10.8-0.9
		C104.1,780.4,111.4,781.8,117.8,784.2z"/>
	<path class="st1" d="M85.5,811.1h10.4c0,0.3,0,0.7,0,1h-45c0-14.9,14.8-27.4,34.6-30.8V811.1z"/>
	<path class="st2" d="M213.4,263.3c16.1,17.3,25.8,39.8,25.8,64.3c0,36.5-21.5,68.3-53.5,85.5c0-0.7,0.1-1.3,0.1-2v-6.4
		c20.6-12.4,38.7-34.8,44.6-64.4c6.6-33.2-10.5-61.1-31.9-78.2c-5.8-4.7-11.1-8-18.2-9c-2.4-4.2-5.5-8-9.2-11.2
		c2.8-0.9,5.6-1.9,8.4-2.9C192.5,244.9,204,253.2,213.4,263.3z"/>
	<path class="st2" d="M208.4,246.2c2.6,4.8,4.5,14.3,5,17.1c-9.4-10.1-20.9-18.4-33.9-24.4c4.1-1.6,8.2-3.4,12.1-5.5
		C201.2,234.5,205.3,240.6,208.4,246.2z"/>
	<path class="st1" d="M176.1,381.9c3.5-2.4,6.7-5.1,9.7-8v30.8c-2.5,1.5-5,2.9-7.5,4.1c-5.3,2.5-9.6,4.5-13.2,6.1v-26.6
		C169,386.5,172.6,384.4,176.1,381.9z"/>
	<path class="st2" d="M178.2,408.8c2.5-1.2,5-2.6,7.5-4.1v6.4c0,0.7,0,1.4-0.1,2c-4.5,2.4-9.2,4.6-14.1,6.4
		c-2.1,0.8-4.3,1.5-6.5,2.2v-6.8C168.6,413.3,173,411.3,178.2,408.8z"/>
	<path class="st2" d="M185.7,413.1c-0.3,5.9-1.8,11.4-4.3,16.4h-11.2c1.2-5.8,1.3-10,1.3-10l0,0
		C176.5,417.7,181.2,415.5,185.7,413.1z"/>
	<path class="st2" d="M184.8,281.5l-10,49.5c-1-12.4-1.9-22.4-0.6-30.6c2.7-17,8.2-19.4,8.2-19.4L184.8,281.5z"/>
	<path class="st1" d="M198.5,262c21.4,17.1,38.5,45,31.9,78.2c-5.9,29.7-24.1,52-44.6,64.4v-30.8c12.3-12.2,19.8-28.5,19.8-46.4
		c0-17.9-7.5-34.2-19.8-46.3v-7.6c0-7.5-2-14.5-5.5-20.6C187.4,254,192.7,257.4,198.5,262z"/>
	<path class="st3" d="M181.4,429.5L181.4,429.5l0.1,381.5h-0.2c-0.4-9.3-6.6-17.6-16.1-23.2c3.4-29.1,8.1-83,5.1-143.5
		c-4.6-90.5-5.3-136-5.3-136l4.6-63.9l-0.2-0.3C174.4,440.4,178.6,435.3,181.4,429.5z"/>
	<path class="st2" d="M170.2,429.5h11.2c-2.9,5.8-7,10.8-12.1,14.7c-1.8,1.4-3.8,2.7-5.8,3.8C167.1,442.1,169.1,435.1,170.2,429.5z"
		/>
	<path class="st2" d="M185,280.5L185,280.5c0.3,0.2,0.5,0.5,0.8,0.7v92.7c-3,2.9-6.2,5.6-9.7,8l-0.4-0.6L185,280.5z"/>
	<path class="st2" d="M175.7,381.3c1.4-20.3,0.2-36.8-0.9-50.4l10-49.5l0.2-1L175.7,381.3z"/>
	<path class="st2" d="M148.1,258.2c7.7-6.9,15.1-13.9,22.2-16.2c0.2-0.1,0.5-0.1,0.7-0.2c3.7,3.2,6.8,6.9,9.2,11.2
		c-6.4-0.9-14.4,0-25.7,3.6C152.4,257.3,150.3,257.8,148.1,258.2z"/>
	<path class="st1" d="M165.1,421.7c2.2-0.7,4.4-1.4,6.5-2.2l0,0l-3,10h-3.5V429V421.7z"/>
	<path class="st1" d="M168.6,429.5l3-10c0,0-0.2,4.3-1.3,10H168.6z"/>
	<path class="st2" d="M170.4,242.1c-7.1,2.3-14.5,9.3-22.2,16.2c-5.4,1.1-11,1.4-16.4,1.1c2.5-4.4,6-9,11.1-12.2
		C152.4,246.5,161.6,244.7,170.4,242.1z"/>
	<path class="st4" d="M119.8,670.3c1.9,77.4-5.8,108.7-7.3,113.9c-6.4-2.4-13.8-3.8-21.6-3.8c-3.7,0-7.3,0.3-10.8,0.9V429.5h0.1
		c6.9,13.9,21.2,23.5,37.6,23.5h26c6.9,0,13.4-1.7,19.1-4.7l-0.3,1.1c0.3-0.4,0.6-0.9,0.9-1.4c2-1.1,4-2.4,5.8-3.8l0.2,0.3
		l-4.6,63.9c0,0,0.7,45.5,5.3,136c3.1,60.4-1.6,114.3-5.1,143.5c-7.9-4.7-18.1-7.5-29.3-7.5c-1.7,0-3.4,0.1-5.1,0.2V471.1
		C115.7,484.7,117.7,584.9,119.8,670.3z"/>
	<path class="st5" d="M135.9,780.4c11.2,0,21.4,2.8,29.3,7.5c3.3,15-28.6,25.1-28.6,25.1H90.8c0,0,0.1-0.3,0.2-0.6
		c1.5-3.7,9.8-22.4,21.3-27.3c0.4-0.2,0.7-0.3,1.1-0.5c5.2-2.1,11.1-3.5,17.4-4C132.5,780.5,134.2,780.4,135.9,780.4z"/>
	<path class="st1" d="M162.9,421.8c-0.4-1.6-0.7-3.5-1-5.6c1-0.4,2-0.9,3.1-1.4v6.8c-0.2,0.1-0.4,0.1-0.6,0.2H162.9z"/>
	<path class="st1" d="M165.1,388.3v26.6c-1.1,0.5-2.2,1-3.1,1.4c-0.4-2.8-0.6-5.9-0.6-9.5c0-11.9,2.8-23.9,3.6-26.9l-1.9,9.3
		C163.7,389,164.4,388.6,165.1,388.3z"/>
	<path class="st1" d="M164.9,379.8c0.1-0.4,0.2-0.6,0.2-0.6v9.1c-0.7,0.3-1.4,0.6-2.1,1l1.9-9.3
		C164.9,379.9,164.9,379.8,164.9,379.8z"/>
	<path class="st1" d="M185.7,273.6v7.6c-0.3-0.3-0.5-0.5-0.8-0.8v0l-0.2,1l-2.4-0.5c0,0-5.4,2.4-8.2,19.4
		c-1.3,8.1-0.4,18.1,0.6,30.6l-9.9,48.8c0,0,0,0.1,0,0.1c-0.8,3-3.6,14.9-3.6,26.9c0,3.5,0.2,6.7,0.6,9.5
		c-9.8,4.3-12.3,4.8-12.3,4.8v0.8l13.3,0c1,4.6,2.1,7.1,2.1,7.1v0.6H96.5h-4v-2.2c0,0,1.1-2.4,2.1-6.7c0.9-3.8,1.7-9,1.7-15.5
		c0-6.4-0.8-12.9-1.7-17.9c-0.4-2.1-0.7-3.9-1-5.4l2.8-0.5L76.4,280.8c-0.2,0.2-0.3,0.3-0.5,0.5v-7.6c0-12.5,5.5-23.8,14.3-31.4
		c4.5,3.9,9.6,7.2,14.9,9.9c1.2,1.3,2.4,2.8,3.6,4.3c11.2,14.8,17.9,16.9,17.9,16.9c7.4-2.6,14.6-8.8,21.5-15.1
		c2.1-0.4,4.3-1,6.4-1.6c11.3-3.6,19.3-4.5,25.7-3.6C183.7,259.1,185.7,266.2,185.7,273.6z"/>
	<path class="st1" d="M165.1,388.3v-9.1c0,0-0.1,0.2-0.2,0.6l9.9-48.8c1.1,13.6,2.3,30.1,0.9,50.4l0.4,0.6
		C172.6,384.4,169,386.5,165.1,388.3z"/>
	<path class="st1" d="M165.1,421.7v7.3c0,0-1.1-2.5-2.1-7.1h1.6C164.7,421.8,164.9,421.7,165.1,421.7z"/>
	<path class="st1" d="M163,448.3c0.2-0.1,0.4-0.2,0.5-0.3c-0.3,0.5-0.6,0.9-0.9,1.4L163,448.3z"/>
	<path class="st1" d="M163,448.3l5.6-18.8h1.6c-1.1,5.6-3.1,12.5-6.7,18.5C163.3,448.1,163.1,448.2,163,448.3z"/>
	<path class="st1" d="M149.6,421c0,0,2.5-0.5,12.3-4.8c0.3,2.1,0.6,4,1,5.6l-13.3,0V421z"/>
	<path class="st2" d="M131.7,259.3c5.4,0.3,11,0,16.4-1.1c-7,6.2-14.1,12.4-21.5,15.1C126.6,273.3,127.7,266.5,131.7,259.3z"/>
	<path class="st6" d="M131.7,259.3c-4,7.2-5.1,14-5.1,14s0.4-6.9-3.3-15.1C126.1,258.8,128.9,259.1,131.7,259.3z"/>
	<path class="st6" d="M115.5,246c6.1,0.9,12.4,1.4,18.8,1.4c2.9,0,5.7-0.1,8.6-0.3c-5.1,3.2-8.7,7.8-11.1,12.2
		c-2.8-0.2-5.7-0.5-8.4-1.1c-1.7-3.7-4.2-7.8-7.9-11.5L115.5,246z"/>
	<path class="st3" d="M130.8,780.6c-6.3,0.5-12.2,1.9-17.4,4c-0.3-0.1-0.6-0.2-0.9-0.3c1.4-5.2,9.1-36.5,7.3-113.9
		c-2-85.4-4.1-185.6,11.1-199.2V780.6z"/>
	<path class="st2" d="M105.1,252.1c5.7,2.9,11.9,4.9,18.2,6.2c3.7,8.2,3.3,15.1,3.3,15.1s-6.6-2-17.9-16.9
		C107.5,254.9,106.3,253.4,105.1,252.1z"/>
	<path class="st5" d="M112.3,785c-11.5,4.9-19.8,23.6-21.3,27.3l-0.5-0.2h-45c0-14.9,14.8-27.4,34.6-30.8c3.4-0.6,7.1-0.9,10.8-0.9
		c7.8,0,15.2,1.4,21.6,3.8c0.3,0.1,0.6,0.2,0.9,0.3C113,784.7,112.7,784.9,112.3,785z"/>
	<path class="st2" d="M92.6,240.2c7.3,2.6,15,4.5,22.9,5.8l-0.1,0.7c3.8,3.8,6.3,7.8,7.9,11.5c-6.3-1.2-12.4-3.3-18.2-6.2
		c-4.8-5.4-9.5-9-13.2-11.3C92.1,240.6,92.3,240.4,92.6,240.2z"/>
	<path class="st2" d="M91.9,240.8c3.7,2.3,8.5,5.9,13.2,11.3c-5.4-2.7-10.4-6-14.9-9.9C90.8,241.7,91.3,241.2,91.9,240.8z"/>
	<path class="st1" d="M90.2,242.2c-8.7,7.7-14.3,18.9-14.3,31.4v7.6c-12.3,12.2-19.8,28.5-19.8,46.3c0,17.9,7.5,34.2,19.8,46.3v37.2
		c0,0.7,0,1.4,0.1,2c-32-17.2-53.5-49.1-53.5-85.5c0-39.9,25.7-74.3,62.8-90C86.8,239.2,88.5,240.7,90.2,242.2z"/>
	<path class="st2" d="M91.9,240.8c-2.2-1.4-3.9-2.3-5.2-2.8c1.9,0.8,3.9,1.6,5.9,2.3C92.3,240.4,92.1,240.6,91.9,240.8z"/>
	<path class="st1" d="M86.5,237.9c-0.3-0.1-0.7-0.3-1-0.4c0,0,0,0,0,0C85.8,237.6,86.1,237.7,86.5,237.9z"/>
	<path class="st2" d="M85.5,237.5c0.3,0.1,0.7,0.3,1,0.4c0.1,0,0.1,0.1,0.2,0.1c1.2,0.6,3,1.5,5.2,2.8c-0.6,0.4-1.1,0.9-1.7,1.4
		c-1.7-1.5-3.4-3-4.9-4.6C85.4,237.5,85.4,237.5,85.5,237.5z"/>
	<path class="st1" d="M85,237.2c0,0,0.2,0.1,0.6,0.2c0,0,0,0,0,0C85.3,237.4,85.1,237.3,85,237.2z"/>
	<path class="st1" d="M75.9,373.9c4.7,4.7,10.1,8.7,16.1,12.1C85.5,382.6,81.3,379.2,75.9,373.9z"/>
	<path class="st1" d="M117.8,453c-16.4,0-30.8-9.6-37.6-23.5h12.2h4h68.6h3.5l-5.6,18.8c-5.7,3-12.3,4.7-19.1,4.7H117.8z"/>
	<path class="st1" d="M75.9,373.9c5.3,5.3,9.6,8.7,16.1,12.1c0.8,0.4,1.6,0.9,2.5,1.3c0.9,5,1.7,11.5,1.7,17.9
		c0,6.5-0.8,11.7-1.7,15.5L76,413.1c0-0.7-0.1-1.3-0.1-2V373.9z"/>
	<path class="st1" d="M92,386c-6-3.3-11.4-7.4-16.1-12.1v-92.7c0.2-0.2,0.3-0.3,0.5-0.5l19.8,100.6l-2.8,0.5c0.3,1.5,0.7,3.3,1,5.4
		C93.7,386.9,92.8,386.4,92,386z"/>
	<path class="st1" d="M80.2,429.5c-2.5-5-4-10.6-4.3-16.4l18.5,7.6c-1,4.3-2.1,6.7-2.1,6.7v2.2H80.2z"/>
	<path class="st7" d="M75.9,373.9c4.7,4.7,10.1,8.7,16.1,12.1c0.8,0.4,1.6,0.9,2.5,1.3"/>
	<polyline class="st8" points="80.2,781.3 80.2,429.5 80.2,429.5 	"/>
	<polyline class="st8" points="181.4,429.5 181.5,429.5 181.5,811.1 181.3,811.1 	"/>
	<path class="st7" d="M185.7,413.1c-0.3,5.9-1.8,11.4-4.3,16.4c-2.9,5.8-7,10.8-12.1,14.7c-1.8,1.4-3.8,2.7-5.8,3.8"/>
	<line class="st7" x1="185.7" y1="281.2" x2="185.7" y2="373.9"/>
	<line class="st7" x1="75.9" y1="373.9" x2="75.9" y2="281.2"/>
	<path class="st7" d="M163,448.3c-5.7,3-12.3,4.7-19.1,4.7h-26c-16.4,0-30.8-9.6-37.6-23.5c-2.5-5-4-10.6-4.3-16.4"/>
	<path class="st7" d="M85.3,237.6c-37.1,15.7-62.8,50.1-62.8,90c0,36.4,21.5,68.3,53.5,85.5l18.5,7.6"/>
	<path class="st7" d="M165.1,421.7c2.2-0.7,4.4-1.4,6.5-2.2c4.9-1.8,9.6-3.9,14.1-6.4c32-17.2,53.5-49.1,53.5-85.5
		c0-24.5-9.7-47-25.8-64.3c-9.4-10.1-20.9-18.4-33.9-24.4"/>
	<path class="st7" d="M94.1,387c-0.7-0.3-1.4-0.7-2-1c-6.5-3.3-10.8-6.8-16.1-12.1c-12.3-12.2-19.8-28.5-19.8-46.3
		c0-17.9,7.5-34.2,19.8-46.3c0.2-0.2,0.3-0.3,0.5-0.5"/>
	<path class="st7" d="M185,280.5c0.3,0.2,0.5,0.5,0.8,0.8c12.3,12.2,19.8,28.5,19.8,46.3c0,17.9-7.5,34.2-19.8,46.4
		c-3,2.9-6.2,5.6-9.7,8c-3.4,2.4-7.1,4.6-11,6.4"/>
	<path class="st7" d="M92.4,377.6c0,0,0.4,1.6,1,4.3c0.3,1.5,0.7,3.3,1,5.4c0.9,5,1.7,11.5,1.7,17.9c0,6.5-0.8,11.7-1.7,15.5
		c-1,4.3-2.1,6.7-2.1,6.7"/>
	<path class="st7" d="M165.1,379.2c0,0-0.1,0.2-0.2,0.6c0,0,0,0.1,0,0.1c-0.8,3-3.6,14.9-3.6,26.9c0,3.5,0.2,6.7,0.6,9.5
		c0.3,2.1,0.6,4,1,5.6c1,4.6,2.1,7.1,2.1,7.1"/>
	<line class="st7" x1="130.8" y1="471.1" x2="130.8" y2="780.6"/>
	<path class="st7" d="M114.8,246.1c3.8,3.8,6.8,8.4,8.5,12.2c3.7,8.2,3.3,15.1,3.3,15.1s1.1-6.8,5.1-14c2.5-4.4,6-9,11.1-12.2"/>
	<path class="st7" d="M191.5,233.4C191.5,233.4,191.5,233.4,191.5,233.4c9.7,1,13.8,7.2,16.9,12.8c2.6,4.8,4.5,14.3,5,17.1
		c0.1,0.5,0.1,0.8,0.1,0.8"/>
	<path class="st7" d="M171.1,241.9c-0.2,0.1-0.5,0.2-0.7,0.2c-7.1,2.3-14.5,9.3-22.2,16.2c-7,6.2-14.1,12.4-21.5,15.1
		c0,0-6.6-2-17.9-16.9c-1.2-1.6-2.4-3-3.6-4.3c-4.8-5.4-9.5-9-13.2-11.3c-2.2-1.4-3.9-2.3-5.2-2.8c-0.1,0-0.1-0.1-0.2-0.1
		c-0.4-0.2-0.7-0.3-1-0.4c-0.4-0.2-0.6-0.2-0.6-0.2"/>
	<path class="st7" d="M113.4,784.7c-0.3-0.1-0.6-0.2-0.9-0.4c-6.4-2.5-13.8-3.9-21.6-3.9c-3.7,0-7.3,0.3-10.8,0.9
		c-19.9,3.5-34.6,16.3-34.6,31.6h45"/>
	<path class="st7" d="M90.8,812.9c0,0,0.1-0.3,0.2-0.6c1.5-3.7,9.8-22.4,21.3-27.3c0.4-0.2,0.7-0.3,1.1-0.5c5.2-2.1,11.1-3.5,17.4-4
		c1.7-0.1,3.4-0.2,5.1-0.2c11.2,0,21.4,2.8,29.3,7.5c9.5,5.6,15.7,13.9,16.1,23.2c0,0.3,0.3,1.5,0.3,1.9h-45H90.8"/>
	<path class="st7" d="M117.7,785.3c13.7-2.8,20.9,1.5,20.9,1.5"/>
	<path class="st7" d="M108.7,792.2c13.7-2.8,20.9,1.5,20.9,1.5"/>
	<path class="st7" d="M71.6,785.3c14.3-2.8,21.8,1.5,21.8,1.5"/>
	<path class="st7" d="M62.4,791.9c14.3-2.8,21.8,1.5,21.8,1.5"/>
	<path class="st7" d="M125.8,464.8c1.9,3.4,8.4,6.5,8.4,6.5"/>
	<g>
		<path class="st5" d="M215,38.8c-22.5-22.4-53.5-36.3-87.8-36.3C58.6,2.5,3,58.1,3,126.7c0,38.2,17.2,72.4,44.4,95.2
			c16.3,7.8,33.8,12,51.5,12.7c1.4,0.1,2.9,0.1,4.3,0.1c8.8,0,17.6-0.8,26.2-2.6c24.1-4.9,47.1-16.7,65.8-35.4
			C238,153.9,244.6,88.6,215,38.8z"/>
		<path class="st1" d="M215,38.8c29.6,49.7,23,115-19.8,157.9c-18.7,18.7-41.7,30.5-65.8,35.4c-8.6,1.8-17.4,2.6-26.2,2.6
			c-1.4,0-2.9,0-4.3-0.1c-17.7-0.6-35.2-4.9-51.5-12.7c9.1,7.7,19.4,14.1,30.5,18.9c0,0,0.2,0.1,0.6,0.2c0.2,0.1,0.6,0.2,1,0.4
			c0.1,0,0.1,0.1,0.2,0.1c1.9,0.8,3.9,1.6,5.9,2.3c7.3,2.6,15,4.5,22.9,5.8c6.1,0.9,12.4,1.4,18.8,1.4c2.9,0,5.7-0.1,8.6-0.3
			c9.5-0.6,18.7-2.4,27.5-5c0.2-0.1,0.5-0.1,0.7-0.2c2.8-0.9,5.6-1.9,8.4-2.9c4.1-1.6,8.2-3.4,12.1-5.5
			c39.8-20.7,66.9-62.3,66.9-110.2C251.4,92.4,237.5,61.3,215,38.8z"/>
		<path class="st8" d="M215,38.8c-22.5-22.4-53.5-36.3-87.8-36.3C58.6,2.5,3,58.1,3,126.7c0,38.2,17.2,72.4,44.4,95.2
			c9.1,7.7,19.4,14.1,30.5,18.9c0.2,0.1,0.4,0.2,0.5,0.2c0.3,0.1,2,0.9,2.4,1l0.6,0.2c1.3,0.5,2.7,1,4.1,1.5
			c7.3,2.6,15,4.5,22.9,5.8c6.1,0.9,12.4,1.4,18.8,1.4c2.9,0,5.7-0.1,8.6-0.3c9.5-0.6,18.7-2.4,27.5-5l0.3-0.1
			c2.9-0.9,6.4-2.1,8.9-3.1c4.1-1.6,8.2-3.4,12.1-5.5c39.8-20.7,66.9-62.3,66.9-110.2C251.4,92.4,237.5,61.3,215,38.8z"/>
		<path class="st9" d="M62.6,60.6c-1.4,0-2.9-0.6-3.9-1.7c-2-2.2-1.8-5.5,0.3-7.5c8.6-7.9,18.3-14.2,29-18.7
			c12.8-5.5,26.4-8.3,40.4-8.3c2.9,0,5.3,2.4,5.3,5.3s-2.4,5.3-5.3,5.3c-12.6,0-24.8,2.5-36.2,7.4c-9.5,4.1-18.3,9.7-26,16.8
			C65.1,60.2,63.9,60.6,62.6,60.6z"/>
		<path class="st9" d="M30.9,132.5c-2.9,0-5.3-2.4-5.3-5.3c0-9.7,1.3-19.2,4-28.4c0.8-2.8,3.8-4.5,6.6-3.6c2.8,0.8,4.4,3.8,3.6,6.6
			c-2.4,8.2-3.6,16.8-3.6,25.5C36.2,130.2,33.8,132.5,30.9,132.5z"/>
	</g>
	<g>
		<polyline class="st10" points="146.3,310.9 165.1,324.7 146.6,338.1 		"/>
		<polyline class="st10" points="107.2,310.9 88.4,324.7 106.9,338.1 		"/>
	</g>
	<line class="st10" x1="137.2" y1="301.7" x2="116.3" y2="348.8"/>
</g>
</svg>
