<?xml version="1.0" encoding="utf-8"?>
<!-- Generator: Adobe Illustrator 23.0.1, SVG Export Plug-In . SVG Version: 6.00 Build 0)  -->
<svg version="1.1" id="Layer_1" xmlns="http://www.w3.org/2000/svg" xmlns:xlink="http://www.w3.org/1999/xlink" x="0px" y="0px"
	 viewBox="0 0 1267.37 878.47" style="enable-background:new 0 0 1267.37 878.47;" xml:space="preserve">
<style type="text/css">
	.st0{fill:#8FCFF1;stroke:#667682;stroke-width:5;stroke-linecap:round;stroke-linejoin:round;stroke-miterlimit:10;}
	.st1{fill:#71BFF4;stroke:#667682;stroke-width:5;stroke-linecap:round;stroke-linejoin:round;stroke-miterlimit:10;}
	.st2{fill:#FACBC8;stroke:#667682;stroke-width:5;stroke-linecap:round;stroke-linejoin:round;stroke-miterlimit:10;}
	.st3{fill:#C1DFF4;stroke:#667682;stroke-width:5;stroke-linecap:round;stroke-linejoin:round;stroke-miterlimit:10;}
	.st4{fill:none;stroke:#FCFCFC;stroke-width:5;stroke-linecap:round;stroke-linejoin:round;stroke-miterlimit:10;}
	.st5{fill:#F9B4B2;stroke:#667682;stroke-width:5;stroke-linecap:round;stroke-linejoin:round;stroke-miterlimit:10;}
	.st6{fill:none;stroke:#667682;stroke-width:5;stroke-linecap:round;stroke-linejoin:round;stroke-miterlimit:10;}
</style>
<g>
	<g>
		<path class="st0" d="M485.48,252.5c-11.4-4.99-23.95-7.78-37.11-7.78h-37.99c-51.65,0-93.91,42.67-93.91,94.83v441.82h169.01
			V252.5z"/>
		<path class="st1" d="M339.85,277.13c-14.53,16.71-23.39,38.56-23.39,62.41v441.82h23.39"/>
		<path class="st2" d="M485.48,875.97V341.45c-11.4-4.99-23.95-7.78-37.11-7.78h-37.99c-51.65,0-93.91,42.67-93.91,94.83v447.47
			H485.48z"/>
		<g>
			<path class="st3" d="M271.55,436.3c0,25.05,20.11,45.35,44.91,45.35v-90.7C291.66,390.95,271.55,411.26,271.55,436.3z"/>
			<path class="st4" d="M296.68,411.92c-1.76,1.67-3.37,3.52-4.81,5.56c-0.93,1.3-1.79,2.69-2.58,4.15"/>
		</g>
		<path class="st5" d="M339.85,366.08c-14.53,16.71-23.39,38.56-23.39,62.41v447.47h23.39"/>
		<g>
			<line class="st6" x1="339.85" y1="474.55" x2="339.85" y2="467.62"/>
			<line class="st6" x1="339.85" y1="521" x2="339.85" y2="493.02"/>
		</g>
	</g>
	<path class="st2" d="M677.6,831.75H493.53V553.86c0-38.66,31.63-70.29,70.29-70.29h43.5c38.66,0,70.29,31.63,70.29,70.29V831.75z"
		/>
	<path class="st0" d="M229.8,875.97V722.34c0-50.27-40.24-91.71-90.56-94.64v248.27H229.8z"/>
	<g>
		<rect x="616.51" y="266.21" class="st0" width="99.05" height="609.71"/>
		<polyline class="st1" points="640.37,266.21 616.51,266.21 616.51,872.77 640.37,872.77 		"/>
		<g>
			<line class="st6" x1="640.37" y1="353.99" x2="640.37" y2="347.05"/>
			<line class="st6" x1="640.37" y1="400.43" x2="640.37" y2="372.45"/>
		</g>
	</g>
	<g>
		<path class="st3" d="M271.19,507.22H233.2c-51.65,0-93.91,42.67-93.91,94.83v153.87h137.47V507.4
			C274.92,507.29,273.06,507.22,271.19,507.22z"/>
		<polygon class="st2" points="276.76,875.97 276.76,768.83 276.76,666.06 276.76,628.15 139.23,628.15 139.23,666.06 
			139.23,768.83 139.23,875.97 		"/>
		<path class="st0" d="M365.1,602.04c0-50.27-39.26-91.71-88.34-94.64v248.52h88.34V602.04z"/>
		<path class="st4" d="M201.99,530.63c-7.13,4.01-13.75,9.21-19.57,15.61"/>
	</g>
	<g>
		<path class="st2" d="M666.03,141.77c-50.98,0-92.31,41.73-92.31,93.21h184.61C758.34,183.5,717.01,141.77,666.03,141.77z"/>
		<g>
			<path class="st3" d="M666.03,328.19c50.98,0,92.31-41.73,92.31-93.21H573.73C573.73,286.46,615.05,328.19,666.03,328.19z"/>
			<path class="st4" d="M705.78,301.97c4.33-2.43,8.46-5.31,12.36-8.64c2.51-2.12,4.91-4.45,7.2-6.96"/>
		</g>
	</g>
	<g>
		<rect x="967.66" y="331.07" class="st0" width="89.47" height="129.44"/>
		<polyline class="st1" points="1031.09,460.51 1057.13,460.51 1057.13,330.72 1031.09,330.72 		"/>
	</g>
	<g>
		<path class="st2" d="M936.73,266.21H909.2v0c0,37.07,30.03,67.4,66.74,67.4h67.27c36.71,0,66.74-30.33,66.74-67.4v0H964.67"/>
		<path class="st3" d="M964.67,266.21h145.29v0c0-37.07-30.04-67.4-66.74-67.4h-67.27c-36.71,0-66.74,30.33-66.74,67.4v0h27.54"/>
		<path class="st4" d="M1083.55,232.51c-3.39-3.65-7.17-6.99-11.32-9.98c-2.65-1.94-5.48-3.72-8.45-5.35"/>
	</g>
	<g>
		<path class="st3" d="M184.88,758.62c-24.8,0-44.91,20.3-44.91,45.35h89.82C229.8,778.92,209.69,758.62,184.88,758.62z"/>
		<path class="st4" d="M209.03,783.99c-1.65-1.77-3.49-3.4-5.51-4.86c-1.29-0.94-2.66-1.81-4.11-2.6"/>
	</g>
	<g>
		<rect x="414.44" y="191.68" class="st0" width="89.81" height="684.29"/>
		<polyline class="st1" points="479.15,875.97 504.25,875.97 504.25,191.68 479.15,191.68 		"/>
		<rect x="414.44" y="128.17" class="st2" width="89.81" height="63.51"/>
		<polyline class="st5" points="479.15,191.68 504.25,191.68 504.25,128.17 479.15,128.17 		"/>
		<g>
			<line class="st6" x1="479.15" y1="240.4" x2="479.15" y2="247.34"/>
			<line class="st6" x1="479.15" y1="193.96" x2="479.15" y2="221.94"/>
		</g>
	</g>
	<g>
		<path class="st2" d="M386.5,69.9h-27.54v0c0,37.07,30.04,67.4,66.74,67.4h67.27c36.71,0,66.74-30.33,66.74-67.4v0H414.44"/>
		<path class="st3" d="M414.44,69.9h145.29v0c0-37.07-30.03-67.4-66.74-67.4h-67.27c-36.71,0-66.74,30.33-66.74,67.4v0h27.54"/>
		<path class="st4" d="M533.31,36.2c-3.39-3.65-7.17-6.99-11.32-9.98c-2.65-1.94-5.48-3.72-8.45-5.35"/>
	</g>
	<g>
		<g>
			<path class="st3" d="M549.88,375.21c0,25.05-20.43,45.35-45.63,45.35v-90.7C529.45,329.86,549.88,350.16,549.88,375.21z"/>
			<path class="st4" d="M524.35,350.82c1.78,1.67,3.42,3.52,4.89,5.56c0.95,1.3,1.82,2.69,2.62,4.15"/>
		</g>
		<rect x="504.25" y="375.21" class="st2" width="45.63" height="500.76"/>
	</g>
	<g>
		<path class="st2" d="M758.07,875.97V661.65c0-51.08-41.06-92.88-91.24-92.88h-1.6c-50.18,0-91.24,41.79-91.24,92.88v214.32H758.07
			z"/>
		<path class="st0" d="M717.49,875.97c7.57-10.56,12.06-23.49,12.06-37.45V662.58c0-35.28-28.58-64.14-63.52-64.14h0
			c-34.93,0-63.52,28.86-63.52,64.14v175.94c0,13.95,4.49,26.89,12.06,37.45H717.49z"/>
		<path class="st6" d="M651.92,655.33c0-8.28,6.65-15,14.86-15c8.2,0,14.86,6.72,14.86,15c0,8.29-6.66,15.01-14.86,15.01
			C658.57,670.34,651.92,663.62,651.92,655.33z"/>
	</g>
	<g>
		<path class="st3" d="M666.03,693.29c-50.98,0-92.31,41.73-92.31,93.21h184.61C758.34,735.03,717.01,693.29,666.03,693.29z"/>
		<path class="st4" d="M725.55,736.17c-3.39-3.65-7.17-6.99-11.32-9.98c-2.65-1.94-5.48-3.72-8.45-5.35"/>
	</g>
	<g>
		<g>
			<g>
				<rect x="757.92" y="436.75" class="st2" width="90.74" height="439.17"/>
				<g>
					<path class="st3" d="M848.66,435.31c0,25.31-20.31,45.83-45.37,45.83s-45.37-20.51-45.37-45.83c0-25.3,20.31-45.82,45.37-45.82
						S848.66,410,848.66,435.31z"/>
					<path class="st4" d="M808.51,403.72c6.07,1.23,11.51,4.23,15.76,8.45"/>
				</g>
			</g>
			<g>
				<rect x="758.07" y="711.15" class="st0" width="90.72" height="164.81"/>
				<g>
					<path class="st2" d="M758.07,577.76h90.99c-0.27,40.51-47,72.85-90.99,72.85V577.76z"/>
					<path class="st0" d="M849.06,580.13v-2.37l0,0c-8.45,41.57-47,72.85-90.99,72.85v18.55v39.54v77.8
						c47.38,0,90.72-36.14,90.72-82.33"/>
				</g>
				<g>
					<path class="st3" d="M803.43,532.41c-25.05,0-45.36,20.3-45.36,45.35h90.72C848.79,552.71,828.48,532.41,803.43,532.41z"/>
					<path class="st4" d="M827.82,557.78c-1.67-1.77-3.52-3.4-5.56-4.86c-1.3-0.94-2.69-1.81-4.15-2.6"/>
				</g>
			</g>
		</g>
		<path class="st2" d="M967.66,875.97V672.59c0-52.16-42.26-94.83-93.91-94.83h-24.96v298.2H967.66z"/>
		<polyline class="st5" points="872.98,577.76 848.79,577.76 848.79,875.92 872.98,875.92 		"/>
	</g>
	<path class="st2" d="M1057.97,735.73l-0.83-0.73v0.71C1057.41,735.71,1057.69,735.73,1057.97,735.73L1057.97,735.73z"/>
	<g>
		<path class="st0" d="M1264.87,875.92v-36.69c0-52.11-42.26-94.75-93.91-94.75H1146v131.44H1264.87z"/>
		<polyline class="st1" points="1169.48,744.49 1146,744.49 1146,875.92 1169.48,875.92 		"/>
	</g>
	<g>
		<path class="st0" d="M1146,875.97V714.24c0-50.45-39.54-92.02-88.86-94.69v256.41H1146z"/>
		<path class="st2" d="M1146,875.97v-46.98c0-50.45-39.54-90.61-88.86-93.28l0,140.26H1146z"/>
		<g>
			<path class="st3" d="M1190.91,760.49c0,25.05-20.11,45.35-44.91,45.35v-90.7C1170.8,715.14,1190.91,735.44,1190.91,760.49z"/>
			<path class="st4" d="M1165.78,736.1c1.76,1.67,3.37,3.52,4.81,5.56c0.93,1.3,1.79,2.69,2.58,4.15"/>
		</g>
	</g>
	<g>
		<path class="st3" d="M139.29,875.97V628.33c-1.84-0.11-3.68-0.18-5.54-0.18H95.94c-51.39,0-93.44,42.67-93.44,94.83v152.99H139.29
			z"/>
		<rect x="3.24" y="717.37" class="st2" width="136" height="158.6"/>
		<rect x="3.24" y="760.11" class="st0" width="136" height="115.85"/>
		<polyline class="st1" points="28.44,875.97 3.24,875.97 3.24,760.11 28.44,760.11 		"/>
		<path class="st4" d="M59.68,652.75c-7.13,4.01-13.75,9.21-19.57,15.61"/>
		<path class="st0" d="M228.61,875.88V722.9c0-50.27-39.58-91.72-89.07-94.66v247.63H228.61z"/>
		<g>
			<line class="st6" x1="28.44" y1="796.74" x2="28.44" y2="789.81"/>
			<line class="st6" x1="28.44" y1="843.19" x2="28.44" y2="815.2"/>
		</g>
		<path class="st6" d="M61.47,808.57c0-8.28,6.65-15,14.86-15c8.2,0,14.86,6.72,14.86,15c0,8.29-6.66,15.01-14.86,15.01
			C68.12,823.58,61.47,816.86,61.47,808.57z"/>
	</g>
	<g>
		<path class="st2" d="M414.44,820.65h89.81V493.95c0-50.09-40.21-90.69-89.81-90.69h0V820.65z"/>
		<path class="st5" d="M479.15,820.65h25.11V493.95c0-24.41-9.57-46.56-25.11-62.86"/>
		<path class="st0" d="M504.25,875.97V579.6c0-50.09-40.21-90.69-89.81-90.69h0v387.06H504.25z"/>
		<path class="st1" d="M479.15,875.97h25.11V579.6c0-24.41-9.57-46.56-25.11-62.86"/>
		<g>
			<line class="st6" x1="479.15" y1="633.76" x2="479.15" y2="640.7"/>
			<line class="st6" x1="479.15" y1="587.32" x2="479.15" y2="615.3"/>
		</g>
	</g>
	<g>
		<path class="st0" d="M574,648.07c-49.12,2.55-88.52,44.3-88.52,94.97v132.93H574V648.07z"/>
		<path class="st1" d="M548.8,875.92H574l-0.07-227.94c-8.77,0.51-17.22,2.27-25.2,5.07"/>
	</g>
	<g>
		<g>
			<path class="st3" d="M321.16,648.93c-50.98,0-92.31,41.73-92.31,93.21h184.61C413.47,690.66,372.14,648.93,321.16,648.93z"/>
			<path class="st4" d="M380.68,691.8c-3.39-3.65-7.17-6.99-11.32-9.98c-2.65-1.94-5.48-3.72-8.45-5.35"/>
		</g>
		<g>
			<rect x="228.85" y="742.14" class="st2" width="185.58" height="133.83"/>
			<rect x="271.24" y="742.14" class="st0" width="52.4" height="133.83"/>
		</g>
	</g>
	<path class="st2" d="M417.74,742.14h-3.23v133.83h97.14v-37.36C511.65,785.55,469.39,742.14,417.74,742.14z"/>
	<path class="st5" d="M485.21,875.97h26.44v-37.36c0-25.92-10.1-49.52-26.44-66.9"/>
	<g>
		<path class="st6" d="M479.15,597.96"/>
	</g>
	<g>
		<g>
			<path class="st2" d="M936.73,460.51H909.2v0c0,37.07,30.03,67.4,66.74,67.4h67.27c36.71,0,66.74-30.33,66.74-67.4v0H964.67"/>
			<path class="st3" d="M964.67,460.51h145.29v0c0-37.07-30.04-67.4-66.74-67.4h-67.27c-36.71,0-66.74,30.33-66.74,67.4v0h27.54"/>
			<path class="st4" d="M1083.55,426.81c-3.39-3.65-7.17-6.99-11.32-9.98c-2.65-1.94-5.48-3.72-8.45-5.35"/>
		</g>
		<path class="st0" d="M967.32,654.98v220.95h89.81V734.24C1007.99,733.84,967.32,698.51,967.32,654.98z"/>
		<path class="st2" d="M967.32,527.95v128.5c0,43.54,40.67,78.86,89.81,79.26V735V527.95H967.32z"/>
		<path class="st5" d="M1031.09,732.1c8.26,2.27,17.01,3.53,26.04,3.6V735V527.95h-26.04"/>
		<g>
			<line class="st6" x1="1031.09" y1="649.79" x2="1031.09" y2="642.85"/>
			<line class="st6" x1="1031.09" y1="696.24" x2="1031.09" y2="668.25"/>
		</g>
		<path class="st6" d="M993.8,785.23c0-8.28,6.65-15,14.86-15c8.2,0,14.86,6.72,14.86,15c0,8.29-6.66,15.01-14.86,15.01
			C1000.45,800.24,993.8,793.53,993.8,785.23z"/>
		<path class="st1" d="M1031.09,875.97h26.04V735.81c-9.04-0.07-17.78-1.34-26.04-3.6"/>
	</g>
	<g>
		<path class="st2" d="M863.25,875.97c-2.56-49.86-43.36-89.5-93.37-89.5H574v89.5H863.25z"/>
		<path class="st0" d="M731.4,875.97c-0.13-48.9-39.1-88.5-87.16-88.5H574v88.5H731.4z"/>
	</g>
	<g>
		<path class="st3" d="M918.74,782.71c-50.98,0-92.31,41.73-92.31,93.21h184.61C1011.04,824.45,969.72,782.71,918.74,782.71z"/>
		<path class="st4" d="M978.25,825.59c-3.39-3.65-7.17-6.99-11.32-9.98c-2.65-1.94-5.48-3.72-8.45-5.35"/>
	</g>
	<g>
		<path class="st3" d="M413.46,875.97c-0.09-24.97-20.16-45.18-44.91-45.18c-24.75,0-44.81,20.21-44.91,45.18H413.46z"/>
		<path class="st4" d="M376.09,844.93c6.07,1.23,11.51,4.24,15.76,8.45"/>
	</g>
	<g>
		<path class="st3" d="M228.58,803.97c0-25.05-19.94-45.36-44.54-45.36s-44.54,20.3-44.54,45.36H228.58z"/>
		<path class="st4" d="M191.54,772.31c6.07,1.23,11.51,4.24,15.76,8.45"/>
		<rect x="139.51" y="803.97" class="st0" width="89.07" height="71.99"/>
	</g>
</g>
</svg>
