<?xml version="1.0" encoding="utf-8"?>
<!-- Generator: Adobe Illustrator 23.0.1, SVG Export Plug-In . SVG Version: 6.00 Build 0)  -->
<svg version="1.1" id="Layer_1" xmlns="http://www.w3.org/2000/svg" xmlns:xlink="http://www.w3.org/1999/xlink" x="0px" y="0px"
	 viewBox="0 0 1731.2 1731.2" style="enable-background:new 0 0 1731.2 1731.2;" xml:space="preserve">
<style type="text/css">
	.st0{fill:#8FCFF1;}
	.st1{fill:#DBEAF2;}
</style>
<g id="URANUS">
	<path class="st0" d="M442.9,1484.6c-3.1-7-11.3-10.3-18.3-7.2l-116.3,50.5c8,6.7,16.1,13.3,24.3,19.8l103-44.8
		C442.7,1499.9,446,1491.7,442.9,1484.6z"/>
	<path class="st0" d="M488.8,1343.3c-3.1-7-11.3-10.3-18.3-7.2l-248.7,108.1c6.6,7.3,13.3,14.5,20.1,21.6l239.7-104.1
		C488.7,1358.6,491.9,1350.4,488.8,1343.3z"/>
	<path class="st0" d="M894.2,1543L894.2,1543c-3.1-7.2-11.5-10.5-18.7-7.4l-110.7,48.1c-7.2,3.1-15.5-0.2-18.7-7.4v0
		c-3.1-7.2,0.2-15.5,7.4-18.7l223.5-97.1c7.2-3.1,10.5-11.5,7.4-18.7c-3.1-7.2-11.5-10.5-18.7-7.4l-40.3,17.5
		c-7.2,3.1-15.5-0.2-18.7-7.4l0,0c-3.1-7.2,0.2-15.5,7.4-18.7l662.5-287.8c7.2-3.1,15.5,0.2,18.7,7.4l0,0c3.1,7.2-0.2,15.5-7.4,18.7
		l13-5.7l11.3,26l-13,5.7c7.2-3.1,15.5,0.2,18.7,7.4l0,0c3.1,7.2-0.2,15.5-7.4,18.7l9.6-4.2l11.3,26l-5.1,2.2
		c6.3-2.7,13.5-0.5,17.3,4.9c56-114.6,87.5-243.4,87.5-379.6C1731.2,387.5,1343.6,0,865.6,0S0,387.5,0,865.6
		c0,128.8,28.2,251.1,78.6,361l825.5-358.7c7.4-3.2,16,0.4,18.9,8c2.7,7.1-1,15.1-8,18.2l-39.9,17.3c-7.2,3.1-10.5,11.5-7.4,18.7v0
		c3.1,7.2,11.5,10.5,18.7,7.4l223.5-97.1c7.4-3.2,16,0.4,18.9,8c2.7,7.1-1,15.1-8,18.2l-110.3,47.9c-7.2,3.1-10.5,11.5-7.4,18.7h0
		c3.1,7.2,11.5,10.5,18.7,7.4l296.7-128.9c7-3,15.4-0.3,18.7,6.6c3.6,7.3,0.3,16.1-7.1,19.3l-985,428c-6.9,3-14.9-0.2-17.9-7.1
		c-3-6.9,0.2-14.9,7.1-17.9l112.5-48.9c7.4-3.2,10.7-12,7.1-19.3c-3.4-6.9-11.7-9.6-18.7-6.6l-193.4,84c-7.5,3.3-16.2-0.2-19.4-7.7
		c-3.3-7.5,0.2-16.2,7.7-19.4l98.2-42.7c7.2-3.1,10.5-11.5,7.4-18.7v0c-3.1-7.2-11.5-10.5-18.7-7.4l-226,98.2
		c30.6,61.2,68.2,118.2,111.8,170l584.6-254c7-3.1,10.3-11.3,7.2-18.3c-3.1-7-11.3-10.3-18.3-7.2l-137.5,59.7
		c-7,3.1-15.2-0.2-18.3-7.2v0c-3.1-7,0.2-15.2,7.2-18.3l414.8-180.2c1-0.4,2.1,0,2.5,1l10.3,23.8l11.1,25.5l10.3,23.8
		c0.4,1,0,2.1-1,2.5l-0.7,0.3c-1,0.4-1.4,1.5-1,2.5l9.6,22c0.4,1,1.5,1.4,2.5,1l0.7-0.3c1-0.4,2.1,0,2.5,1l10.3,23.8l11.1,25.5
		l11.1,25.5l10.3,23.8c0.4,1,1.5,1.4,2.5,1s2.1,0,2.5,1l10.3,23.8l10.3,23.8c0.4,1,0,2.1-1,2.5c-1,0.4-1.4,1.5-1,2.5l9.6,22
		c0.4,1,0,2.1-1,2.5L614,1516.5c-7,3.1-15.2-0.2-18.3-7.2v0c-3.1-7,0.2-15.2,7.2-18.3l110-47.8c7-3.1,10.3-11.3,7.2-18.3l0,0
		c-3.1-7-11.3-10.3-18.3-7.2l-343.7,149.3c71.6,51.9,151.5,93.1,237.3,121.3l291.3-126.6C894,1558.5,897.3,1550.1,894.2,1543z
		 M185,1273.5l-38,16.5c-7.2,3.1-15.5-0.2-18.7-7.4v0c-3.1-7.2,0.2-15.5,7.4-18.7l38-16.5c7.2-3.1,15.5,0.2,18.7,7.4v0
		C195.5,1262,192.2,1270.4,185,1273.5z"/>
	<path class="st0" d="M637.6,1700.8c72.6,19.8,149.1,30.3,228,30.3c332.4,0,621-187.3,766-462.2L637.6,1700.8z"/>
	<path class="st1" d="M720.2,1424.8L720.2,1424.8c3.1,7-0.2,15.2-7.2,18.3l-110,47.8c-7,3.1-10.3,11.3-7.2,18.3v0
		c3.1,7,11.3,10.3,18.3,7.2l550.3-239.1c1-0.4,1.4-1.5,1-2.5l-9.6-22c-0.4-1,0-2.1,1-2.5c1-0.4,1.4-1.5,1-2.5l-10.3-23.8l-10.3-23.8
		c-0.4-1-1.5-1.4-2.5-1s-2.1,0-2.5-1l-10.3-23.8l-11.1-25.5l-11.1-25.5l-10.3-23.8c-0.4-1-1.5-1.4-2.5-1l-0.7,0.3
		c-1,0.4-2.1,0-2.5-1l-9.6-22c-0.4-1,0-2.1,1-2.5l0.7-0.3c1-0.4,1.4-1.5,1-2.5l-10.3-23.8l-11.1-25.5l-10.3-23.8
		c-0.4-1-1.5-1.4-2.5-1l-414.8,180.2c-7,3.1-10.3,11.3-7.2,18.3v0c3.1,7,11.3,10.3,18.3,7.2l137.5-59.7c7-3.1,15.2,0.2,18.3,7.2
		c3.1,7-0.2,15.2-7.2,18.3l-584.6,254c6.3,7.4,12.6,14.8,19.1,22l248.7-108.1c7-3.1,15.2,0.2,18.3,7.2c3.1,7-0.2,15.2-7.2,18.3
		l-239.7,104.1c21,21.8,43.2,42.6,66.4,62.2l116.3-50.5c7-3.1,15.2,0.2,18.3,7.2c3.1,7-0.2,15.2-7.2,18.3l-103,44.8
		c8.4,6.6,16.9,13,25.5,19.2l343.7-149.3C708.9,1414.6,717.1,1417.8,720.2,1424.8z"/>
	<path class="st1" d="M192.4,1254.8c-3.1-7.2-11.5-10.5-18.7-7.4l-38,16.5c-7.2,3.1-10.5,11.5-7.4,18.7v0
		c3.1,7.2,11.5,10.5,18.7,7.4l38-16.5C192.2,1270.4,195.5,1262,192.4,1254.8L192.4,1254.8z"/>
	<path class="st1" d="M335.6,1161.3L335.6,1161.3c3.1,7.2-0.2,15.5-7.4,18.7l-98.2,42.7c-7.5,3.3-10.9,12-7.7,19.4
		c3.3,7.5,12,10.9,19.4,7.7l193.4-84c7-3,15.4-0.3,18.7,6.6c3.6,7.3,0.3,16.1-7.1,19.3l-112.5,48.9c-6.9,3-10,11-7.1,17.9
		c3,6.9,11,10,17.9,7.1l985-428c7.4-3.2,10.7-12,7.1-19.3c-3.4-6.9-11.7-9.6-18.7-6.6L1022,940.4c-7.2,3.1-15.5-0.2-18.7-7.4h0
		c-3.1-7.2,0.2-15.5,7.4-18.7l110.3-47.9c7-3,10.7-11,8-18.2c-2.9-7.6-11.5-11.2-18.9-8l-223.5,97.1c-7.2,3.1-15.5-0.2-18.7-7.4v0
		c-3.1-7.2,0.2-15.5,7.4-18.7l39.9-17.3c7-3,10.7-11,8-18.2c-2.9-7.6-11.5-11.2-18.9-8L78.6,1226.6c4,8.6,8,17.1,12.3,25.6l226-98.2
		C324.1,1150.8,332.5,1154.1,335.6,1161.3z"/>
	<path class="st1" d="M1643.7,1245.2c-3.8-5.4-11-7.6-17.3-4.9l5.1-2.2l-11.3-26l-9.6,4.2c7.2-3.1,10.5-11.5,7.4-18.7l0,0
		c-3.1-7.2-11.5-10.5-18.7-7.4l13-5.7l-11.3-26l-13,5.7c7.2-3.1,10.5-11.5,7.4-18.7l0,0c-3.1-7.2-11.5-10.5-18.7-7.4L914.2,1426
		c-7.2,3.1-10.5,11.5-7.4,18.7l0,0c3.1,7.2,11.5,10.5,18.7,7.4l40.3-17.5c7.2-3.1,15.5,0.2,18.7,7.4c3.1,7.2-0.2,15.5-7.4,18.7
		l-223.5,97.1c-7.2,3.1-10.5,11.5-7.4,18.7v0c3.1,7.2,11.5,10.5,18.7,7.4l110.7-48.1c7.2-3.1,15.5,0.2,18.7,7.4l0,0
		c3.1,7.2-0.2,15.5-7.4,18.7l-291.3,126.6c13.9,4.6,27.9,8.8,42.1,12.6l994-431.9C1635.8,1261.1,1639.8,1253.2,1643.7,1245.2z"/>
</g>
</svg>
