<?xml version="1.0" encoding="utf-8"?>
<!-- Generator: Adobe Illustrator 23.0.1, SVG Export Plug-In . SVG Version: 6.00 Build 0)  -->
<svg version="1.1" id="Layer_1" xmlns="http://www.w3.org/2000/svg" xmlns:xlink="http://www.w3.org/1999/xlink" x="0px" y="0px"
	 viewBox="0 0 2880 733.27" style="enable-background:new 0 0 2880 733.27;" xml:space="preserve">
<style type="text/css">
	.st0{fill:#FDF3F5;}
</style>
<g>
	<path class="st0" d="M1562.8,147.19l-0.08,1.53c-0.32,5.91,4.2,10.94,10.11,11.29c67.13,3.94,134.7,10.92,201.16,20.81
		c5.85,0.87,11.31-3.13,12.21-8.98l0.23-1.51c0.9-5.87-3.13-11.37-9.01-12.25c-67.17-9.99-135.45-17.05-203.3-21.03
		C1568.2,136.7,1563.12,141.26,1562.8,147.19z"/>
	<path class="st0" d="M1503.77,134.01c-27.05-0.75-54.34-1.02-81.41-0.82c-5.94,0.05-10.7,4.93-10.63,10.87l0.02,1.53
		c0.07,5.92,4.92,10.64,10.84,10.6c26.76-0.2,53.74,0.07,80.48,0.81c5.92,0.16,10.86-4.47,11.05-10.38l0.05-1.53
		C1514.36,139.15,1509.7,134.18,1503.77,134.01z"/>
	<path class="st0" d="M1.3,588c4.66-3.68,11.42-2.85,15.08,1.83l0.02,0.03c3.64,4.66,2.82,11.37-1.82,15.03
		c-2.46,1.94-7.52,5.94-14.58,11.61v116.62c6.7-5.75,13.42-11.48,20.2-17.15c136.93-114.73,286.3-211.91,445.58-290.02
		c0.01-0.01,0.02-0.01,0.04-0.02c0.67-0.33,1.34-0.65,2.01-0.97c4.79-2.34,9.59-4.66,14.39-6.97c2.87-1.38,5.74-2.74,8.62-4.1
		c2.51-1.19,5.03-2.38,7.54-3.56c3.55-1.67,7.1-3.33,10.66-4.98c1.2-0.55,2.39-1.1,3.59-1.65c63.53-29.29,128.75-55.69,194.59-78.74
		c164.19-57.48,335.39-95.49,509.02-113.04c5.89-0.6,10.2-5.82,9.63-11.71l-0.15-1.52c-0.57-5.91-5.83-10.25-11.74-9.66
		c-84,8.49-167.43,21.73-249.8,39.59c-5.78,1.25-11.5-2.38-12.78-8.16l-0.01-0.04c-1.29-5.8,2.38-11.55,8.18-12.81
		c25.4-5.51,50.9-10.59,76.46-15.21c5.82-1.05,9.71-6.6,8.68-12.42l-0.27-1.51c-1.03-5.85-6.62-9.77-12.46-8.71
		c-56.69,10.26-113.04,22.7-168.82,37.23c-5.73,1.49-11.58-1.91-13.1-7.63l-0.01-0.03c-1.52-5.74,1.9-11.64,7.65-13.14
		c71.49-18.62,143.94-33.82,216.82-45.49c5.84-0.94,9.84-6.4,8.93-12.25l-0.23-1.51c-0.91-5.87-6.42-9.9-12.29-8.96
		c-10.58,1.69-21.14,3.46-31.7,5.3c-5.83,1.02-11.39-2.85-12.43-8.68c-1.05-5.85,2.85-11.45,8.71-12.47
		c41.21-7.18,82.59-13.27,124.01-18.23c181.88-21.77,366.28-22.28,548.28-1.49c5.88,0.67,11.2-3.52,11.9-9.39l0.18-1.52
		c0.7-5.9-3.52-11.26-9.42-11.93c-140.76-16.08-282.95-19.53-424.33-10.4c-5.9,0.38-11.01-4.06-11.42-9.97l0-0.05
		c-0.41-5.93,4.07-11.08,10-11.46c38.43-2.48,76.98-4.04,115.6-4.68c5.92-0.1,10.65-4.94,10.57-10.86l-0.02-1.53
		c-0.07-5.94-4.95-10.71-10.89-10.61C1160.83,3.94,924.71,42.98,697.8,116.09c-5.65,1.82-8.74,7.91-6.89,13.55l0.48,1.45
		c1.84,5.62,7.88,8.68,13.51,6.87c41.27-13.29,82.85-25.43,124.69-36.44c5.74-1.51,11.62,1.95,13.11,7.71l0.01,0.02
		c1.48,5.73-1.96,11.56-7.69,13.07c-15.64,4.11-31.22,8.37-46.74,12.8c-5.71,1.63-9,7.6-7.34,13.31l0.43,1.47
		c1.65,5.68,7.58,8.94,13.27,7.32c43.78-12.48,88.06-23.7,132.67-33.64c5.8-1.29,11.54,2.4,12.81,8.2l0.01,0.02
		c1.26,5.78-2.4,11.48-8.17,12.77c-88.33,19.7-175.54,44.54-260.65,74.28c-5.61,1.96-8.54,8.12-6.55,13.72l0.51,1.44
		c1.98,5.58,8.09,8.49,13.68,6.53c20.45-7.14,41.02-14,61.7-20.57c5.66-1.8,11.7,1.37,13.48,7.04l0.01,0.04
		c1.77,5.65-1.38,11.65-7.02,13.44c-49.86,15.85-99.13,33.39-147.65,52.59c-30.68,12.15-61.17,25.01-91.4,38.54
		c-0.21,0.08-0.43,0.15-0.64,0.25c-21.71,9.73-43.25,19.81-64.62,30.2c-0.28,0.13-0.56,0.27-0.83,0.4
		c-4.73,2.3-9.45,4.63-14.16,6.96c-1.18,0.58-2.36,1.16-3.53,1.75c-3.62,1.8-7.24,3.63-10.85,5.45c-2.28,1.15-4.55,2.29-6.83,3.44
		c-2.31,1.18-4.62,2.37-6.93,3.55c-3.56,1.83-7.13,3.65-10.68,5.5c-0.81,0.42-1.62,0.85-2.44,1.28c-4.91,2.56-9.82,5.13-14.71,7.72
		c-5.2,2.72-11.79,1.03-14.66-4.09c-2.94-5.26-0.99-11.9,4.31-14.71c25.23-13.4,50.7-26.33,76.39-38.76
		c5.7-2.76,7.73-9.44,4.49-14.88l0,0c-3.26-5.47-10.63-7.7-16.36-4.92c-12.2,5.92-24.35,11.95-36.45,18.08
		c-5.28,2.68-11.74,0.61-14.45-4.65l-0.03-0.05c-2.71-5.29-0.62-11.79,4.68-14.47c58.49-29.64,118.29-56.83,179.29-81.52
		c5.88-2.38,8.74-9.04,6.39-14.93l0,0c-2.36-5.91-9.07-8.8-14.97-6.41c-25.73,10.41-51.25,21.27-76.55,32.56
		c-5.08,2.27-11.22,0.52-13.98-4.31c-3.15-5.5-0.86-12.42,4.71-15.05c0.76-0.34,1.52-0.69,2.28-1.02c0.18-0.08,0.35-0.16,0.53-0.24
		c25.29-11.26,50.75-22.06,76.33-32.39c5.49-2.22,8.16-8.44,5.97-13.93l-0.57-1.42c-2.2-5.52-8.47-8.22-13.98-5.99
		c-9.8,3.96-19.58,7.98-29.34,12.08c-5.46,2.29-11.74-0.25-14.05-5.69l-0.01-0.01c-2.32-5.47,0.23-11.79,5.71-14.09
		c34.28-14.37,68.86-27.96,103.6-40.68c14.32-5.24,28.85-10.41,43.31-15.39c5.58-1.92,8.55-8,6.65-13.59l-0.49-1.45
		c-1.92-5.64-8.05-8.63-13.68-6.69c-14.59,5.03-29.25,10.24-43.7,15.53c-81.84,29.96-162.88,64.67-241.02,103.22
		c-5.33,2.63-7.49,9.1-4.84,14.41l0.68,1.37c2.64,5.3,9.07,7.44,14.37,4.82c10.11-4.99,20.28-9.9,30.48-14.76
		c5.36-2.55,11.78-0.24,14.3,5.13l0.01,0.03c2.51,5.33,0.25,11.65-5.03,14.22c-2,0.95-3.99,1.92-5.99,2.88
		c-3.02,1.45-6.03,2.89-9.04,4.35c-2.49,1.21-4.97,2.42-7.45,3.63c-3.75,1.83-7.49,3.67-11.23,5.52c-1.77,0.88-3.54,1.75-5.31,2.63
		c-24.13,12.03-48.04,24.44-71.66,37.22c-0.21,0.12-0.41,0.25-0.62,0.38c-38.88,21.07-77.16,43.19-114.82,66.37
		c-5.03,3.1-11.62,1.56-14.74-3.46c-3.13-5.04-1.59-11.67,3.46-14.79c11.52-7.1,23.09-14.11,34.71-21
		c5.43-3.22,7.59-10.23,4.49-15.73c-3.17-5.62-10.34-7.54-15.87-4.27C123.77,335.35,60.87,376.68,0,420.75v168.29
		C0.44,588.7,0.87,588.35,1.3,588z M471.9,373.62c4.5-2.14,9.01-4.26,13.53-6.37c0.79-0.37,1.57-0.73,2.36-1.1
		c39.59-18.41,79.7-35.67,120.13-51.68c1.13-0.45,2.26-0.89,3.39-1.34c5.53-2.18,11.79,0.56,13.94,6.1l0.02,0.05
		c2.14,5.51-0.59,11.71-6.09,13.88c-8.21,3.24-16.4,6.54-24.57,9.87c-0.4,0.11-0.79,0.25-1.18,0.41
		c-25.7,10.51-51.17,21.5-76.42,32.95c-0.62,0.28-1.25,0.57-1.87,0.85c-5.44,2.47-10.88,4.97-16.3,7.48
		c-2.43,1.13-4.86,2.26-7.29,3.4c-3.34,1.57-6.69,3.13-10.02,4.71c-5.33,2.53-11.89,0.55-14.53-4.73
		C464.29,382.74,466.51,376.22,471.9,373.62z"/>
	<path class="st0" d="M2635.27,406.74c2.76-5.25,9.2-7.06,14.28-4c35.88,21.63,71.24,44.25,106.04,67.86
		c42.42,28.77,83.91,58.97,124.4,90.48V421.09c-64.73-46.84-131.69-90.54-200.63-130.86c-5.48-3.21-12.87-1.48-16.39,3.8l0,0
		c-3.51,5.26-1.9,12.15,3.56,15.34c22.57,13.19,44.94,26.74,67.08,40.65c5.02,3.15,6.85,9.8,3.77,14.86
		c-3.13,5.15-9.84,6.7-14.92,3.51c-17.88-11.23-35.92-22.25-54.12-33.02c-116.28-68.87-237.47-127.57-362.61-175.74
		c-5.52-2.13-8.31-8.29-6.23-13.83l0-0.01c1.83-5.64,7.86-8.5,13.4-6.38c2.7,1.04,5.4,2.08,8.1,3.12c5.9,2.29,12.54-0.61,14.89-6.49
		l0-0.01c2.36-5.9-0.53-12.6-6.45-14.91c-86.5-33.63-175.64-62.55-265.3-86.08c-6.16-1.62-12.01,2.24-12.97,8.54l0,0
		c-0.96,6.27,3.27,12.69,9.4,14.3c10.26,2.7,20.52,5.48,30.76,8.32c5.72,1.59,9.06,7.53,7.47,13.25l-0.01,0.04
		c-1.58,5.69-7.47,9-13.15,7.42c-39.52-10.96-79.36-20.92-119.49-29.87c-6.19-1.38-12.45,2.57-13.9,8.74l0,0
		c-1.44,6.14,2.42,12.26,8.57,13.63c65.55,14.6,130.3,31.96,194.17,51.98c5.66,1.77,8.79,7.83,6.98,13.48l-0.02,0.08
		c-1.81,5.63-7.83,8.73-13.47,6.95c-12.46-3.91-24.95-7.72-37.48-11.43c-6.09-1.8-12.72,1.68-14.72,7.7l0,0
		c-2,5.99,1.33,12.32,7.39,14.11c25.99,7.67,51.82,15.8,77.48,24.35c5.61,1.87,8.95,7.88,7.16,13.52
		c-1.81,5.73-7.95,8.82-13.63,6.93c-65.06-21.68-131.16-40.48-198.16-56.35c-6.19-1.47-12.08,2.5-13.08,8.78v0
		c-1,6.24,3.22,12.52,9.37,13.98c8.58,2.04,17.15,4.13,25.7,6.27c5.76,1.44,9.24,7.3,7.79,13.05l-0.01,0.05
		c-1.45,5.72-7.25,9.18-12.98,7.75c-30.13-7.52-60.44-14.44-90.93-20.73c-6.21-1.28-12.55,2.5-13.92,8.7
		c-1.39,6.29,2.65,12.46,8.93,13.76c54.42,11.23,108.27,24.44,161.49,39.6c5.7,1.62,8.98,7.6,7.33,13.29l-0.03,0.09
		c-1.64,5.67-7.56,8.93-13.24,7.31c-12.04-3.43-24.12-6.77-36.23-10c-6.26-1.67-13.77,1.73-16.67,7.53l0,0
		c-2.88,5.77-0.13,11.81,6.1,13.45c217.25,57.47,424.05,147.71,614.82,268.31c91.08,57.58,177.57,121.51,259.01,191.31V703.1
		c-14.26-12.01-28.68-23.83-43.25-35.49c-4.48-3.58-5.37-10.03-2.01-14.68l0,0c3.59-4.96,10.6-5.93,15.39-2.11
		c10.03,8.02,19.99,16.13,29.87,24.32V645.4c-57.74-47.05-117.73-91.3-179.72-132.47c-5.3-3.52-12.46-2.04-15.95,3.28l0,0
		c-3.64,5.16-2.3,12.2,2.96,15.7c19.22,12.76,38.24,25.83,57.06,39.18c4.86,3.45,5.96,10.21,2.47,15.05h0
		c-3.46,4.78-10.11,5.87-14.93,2.45c-32.24-22.86-65.11-44.89-98.61-66.07c-39.35-24.88-79.38-48.47-120.04-70.77
		c-5.26-2.88-7.17-9.5-4.19-14.74c2.93-5.16,9.62-6.8,14.82-3.94c22.02,12.09,43.87,24.55,65.55,37.4
		c5.46,3.24,13.06,1.78,16.9-3.27l0,0c3.87-5.07,2.56-11.92-2.93-15.18c-50.25-29.87-101.46-57.72-153.53-83.51
		c-5.34-2.64-6.96-8.8-3.59-13.71c3.39-4.94,10.56-6.83,15.93-4.16c65.23,32.42,129.05,68.01,191.32,106.72
		c5.45,3.39,12.63,1.7,15.95-3.83c3.27-5.44,1.28-12.54-4.11-15.89c-8.6-5.34-17.24-10.63-25.9-15.86
		C2634.31,418.65,2632.46,412.07,2635.27,406.74L2635.27,406.74z"/>
</g>
</svg>
