<?xml version="1.0" encoding="utf-8"?>
<!-- Generator: Adobe Illustrator 23.0.1, SVG Export Plug-In . SVG Version: 6.00 Build 0)  -->
<svg version="1.1" id="Layer_1" xmlns="http://www.w3.org/2000/svg" xmlns:xlink="http://www.w3.org/1999/xlink" x="0px" y="0px"
	 viewBox="0 0 400.04 699.9" style="enable-background:new 0 0 400.04 699.9;" xml:space="preserve">
<style type="text/css">
	.st0{fill:#C3CED4;}
	.st1{fill:#F1F6FB;}
	.st2{fill:#8FCFF1;}
	.st3{fill:#C1DFF4;}
	.st4{fill:#ABB3B7;}
	.st5{fill:#FDF3F5;}
	.st6{fill:#FFFFFF;}
	.st7{fill:none;stroke:#667682;stroke-width:5;stroke-linecap:round;stroke-linejoin:round;stroke-miterlimit:10;}
	.st8{fill:none;stroke:#667682;stroke-width:5;stroke-linecap:round;stroke-miterlimit:10;}
	.st9{fill:none;stroke:#667682;stroke-width:5;stroke-miterlimit:10;}
	.st10{fill:none;}
</style>
<g>
	<path class="st0" d="M388.3,555.31c4.87,6.5,6.58,14.8,7.66,22.85c2.13,15.84,2.34,32.06-0.82,47.72
		c-1.11,5.48-2.68,10.99-5.88,15.57c-3.2,4.58-8.28,8.14-13.86,8.29c-0.22,0-0.43,0.01-0.63,0c-4.75-0.08-9.16-2.52-12.79-5.68
		c0-0.01-0.01-0.01-0.01-0.02c-2.56-3.38-2.37-9.36-2.41-13.12c-0.09-6.65,0.36-13.11,0.82-19.77c0.44-6.34,0.75-12.72,0.75-19.07
		c1.52,0.24,3.04,0.45,4.57,0.65l7.35,0.92c0.76,0.1,1.53-0.14,2.1-0.66c0.58-0.52,0.9-1.25,0.89-2.02l-0.61-39.25
		c-0.02-1.31-0.97-2.39-2.25-2.59l-5.18-0.8c-3-0.46-5.97-1.05-8.91-1.74c0.17-0.22,0.36-0.44,0.58-0.64
		c0.33-0.31,0.67-0.58,1.01-0.81c2.63-0.5,5.31-0.63,7.95-0.41c1.07,0.09,2.13,0.23,3.18,0.44c0.03,0,0.06,0.01,0.09,0.03
		c1.9,0.48,3.59,0.96,5.13,1.51C381.39,548.46,385.32,551.34,388.3,555.31z"/>
	<path class="st0" d="M377.03,546.71c4.46,1.6,7.71,3.85,11.27,8.59C385.32,551.34,381.39,548.46,377.03,546.71z"/>
	<path class="st0" d="M373.17,549.14c1.28,0.2,2.24,1.29,2.25,2.59l0.61,39.25c0.02,0.77-0.31,1.51-0.89,2.02
		c-0.57,0.52-1.35,0.76-2.1,0.66l-7.35-0.92c-1.53-0.2-3.05-0.41-4.57-0.65c0.02-5.73-0.23-11.45-0.84-17.15
		c-0.6-5.52-2.16-10.77-2.7-16.32c-0.35-3.56-0.97-8.92,1.51-12.01c2.94,0.69,5.91,1.28,8.91,1.74L373.17,549.14z"/>
	<path class="st1" d="M371.9,545.2c1.76,0.34,3.48,0.84,5.13,1.51C375.49,546.16,373.8,545.68,371.9,545.2z"/>
	<path class="st0" d="M371.9,545.2c-0.04-0.02-0.06-0.03-0.09-0.03C371.84,545.18,371.87,545.19,371.9,545.2z"/>
	<path class="st0" d="M371.81,545.18c-1.05-0.21-2.11-0.35-3.18-0.44c-2.65-0.21-5.32-0.08-7.95,0.41
		C363.95,542.93,367.69,544.15,371.81,545.18z"/>
	<path class="st0" d="M374.75,649.75c-5.27,0.04-8.15-1.52-11.84-4.67c-0.36-0.31-0.67-0.64-0.95-1.01
		C365.59,647.23,370,649.67,374.75,649.75z"/>
	<path class="st1" d="M360.28,574.94c0.61,5.7,0.86,11.42,0.84,17.15c-8.02-1.25-15.91-3.08-23.61-5.49
		c-0.17-2.06-0.24-4.13-0.2-6.21c0.17-8.57,2.62-19.09,8.32-26.36c2.41-3.1,5.41-5.61,9.07-7.12c0.75-0.31,1.5-0.58,2.27-0.83
		c0.7,0.18,1.41,0.36,2.12,0.52c-2.48,3.1-1.86,8.45-1.51,12.01C358.12,564.17,359.67,569.42,360.28,574.94z"/>
	<path class="st1" d="M360.67,545.15c-0.34,0.23-0.68,0.5-1.01,0.81c-0.22,0.2-0.41,0.41-0.58,0.64c-0.71-0.16-1.42-0.34-2.12-0.52
		C358.18,545.69,359.42,545.38,360.67,545.15z"/>
	<path class="st1" d="M361.12,592.09c0,6.36-0.31,12.73-0.75,19.07c-0.46,6.65-0.92,13.11-0.82,19.77
		c0.04,3.76-0.16,9.74,2.41,13.12c-0.52-0.46-1.02-0.93-1.51-1.4c-7.44-7.36-11.87-17.19-15.56-26.98
		c-3.53-9.38-6.57-19.12-7.37-29.07C345.21,589.01,353.1,590.84,361.12,592.09z"/>
	<path class="st2" d="M356.96,546.08c-0.77,0.25-1.52,0.52-2.27,0.83c-3.66,1.51-6.66,4.02-9.07,7.12
		c-38.69-17.33-75.65-44.87-84.86-82.85c-9.22-37.99-7.44-85.09,9.56-106.89c16.99-21.8,11.94-16.1,11.94-16.1l-16.37,6.09
		c-13.78,5.2-26.4,12.68-36.12,23.86c-30.12,29.41-56.88,63.86-65.78,105.92c-7.14,33.78-1.08,72.04,17.15,102.26
		c-2.79,0.26-5.5,0.81-7.99,1.65c-13.5-26.17-30.36-77.34-11.55-129.04c19.6-53.85,81.13-106.13,103.98-113.74
		s34.23-10.07,40.52-21.13c6.3-11.05,5.8-15.67,5.8-15.67l-0.67-0.9c3.51-2.57,6.47-5.23,8.89-7.89c1.12,15-4.15,30.02-14.95,40.52
		c-0.45,0.41-0.84,0.77-1.23,1.14c-3.69,3.48-7.19,7.22-10.4,11.1c-18.2,22.06-27.97,49.98-27.53,78.62
		c0.45,28.64,11.09,56.24,29.96,77.72C312.14,527.09,333.49,540.12,356.96,546.08z"/>
	<path class="st0" d="M319.42,294.06c0.34,1.83,0.57,3.68,0.7,5.53c-2.42,2.65-5.38,5.32-8.89,7.89c-1.89,1.39-3.95,2.76-6.16,4.08
		C314.28,304.27,318.26,298.5,319.42,294.06z"/>
	<path class="st0" d="M316.69,284.34c2.14,2.02,3.92,5.17,2.73,9.73C318.83,290.78,317.92,287.52,316.69,284.34z"/>
	<path class="st0" d="M316.69,284.34c1.23,3.19,2.14,6.44,2.73,9.73c-1.16,4.44-5.14,10.2-14.35,17.5
		c-11.36,6.79-27,12.52-47.23,15.34c-12.18,1.7-18.32-1.86-21.95-7.07c5.83-3.64,11.83-7,17.97-10.09c6-3.02,12.13-5.79,18.36-8.31
		c5.55-2.24,14.19-3.47,18.98-6.87c6.78-4.82,13.96-9.14,21.31-12.85C313.47,282.07,315.17,282.92,316.69,284.34z"/>
	<path class="st0" d="M296.12,176.23c8.19,1.86,20.2,9.66,18.71,16.97c-2.22,10.92-17.75,24.63-33.7,25.36
		c-5.1-6.08-11.19-11.07-17.88-14.87c0.17,0.01,0.34,0.01,0.51,0.01l28.81-0.6c2.35-0.05,4.45-1.05,5.96-2.63
		c1.51-1.58,2.43-3.73,2.38-6.07c-0.09-4.46-3.64-8.07-8-8.34C295.95,179.06,288.67,174.52,296.12,176.23z"/>
	<path class="st0" d="M316.17,283.06c0.17,0.43,0.35,0.85,0.51,1.28c-1.51-1.42-3.21-2.27-4.18-2.63c0.66-0.34,1.43-0.38,2.12-0.13
		C315.33,281.84,315.88,282.39,316.17,283.06z"/>
	<path class="st3" d="M311.9,308.37c0,0,0.51,4.62-5.8,15.67c-6.3,11.06-17.67,13.52-40.52,21.13S181.2,405.06,161.6,458.92
		c-18.81,51.69-1.95,102.87,11.55,129.04c-1.64,0.55-3.17,1.22-4.57,2.02c-5.17,2.95-9.07,7.79-11.71,13.11
		c-2.65,5.33-4.12,11.15-5.27,16.98c-0.1,0.49-0.19,0.98-0.29,1.48c-6.38-11.08-11.78-22.74-16.5-34.32
		c-10.91-26.75-16.09-55.83-14.92-84.7c0.51-12.42,2.18-24.78,4.97-36.89c12.86-55.81,50.13-101.75,95.53-135.29
		c5.02-3.72,10.19-7.22,15.5-10.52c3.62,5.22,9.77,8.77,21.95,7.07c20.23-2.82,35.87-8.56,47.23-15.34
		c2.22-1.33,4.28-2.69,6.16-4.08L311.9,308.37z"/>
	<path class="st0" d="M292.9,186.07c4.37,0.27,7.91,3.88,8,8.34c0.05,2.34-0.86,4.49-2.38,6.07c-1.51,1.58-3.62,2.58-5.96,2.63
		l-28.81,0.6c-0.17,0-0.34,0-0.51-0.01c-2.03-1.15-4.12-2.2-6.26-3.14c-0.01,0-0.01,0-0.01,0c-1.16-1.42-1.88-3.23-1.92-5.2
		c-0.05-2.35,0.86-4.5,2.38-6.08c0.34-0.36,0.71-0.69,1.11-0.97c3.02,1.24,8.97,3.61,13.6,5.07c6.46,2.03,15.46,5.55,19.49-5.09
		C292.18,187.52,292.6,186.78,292.9,186.07z"/>
	<path class="st4" d="M263.4,186.65l28.81-0.6c0.23,0,0.46,0,0.69,0.01c-0.3,0.71-0.72,1.45-1.27,2.22
		c-4.02,10.64-13.03,7.12-19.49,5.09c-4.62-1.45-10.58-3.83-13.6-5.07C259.91,187.3,261.58,186.69,263.4,186.65z"/>
	<path class="st4" d="M307.78,212.43c-8.81,4.33-17.77,6.21-26.64,6.14l-0.01-0.01c15.95-0.74,31.48-14.44,33.7-25.36
		c1.49-7.31-10.52-15.1-18.71-16.97c-7.44-1.7-0.16,2.83-3.22,9.84c-0.23-0.01-0.46-0.02-0.69-0.01l-28.81,0.6
		c-1.81,0.04-3.48,0.65-4.85,1.66c-1.2-0.49-1.93-0.8-1.93-0.8c8.7-7.6,24.93-28.92,53.35-12.18
		C331.91,188.25,322.99,204.95,307.78,212.43z"/>
	<path class="st0" d="M281.13,218.56L281.13,218.56c-14.08-0.09-27.93-5.09-40.52-12.95c-0.99-0.61-1.93-1.19-2.82-1.73
		c3.09-2.13,6.07-4.4,8.93-6.85c3.51,0.89,6.94,2.07,10.26,3.51c0,0,0,0,0.01,0c1.49,1.85,3.75,3.04,6.26,3.14
		C269.94,207.49,276.02,212.48,281.13,218.56z"/>
	<path class="st3" d="M275.33,351.18c-3.19,0.89-6.34,1.93-9.44,3.09l16.37-6.09c0,0,5.04-5.7-11.94,16.1
		c-17,21.8-18.77,68.9-9.56,106.89c9.21,37.98,46.17,65.52,84.86,82.85c-5.69,7.27-8.14,17.79-8.32,26.36
		c-0.04,2.08,0.03,4.15,0.2,6.21c-27.97-8.74-53.35-24.89-73.29-46.95c-26.79-29.65-41.88-68-42.5-107.98
		c-0.29-18.28,2.41-36.26,8.04-53.54L275.33,351.18z"/>
	<path class="st3" d="M275.33,351.18l-45.57,26.95c9.73-11.18,22.34-18.66,36.12-23.86C269,353.1,272.14,352.07,275.33,351.18z"/>
	<path class="st0" d="M223.92,187.47c-2.57,0.56-4.84,1.14-6.86,1.72c2.76-1.68,5.49-3.48,8.14-5.42
		c43.5-31.7,58.3-88.14,39.16-135.91c16.68,22.85,24.62,52.06,19.89,82.22c-3.5,22.29-13.44,41.98-27.63,57.43
		C256.61,187.51,247.53,182.32,223.92,187.47z"/>
	<path class="st1" d="M192.28,3.85c30.1,4.72,55.43,21.2,72.08,44.01c19.14,47.77,4.34,104.21-39.16,135.91
		c-2.66,1.94-5.38,3.75-8.14,5.42c-8.92,2.59-12.67,5.31-14.21,7.33c-12.97,5.59-26.64,8.63-40.31,9.23
		c-7.83,0.36-15.66-0.1-23.37-1.33c-1.26-0.19-2.52-0.43-3.77-0.67c-15.43-2.99-30.26-9.12-43.47-18.22
		c-20.7-23.76-31.14-56.16-25.87-89.71C75.52,35.56,132.02-5.6,192.28,3.85z M101.84,78.97c1.11-2.37,0.09-5.18-2.28-6.28
		c-2.37-1.1-5.17-0.08-6.27,2.28c-3.59,7.71-6.09,15.94-7.43,24.42c-0.41,2.59,1.35,5,3.93,5.4c2.59,0.41,5-1.35,5.4-3.93
		C96.39,93.23,98.63,85.87,101.84,78.97z"/>
	<path class="st0" d="M256.98,200.55c2.14,0.94,4.23,1.98,6.26,3.14C260.74,203.59,258.48,202.4,256.98,200.55z"/>
	<path class="st0" d="M256.61,187.51c-3.1,3.4-6.41,6.57-9.9,9.53c-9.82-2.49-20.2-2.78-30.34-0.61c-4.98,0.66-9.8,1.79-14.48,3.32
		c-0.06-0.15-0.43-1.41,0.95-3.22c4.84-2.09,9.6-4.52,14.21-7.33c2.01-0.58,4.28-1.17,6.86-1.72
		C247.53,182.32,256.61,187.51,256.61,187.51z"/>
	<path class="st0" d="M246.71,197.04c3.49-2.95,6.79-6.13,9.9-9.53c0,0,0.73,0.31,1.93,0.8c-0.4,0.28-0.77,0.61-1.11,0.97
		c-1.51,1.58-2.43,3.73-2.38,6.08c0.04,1.97,0.76,3.78,1.92,5.2C253.65,199.1,250.22,197.93,246.71,197.04z"/>
	<path class="st0" d="M224.45,282.65c2.37,4.12,4.46,9.05,2.45,11.17c-0.43,0.46-1.11,0.83-1.96,1.13l-1.25-2.37
		C224.61,289.43,224.72,286.03,224.45,282.65z"/>
	<path class="st5" d="M223.7,292.58l1.25,2.37c-0.68,0.24-1.47,0.44-2.36,0.57C223.05,294.57,223.42,293.58,223.7,292.58z"/>
	<path class="st0" d="M224.45,282.65c0.27,3.38,0.16,6.78-0.75,9.93l-10.26-19.58c2.22,1.07,4.48,2.15,6.7,3.12
		C220.14,276.11,222.4,279.08,224.45,282.65z"/>
	<path class="st0" d="M223.49,275.91c0.41,2.18,0.77,4.46,0.96,6.73c-2.05-3.57-4.31-6.54-4.31-6.54c-2.22-0.97-4.48-2.05-6.7-3.12
		l-2.54-4.83l1.09-0.88c-1.32-2.04-2.78-3.8-4.31-5.28l-3.89-7.42C207.68,253.69,221.06,263.26,223.49,275.91z"/>
	<path class="st5" d="M213.44,272.99l10.26,19.58c-0.28,1.01-0.65,1.99-1.12,2.94c-1.75,0.29-3.84,0.42-6.07,0.4l-0.46-0.54
		l-5.11-23.56C211.76,272.2,212.6,272.6,213.44,272.99z"/>
	<path class="st5" d="M222.58,295.52c-0.71,1.45-1.63,2.83-2.83,4.08l-3.23-3.68C218.74,295.94,220.83,295.81,222.58,295.52z"/>
	<path class="st5" d="M216.52,295.92l3.23,3.68c-0.68,0.73-1.47,1.41-2.34,2.05l-1.24-5.74
		C216.29,295.91,216.41,295.91,216.52,295.92z"/>
	<path class="st0" d="M237.78,203.88c-13.68-8.11-17.19-6.51-35.88-4.13l0-0.01c4.68-1.52,9.5-2.65,14.48-3.32
		c10.13-2.17,20.52-1.89,30.34,0.61C243.86,199.48,240.88,201.76,237.78,203.88z"/>
	<path class="st5" d="M216.05,295.38l0.46,0.54c-0.11-0.01-0.23,0-0.35-0.01L216.05,295.38z"/>
	<path class="st5" d="M216.05,295.38l0.11,0.53c-7.25-0.12-15.71-1.72-17.76-3.69c-0.85-0.83-1.59-2.53-2.19-4.64
		c-1.82-6.3-2.57-16.13-2.57-16.13c0.17-0.39,0.36-0.74,0.58-1.06c0.11,0.18,0.22,0.36,0.31,0.55c3.11,5.76,5.89,12.83,5.89,12.83
		l1.77-4.21L216.05,295.38z"/>
	<path class="st5" d="M210.9,268.16l2.54,4.83c-0.84-0.4-1.67-0.79-2.49-1.18l-0.68-3.14L210.9,268.16z"/>
	<path class="st0" d="M210.9,268.16l-3.23-6.16c1.53,1.49,2.99,3.24,4.31,5.28L210.9,268.16z"/>
	<path class="st5" d="M209.82,266.58l0.45,2.09l-2.24,1.82c-1.5-0.65-2.96-1.22-4.34-1.64c-1.25-1.63-2.52-2.97-4.3-4.94
		c-0.03-0.04-0.07-0.07-0.11-0.12c-0.34-0.38-0.71-0.79-1.09-1.23c-1.82-2.05-3.73-3.54-5.59-4.58c-2.23-1.49-3.1-1.8-1.7-2.76
		c1.32-0.91,5.92-0.44,10.95,2.4C202.57,259.92,206.16,262.98,209.82,266.58z"/>
	<path class="st5" d="M207.67,262l3.23,6.16l-0.63,0.51l-0.45-2.09c-3.65-3.6-7.24-6.66-7.98-8.95
		C203.77,258.71,205.77,260.15,207.67,262z"/>
	<path class="st0" d="M215.57,609.02c1.34,8.4-0.89,17.25-3.54,25.6c-5.22,16.43-12.28,32.43-22.01,46.5
		c-3.4,4.91-7.23,9.67-12.05,12.85c-4.82,3.16-10.81,4.55-15.73,2.39c-0.19-0.08-0.36-0.17-0.54-0.25
		c-4.06-2.04-6.8-6.23-8.53-10.83c-0.01,0-0.01-0.01-0.01-0.02c-1.35-8.27,6.32-31.45,10.21-41.36c0.34-0.87,0.67-1.73,1-2.59
		c4.37,5.75,9.13,11.19,14.32,16.17c1.41,1.35,2.85,2.67,4.33,3.95l26.71-42.79c-8.89-6.81-16.62-14.94-23.11-24.01
		c2.76-3.27,5.54-5.57,8.26-6.65c0.46-0.18,0.9-0.3,1.34-0.4c2.55,0.71,4.93,1.68,6.99,2.91c0.89,0.52,1.74,1.11,2.56,1.75
		c0.01,0.01,0.01,0.01,0.02,0.02c1.49,1.3,2.78,2.51,3.9,3.74C212.67,599.52,214.77,603.93,215.57,609.02z"/>
	<path class="st5" d="M203.68,268.85c1.38,0.42,2.84,0.99,4.34,1.64l-2.64,2.13c0-0.17-0.02-0.35-0.06-0.53l0.23-0.55
		C204.89,270.51,204.29,269.64,203.68,268.85z"/>
	<path class="st5" d="M203.78,254.58l3.89,7.42c-1.9-1.85-3.9-3.29-5.83-4.37c-0.39-1.21,0.01-2.2,1.61-2.94
		C203.55,254.64,203.66,254.6,203.78,254.58z"/>
	<path class="st0" d="M217.06,189.19c-4.62,2.81-9.37,5.25-14.21,7.33C204.39,194.5,208.14,191.78,217.06,189.19z"/>
	<path class="st0" d="M209.7,596c3.12,3.4,4.91,6.95,5.87,13.02C214.77,603.93,212.67,599.52,209.7,596z"/>
	<path class="st4" d="M204.7,230.35c2.03,3.63-0.92,24.23-0.92,24.23l-11.37-23.21C201.63,224.74,202.66,226.72,204.7,230.35z"/>
	<path class="st5" d="M205.55,271.55l-0.23,0.55c-0.18-0.94-0.81-2.03-1.75-3.29c0.04,0.02,0.07,0.03,0.11,0.04
		C204.29,269.64,204.89,270.51,205.55,271.55z"/>
	<path class="st5" d="M205.38,272.63l2.64-2.13c0.96,0.41,1.93,0.86,2.93,1.32l5.11,23.56l-13.86-15.83l3.13-7.45
		C205.36,272.28,205.37,272.45,205.38,272.63z"/>
	<path class="st5" d="M205.32,272.09l-3.13,7.45l-3.79-4.32c-1.37-1.69-2.36-3.51-3.68-5.51c1.94-2.17,5.09-2.07,8.85-0.91
		C204.51,270.07,205.14,271.15,205.32,272.09z"/>
	<path class="st5" d="M203.68,268.85c-0.04-0.02-0.07-0.03-0.11-0.04c-1.06-1.4-2.51-3.01-4.19-4.89
		C201.16,265.89,202.43,267.22,203.68,268.85z"/>
	<path class="st0" d="M201.9,199.76c18.7-2.38,22.21-3.98,35.88,4.13c-8.45,5.83-17.72,10.48-27.53,13.78
		c-3.71,1.25-7.5,2.31-11.36,3.15c-0.33,0.07-0.68,0.15-1.04,0.22c-2.18,0.45-4.89,0.92-7.16,1.25l-0.23,0.04
		c-8.09,1.13-16.42,1.37-24.85,0.62c-1.35-0.12-2.68-0.26-4.03-0.42C174.16,212.89,187.34,204.46,201.9,199.76L201.9,199.76z"/>
	<path class="st0" d="M209.74,618.64l-26.71,42.79c-1.48-1.28-2.93-2.6-4.33-3.95c-5.19-4.98-9.95-10.41-14.32-16.17
		c3.8-10.04,6.48-19.02,12.06-30.29c3.29-6.65,6.73-12.29,10.2-16.4C193.13,603.69,200.85,611.83,209.74,618.64z"/>
	<path class="st1" d="M209.7,596c-1.12-1.23-2.41-2.43-3.9-3.74C207.22,593.35,208.53,594.61,209.7,596z"/>
	<path class="st5" d="M199.38,263.92c1.68,1.88,3.13,3.5,4.19,4.89c-3.76-1.16-6.91-1.26-8.85,0.91c-0.85-1.29-1.85-2.66-3.19-4.09
		c-2.49-2.69-5.76-4.84-8.17-5.29c-1.45-1.05-2.24-1.87-1.75-2.73c1.07-1.88,5.8-2.51,10.98,0.39c1.62,1.08,3.97,2.79,6.68,5.81
		C199.32,263.84,199.35,263.88,199.38,263.92z"/>
	<path class="st5" d="M198.18,262.57c0.39,0.44,0.75,0.85,1.09,1.23c-2.71-3.02-5.06-4.73-6.68-5.81
		C194.45,259.03,196.36,260.52,198.18,262.57z"/>
	<path class="st0" d="M205.78,592.24c-0.81-0.64-1.67-1.23-2.56-1.75c-2.06-1.23-4.44-2.2-6.99-2.91
		C200.01,586.82,202.7,589.54,205.78,592.24z"/>
	<path class="st0" d="M190.69,222.3c2.28-0.33,4.98-0.8,7.16-1.25c-2.23,0.47-4.46,0.87-6.73,1.21c-0.22,0.03-0.44,0.06-0.66,0.09
		L190.69,222.3z"/>
	<path class="st5" d="M195.46,288.03c-0.02-0.05-0.04-0.11-0.06-0.16l0.8-0.29c0.6,2.1,1.34,3.81,2.19,4.64
		c2.06,1.97,10.51,3.57,17.76,3.69l1.24,5.74c0.87-0.64,1.66-1.32,2.34-2.05l0.02,0.03c-1.91,3.25-10.77,4.95-14.72,4.57
		c-5.2-0.51-8.54-3.93-11.63-6.3c-3.1-2.38-15.23-11.67-12.24-15.1C184.16,279.37,189.93,285.63,195.46,288.03z"/>
	<path class="st5" d="M198.4,275.23l3.79,4.32l-1.77,4.21c0,0-2.78-7.07-5.89-12.83c-0.1-0.18-0.2-0.36-0.31-0.55
		c0.15-0.24,0.32-0.47,0.5-0.66C196.04,271.72,197.03,273.54,198.4,275.23z"/>
	<path class="st5" d="M193.64,271.44c0,0,0.75,9.83,2.57,16.13l-0.8,0.29c-0.73-2.13-1.75-4.13-2.63-6.19
		c-1.32-3.11-2.75-6.2-4.68-8.99c-1.57-2.28-3.45-4.2-5.48-6.04c-1.41-1.27-3.57-3.91-1.86-5.75c0.58-0.63,1.5-0.78,2.6-0.56
		c2.72,1.97,7.76,4.73,10.86,10.05C194,270.7,193.8,271.05,193.64,271.44z"/>
	<path class="st5" d="M194.72,269.72c-0.18,0.2-0.35,0.42-0.5,0.66c-3.09-5.32-8.14-8.08-10.86-10.05c2.41,0.45,5.68,2.6,8.17,5.29
		C192.87,267.06,193.86,268.43,194.72,269.72z"/>
	<path class="st1" d="M196.24,587.58c-0.43,0.09-0.88,0.22-1.34,0.4c-2.73,1.08-5.51,3.38-8.26,6.65c-1.94-2.69-3.77-5.46-5.49-8.32
		C186.2,585.82,191.52,586.25,196.24,587.58z"/>
	<path class="st1" d="M186.64,594.63c-3.47,4.11-6.9,9.75-10.2,16.4c-5.58,11.27-8.26,20.25-12.06,30.29
		c-4.79-6.26-9.11-12.91-13.06-19.77c0.1-0.5,0.19-0.99,0.29-1.48c1.15-5.83,2.62-11.65,5.27-16.98
		c2.64-5.32,6.54-10.16,11.71-13.11c1.4-0.8,2.93-1.47,4.57-2.02c2.49-0.83,5.2-1.39,7.99-1.65
		C182.87,589.16,184.69,591.93,186.64,594.63z"/>
	<path class="st0" d="M165.61,222.96c8.44,0.75,16.76,0.51,24.85-0.62c0.22-0.02,0.44-0.06,0.66-0.09c2.27-0.33,4.5-0.74,6.73-1.21
		c0.37-0.07,0.71-0.15,1.04-0.22c3.86-0.84,7.64-1.9,11.36-3.15c9.82-3.3,19.09-7.96,27.53-13.78c0.89,0.53,1.84,1.11,2.82,1.73
		c26.11,30.32,31.99,13.57,47.88,45.65c10.23,20.65,20.36,29.1,24.02,30.45c-7.36,3.7-14.53,8.03-21.31,12.85
		c-4.79,3.4-13.43,4.63-18.98,6.87c-6.23,2.52-12.36,5.29-18.36,8.31c-6.14,3.09-12.13,6.45-17.97,10.09
		c-4.09-5.86-5.01-13.82-7.76-18.82l-3.18-6.07c0.85-0.29,1.52-0.67,1.96-1.13c2.01-2.12-0.08-7.05-2.45-11.17
		c-0.19-2.28-0.55-4.55-0.96-6.73c-2.43-12.66-15.81-22.23-19.71-21.34l-1.11-2.12c0,0,4.05-18.48,2.02-22.11
		c-2.04-3.63-3.06-5.6-12.28,1.02c-12.93,7.46-25.2,19.39-37.84,30.02c-9.67,8.13-19.36,16.3-29.79,23.46
		c-15.91,10.91-33.48,18.83-52.97,19.76c-4.34,0.21-10.16,0.2-13.66-2.69c-1.2-0.99-2.23-2.1-3.06-3.33
		c0.04-0.01,0.06-0.04,0.09-0.06c0.58-0.21,1.14-0.64,1.68-1.24c0.34-0.28,0.69-0.58,1.03-0.9l-0.26-0.08
		c0.44-0.63,0.86-1.35,1.26-2.13c0.59-0.25,1.07-0.56,1.42-0.91c0.83-0.87,0.96-2.24,0.65-3.82c1.11-2.86,1.91-5.4,2.31-5.99
		c1.12-1.62,1.52-3.22,1.49-4.81c28.99,0.42,52.2-19.1,76.67-39.69c6.61-5.56,13.28-11.16,20.13-16.4
		C162.92,222.71,164.26,222.85,165.61,222.96z"/>
	<path class="st0" d="M139.16,204.43c7.71,1.23,15.54,1.68,23.37,1.33c13.67-0.6,27.34-3.64,40.31-9.23c-1.38,1.81-1,3.08-0.95,3.22
		c-14.56,4.71-27.74,13.15-40.32,22.79c-1.18-0.15-2.37-0.31-3.55-0.5c-5.62-0.89-11.07-2.17-16.32-3.83
		c-6.77-2.15-13.21-4.91-19.28-8.21c-1.14-0.61-2.25-1.25-3.36-1.9l-0.09-0.04c-0.42-0.26-0.84-0.51-1.26-0.76
		c-0.06-0.03-0.1-0.06-0.16-0.1c-0.05-0.04-0.09-0.05-0.13-0.09c-0.34-0.23-0.62-0.4-0.81-0.53c-0.16-0.1-0.28-0.16-0.35-0.2
		c-0.05-0.02-0.08-0.04-0.12-0.07c-9.1-5.75-17.24-12.78-24.21-20.78c13.21,9.1,28.04,15.23,43.47,18.22
		C136.64,204,137.91,204.23,139.16,204.43z"/>
	<path class="st1" d="M164.37,641.31c-0.32,0.85-0.65,1.72-1,2.59c-3.89,9.91-11.56,33.08-10.21,41.36
		c-0.25-0.68-0.49-1.38-0.71-2.07c-6.08-19.72-5-41.45-1.15-61.64C155.26,628.41,159.59,635.05,164.37,641.31z"/>
	<path class="st0" d="M161.71,696.1c-4.59-2.16-6.39-4.88-8.19-9.51c-0.16-0.38-0.27-0.82-0.34-1.32
		C154.91,689.88,157.64,694.06,161.71,696.1z"/>
	<path class="st6" d="M99.56,72.68c2.37,1.1,3.39,3.91,2.28,6.28c-3.22,6.9-5.46,14.27-6.65,21.89c-0.41,2.58-2.82,4.34-5.4,3.93
		c-2.58-0.41-4.34-2.82-3.93-5.4c1.33-8.48,3.83-16.71,7.43-24.42C94.39,72.61,97.19,71.58,99.56,72.68z"/>
	<path class="st5" d="M61.73,269.98c1.28,2.57,2.99,5.54,3.04,8.65c-0.21,0-0.43,0-0.64-0.01c-2.5,0.35-4.75,1.4-6.57,2.92
		c-1.96-3.33-4.01-6-4.01-6s0,0-1.45-6.53c-1.44-6.53,1.4-10.67,4.25-9.95C59.2,259.78,59.8,266.1,61.73,269.98z"/>
	<path class="st0" d="M64.13,278.62c0.21,0,0.43,0.01,0.64,0.01c0.02,1.58-0.38,3.19-1.49,4.81c-0.4,0.59-1.21,3.14-2.31,5.99
		c-0.45-2.4-1.9-5.33-3.4-7.88C59.38,280.02,61.64,278.97,64.13,278.62z"/>
	<path class="st0" d="M60.97,289.43c0.31,1.59,0.18,2.95-0.65,3.82c-0.34,0.36-0.82,0.66-1.42,0.91
		C59.66,292.69,60.37,291.02,60.97,289.43z"/>
	<path class="st0" d="M60.97,289.43c-0.6,1.59-1.3,3.26-2.06,4.74c-1.22,0.53-2.93,0.87-4.89,1.04l-0.57-0.17
		c-0.28-0.95-0.45-1.95-0.49-2.99c-0.18-4.18,1.65-7.99,4.62-10.49C59.06,284.09,60.51,287.03,60.97,289.43z"/>
	<path class="st0" d="M57.64,296.3l0.26,0.08c-0.34,0.32-0.69,0.62-1.03,0.9C57.13,296.99,57.39,296.66,57.64,296.3z"/>
	<path class="st0" d="M58.9,294.17c-0.41,0.78-0.82,1.5-1.26,2.13l-3.63-1.09C55.98,295.04,57.68,294.7,58.9,294.17z"/>
	<path class="st0" d="M55.19,298.52c0.56-0.37,1.12-0.79,1.68-1.24C56.33,297.88,55.77,298.32,55.19,298.52z"/>
	<path class="st0" d="M56.87,297.28c-0.55,0.45-1.11,0.87-1.68,1.24l-0.82-1.18c-0.36-0.66-0.65-1.37-0.87-2.1
		c0.17,0,0.34-0.03,0.51-0.04l3.63,1.09C57.39,296.66,57.13,296.99,56.87,297.28z"/>
	<path class="st5" d="M54.38,297.34c0.21,0.43,0.46,0.84,0.72,1.24c-7.87,5.18-16.4,2.52-24.78-0.84
		c-13.68-5.49-22.12-3.3-22.01-8.21c0.12-5.11,9.63-2.72,16.8-2.38c1.6,2.99,2.48,5.93,4.24,6.74l1.08-4.51
		c0.42,1,0.87,1.8,1.38,2.29c2.38,2.28,13.36,4.07,21.11,3.62L54.38,297.34z"/>
	<path class="st0" d="M54.38,297.34l0.82,1.18c-0.03,0.02-0.05,0.05-0.09,0.06C54.84,298.18,54.59,297.77,54.38,297.34z"/>
	<path class="st5" d="M54.38,297.34l-1.44-2.06c0.19-0.01,0.39-0.02,0.57-0.04C53.72,295.98,54.01,296.68,54.38,297.34z"/>
	<path class="st0" d="M53.44,295.03l0.57,0.17c-0.17,0.01-0.33,0.03-0.51,0.04C53.48,295.18,53.46,295.11,53.44,295.03z"/>
	<path class="st5" d="M53.44,295.03c0.02,0.07,0.04,0.15,0.07,0.21c-0.18,0.02-0.38,0.03-0.57,0.04l-0.36-0.52L53.44,295.03z"/>
	<path class="st5" d="M57.57,281.55c-2.98,2.5-4.8,6.31-4.62,10.49c0.05,1.04,0.22,2.04,0.49,2.99l-0.86-0.27l-13.54-19.45
		l2.96-1.24c0,0-3.58-2.13-8.02-4.31c-0.02-0.02-0.04-0.03-0.07-0.04c-1.12-0.72-2.38-1.36-3.78-1.91
		c5.22-1.91,14.65,3.91,23.43,7.72C53.56,275.55,55.6,278.22,57.57,281.55z"/>
	<path class="st5" d="M53.56,275.55c-8.78-3.81-18.21-9.64-23.43-7.72c-0.8-0.32-1.64-0.62-2.51-0.88
		c-0.02-0.01-0.05-0.02-0.06-0.03c-2.48-0.95-5.17-1.76-7.79-2.34c-2.42-1.45-3.01-3.6-2.76-5.93c0.34-3.31,5.38-1.2,8.48-0.54
		c3.11,0.66,12.02,3.26,16.21,6.36C45.87,267.57,53.56,275.55,53.56,275.55z"/>
	<path class="st5" d="M52.58,294.77l0.36,0.52c-7.75,0.45-18.73-1.34-21.11-3.62c-0.51-0.49-0.97-1.29-1.38-2.29l0.29-1.2
		L52.58,294.77z"/>
	<path class="st5" d="M36.98,272.38l2.05,2.94l-6.85,2.88c-1.12-0.47-2.68-1.43-4.62-2.45c-0.34-2.82-0.5-4.86-0.5-4.86
		c0.67-1.54,1.65-2.49,2.87-3c1.35,0.59,2.69,1.21,3.97,1.84c0.03,0.01,0.05,0.02,0.07,0.04C35.17,270.56,36.19,271.42,36.98,272.38
		z"/>
	<path class="st5" d="M39.03,275.32l-2.05-2.94c-0.79-0.96-1.81-1.82-3.02-2.61c4.44,2.17,8.02,4.31,8.02,4.31L39.03,275.32z"/>
	<path class="st5" d="M32.18,278.2l6.85-2.88l13.54,19.45l-21.85-6.6l2.32-9.68C32.8,278.44,32.51,278.34,32.18,278.2z"/>
	<path class="st5" d="M33.05,278.49l-2.32,9.68l-0.82-0.25c-1.07-3.29-1.8-7.88-2.26-11.46c1.16,0.77,2.41,1.49,3.96,1.98l0.57-0.24
		C32.51,278.34,32.8,278.44,33.05,278.49z"/>
	<path class="st5" d="M30.13,267.83c1.39,0.55,2.66,1.19,3.78,1.91c-1.27-0.63-2.62-1.25-3.97-1.84
		C30,267.86,30.06,267.85,30.13,267.83z"/>
	<path class="st5" d="M32.18,278.2l-0.57,0.24c-1.55-0.49-2.8-1.21-3.96-1.98c-0.03-0.24-0.06-0.48-0.09-0.72
		C29.5,276.77,31.06,277.73,32.18,278.2z"/>
	<path class="st5" d="M30.73,288.17l-0.29,1.2c-0.19-0.45-0.37-0.93-0.54-1.45L30.73,288.17z"/>
	<path class="st5" d="M30.44,289.37l-1.08,4.51c-1.77-0.81-2.65-3.76-4.24-6.74c0.81,0.04,1.58,0.05,2.31,0.03l2.48,0.75
		C30.07,288.44,30.25,288.92,30.44,289.37z"/>
	<path class="st5" d="M27.64,276.46c0.46,3.58,1.19,8.17,2.26,11.46l-2.48-0.75c-0.73,0.02-1.5,0.01-2.31-0.03
		c-1.64-3.06-4.06-6.16-9-6.97c-9.76-1.61-13.8-5-13.61-8.01c0.13-2.05,1.96-2.42,5.62-1.93c2.43,1.22,6.25,1.69,10.08,1.95
		c2.21,0.45,4.22,1.15,6.02,1.95c0.01,0,0.01,0,0.02,0.01C25.43,274.86,26.49,275.69,27.64,276.46z"/>
	<path class="st5" d="M27.61,266.95c0.77,0.3,1.54,0.61,2.32,0.95c-1.22,0.5-2.21,1.45-2.87,3c0,0,0.15,2.04,0.5,4.86
		c-1.01-0.54-2.11-1.09-3.31-1.61c-0.01-0.01-0.01-0.01-0.02-0.01c-1.6-0.99-3.44-1.78-6.02-1.95c-4.24-0.88-7.59-1.61-10.08-1.95
		c-1.59-0.79-2.59-1.91-2.6-3.49c-0.04-3.71,6.82-3.82,14.24-2.16c1.01,0.6,2.33,1.09,4.04,1.43c1.3,0.26,2.56,0.56,3.75,0.92
		C27.57,266.93,27.59,266.94,27.61,266.95z"/>
	<path class="st5" d="M27.56,275.75c0.03,0.24,0.06,0.48,0.09,0.72c-1.16-0.78-2.21-1.6-3.4-2.32
		C25.44,274.66,26.55,275.21,27.56,275.75z"/>
	<path class="st5" d="M27.55,266.92c-1.19-0.35-2.44-0.66-3.75-0.92c-1.71-0.33-3.04-0.82-4.04-1.43
		C22.38,265.16,25.07,265.97,27.55,266.92z"/>
	<path class="st5" d="M8.13,270.23c2.49,0.34,5.84,1.08,10.08,1.95C14.37,271.92,10.55,271.45,8.13,270.23z"/>
	<path class="st7" d="M203.78,254.58c-0.12,0.02-0.23,0.06-0.33,0.11c-1.6,0.74-2.01,1.73-1.61,2.94"/>
	<path class="st7" d="M219.75,299.6c1.2-1.25,2.13-2.63,2.83-4.08c0.47-0.95,0.83-1.93,1.12-2.94"/>
	<path class="st8" d="M192.59,257.99c-2.23-1.49-3.1-1.8-1.7-2.76c1.32-0.91,5.92-0.44,10.95,2.4c1.94,1.08,3.94,2.52,5.83,4.37"/>
	<path class="st8" d="M205.38,272.63c0-0.17-0.02-0.35-0.06-0.53"/>
	<path class="st7" d="M183.36,260.34c-1.45-1.05-2.24-1.87-1.75-2.73c1.07-1.88,5.8-2.51,10.98,0.39c1.86,1.04,3.77,2.53,5.59,4.58
		c0.39,0.44,0.75,0.85,1.09,1.23c0.05,0.05,0.08,0.08,0.11,0.12c1.78,1.97,3.05,3.3,4.3,4.94c0.61,0.79,1.21,1.66,1.87,2.69"/>
	<path class="st7" d="M198.4,275.23c-1.37-1.69-2.36-3.51-3.68-5.51c-0.85-1.29-1.85-2.66-3.19-4.09c-2.49-2.69-5.76-4.84-8.17-5.29
		c-1.1-0.22-2.03-0.07-2.6,0.56c-1.71,1.84,0.45,4.48,1.86,5.75c2.04,1.84,3.92,3.77,5.48,6.04c1.93,2.79,3.36,5.88,4.68,8.99
		c0.88,2.06,1.9,4.07,2.63,6.19c0.02,0.05,0.04,0.11,0.06,0.16c-5.53-2.41-11.31-8.66-14.29-5.24c-2.99,3.43,9.14,12.71,12.24,15.1
		c3.1,2.37,6.43,5.79,11.63,6.3c3.95,0.39,12.81-1.31,14.72-4.57"/>
	<path class="st9" d="M256.61,187.51c14.19-15.46,24.14-35.15,27.63-57.43c4.73-30.15-3.21-59.37-19.89-82.22
		c-16.65-22.81-41.99-39.28-72.08-44.01C132.02-5.6,75.52,35.56,66.05,95.82c-5.27,33.55,5.17,65.95,25.87,89.71
		c6.97,8,15.11,15.03,24.21,20.78c0.04,0.03,0.07,0.05,0.12,0.07c0.1,0.07,0.21,0.14,0.33,0.21c0.13,0.09,0.55,0.35,0.97,0.61
		c0.06,0.04,0.1,0.07,0.16,0.1c0.36,0.23,0.7,0.45,0.82,0.52l0.44,0.24l0.09,0.04c1.11,0.65,2.23,1.29,3.36,1.9
		c6.08,3.31,12.51,6.06,19.28,8.21c5.25,1.66,10.7,2.94,16.32,3.83c1.18,0.19,2.37,0.35,3.55,0.5"/>
	<path class="st9" d="M235.89,319.83c-5.31,3.29-10.48,6.8-15.5,10.52c-45.4,33.54-82.67,79.47-95.53,135.29
		c-2.79,12.1-4.46,24.47-4.97,36.89c-1.17,28.87,4.02,57.96,14.92,84.7c4.72,11.57,10.13,23.24,16.5,34.32"/>
	<path class="st9" d="M356.96,546.08c-23.47-5.97-44.82-19-60.99-37.39c-18.87-21.48-29.51-49.08-29.96-77.72
		c-0.45-28.64,9.33-56.56,27.53-78.62c3.2-3.89,6.71-7.62,10.4-11.1c0.39-0.37,0.78-0.72,1.23-1.14
		c10.8-10.5,16.07-25.52,14.95-40.52"/>
	<path class="st9" d="M181.14,586.31c-18.23-30.22-24.3-68.48-17.15-102.26c8.9-42.07,35.66-76.51,65.78-105.92
		c-5.62,17.28-8.33,35.26-8.04,53.54c0.62,39.98,15.71,78.33,42.5,107.98c19.94,22.06,45.31,38.21,73.29,46.95"/>
	<path class="st7" d="M275.33,351.18c-3.19,0.89-6.34,1.93-9.44,3.09c-13.78,5.2-26.4,12.68-36.12,23.86"/>
	<path class="st7" d="M153.16,685.26c-0.25-0.68-0.49-1.38-0.71-2.07c-6.08-19.72-5-41.45-1.15-61.64c0.1-0.5,0.19-0.99,0.29-1.48
		c1.15-5.83,2.62-11.65,5.27-16.98c2.64-5.32,6.54-10.16,11.71-13.11c1.4-0.8,2.93-1.47,4.57-2.02c2.49-0.83,5.2-1.39,7.99-1.65
		c5.05-0.49,10.38-0.06,15.09,1.27"/>
	<path class="st7" d="M205.8,592.26c1.42,1.09,2.73,2.35,3.9,3.74"/>
	<path class="st9" d="M205.78,592.24c0.01,0.01,0.01,0.01,0.02,0.02c1.49,1.3,2.78,2.51,3.9,3.74c3.12,3.4,4.91,6.95,5.87,13.02
		c1.34,8.4-0.89,17.25-3.54,25.6c-5.22,16.43-12.28,32.43-22.01,46.5c-3.4,4.91-7.23,9.67-12.05,12.85
		c-4.82,3.16-10.81,4.55-15.73,2.39c-0.19-0.08-0.36-0.17-0.54-0.25c-4.59-2.16-6.39-4.88-8.19-9.51c-0.16-0.38-0.27-0.82-0.34-1.32
		c-0.01,0-0.01-0.01-0.01-0.02c-1.35-8.27,6.32-31.45,10.21-41.36c0.34-0.87,0.67-1.73,1-2.59c3.8-10.04,6.48-19.02,12.06-30.29
		c3.29-6.65,6.73-12.29,10.2-16.4c2.76-3.27,5.54-5.57,8.26-6.65c0.46-0.18,0.9-0.3,1.34-0.4
		C200.01,586.82,202.7,589.54,205.78,592.24z"/>
	<path class="st7" d="M361.96,644.05c-0.52-0.46-1.02-0.93-1.51-1.4c-7.44-7.36-11.87-17.19-15.56-26.98
		c-3.53-9.38-6.57-19.12-7.37-29.07c-0.17-2.06-0.24-4.13-0.2-6.21c0.17-8.57,2.62-19.09,8.32-26.36c2.41-3.1,5.41-5.61,9.07-7.12
		c0.75-0.31,1.5-0.58,2.27-0.83c1.22-0.39,2.45-0.7,3.71-0.93"/>
	<path class="st7" d="M371.9,545.2c1.76,0.34,3.48,0.84,5.13,1.51"/>
	<path class="st9" d="M371.81,545.18c0.03,0.01,0.06,0.02,0.09,0.03c1.9,0.48,3.59,0.96,5.13,1.51c4.46,1.6,7.71,3.85,11.27,8.59
		c4.87,6.5,6.58,14.8,7.66,22.85c2.13,15.84,2.34,32.06-0.82,47.72c-1.11,5.48-2.68,10.99-5.88,15.57
		c-3.2,4.58-8.28,8.14-13.86,8.29c-0.22,0-0.43,0.01-0.63,0c-5.27,0.04-8.15-1.52-11.84-4.67c-0.36-0.31-0.67-0.64-0.95-1.01
		c0-0.01-0.01-0.01-0.01-0.02c-2.56-3.38-2.37-9.36-2.41-13.12c-0.09-6.65,0.36-13.11,0.82-19.77c0.44-6.34,0.75-12.72,0.75-19.07
		c0.02-5.73-0.23-11.45-0.84-17.15c-0.6-5.52-2.16-10.77-2.7-16.32c-0.35-3.56-0.97-8.92,1.51-12.01c0.17-0.22,0.36-0.44,0.58-0.64
		c0.33-0.31,0.67-0.58,1.01-0.81C363.95,542.93,367.69,544.15,371.81,545.18z"/>
	<path class="st7" d="M19.76,264.58c-2.42-1.45-3.01-3.6-2.76-5.93c0.34-3.31,5.38-1.2,8.48-0.54c3.11,0.66,12.02,3.26,16.21,6.36
		c4.18,3.11,11.87,11.08,11.87,11.08s0,0-1.45-6.53c-1.44-6.53,1.4-10.67,4.25-9.95c2.85,0.71,3.44,7.03,5.38,10.91
		c1.28,2.57,2.99,5.54,3.04,8.65"/>
	<path class="st7" d="M33.9,269.74c-1.12-0.72-2.38-1.36-3.78-1.91c-0.8-0.32-1.64-0.62-2.51-0.88"/>
	<path class="st7" d="M18.21,272.19c2.58,0.17,4.42,0.96,6.02,1.95"/>
	<path class="st7" d="M41.99,274.08c0,0-3.58-2.13-8.02-4.31c-0.02-0.02-0.04-0.03-0.07-0.04c-1.27-0.63-2.62-1.25-3.97-1.84
		c-0.78-0.33-1.55-0.65-2.32-0.95c-0.02-0.01-0.05-0.02-0.06-0.03c-2.48-0.95-5.17-1.76-7.79-2.34c-7.41-1.66-14.28-1.54-14.24,2.16
		c0.01,1.58,1.01,2.7,2.6,3.49"/>
	<path class="st8" d="M33.05,278.49c-0.25-0.05-0.55-0.15-0.87-0.29c-1.12-0.47-2.68-1.43-4.62-2.45c-1.01-0.54-2.11-1.09-3.31-1.61
		c-0.01-0.01-0.01-0.01-0.02-0.01c-1.8-0.79-3.81-1.49-6.02-1.95c-4.24-0.88-7.59-1.61-10.08-1.95c-3.66-0.49-5.49-0.13-5.62,1.93
		c-0.19,3.01,3.85,6.4,13.61,8.01c4.94,0.82,7.36,3.92,9,6.97"/>
	<path class="st7" d="M27.42,287.17c-0.73,0.02-1.5,0.01-2.31-0.03c-7.17-0.34-16.69-2.73-16.8,2.38
		c-0.11,4.92,8.33,2.73,22.01,8.21c8.38,3.36,16.91,6.02,24.78,0.84"/>
	<path class="st4" d="M300.96,255.43c-7.54-12.94-12.58-26.33-12.58-26.33c-2.1-3.8-4.53-7.32-7.24-10.53
		c-14.09-0.1-27.94-5.1-40.53-12.96c26.11,30.32,31.99,13.57,47.88,45.65c10.23,20.65,20.36,29.1,24.02,30.45
		c2.02,1,6.03,5.12,6.47,8.74c0.19,1.58,0.34,2.74,0.46,3.53c-0.01,0.03-0.01,0.05-0.02,0.08c0.34,1.83,0.57,3.68,0.7,5.53
		c5.44-5.97,8.21-11.95,8.46-16.94C329.48,264.55,311.07,272.81,300.96,255.43z"/>
	<path class="st7" d="M201.9,199.75c-14.56,4.71-27.74,13.15-40.32,22.79c-6.85,5.24-13.51,10.84-20.13,16.4
		c-24.48,20.59-47.69,40.11-76.67,39.69c-0.21,0-0.43,0-0.64-0.01c-2.5,0.35-4.75,1.4-6.57,2.92c-2.98,2.5-4.8,6.31-4.62,10.49
		c0.05,1.04,0.22,2.04,0.49,2.99c0.02,0.07,0.04,0.15,0.07,0.21c0.22,0.73,0.51,1.43,0.87,2.1c0.21,0.43,0.46,0.84,0.72,1.24
		c0.83,1.23,1.86,2.34,3.06,3.33c3.5,2.89,9.32,2.9,13.66,2.69c19.48-0.93,37.06-8.85,52.97-19.76
		c10.43-7.15,20.12-15.32,29.79-23.46c12.64-10.62,24.94-20.96,37.87-28.43l9.12,17.4l2.21,4.22l3.89,7.42l3.23,6.16l2.54,4.83
		l10.26,19.58l1.25,2.37l3.18,6.07c2.75,5,3.67,12.95,7.76,18.82c3.62,5.22,9.77,8.77,21.95,7.07c20.23-2.82,35.87-8.56,47.23-15.34
		c2.22-1.33,4.28-2.69,6.16-4.08c3.51-2.57,6.47-5.23,8.89-7.89c5.44-5.97,8.21-11.95,8.46-16.94c0.9-18.1-17.5-9.83-27.62-27.22
		c-7.54-12.94-12.58-26.33-12.58-26.33c-2.1-3.8-4.53-7.32-7.24-10.53"/>
	<path class="st7" d="M201.9,199.75L201.9,199.75c18.7-2.37,22.21-3.98,35.88,4.13c0.89,0.53,1.84,1.11,2.82,1.73
		c12.59,7.86,26.44,12.85,40.53,12.96c8.87,0.07,17.83-1.8,26.64-6.14c15.21-7.48,24.13-24.18,2.19-37.1
		c-28.42-16.74-44.66,4.59-53.35,12.18c0,0-9.08-5.19-32.7-0.04c-2.57,0.56-4.84,1.14-6.86,1.72c-8.92,2.59-12.67,5.31-14.21,7.33
		C201.47,198.34,201.84,199.6,201.9,199.75z"/>
	<path class="st10" d="M305.07,311.56c9.22-7.3,13.19-13.06,14.35-17.5c1.18-4.55-0.59-7.71-2.73-9.73
		c-1.51-1.42-3.21-2.27-4.18-2.63c-3.66-1.35-13.8-9.8-24.02-30.45c-15.89-32.07-21.77-15.32-47.88-45.65"/>
	<path class="st10" d="M345.63,554.03c-38.69-17.33-75.65-44.87-84.86-82.85c-9.22-37.99-7.44-85.09,9.56-106.89
		c16.99-21.8,11.94-16.1,11.94-16.1l-16.37,6.09"/>
	<path class="st10" d="M173.15,587.96c-13.5-26.17-30.36-77.34-11.55-129.04c19.6-53.85,81.13-106.13,103.98-113.74
		s34.23-10.07,40.52-21.13c6.3-11.05,5.8-15.67,5.8-15.67"/>
	<path class="st10" d="M192.41,231.37c9.22-6.62,10.25-4.65,12.28-1.02c2.03,3.63-3.13,20.01-3.13,20.01"/>
	<path class="st10" d="M281.13,218.56c15.95-0.74,31.48-14.44,33.7-25.36c1.49-7.31-10.52-15.1-18.71-16.97
		c-7.44-1.7-0.16,2.83-3.22,9.84c-0.3,0.71-0.72,1.45-1.27,2.22"/>
	<path class="st8" d="M291.63,188.28c-4.02,10.64-13.03,7.12-19.49,5.09c-4.62-1.45-10.58-3.83-13.6-5.07
		c-1.2-0.49-1.93-0.8-1.93-0.8"/>
</g>
</svg>
