<?xml version="1.0" encoding="utf-8"?>
<!-- Generator: Adobe Illustrator 23.0.1, SVG Export Plug-In . SVG Version: 6.00 Build 0)  -->
<svg version="1.1" id="Layer_1" xmlns="http://www.w3.org/2000/svg" xmlns:xlink="http://www.w3.org/1999/xlink" x="0px" y="0px"
	 viewBox="0 0 1095.48 1158.49" style="enable-background:new 0 0 1095.48 1158.49;" xml:space="preserve">
<style type="text/css">
	.s10planet0{opacity:0.7;fill:#DBEAF2;stroke:#667682;stroke-width:5;stroke-miterlimit:10;}
	.s10planet1{fill:none;stroke:#FFFFFF;stroke-width:13;stroke-linecap:round;stroke-miterlimit:10;}
	.s10planet2{fill:#CFA9A7;stroke:#667682;stroke-width:5;stroke-miterlimit:10;}
	.s10planet3{fill:#B0A3A3;}
	.s10planet4{fill:none;stroke:#667682;stroke-width:5;stroke-miterlimit:10;}
	.s10planet5{fill:#8FCFF1;stroke:#667682;stroke-width:5;stroke-linecap:round;stroke-linejoin:round;stroke-miterlimit:10;}
	.s10planet6{fill:#FACBC8;stroke:#667682;stroke-width:5;stroke-linecap:round;stroke-linejoin:round;stroke-miterlimit:10;}
	.s10planet7{fill:#71BFF4;stroke:#667682;stroke-width:5;stroke-linecap:round;stroke-linejoin:round;stroke-miterlimit:10;}
	.s10planet8{fill:none;stroke:#667682;stroke-width:5;stroke-linecap:round;stroke-linejoin:round;stroke-miterlimit:10;}
	.s10planet9{fill:#C1DFF4;stroke:#667682;stroke-width:5;stroke-linecap:round;stroke-linejoin:round;stroke-miterlimit:10;}
	.s10planet10{fill:none;stroke:#FCFCFC;stroke-width:5;stroke-linecap:round;stroke-linejoin:round;stroke-miterlimit:10;}
	.s10planet11{fill:#F9B4B2;stroke:#667682;stroke-width:5;stroke-linecap:round;stroke-linejoin:round;stroke-miterlimit:10;}
</style>
<g class="st10-bulb"> 

	<circle class="s10planet0" cx="547.74" cy="547.74" r="545.24"/>
	<path class="s10planet1" d="M934.57,205.82c34.99,39.8,63.98,84.99,85.56,134.18"/>
	<path class="s10planet1" d="M881.55,153.55c6.98,5.96,13.8,12.1,20.45,18.42"/>
	<path class="s10planet1" d="M609.43,33.35c45.62,5.68,89.41,17.28,130.56,34.01c22.33,9.08,43.89,19.67,64.54,31.64"/>
	<path class="s10planet1" d="M318.34,90.32c8.31-4.29,16.74-8.36,25.3-12.2"/>
	<path class="s10planet1" d="M113.02,281.33c42.61-69.65,101.18-128.47,170.62-171.37"/>

	<polygon class="s10planet3" points="327.16,832.07 347.96,924.25 365.55,1002.25 542.82,1155.62 362.04,1060.54 272.89,1079 
		214.74,993.84 150.04,945.22 82.44,832.07 	"/>
	<polygon class="s10planet3" points="670.02,1079.22 850.99,1034.81 808.37,1092.98 	"/>

</g>
	<path id="dirt_1_" class="s10planet2" d="M82.42,832.07c20.66,33.74,67.62,113.15,67.62,113.15l64.7,48.62l58.15,85.15l89.16-18.46
		l180.78,95.08l127.2-76.41l138.34,13.77l99.61-135.95l61.31-34.13c0,0,28.94-66.61,43.77-90.83H82.42z"/>
	<path id="dirt_2_" class="s10planet4" d="M82.42,832.07c20.66,33.74,67.62,113.15,67.62,113.15l64.7,48.62l58.15,85.15l89.16-18.46
		l180.78,95.08l127.2-76.41l138.34,13.77l99.61-135.95l61.31-34.13c0,0,28.94-66.61,43.77-90.83H82.42z"/>
<g class="s10part6">
	<path class="s10planet6" d="M581.62,759.94H439.63V566.73c0-38.66,31.63-70.29,70.29-70.29h1.41c38.66,0,70.29,31.63,70.29,70.29V759.94z"
		/>
	<g>
		<rect x="534.49" y="331.94" class="s10planet5" width="76.4" height="461.42"/>
		<polyline class="s10planet7" points="552.9,331.94 534.49,331.94 534.49,790.98 552.9,790.98 		"/>
		<g>
			<line class="s10planet8" x1="552.9" y1="398.37" x2="552.9" y2="393.12"/>
			<line class="s10planet8" x1="552.9" y1="433.52" x2="552.9" y2="412.34"/>
		</g>
	</g>
	<g>
		<path class="s10planet6" d="M572.7,237.77c-39.32,0-71.2,31.58-71.2,70.54H643.9C643.9,269.35,612.02,237.77,572.7,237.77z"/>
		<g>
			<path class="s10planet9" d="M572.7,378.85c39.32,0,71.2-31.58,71.2-70.54H501.49C501.49,347.26,533.37,378.85,572.7,378.85z"/>
			<path class="s10planet10" d="M603.35,359.01c3.34-1.84,6.53-4.02,9.53-6.54c1.93-1.6,3.79-3.37,5.55-5.27"/>
		</g>
	</g>
</g>

<g class="s10part5">
	<g>
		<path class="s10planet5" d="M433.42,321.57c-8.79-3.78-18.47-5.89-28.63-5.89h-29.31c-39.84,0-72.44,32.29-72.44,71.76v334.36h130.37
			V321.57z"/>
		<path class="s10planet7" d="M321.08,340.21c-11.21,12.65-18.04,29.18-18.04,47.23v334.36h18.04"/>
		<path class="s10planet6" d="M433.42,793.4V388.88c-8.79-3.78-18.47-5.89-28.63-5.89h-29.31c-39.84,0-72.44,32.29-72.44,71.76V793.4
			H433.42z"/>
		<g>
			<path class="s10planet9" d="M268.4,460.67c0,18.95,15.51,34.32,34.64,34.32v-68.64C283.91,426.35,268.4,441.71,268.4,460.67z"/>
			<path class="s10planet10" d="M287.78,442.21c-1.36,1.26-2.6,2.66-3.71,4.21c-0.72,0.98-1.38,2.04-1.99,3.14"/>
		</g>
		<path class="s10planet11" d="M321.08,407.53c-11.21,12.65-18.04,29.18-18.04,47.23V793.4h18.04"/>
		<g>
			<line class="s10planet8" x1="321.08" y1="489.61" x2="321.08" y2="484.36"/>
			<line class="s10planet8" x1="321.08" y1="524.76" x2="321.08" y2="503.59"/>
		</g>
	</g>
	<g>
		<rect x="378.62" y="275.54" class="s10planet5" width="69.28" height="517.86"/>
		<polyline class="s10planet7" points="428.53,793.4 447.9,793.4 447.9,275.54 428.53,275.54 		"/>
		<rect x="378.62" y="227.47" class="s10planet6" width="69.28" height="48.07"/>
		<polyline class="s10planet11" points="428.53,275.54 447.9,275.54 447.9,227.47 428.53,227.47 		"/>
		<g>
			<line class="s10planet8" x1="428.53" y1="312.41" x2="428.53" y2="317.66"/>
			<line class="s10planet8" x1="428.53" y1="277.26" x2="428.53" y2="298.44"/>
		</g>
	</g>
	<g>
		<path class="s10planet6" d="M357.07,183.38h-21.24v0c0,28.05,23.17,51.01,51.49,51.01h51.89c28.32,0,51.49-22.95,51.49-51.01v0H378.62"/>
		<path class="s10planet9" d="M378.62,183.38h112.07v0c0-28.05-23.17-51.01-51.49-51.01h-51.89c-28.32,0-51.49,22.95-51.49,51.01v0h21.24"
			/>
		<path class="s10planet10" d="M470.32,157.88c-2.62-2.76-5.53-5.29-8.73-7.56c-2.04-1.46-4.22-2.82-6.51-4.05"/>
	</g>
	<g>
		<g>
			<path class="s10planet9" d="M483.09,414.43c0,18.95-15.76,34.32-35.2,34.32v-68.64C467.34,380.11,483.09,395.48,483.09,414.43z"/>
			<path class="s10planet10" d="M463.4,395.98c1.38,1.26,2.64,2.66,3.77,4.21c0.73,0.98,1.41,2.04,2.02,3.14"/>
		</g>
		<rect x="447.9" y="414.43" class="s10planet6" width="35.2" height="378.96"/>
	</g>
	<g>
		<path class="s10planet6" d="M378.62,751.53h69.28V504.3c0-37.91-31.02-68.64-69.28-68.64h0V751.53z"/>
		<path class="s10planet11" d="M428.53,751.53h19.37V504.3c0-18.48-7.38-35.23-19.37-47.57"/>
		<path class="s10planet5" d="M447.9,793.4V569.11c0-37.91-31.02-68.64-69.28-68.64h0V793.4H447.9z"/>
		<path class="s10planet7" d="M428.53,793.4h19.37V569.11c0-18.48-7.38-35.23-19.37-47.57"/>
		<g>
			<line class="s10planet8" x1="428.53" y1="610.1" x2="428.53" y2="615.35"/>
			<line class="s10planet8" x1="428.53" y1="574.95" x2="428.53" y2="596.13"/>
		</g>
	</g>
</g>
<g class="s10part4">
	<path class="s10planet9" d="M268.12,514.33h-29.31c-39.84,0-72.44,32.29-72.44,71.76v116.45h106.05V514.47
		C271,514.39,269.56,514.33,268.12,514.33z"/>
	<polygon class="s10planet6" points="272.42,793.4 272.42,712.31 272.42,634.55 272.42,605.85 166.33,605.85 166.33,634.55 166.33,712.31 
		166.33,793.4 	"/>
	<path class="s10planet5" d="M340.56,586.1c0-38.04-30.28-69.4-68.14-71.63v188.07h68.14V586.1z"/>
	<path class="s10planet10" d="M214.74,532.05c-5.5,3.03-10.61,6.97-15.09,11.81"/>
</g>
<g class="s10part7">
	<g>
		<rect x="805.37" y="381.03" class="s10planet5" width="69.02" height="97.96"/>
		<polyline class="s10planet7" points="854.3,478.99 874.38,478.99 874.38,380.76 854.3,380.76 		"/>
	</g>
	<g>
		<path class="s10planet6" d="M781.51,331.94h-21.24v0c0,28.05,23.17,51.01,51.49,51.01h51.89c28.32,0,51.49-22.95,51.49-51.01v0H803.06"/>
		<path class="s10planet9" d="M803.06,331.94h112.07v0c0-28.05-23.17-51.01-51.49-51.01h-51.89c-28.32,0-51.49,22.95-51.49,51.01v0h21.24"
			/>
		<path class="s10planet10" d="M894.76,306.44c-2.62-2.76-5.53-5.29-8.73-7.56c-2.04-1.46-4.22-2.82-6.51-4.05"/>
	</g>
	<g>
		<path class="s10planet5" d="M1034.63,793.36V765.6c0-39.44-32.6-71.71-72.44-71.71h-19.26v99.47H1034.63z"/>
		<polyline class="s10planet7" points="961.04,693.89 942.93,693.89 942.93,793.36 961.04,793.36 		"/>
	</g>
	<g>
		<path class="s10planet5" d="M942.93,793.4V671c0-38.18-30.5-69.64-68.55-71.66V793.4H942.93z"/>
		<path class="s10planet6" d="M942.93,793.4v-35.56c0-38.18-30.5-68.57-68.55-70.59V793.4H942.93z"/>
		<g>
			<path class="s10planet9" d="M977.58,706c0,18.95-15.51,34.32-34.64,34.32v-68.64C962.07,671.68,977.58,687.05,977.58,706z"/>
			<path class="s10planet10" d="M958.2,687.55c1.36,1.26,2.6,2.66,3.71,4.21c0.72,0.99,1.38,2.04,1.99,3.14"/>
		</g>
	</g>
	<g>
		<g>
			<path class="s10planet6" d="M781.51,478.99h-21.24v0c0,28.05,23.17,51.01,51.49,51.01h51.89c28.32,0,51.49-22.95,51.49-51.01v0H803.06"
				/>
			<path class="s10planet9" d="M803.06,478.99h112.07v0c0-28.05-23.17-51.01-51.49-51.01h-51.89c-28.32,0-51.49,22.95-51.49,51.01v0h21.24"
				/>
			<path class="s10planet10" d="M894.76,453.48c-2.62-2.76-5.53-5.29-8.73-7.56c-2.04-1.46-4.22-2.82-6.51-4.05"/>
		</g>
		<path class="s10planet5" d="M805.1,626.15v167.21h69.28V686.14C836.47,685.84,805.1,659.1,805.1,626.15z"/>
		<path class="s10planet6" d="M805.1,530.02v97.25c0,32.95,31.37,59.68,69.28,59.98v-0.54V530.02H805.1z"/>
		<path class="s10planet11" d="M854.3,684.52c6.37,1.72,13.12,2.67,20.09,2.73v-0.54V530.02H854.3"/>
		<g>
			<line class="s10planet8" x1="854.3" y1="622.23" x2="854.3" y2="616.98"/>
			<line class="s10planet8" x1="854.3" y1="657.38" x2="854.3" y2="636.2"/>
		</g>
		<path class="s10planet8" d="M825.53,724.73c0-6.27,5.13-11.35,11.46-11.35c6.33,0,11.46,5.08,11.46,11.35c0,6.28-5.14,11.36-11.46,11.36
			C830.66,736.09,825.53,731.01,825.53,724.73z"/>
		<path class="s10planet7" d="M854.3,793.4h20.09V687.33c-6.97-0.06-13.71-1.01-20.09-2.73"/>
	</g>
</g>
<g class="s10part3">
	<g>
		<path class="s10planet6" d="M643.69,793.4V631.2c0-38.66-31.67-70.29-70.38-70.29h-1.23c-38.71,0-70.38,31.63-70.38,70.29V793.4H643.69z"
			/>
		<path class="s10planet5" d="M612.39,793.4c5.84-7.99,9.3-17.78,9.3-28.34V631.91c0-26.7-22.05-48.54-49-48.54h0
			c-26.95,0-49,21.84-49,48.54v133.15c0,10.56,3.46,20.35,9.3,28.34H612.39z"/>
		<path class="s10planet8" d="M561.81,626.42c0-6.27,5.13-11.35,11.46-11.35c6.33,0,11.46,5.08,11.46,11.35c0,6.28-5.14,11.36-11.46,11.36
			C566.94,637.78,561.81,632.7,561.81,626.42z"/>
	</g>
	<g>
		<path class="s10planet9" d="M572.7,655.15c-39.32,0-71.2,31.58-71.2,70.54H643.9C643.9,686.73,612.02,655.15,572.7,655.15z"/>
		<path class="s10planet10" d="M618.61,687.6c-2.62-2.76-5.53-5.29-8.73-7.56c-2.04-1.46-4.22-2.82-6.51-4.05"/>
	</g>
	<g>
		<g>
			<g>
				<rect x="643.57" y="461.01" class="s10planet6" width="70" height="332.36"/>
				<g>
					<path class="s10planet9" d="M713.57,459.91c0,19.16-15.67,34.68-35,34.68s-35-15.52-35-34.68c0-19.15,15.67-34.67,35-34.67
						S713.57,440.76,713.57,459.91z"/>
					<path class="s10planet10" d="M682.6,436.01c4.68,0.93,8.88,3.2,12.16,6.39"/>
				</g>
			</g>
			<g>
				<rect x="643.69" y="668.67" class="s10planet5" width="69.98" height="124.73"/>
				<g>
					<path class="s10planet6" d="M643.69,567.72h70.19c-0.21,30.66-36.26,55.13-70.19,55.13V567.72z"/>
					<path class="s10planet5" d="M713.88,569.51v-1.79l0,0c-6.52,31.46-36.26,55.13-70.19,55.13v14.04v29.92v58.87
						c36.55,0,69.98-27.35,69.98-62.31"/>
				</g>
				<g>
					<path class="s10planet9" d="M678.68,533.4c-19.33,0-34.99,15.37-34.99,34.32h69.98C713.67,548.76,698.01,533.4,678.68,533.4z"/>
					<path class="s10planet10" d="M697.5,552.6c-1.29-1.34-2.72-2.57-4.29-3.68c-1-0.71-2.08-1.37-3.2-1.97"/>
				</g>
			</g>
		</g>
		<path class="s10planet6" d="M805.37,793.4V639.48c0-39.47-32.6-71.76-72.44-71.76h-19.26V793.4H805.37z"/>
		<polyline class="s10planet11" points="732.33,567.72 713.67,567.72 713.67,793.36 732.33,793.36 		"/>
	</g>
	<g>
		<path class="s10planet5" d="M501.7,620.93c-37.89,1.93-68.29,33.52-68.29,71.87v100.6h68.29V620.93z"/>
		<path class="s10planet7" d="M482.26,793.36h19.44l-0.05-172.5c-6.77,0.39-13.28,1.72-19.44,3.84"/>
	</g>
	<g>
		<path class="s10planet6" d="M724.83,793.4c-1.97-37.73-33.45-67.73-72.02-67.73H501.7v67.73H724.83z"/>
		<path class="s10planet5" d="M623.12,793.4c-0.1-37-30.16-66.97-67.24-66.97H501.7v66.97H623.12z"/>
	</g>
	<g>
		<path class="s10planet9" d="M767.63,722.82c-39.32,0-71.2,31.58-71.2,70.54h142.41C838.83,754.41,806.95,722.82,767.63,722.82z"/>
		<path class="s10planet10" d="M813.54,755.27c-2.62-2.76-5.53-5.29-8.73-7.56c-2.04-1.46-4.22-2.82-6.51-4.05"/>
	</g>
</g>
<g class="s10part2">
	<g>
		<g>
			<path class="s10planet9" d="M306.67,621.58c-39.32,0-71.2,31.58-71.2,70.54h142.41C377.87,653.16,345.99,621.58,306.67,621.58z"/>
			<path class="s10planet10" d="M352.58,654.02c-2.62-2.76-5.53-5.29-8.73-7.56c-2.04-1.46-4.22-2.82-6.51-4.05"/>
		</g>
		<g>
			<rect x="235.46" y="692.12" class="s10planet6" width="143.16" height="101.28"/>
			<rect x="268.16" y="692.12" class="s10planet5" width="40.42" height="101.28"/>
		</g>
	</g>
	<path class="s10planet6" d="M381.17,692.12h-2.49V793.4h74.93v-28.27C453.61,724.97,421.01,692.12,381.17,692.12z"/>
	<path class="s10planet11" d="M433.21,793.4h20.39v-28.27c0-19.61-7.79-37.47-20.39-50.63"/>
	<g>
		<path class="s10planet9" d="M377.87,793.4c-0.07-18.89-15.55-34.19-34.64-34.19s-34.57,15.3-34.64,34.19H377.87z"/>
		<path class="s10planet10" d="M349.04,769.91c4.68,0.93,8.88,3.21,12.16,6.39"/>
	</g>
</g>
<g class="s10part1">
	<g>
		<path class="s10planet9" d="M166.29,792.23v-187.4c-1.42-0.08-2.84-0.14-4.28-0.14h-29.16c-39.64,0-72.08,32.29-72.08,71.76v115.78
			H166.29z"/>
		<rect x="61.34" y="672.2" class="s10planet6" width="104.91" height="120.02"/>
		<rect x="61.34" y="704.55" class="s10planet5" width="104.91" height="87.68"/>
		<polyline class="s10planet7" points="80.78,792.23 61.34,792.23 61.34,704.55 80.78,704.55 		"/>
		<path class="s10planet10" d="M104.88,623.3c-5.5,3.03-10.61,6.97-15.09,11.81"/>
		<path class="s10planet5" d="M235.19,792.16V676.39c0-38.05-30.53-69.41-68.71-71.64v187.4H235.19z"/>
		<g>
			<line class="s10planet8" x1="80.78" y1="732.27" x2="80.78" y2="727.02"/>
			<line class="s10planet8" x1="80.78" y1="767.42" x2="80.78" y2="746.24"/>
		</g>
		<path class="s10planet8" d="M106.26,741.22c0-6.27,5.13-11.35,11.46-11.35c6.33,0,11.46,5.08,11.46,11.35c0,6.28-5.14,11.36-11.46,11.36
			C111.39,752.58,106.26,747.49,106.26,741.22z"/>
	</g>
	<g>
		<path class="s10planet9" d="M235.16,737.74c0-18.96-15.38-34.33-34.35-34.33s-34.35,15.37-34.35,34.33H235.16z"/>
		<path class="s10planet10" d="M206.59,713.78c4.68,0.93,8.88,3.21,12.16,6.39"/>
		<rect x="166.46" y="737.74" class="s10planet5" width="68.71" height="54.48"/>
	</g>
</g>
<path class="s10planet5" d="M1013.04,832.07c7.69-12.57,14.91-25.46,21.58-38.67H60.85c6.68,13.21,13.89,26.1,21.58,38.67H1013.04z"/>
</svg>
