<?xml version="1.0" encoding="utf-8"?>
<!-- Generator: Adobe Illustrator 23.0.1, SVG Export Plug-In . SVG Version: 6.00 Build 0)  -->
<svg version="1.1" id="Layer_1" xmlns="http://www.w3.org/2000/svg" xmlns:xlink="http://www.w3.org/1999/xlink" x="0px" y="0px"
	 viewBox="0 0 2669.05 1248.45" style="enable-background:new 0 0 2669.05 1248.45;" xml:space="preserve">
<style type="text/css">
	.st0{fill:#FFFFFF;}
</style>
<g id="STARS">
	<g>
		<circle class="st0" cx="440.48" cy="51.75" r="16.39"/>
		<circle class="st0" cx="16.39" cy="503.46" r="16.39"/>
		<circle class="st0" cx="2376.88" cy="360.34" r="16.39"/>
		<circle class="st0" cx="2652.66" cy="1097.84" r="16.39"/>
	</g>
	<g>
		<circle class="st0" cx="1903.91" cy="944.05" r="10.69"/>
		<circle class="st0" cx="2180.59" cy="649.35" r="10.69"/>
		<circle class="st0" cx="640.56" cy="742.72" r="10.69"/>
		<circle class="st0" cx="460.64" cy="261.57" r="10.69"/>
	</g>
	<circle class="st0" cx="1576.46" cy="10.69" r="10.69"/>
	<circle class="st0" cx="1778.02" cy="1144.38" r="10.69"/>
	<circle class="st0" cx="238" cy="1237.75" r="10.69"/>
	<circle class="st0" cx="58.08" cy="756.59" r="10.69"/>
	<g>
		<circle class="st0" cx="1780.69" cy="743.16" r="8.03"/>
		<circle class="st0" cx="1988.33" cy="521.99" r="8.03"/>
		<circle class="st0" cx="832.59" cy="592.07" r="8.03"/>
		<circle class="st0" cx="697.57" cy="230.98" r="8.03"/>
	</g>
	<g>
		<circle class="st0" cx="1007.93" cy="37.93" r="5.83"/>
		<circle class="st0" cx="857.11" cy="198.57" r="5.83"/>
		<circle class="st0" cx="1696.55" cy="147.67" r="5.83"/>
		<circle class="st0" cx="1794.62" cy="409.94" r="5.83"/>
	</g>
</g>
</svg>
