<?xml version="1.0" encoding="utf-8"?>
<!-- Generator: Adobe Illustrator 23.0.1, SVG Export Plug-In . SVG Version: 6.00 Build 0)  -->
<svg version="1.1" id="Layer_1" xmlns="http://www.w3.org/2000/svg" xmlns:xlink="http://www.w3.org/1999/xlink" x="0px" y="0px"
	 viewBox="0 0 465.05 1359.07" style="enable-background:new 0 0 465.05 1359.07;" xml:space="preserve">
<style type="text/css">
	.st0{opacity:0.9;fill:#FFFDAB;}
</style>
<path class="st0" d="M465.05,189.12c0-13.53-5.12-20.47-9.64-26.58c-4.5-6.09-8.38-11.35-8.38-22.21c0-10.86,3.88-16.12,8.38-22.21
	c4.52-6.12,9.64-13.05,9.64-26.58c0-13.53-5.12-20.47-9.64-26.58c-4.5-6.09-8.38-11.35-8.38-22.21c0-10.86,3.88-16.12,8.38-22.21
	c3.79-5.13,7.99-10.85,9.25-20.54H358.47h-46.64h-52.26h-53.93h-52.26h-46.64H0.55c1.44,8.99,5.46,14.44,9.09,19.37
	c4.5,6.09,8.38,11.35,8.38,22.21c0,10.86-3.88,16.12-8.38,22.21C5.12,69.9,0,76.83,0,90.36c0,13.53,5.12,20.47,9.64,26.58
	c4.5,6.09,8.38,11.35,8.38,22.21c0,10.86-3.88,16.12-8.38,22.21C5.12,167.48,0,174.41,0,187.95c0,13.53,5.12,20.47,9.64,26.58
	c4.5,6.09,8.38,11.35,8.38,22.21c0,10.86-3.88,16.12-8.38,22.21C5.12,265.06,0,272,0,285.53c0,13.53,5.12,20.47,9.64,26.58
	c4.5,6.09,8.38,11.35,8.38,22.21c0,10.86-3.88,16.12-8.38,22.21C5.12,362.65,0,369.58,0,383.11c0,13.53,5.12,20.47,9.64,26.58
	c4.5,6.09,8.38,11.34,8.38,22.21s-3.88,16.12-8.38,22.21C5.12,460.22,0,467.15,0,480.69c0,13.53,5.12,20.47,9.64,26.58
	c4.5,6.09,8.38,11.35,8.38,22.21c0,10.86-3.88,16.12-8.38,22.21C5.12,557.8,0,564.73,0,578.27c0,13.53,5.12,20.47,9.64,26.59
	c4.5,6.09,8.38,11.35,8.38,22.21c0,10.86-3.88,16.12-8.38,22.21C5.12,655.38,0,662.32,0,675.85c0,13.53,5.12,20.47,9.64,26.59
	c4.5,6.09,8.38,11.35,8.38,22.21s-3.88,16.12-8.38,22.21C5.12,752.97,0,759.9,0,773.43c0,13.53,5.12,20.47,9.64,26.58
	c4.5,6.09,8.38,11.35,8.38,22.21c0,10.86-3.88,16.12-8.38,22.21C5.12,850.55,0,857.49,0,871.02c0,13.54,5.12,20.47,9.64,26.59
	c4.5,6.09,8.38,11.35,8.38,22.21s-3.88,16.12-8.38,22.21C5.12,948.14,0,955.08,0,968.61c0,13.53,5.12,20.47,9.64,26.59
	c4.5,6.09,8.38,11.35,8.38,22.21c0,10.86-3.88,16.12-8.38,22.21C5.12,1045.73,0,1052.66,0,1066.2c0,13.53,5.12,20.47,9.64,26.59
	c4.5,6.09,8.38,11.35,8.38,22.21c0,10.86-3.88,16.12-8.38,22.21c-4.52,6.12-9.64,13.05-9.64,26.59c0,13.54,5.12,20.47,9.64,26.59
	c4.5,6.09,8.38,11.35,8.38,22.21c0,10.86-3.88,16.12-8.38,22.21c-4.52,6.12-9.64,13.05-9.64,26.59c0,13.54,5.12,20.47,9.64,26.59
	c4.5,6.09,8.38,11.35,8.38,22.21c0,10.86-3.88,16.12-8.38,22.21c-4.52,6.12-9.64,13.05-9.64,26.59c0,0.03,0,0.05,0,0.08h106.19
	h47.55h51.35h54.84h51.35h47.55h106.19c-0.27-12.82-5.22-19.56-9.62-25.51c-4.5-6.09-8.38-11.35-8.38-22.21
	c0-10.86,3.88-16.12,8.38-22.21c4.52-6.12,9.64-13.05,9.64-26.59c0-13.54-5.12-20.47-9.64-26.59c-4.5-6.09-8.38-11.35-8.38-22.21
	c0-10.86,3.88-16.12,8.38-22.21c4.52-6.12,9.64-13.05,9.64-26.59c0-13.53-5.12-20.47-9.64-26.59c-4.5-6.09-8.38-11.35-8.38-22.21
	c0-10.86,3.88-16.12,8.38-22.21c4.52-6.12,9.64-13.05,9.64-26.58c0-13.53-5.12-20.47-9.64-26.59c-4.5-6.09-8.38-11.35-8.38-22.21
	c0-10.86,3.88-16.12,8.38-22.21c4.52-6.12,9.64-13.05,9.64-26.59c0-13.54-5.12-20.47-9.64-26.59c-4.5-6.09-8.38-11.35-8.38-22.21
	c0-10.86,3.88-16.12,8.38-22.21c4.52-6.12,9.64-13.05,9.64-26.58c0-13.53-5.12-20.47-9.64-26.58c-4.5-6.09-8.38-11.35-8.38-22.21
	c0-10.86,3.88-16.12,8.38-22.21c4.52-6.12,9.64-13.05,9.64-26.58c0-13.53-5.12-20.47-9.64-26.58c-4.5-6.09-8.38-11.35-8.38-22.21
	c0-10.86,3.88-16.12,8.38-22.21c4.52-6.12,9.64-13.05,9.64-26.58c0-13.53-5.12-20.47-9.64-26.59c-4.5-6.09-8.38-11.35-8.38-22.21
	c0-10.86,3.88-16.12,8.38-22.21c4.52-6.12,9.64-13.05,9.64-26.58c0-13.53-5.12-20.47-9.64-26.58c-4.5-6.09-8.38-11.34-8.38-22.21
	c0-10.86,3.88-16.12,8.38-22.2c4.52-6.12,9.64-13.05,9.64-26.58c0-13.53-5.12-20.47-9.64-26.58c-4.5-6.09-8.38-11.34-8.38-22.2
	c0-10.86,3.88-16.12,8.38-22.21c4.52-6.12,9.64-13.05,9.64-26.58c0-13.53-5.12-20.47-9.64-26.58c-4.5-6.09-8.38-11.35-8.38-22.21
	c0-10.86,3.88-16.12,8.38-22.21c4.52-6.12,9.64-13.05,9.64-26.58c0-13.53-5.12-20.47-9.64-26.58c-4.5-6.09-8.38-11.35-8.38-22.21
	c0-10.86,3.88-16.12,8.38-22.21C459.93,209.59,465.05,202.65,465.05,189.12z"/>
</svg>
