<?xml version="1.0" encoding="utf-8"?>
<!-- Generator: Adobe Illustrator 23.0.1, SVG Export Plug-In . SVG Version: 6.00 Build 0)  -->
<svg version="1.1" id="Layer_1" xmlns="http://www.w3.org/2000/svg" xmlns:xlink="http://www.w3.org/1999/xlink" x="0px" y="0px"
	 viewBox="0 0 770.63 820.93" style="enable-background:new 0 0 770.63 820.93;" xml:space="preserve">
<style type="text/css">
	.st0{fill:#9B8A89;stroke:#667682;stroke-width:5;stroke-linecap:round;stroke-linejoin:round;stroke-miterlimit:10;}
	.st1{fill:#B0A3A3;}
	.st2{fill:none;stroke:#667682;stroke-width:5;stroke-linecap:round;stroke-linejoin:round;stroke-miterlimit:10;}
	.st3{fill:#9B8A89;}
</style>
<g>
	<g>
		<path class="st0" d="M288.65,4.4L29.41,121.07c-7.5,3.38-12.44,10.72-12.72,18.95L2.51,547.18c-0.28,8.16,4.06,15.78,11.22,19.7
			L468.7,815.78c7.93,4.34,17.72,3.28,24.54-2.65L746.5,592.81c4.52-3.93,7.2-9.56,7.41-15.54l14.21-408.19
			c0.34-9.66-5.78-18.36-14.98-21.32L304.12,3.53C299.03,1.9,293.52,2.21,288.65,4.4z"/>
		<path class="st1" d="M277.53,24.77L185.7,141.61c-15.23,19.38-11.32,47.53,8.61,62.02l130.83,95.14
			c7.64,5.56,13.27,13.46,16.02,22.5l108.27,355.65c8.67,28.48,42.75,40.01,66.93,22.65l172.75-123.99
			c9.45-6.78,15.79-17.07,17.6-28.56l56.2-357.51c3.33-21.16-9.26-41.59-29.65-48.14L325,10.24
			C307.7,4.68,288.77,10.48,277.53,24.77z"/>
		<path class="st2" d="M288.65,4.4L29.41,121.07c-7.5,3.38-12.44,10.72-12.72,18.95L2.51,547.18c-0.28,8.16,4.06,15.78,11.22,19.7
			L468.7,815.78c7.93,4.34,17.72,3.28,24.54-2.65L746.5,592.81c4.52-3.93,7.2-9.56,7.41-15.54l14.21-408.19
			c0.34-9.66-5.78-18.36-14.98-21.32L304.12,3.53C299.03,1.9,293.52,2.21,288.65,4.4z"/>
	</g>
	<g>
		<path class="st3" d="M462.05,395.12c-29.94,24.53-64.28,34.97-103.19,31.1c-38.91-3.87-70.51-20.87-95.04-50.81
			c-20.65-25.22-31.03-53.96-31.36-86.05c-0.32-32.09,8.75-60.96,27.19-86.22l-30.61-37.37l54.49-44.63l30.61,37.37
			c28.39-13.1,58.27-16.13,89.66-9.49c31.4,6.64,57.31,22.66,77.96,47.87l-72.5,59.38c-8.11-9.91-18.72-15.51-31.83-16.81
			c-13.11-1.3-24.61,2.1-34.52,10.22c-10.13,8.3-15.74,18.91-16.81,31.83c-1.08,12.92,2.33,24.43,10.44,34.33
			c8.3,10.13,18.91,15.74,31.79,17.22c12.88,1.49,24.39-1.92,34.52-10.22c29.94-24.53,64.28-34.97,103.19-31.1
			c38.91,3.87,70.51,20.87,95.04,50.81c20.84,25.44,31.63,54.23,32.13,86.54c0.51,32.31-8.34,61-26.78,86.26l30.43,37.15
			l-54.49,44.63l-30.43-37.15c-28.39,13.1-58.27,16.13-89.85,9.26c-31.58-6.86-57.68-23.11-78.51-48.55l72.72-59.57
			c8.3,10.13,18.91,15.74,31.6,17c12.7,1.26,24.2-2.14,34.33-10.44c9.91-8.11,15.51-18.72,17-31.61
			c1.49-12.88-1.92-24.39-10.22-34.52c-8.11-9.91-18.72-15.51-31.83-16.81c-13.11-1.3-24.61,2.1-34.52,10.22L462.05,395.12z"/>
	</g>
</g>
</svg>
