<?xml version="1.0" encoding="utf-8"?>
<!-- Generator: Adobe Illustrator 23.0.1, SVG Export Plug-In . SVG Version: 6.00 Build 0)  -->
<svg version="1.1" id="Layer_1" xmlns="http://www.w3.org/2000/svg" xmlns:xlink="http://www.w3.org/1999/xlink" x="0px" y="0px"
	 viewBox="0 0 449.57 400.29" style="enable-background:new 0 0 449.57 400.29;" xml:space="preserve">
<style type="text/css">
	.st0{fill:#B6D5BB;stroke:#667682;stroke-width:5;stroke-miterlimit:10;}
	.st1{fill:none;stroke:#FCFCFC;stroke-width:5;stroke-linecap:round;stroke-linejoin:round;stroke-miterlimit:10;}
	.st2{fill:#97C69F;}
	.st3{fill:#CCB9DA;stroke:#667682;stroke-width:5;stroke-linecap:round;stroke-linejoin:round;stroke-miterlimit:10;}
	.st4{fill:#AA95C1;}
	.st5{fill:none;stroke:#667682;stroke-width:5;stroke-linecap:round;stroke-linejoin:round;stroke-miterlimit:10;}
	.st6{fill:#AA95C1;stroke:#667682;stroke-width:5;stroke-linecap:round;stroke-linejoin:round;stroke-miterlimit:10;}
	.st7{fill:#CCB9DA;}
	.st8{fill:#667682;}
	.st9{fill:#FBC595;stroke:#667682;stroke-width:5;stroke-linecap:round;stroke-linejoin:round;stroke-miterlimit:10;}
	.st10{fill:#EAA97D;}
	.st11{fill:#FFDAA4;}
	.st12{clip-path:url(#SVGID_2_);}
	.st13{fill:#FFFFFF;stroke:#667682;stroke-width:5;stroke-linecap:round;stroke-linejoin:round;stroke-miterlimit:10;}
	.st14{fill:none;stroke:#667682;stroke-width:5;stroke-miterlimit:10;}
</style>
<ellipse transform="matrix(0.7499 -0.6616 0.6616 0.7499 -59.368 184.2463)" class="st0" cx="213.98" cy="170.64" rx="88.45" ry="61.96"/>
<path class="st1" d="M218.59,106.26c21.76-5.76,42.51-2.06,54.85,11.92c20.3,23,10.13,65.14-22.71,94.11s-75.91,33.81-96.2,10.8
	s-10.13-65.14,22.71-94.11c6.84-6.03,14.12-11.02,21.55-14.93"/>
<ellipse transform="matrix(0.7499 -0.6616 0.6616 0.7499 -59.368 184.2463)" class="st2" cx="213.98" cy="170.64" rx="67.44" ry="47.25"/>
<path class="st3" d="M419.52,19.18c-49.16,17.87-129.47,71.39-211.96,144.17S61.94,309.15,38.09,355.69L419.52,19.18z"/>
<path class="st3" d="M419.52,19.18c-49.16,17.87-129.47,71.39-211.96,144.17S61.94,309.15,38.09,355.69L419.52,19.18z"/>
<path class="st4" d="M51.82,332.43c-5.46,8.32-10.06,16.11-13.73,23.27L419.52,19.18c-7.56,2.75-15.87,6.35-24.8,10.72L51.82,332.43
	z"/>
<path class="st5" d="M419.52,19.18c-49.16,17.87-129.47,71.39-211.96,144.17S61.94,309.15,38.09,355.69L419.52,19.18z"/>
<path class="st6" d="M443.83,22.94c-16.31,59.66-77.19,144.15-164.79,221.44S100.02,371.55,38.79,380.29L443.83,22.94z"/>
<path class="st7" d="M342.9,169.96c-7.84,7.84-16.35,14.93-24.67,22.27c-8.4,7.41-16.8,14.82-25.2,22.24
	c-9.46,8.35-18.93,16.7-28.39,25.05c-9.2,8.12-18.4,16.24-27.6,24.35c-11.41,10.07-22.47,20.55-34.25,30.2
	c-11.86,9.71-24.7,18.06-37.74,26.05c-15.89,9.75-32.19,18.83-48.95,26.93c-14.6,7.06-29.57,13.4-44.92,18.49
	c-7.57,2.51-15.25,4.72-23,6.48l-9.38,8.27c43.43-6.2,102.05-33.11,163.73-75.8l-0.1-0.12l145.7-128.54l0.1,0.12
	c50.05-55.87,84.05-110.69,95.62-153c0,0-9.38,8.27-9.38,8.27c-0.83,0.73-1.33,3.58-1.74,4.64c-0.64,1.64-1.3,3.28-1.98,4.91
	c-1.41,3.38-2.89,6.74-4.44,10.06c-3.32,7.12-6.93,14.11-10.76,20.98c-8.62,15.45-18.33,30.32-28.7,44.7
	c-5.71,7.92-11.63,15.69-17.72,23.32c-7.63,9.56-15.44,19-23.95,27.83C344.42,168.43,343.66,169.2,342.9,169.96z"/>
<path class="st5" d="M443.83,22.94c-16.31,59.66-77.19,144.15-164.79,221.44S100.02,371.55,38.79,380.29L443.83,22.94z"/>
<path class="st8" d="M441.22,46.1L62.09,380.59c-7.15,6.31-18.07,5.63-24.38-1.53l0,0c-6.31-7.15-5.63-18.07,1.53-24.38
	L418.37,20.19c7.15-6.31,18.07-5.63,24.38,1.53l0,0C449.06,28.87,448.38,39.79,441.22,46.1z"/>
<path class="st9" d="M279.16,103.38L139.13,226.93l0,0c-6.88-7.8-6.14-19.71,1.66-26.59l111.78-98.62
	C260.37,94.84,272.28,95.58,279.16,103.38L279.16,103.38z"/>
<path class="st10" d="M147.93,194.04l-10.93,9.64c-5.66,4.99-6.2,13.62-1.21,19.28l3.42,3.88l10.93-9.64l-3.42-3.88
	C141.73,207.67,142.27,199.03,147.93,194.04z"/>
<path class="st11" d="M245.52,107.94l10.93-9.64c5.66-4.99,14.29-4.45,19.28,1.21l3.43,3.88l-10.93,9.64l-3.42-3.88
	C259.81,103.49,251.18,102.95,245.52,107.94z"/>
<path class="st5" d="M279.16,103.38L139.13,226.93l0,0c-6.88-7.8-6.14-19.71,1.66-26.59l111.78-98.62
	C260.37,94.84,272.28,95.58,279.16,103.38L279.16,103.38z"/>
<path class="st9" d="M378.54,138.91L158.61,332.94h0c6.88,7.8,18.79,8.55,26.59,1.66L376.87,165.5
	C384.68,158.61,385.42,146.71,378.54,138.91L378.54,138.91z"/>
<path class="st10" d="M173.1,327.05l-3.43-3.88l-11.07,9.77l3.43,3.88c4.99,5.66,13.62,6.2,19.28,1.21l11.07-9.77
	C186.73,333.25,178.1,332.71,173.1,327.05z"/>
<path class="st11" d="M368.08,155.04l-3.43-3.88l13.88-12.25l3.43,3.88c4.99,5.66,3.29,15.32-3.81,21.58l-13.88,12.25
	C371.36,170.36,373.07,160.7,368.08,155.04z"/>
<path class="st5" d="M378.54,138.91L158.61,332.94h0c6.88,7.8,18.79,8.55,26.59,1.66L376.87,165.5
	C384.68,158.61,385.42,146.71,378.54,138.91L378.54,138.91z"/>
<g>
	<defs>
		<path id="SVGID_1_" d="M441.22,46.1L62.09,380.59c-7.15,6.31-18.07,5.63-24.38-1.53l0,0c-6.31-7.15-5.63-18.07,1.53-24.38
			L418.37,20.19c7.15-6.31,18.07-5.63,24.38,1.53l0,0C449.06,28.87,448.38,39.79,441.22,46.1z"/>
	</defs>
	<clipPath id="SVGID_2_">
		<use xlink:href="#SVGID_1_"  style="overflow:visible;"/>
	</clipPath>
	<g class="st12">
		<g>
			<polygon class="st13" points="29.74,363.05 55.63,364.94 56.99,339.02 			"/>
			<polygon class="st13" points="56.99,339.02 82.88,340.9 84.23,314.98 			"/>
			<polygon class="st13" points="84.23,314.98 110.12,316.87 111.48,290.94 			"/>
			<polygon class="st13" points="111.48,290.94 137.37,292.83 138.72,266.91 			"/>
			<polygon class="st13" points="138.72,266.91 164.61,268.79 165.97,242.87 			"/>
			<polygon class="st13" points="165.97,242.87 191.86,244.75 193.21,218.83 			"/>
			<polygon class="st13" points="193.21,218.83 219.1,220.72 220.46,194.8 			"/>
			<polygon class="st13" points="220.46,194.8 246.35,196.68 247.7,170.76 			"/>
			<polygon class="st13" points="247.7,170.76 273.59,172.64 274.95,146.72 			"/>
			<polygon class="st13" points="274.95,146.72 300.84,148.61 302.19,122.68 			"/>
			<polygon class="st13" points="302.19,122.68 328.08,124.57 329.44,98.65 			"/>
			<polygon class="st13" points="329.44,98.65 355.33,100.53 356.68,74.61 			"/>
			<polygon class="st13" points="356.68,74.61 382.57,76.5 383.93,50.57 			"/>
			<polygon class="st13" points="383.93,50.57 409.82,52.46 411.17,26.54 			"/>
			<polygon class="st13" points="411.17,26.54 437.06,28.42 438.42,2.5 			"/>
			<polygon class="st13" points="2.5,387.09 28.39,388.98 29.74,363.05 			"/>
		</g>
		<g>
			<polygon class="st13" points="417.26,67.24 391.6,65.15 390.48,90.86 			"/>
			<polygon class="st13" points="444.03,43.62 418.38,41.53 417.26,67.24 			"/>
			<polygon class="st13" points="390.67,90.7 365.02,88.6 363.9,114.32 			"/>
			<polygon class="st13" points="363.9,114.32 338.24,112.23 337.12,137.94 			"/>
			<polygon class="st13" points="337.12,137.94 311.47,135.85 310.35,161.56 			"/>
			<polygon class="st13" points="310.35,161.56 284.69,159.47 283.57,185.19 			"/>
			<polygon class="st13" points="283.57,185.19 257.92,183.09 256.8,208.81 			"/>
			<polygon class="st13" points="256.8,208.81 231.14,206.71 230.02,232.43 			"/>
			<polygon class="st13" points="230.02,232.43 204.37,230.34 203.25,256.05 			"/>
			<polygon class="st13" points="203.25,256.05 177.59,253.96 176.47,279.67 			"/>
			<polygon class="st13" points="176.47,279.67 150.82,277.58 149.7,303.3 			"/>
			<polygon class="st13" points="149.7,303.3 124.05,301.2 122.92,326.92 			"/>
			<polygon class="st13" points="122.92,326.92 97.27,324.83 96.15,350.54 			"/>
			<polygon class="st13" points="96.15,350.54 70.5,348.45 69.38,374.16 			"/>
			<polygon class="st13" points="69.38,374.16 43.72,372.07 42.6,397.79 			"/>
		</g>
	</g>
</g>
<path class="st14" d="M441.22,46.1L62.09,380.59c-7.15,6.31-18.07,5.63-24.38-1.53l0,0c-6.31-7.15-5.63-18.07,1.53-24.38
	L418.37,20.19c7.15-6.31,18.07-5.63,24.38,1.53l0,0C449.06,28.87,448.38,39.79,441.22,46.1z"/>
<circle class="st8" cx="213.98" cy="130.67" r="22.17"/>
</svg>
