<?xml version="1.0" encoding="utf-8"?>
<!-- Generator: Adobe Illustrator 23.0.1, SVG Export Plug-In . SVG Version: 6.00 Build 0)  -->
<svg version="1.1" xmlns="http://www.w3.org/2000/svg" xmlns:xlink="http://www.w3.org/1999/xlink" x="0px" y="0px"
	 viewBox="0 0 2880 1440" style="enable-background:new 0 0 2880 1440;" xml:space="preserve">
<style type="text/css">
	.clouds0{fill:#FFFFFF;}
	.clouds1{display:none;}
	.clouds2{display:inline;fill:#71BFF4;stroke:#667682;stroke-width:5;stroke-miterlimit:10;}
	.clouds3{display:inline;}
	.clouds4{opacity:0.7;fill:#DBEAF2;stroke:#667682;stroke-width:5;stroke-miterlimit:10;}
	.clouds5{fill:none;stroke:#FFFFFF;stroke-width:13;stroke-linecap:round;stroke-miterlimit:10;}
	.clouds6{fill:#CFA9A7;stroke:#667682;stroke-width:5;stroke-miterlimit:10;}
	.clouds7{fill:#B0A3A3;}
	.clouds9{fill:none;stroke:#667682;stroke-width:5;stroke-miterlimit:10;}
</style>

<g id="CLOUDS">
	<path class="clouds0" d="M537.33,1304.22H213.82c-7.83,0-14.18-6.35-14.18-14.18v0c0-7.83,6.35-14.18,14.18-14.18H334.5
		c7.83,0,14.18-6.35,14.18-14.18l0,0c0-7.83-6.35-14.18-14.18-14.18H90.78c-7.83,0-14.18-6.35-14.18-14.18l0,0
		c0-7.83,6.35-14.18,14.18-14.18h43.89c7.83,0,14.18-6.35,14.18-14.18v0c0-7.83-6.35-14.18-14.18-14.18h-722.31
		c-7.83,0-14.18,6.35-14.18,14.18v0c0,7.83,6.35,14.18,14.18,14.18h-14.18v28.37h14.18c-7.83,0-14.18,6.35-14.18,14.18l0,0
		c0,7.83,6.35,14.18,14.18,14.18h-10.45v28.37h5.56c-8.01,0-14.46,6.63-14.17,14.7c0.27,7.69,6.82,13.67,14.51,13.67H537.67
		c8.01,0,14.46-6.63,14.17-14.7C551.57,1310.2,545.02,1304.22,537.33,1304.22z"/>
	<path class="clouds0" d="M401.02,348.17h-42.43c-7.83,0-14.18-6.35-14.18-14.18v0c0-7.83,6.35-14.18,14.18-14.18h42.43
		c7.83,0,14.18,6.35,14.18,14.18v0C415.2,341.82,408.85,348.17,401.02,348.17z"/>
	<path class="clouds0" d="M1081.25,208.8H831.46c-7.68,0-13.91-6.23-13.91-13.91s6.23-13.91,13.91-13.91h98.24
		c7.68,0,13.91-6.23,13.91-13.91v0c0-7.68-6.23-13.91-13.91-13.91H595.15c-7.68,0-13.91-6.23-13.91-13.91s6.23-13.91,13.91-13.91
		h114.76c7.68,0,13.91-6.23,13.91-13.91v0c0-7.68-6.23-13.91-13.91-13.91H317c-7.68,0-13.91-6.23-13.91-13.91
		s6.23-13.91,13.91-13.91h119.95c7.68,0,13.91-6.23,13.91-13.91v0c0-7.68-6.23-13.91-13.91-13.91h-705.49v55.19h255.1
		c7.68,0,13.91,6.23,13.91,13.91s-6.23,13.91-13.91,13.91h-255.1v38.79h75.47c7.68,0,13.91,6.23,13.91,13.91
		c0,7.68-6.23,13.91-13.91,13.91h-75.47v156.41h557.72c7.68,0,13.91-6.23,13.91-13.91s-6.23-13.91-13.91-13.91H139.31
		c-7.68,0-13.91-6.23-13.91-13.91v0c0-7.68,6.23-13.91,13.91-13.91h664.33c7.68,0,13.91-6.23,13.91-13.91v0
		c0-7.68-6.23-13.91-13.91-13.91H496.73c-7.68,0-13.91-6.23-13.91-13.91s6.23-13.91,13.91-13.91h584.52
		c7.68,0,13.91-6.23,13.91-13.91v0C1095.16,215.03,1088.93,208.8,1081.25,208.8z"/>
	<path class="clouds0" d="M-85.63,529.16h42.43c7.83,0,14.18,6.35,14.18,14.18v0c0,7.83-6.35,14.18-14.18,14.18h-42.43
		c-7.83,0-14.18-6.35-14.18-14.18v0C-99.82,535.51-93.47,529.16-85.63,529.16z"/>
	<path class="clouds0" d="M3387.68,1110.01c-1.05,0-1.91,0.85-1.91,1.91v25.91v27.82v27.82v25.91c0,1.05-0.85,1.91-1.91,1.91h-0.77
		c-1.05,0-1.91,0.85-1.91,1.91v24c0,1.05,0.85,1.91,1.91,1.91h0.77c1.05,0,1.91,0.85,1.91,1.91v25.91v27.82v25.91
		c0,1.05-0.85,1.91-1.91,1.91h-452.24c-7.68,0-13.91-6.23-13.91-13.91v0c0-7.68,6.23-13.91,13.91-13.91h149.87
		c7.68,0,13.91-6.23,13.91-13.91l0,0c0-7.68-6.23-13.91-13.91-13.91h-664.33c-7.68,0-13.91-6.23-13.91-13.91l0,0
		c0-7.68,6.23-13.91,13.91-13.91h306.91c7.68,0,13.91-6.23,13.91-13.91l0,0c0-7.68-6.23-13.91-13.91-13.91h-584.52
		c-7.68,0-13.91-6.23-13.91-13.91l0,0c0-7.68,6.23-13.91,13.91-13.91h249.78c7.68,0,13.91-6.23,13.91-13.91v0
		c0-7.68-6.23-13.91-13.91-13.91h-98.24c-7.68,0-13.91-6.23-13.91-13.91l0,0c0-7.68,6.23-13.91,13.91-13.91h334.55
		c7.68,0,13.91-6.23,13.91-13.91l0,0c0-7.68-6.23-13.91-13.91-13.91h-114.76c-7.68,0-13.91-6.23-13.91-13.91l0,0
		c0-7.68,6.23-13.91,13.91-13.91h392.91c7.68,0,13.91-6.23,13.91-13.91v0c0-7.68-6.23-13.91-13.91-13.91h-119.95
		c-7.68,0-13.91-6.23-13.91-13.91l0,0c0-7.68,6.23-13.91,13.91-13.91h600.01c1.05,0,1.91,0.85,1.91,1.91v24
		c0,1.05,0.85,1.91,1.91,1.91l0,0c1.05,0,1.91,0.85,1.91,1.91v25.91v25.91C3389.59,1109.16,3388.74,1110.01,3387.68,1110.01
		L3387.68,1110.01z"/>
	<path class="clouds0" d="M2708.39,1027.68h-42.43c-7.83,0-14.18,6.35-14.18,14.18l0,0c0,7.83,6.35,14.18,14.18,14.18h42.43
		c7.83,0,14.18-6.35,14.18-14.18l0,0C2722.58,1034.03,2716.23,1027.68,2708.39,1027.68z"/>
	<path class="clouds0" d="M2837.9,1304.22h-42.43c-7.83,0-14.18,6.35-14.18,14.18l0,0c0,7.83,6.35,14.18,14.18,14.18h42.43
		c7.83,0,14.18-6.35,14.18-14.18l0,0C2852.08,1310.57,2845.73,1304.22,2837.9,1304.22z"/>
	<path class="clouds0" d="M433.33,675.37h41.4c7.83,0,14.18-6.35,14.18-14.18v0c0-7.83-6.35-14.18-14.18-14.18h-41.4
		c-7.83,0-14.18,6.35-14.18,14.18v0C419.15,669.02,425.5,675.37,433.33,675.37z"/>
	<path class="clouds0" d="M-790.45,703.41H-467c7.83,0,14.18-6.35,14.18-14.18v0c0-7.83-6.35-14.18-14.18-14.18h-120.28
		c-7.64,0-14.21-5.87-14.57-13.5c-0.38-8.15,6.11-14.87,14.17-14.87h243.72c7.83,0,14.18-6.35,14.18-14.18v0
		c0-7.83-6.35-14.18-14.18-14.18h-43.49c-7.64,0-14.21-5.87-14.57-13.5c-0.38-8.15,6.11-14.87,14.17-14.87h947.41
		c7.83,0,14.18,6.35,14.18,14.18l0,0c0,7.83-6.35,14.18-14.18,14.18H264.72c-7.83,0-14.18,6.35-14.18,14.18v0
		c0,7.83,6.35,14.18,14.18,14.18h107.04c8.16,0,14.77,6.61,14.77,14.77v0c0,8.16-6.61,14.77-14.77,14.77H160.91
		c-7.64,0-14.21,5.87-14.57,13.5c-0.38,8.15,6.11,14.87,14.17,14.87h122.63c7.51,0,13.6,6.09,13.6,13.6v0
		c0,7.51-6.09,13.6-13.6,13.6h-1074c-8.06,0-14.55-6.72-14.17-14.87C-804.66,709.28-798.09,703.41-790.45,703.41z"/>
	<path class="clouds0" d="M2496.03,477.2h41.4c7.83,0,14.18-6.35,14.18-14.18v0c0-7.83-6.35-14.18-14.18-14.18h-41.4
		c-7.83,0-14.18,6.35-14.18,14.18v0C2481.85,470.85,2488.2,477.2,2496.03,477.2z"/>
	<path class="clouds0" d="M1272.24,505.23h323.45c7.83,0,14.18-6.35,14.18-14.18v0c0-7.83-6.35-14.18-14.18-14.18h-120.28
		c-7.64,0-14.21-5.87-14.57-13.5c-0.38-8.15,6.11-14.87,14.17-14.87h243.72c7.83,0,14.18-6.35,14.18-14.18v0
		c0-7.83-6.35-14.18-14.18-14.18h-43.49c-7.64,0-14.21-5.87-14.57-13.5c-0.38-8.15,6.11-14.87,14.17-14.87h947.41
		c7.83,0,14.18,6.35,14.18,14.18l0,0c0,7.83-6.35,14.18-14.18,14.18h-294.84c-7.83,0-14.18,6.35-14.18,14.18v0
		c0,7.83,6.35,14.18,14.18,14.18h107.04c8.16,0,14.77,6.61,14.77,14.77v0c0,8.16-6.61,14.77-14.77,14.77h-210.85
		c-7.64,0-14.21,5.87-14.57,13.5c-0.38,8.15,6.11,14.87,14.17,14.87h122.63c7.51,0,13.6,6.09,13.6,13.6l0,0
		c0,7.51-6.09,13.6-13.6,13.6h-1074c-8.06,0-14.55-6.72-14.17-14.87C1258.04,511.1,1264.61,505.23,1272.24,505.23z"/>
</g>
<g class="clouds1">
	<rect x="1002.99" y="-549.05" class="clouds2" width="115.89" height="115.89"/>
	<g class="clouds3">
		<circle class="clouds4" cx="1448.88" cy="656.88" r="545.24"/>
		<path class="clouds5" d="M1835.71,314.96c34.99,39.8,63.98,84.99,85.56,134.18"/>
		<path class="clouds5" d="M1782.69,262.69c6.98,5.96,13.8,12.1,20.45,18.42"/>
		<path class="clouds5" d="M1510.56,142.49c45.62,5.68,89.41,17.28,130.56,34.01c22.33,9.08,43.89,19.67,64.54,31.64"/>
		<path class="clouds5" d="M1219.48,199.46c8.31-4.29,16.74-8.36,25.3-12.2"/>
		<path class="clouds5" d="M1014.15,390.47c42.61-69.65,101.18-128.47,170.62-171.37"/>
		<path id="dirt_1_" class="clouds6" d="M983.56,941.2c20.66,33.74,67.62,113.15,67.62,113.15l64.7,48.62l58.15,85.15l89.16-18.46
			l180.78,95.08l127.2-76.41l138.34,13.77l99.61-135.95l61.31-34.13c0,0,28.94-66.61,43.77-90.83H983.56z"/>
		<polygon class="clouds7" points="1228.3,941.2 1249.09,1033.39 1266.68,1111.39 1443.96,1264.76 1263.18,1169.68 1174.02,1188.14 
			1115.88,1102.98 1051.18,1054.36 983.58,941.2 		"/>
		<polygon class="clouds7" points="1571.16,1188.35 1752.12,1143.95 1709.5,1202.12 		"/>
		<path id="dirt_2_" class="clouds9" d="M983.56,941.2c20.66,33.74,67.62,113.15,67.62,113.15l64.7,48.62l58.15,85.15l89.16-18.46
			l180.78,95.08l127.2-76.41l138.34,13.77l99.61-135.95l61.31-34.13c0,0,28.94-66.61,43.77-90.83H983.56z"/>
	</g>
</g>
</svg>
