<?xml version="1.0" encoding="utf-8"?>
<!-- Generator: Adobe Illustrator 23.0.1, SVG Export Plug-In . SVG Version: 6.00 Build 0)  -->
<svg version="1.1" id="Layer_1" xmlns="http://www.w3.org/2000/svg" xmlns:xlink="http://www.w3.org/1999/xlink" x="0px" y="0px"
	 viewBox="0 0 2503.8 306.04" style="enable-background:new 0 0 2503.8 306.04;" xml:space="preserve">
<style type="text/css">
	.st0{fill:#EFDFE4;}
</style>
<g id="NEBULA">
	<path class="st0" d="M2489.89,166.93h-249.78c-7.68,0-13.91-6.23-13.91-13.91s6.23-13.91,13.91-13.91h98.24
		c7.68,0,13.91-6.23,13.91-13.91v0c0-7.68-6.23-13.91-13.91-13.91H2003.8c-7.68,0-13.91-6.23-13.91-13.91s6.23-13.91,13.91-13.91
		h114.76c7.68,0,13.91-6.23,13.91-13.91v0c0-7.68-6.23-13.91-13.91-13.91h-392.91c-7.68,0-13.91-6.23-13.91-13.91
		s6.23-13.91,13.91-13.91h119.95c7.68,0,13.91-6.23,13.91-13.91v0c0-7.68-6.23-13.91-13.91-13.91h-587.39h-12.62H805.98
		c-7.68,0-13.91,6.23-13.91,13.91s6.23,13.91,13.91,13.91h149.87c7.68,0,13.91,6.23,13.91,13.91v0c0,7.68-6.23,13.91-13.91,13.91
		H291.52c-7.68,0-13.91,6.23-13.91,13.91v0c0,7.68,6.23,13.91,13.91,13.91h306.91c7.68,0,13.91,6.23,13.91,13.91
		s-6.23,13.91-13.91,13.91H13.91C6.23,111.29,0,117.52,0,125.2v0c0,7.68,6.23,13.91,13.91,13.91H263.7
		c7.68,0,13.91,6.23,13.91,13.91s-6.23,13.91-13.91,13.91h-98.24c-7.68,0-13.91,6.23-13.91,13.91v0c0,7.68,6.23,13.91,13.91,13.91
		H500c7.68,0,13.91,6.23,13.91,13.91s-6.23,13.91-13.91,13.91H385.24c-7.68,0-13.91,6.23-13.91,13.91v0
		c0,7.68,6.23,13.91,13.91,13.91h392.91c7.68,0,13.91,6.23,13.91,13.91s-6.23,13.91-13.91,13.91H658.2
		c-7.68,0-13.91,6.23-13.91,13.91v0c0,7.68,6.23,13.91,13.91,13.91h587.39h12.62h439.61c7.68,0,13.91-6.23,13.91-13.91
		s-6.23-13.91-13.91-13.91h-149.87c-7.68,0-13.91-6.23-13.91-13.91v0c0-7.68,6.23-13.91,13.91-13.91h664.33
		c7.68,0,13.91-6.23,13.91-13.91v0c0-7.68-6.23-13.91-13.91-13.91h-306.91c-7.68,0-13.91-6.23-13.91-13.91s6.23-13.91,13.91-13.91
		h584.52c7.68,0,13.91-6.23,13.91-13.91v0C2503.8,173.16,2497.58,166.93,2489.89,166.93z"/>
	<path class="st0" d="M719.51,27.82h29.91c7.68,0,13.91-6.23,13.91-13.91v0C763.33,6.23,757.1,0,749.42,0h-29.91
		c-7.68,0-13.91,6.23-13.91,13.91v0C705.6,21.59,711.83,27.82,719.51,27.82z"/>
	<path class="st0" d="M2279.87,251.11h29.91c7.68,0,13.91-6.23,13.91-13.91v0c0-7.68-6.23-13.91-13.91-13.91h-29.91
		c-7.68,0-13.91,6.23-13.91,13.91v0C2265.95,244.88,2272.18,251.11,2279.87,251.11z"/>
</g>
</svg>
