<?xml version="1.0" encoding="utf-8"?>
<!-- Generator: Adobe Illustrator 23.0.1, SVG Export Plug-In . SVG Version: 6.00 Build 0)  -->
<svg version="1.1" id="Layer_1" xmlns="http://www.w3.org/2000/svg" xmlns:xlink="http://www.w3.org/1999/xlink" x="0px" y="0px"
	 viewBox="0 0 3287.54 1467.48" style="enable-background:new 0 0 3287.54 1467.48;" xml:space="preserve">
<style type="text/css">
	.st0{fill:#B6D5BB;}
</style>
<g>
	<path class="st0" d="M2143.87,1240.47h331.86c8.04,0,14.55-6.35,14.55-14.18l0,0c0-7.83-6.51-14.18-14.55-14.18h-123.79
		c-8.04,0-14.55-6.35-14.55-14.18l0,0c0-7.83,6.51-14.18,14.55-14.18h250c8.04,0,14.55-6.35,14.55-14.18l0,0
		c0-7.83-6.51-14.18-14.55-14.18h-45.02c-8.04,0-14.55-6.35-14.55-14.18v0c0-7.83,6.51-14.18,14.55-14.18h740.95
		c8.04,0,14.55,6.35,14.55,14.18v0c0,7.83-6.51,14.18-14.55,14.18h14.55v28.37h-14.55c8.04,0,14.55,6.35,14.55,14.18l0,0
		c0,7.83-6.51,14.18-14.55,14.18h10.72v28.37h-5.7c8.21,0,14.83,6.63,14.54,14.7c-0.28,7.69-7,13.67-14.89,13.67H2143.53
		c-8.21,0-14.83-6.63-14.54-14.7C2129.27,1246.45,2135.99,1240.47,2143.87,1240.47z"/>
	<path class="st0" d="M1082.31,969.19h-41.4c-7.83,0-14.18-6.35-14.18-14.18v0c0-7.83,6.35-14.18,14.18-14.18h41.4
		c7.83,0,14.18,6.35,14.18,14.18v0C1096.49,962.84,1090.14,969.19,1082.31,969.19z"/>
	<path class="st0" d="M2306.09,997.23h-323.45c-7.83,0-14.18-6.35-14.18-14.18v0c0-7.83,6.35-14.18,14.18-14.18h120.28
		c7.64,0,14.21-5.87,14.57-13.5c0.38-8.15-6.11-14.87-14.17-14.87h-243.72c-7.83,0-14.18-6.35-14.18-14.18v0
		c0-7.83,6.35-14.18,14.18-14.18h43.49c7.64,0,14.21-5.87,14.57-13.5c0.38-8.15-6.11-14.87-14.17-14.87H956.09
		c-7.83,0-14.18,6.35-14.18,14.18v0c0,7.83,6.35,14.18,14.18,14.18h294.84c7.83,0,14.18,6.35,14.18,14.18v0
		c0,7.83-6.35,14.18-14.18,14.18h-107.04c-8.16,0-14.77,6.61-14.77,14.77l0,0c0,8.16,6.61,14.77,14.77,14.77h210.85
		c7.64,0,14.21,5.87,14.57,13.5c0.38,8.15-6.11,14.87-14.17,14.87H1232.5c-7.51,0-13.6,6.09-13.6,13.6l0,0
		c0,7.51,6.09,13.6,13.6,13.6h1074c8.06,0,14.55-6.72,14.17-14.87C2320.3,1003.1,2313.73,997.23,2306.09,997.23z"/>
	<path class="st0" d="M3285.35,222.57c-1.15,0-2.09-0.85-2.09-1.91v-25.91v-27.82v-27.82V113.2c0-1.05-0.93-1.91-2.09-1.91h-0.84
		c-1.15,0-2.09-0.85-2.09-1.91v-24c0-1.05,0.93-1.91,2.09-1.91h0.84c1.15,0,2.09-0.85,2.09-1.91V55.64V27.82V1.91
		c0-1.05-0.93-1.91-2.09-1.91h-494.15c-8.39,0-15.2,6.23-15.2,13.91v0c0,7.68,6.81,13.91,15.2,13.91h163.77
		c8.39,0,15.2,6.23,15.2,13.91v0c0,7.68-6.81,13.91-15.2,13.91h-725.91c-8.39,0-15.2,6.23-15.2,13.91v0
		c0,7.68,6.81,13.91,15.2,13.91h335.36c8.39,0,15.2,6.23,15.2,13.91v0c0,7.68-6.81,13.91-15.2,13.91h-638.69
		c-8.39,0-15.2,6.23-15.2,13.91v0c0,7.68,6.81,13.91,15.2,13.91h272.94c8.4,0,15.2,6.23,15.2,13.91v0c0,7.68-6.81,13.91-15.2,13.91
		h-107.34c-8.4,0-15.2,6.23-15.2,13.91v0c0,7.68,6.81,13.91,15.2,13.91h365.55c8.4,0,15.2,6.23,15.2,13.91v0
		c0,7.68-6.81,13.91-15.2,13.91h-125.4c-8.4,0-15.2,6.23-15.2,13.91v0c0,7.68,6.81,13.91,15.2,13.91h429.33
		c8.4,0,15.2,6.23,15.2,13.91l0,0c0,7.68-6.81,13.91-15.2,13.91h-131.07c-8.39,0-15.2,6.23-15.2,13.91l0,0
		c0,7.68,6.81,13.91,15.2,13.91h655.63c1.15,0,2.09-0.85,2.09-1.91v-24c0-1.05,0.93-1.91,2.09-1.91l0,0c1.15,0,2.09-0.85,2.09-1.91
		V250.4v-25.91C3287.43,223.43,3286.5,222.57,3285.35,222.57L3285.35,222.57z"/>
	<path class="st0" d="M2632.48,28.37h-42.43c-7.83,0-14.18-6.35-14.18-14.18v0c0-7.83,6.35-14.18,14.18-14.18l42.43,0
		c7.83,0,14.18,6.35,14.18,14.18v0C2646.66,22.02,2640.31,28.37,2632.48,28.37z"/>
	<path class="st0" d="M669.55,623.02h-42.43c-7.83,0-14.18-6.35-14.18-14.18v0c0-7.83,6.35-14.18,14.18-14.18h42.43
		c7.83,0,14.18,6.35,14.18,14.18v0C683.73,616.67,677.38,623.02,669.55,623.02z"/>
	<path class="st0" d="M1349.78,483.64H1100c-7.68,0-13.91-6.23-13.91-13.91s6.23-13.91,13.91-13.91h98.24
		c7.68,0,13.91-6.23,13.91-13.91v0c0-7.68-6.23-13.91-13.91-13.91H863.69c-7.68,0-13.91-6.23-13.91-13.91s6.23-13.91,13.91-13.91
		h114.76c7.68,0,13.91-6.23,13.91-13.91v0c0-7.68-6.23-13.91-13.91-13.91H585.54c-7.68,0-13.91-6.23-13.91-13.91
		s6.23-13.91,13.91-13.91h119.95c7.68,0,13.91-6.23,13.91-13.91v0c0-7.68-6.23-13.91-13.91-13.91H0v55.19h255.1
		c7.68,0,13.91,6.23,13.91,13.91s-6.23,13.91-13.91,13.91H0v38.79h75.47c7.68,0,13.91,6.23,13.91,13.91
		c0,7.68-6.23,13.91-13.91,13.91H0v156.41h557.72c7.68,0,13.91-6.23,13.91-13.91s-6.23-13.91-13.91-13.91H407.84
		c-7.68,0-13.91-6.23-13.91-13.91v0c0-7.68,6.23-13.91,13.91-13.91h664.33c7.68,0,13.91-6.23,13.91-13.91v0
		c0-7.68-6.23-13.91-13.91-13.91H765.27c-7.68,0-13.91-6.23-13.91-13.91s6.23-13.91,13.91-13.91h584.52
		c7.68,0,13.91-6.23,13.91-13.91v0C1363.69,489.87,1357.47,483.64,1349.78,483.64z"/>
	<g>
		<path class="st0" d="M-2.27,1244.9c1.27,0,2.3,0.85,2.3,1.91v25.91v27.82v27.82v25.91c0,1.05,1.03,1.91,2.3,1.91h0.92
			c1.27,0,2.3,0.85,2.3,1.91v24c0,1.05-1.03,1.91-2.3,1.91H2.34c-1.27,0-2.3,0.85-2.3,1.91v25.91v27.82v25.91
			c0,1.05,1.03,1.91,2.3,1.91H547.3c9.26,0,16.76-6.23,16.76-13.91l0,0c0-7.68-7.51-13.91-16.76-13.91H366.7
			c-9.26,0-16.76-6.23-16.76-13.91l0,0c0-7.68,7.51-13.91,16.76-13.91h800.55c9.26,0,16.76-6.23,16.76-13.91l0,0
			c0-7.68-7.51-13.91-16.76-13.91H797.41c-9.26,0-16.76-6.23-16.76-13.91v0c0-7.68,7.51-13.91,16.76-13.91h704.37
			c9.26,0,16.76-6.23,16.76-13.91l0,0c0-7.68-7.51-13.91-16.76-13.91h-301c-9.26,0-16.76-6.23-16.76-13.91l0,0
			c0-7.68,7.51-13.91,16.76-13.91h118.38c9.26,0,16.76-6.23,16.76-13.91l0,0c0-7.68-7.51-13.91-16.76-13.91H916.01
			c-9.26,0-16.76-6.23-16.76-13.91v0c0-7.68,7.51-13.91,16.76-13.91h138.29c9.26,0,16.76-6.23,16.76-13.91l0,0
			c0-7.68-7.51-13.91-16.76-13.91H580.83c-9.26,0-16.76-6.23-16.76-13.91l0,0c0-7.68,7.51-13.91,16.76-13.91h144.55
			c9.26,0,16.76-6.23,16.76-13.91l0,0c0-7.68-7.51-13.91-16.76-13.91H2.34c-1.27,0-2.3,0.85-2.3,1.91v24c0,1.05-1.03,1.91-2.3,1.91
			h0c-1.27,0-2.3,0.85-2.3,1.91v25.91v25.91C-4.57,1244.05-3.54,1244.9-2.27,1244.9L-2.27,1244.9z"/>
		<path class="st0" d="M1580.3,1327.51h42.43c7.83,0,14.18,6.35,14.18,14.18v0c0,7.83-6.35,14.18-14.18,14.18h-42.43
			c-7.83,0-14.18-6.35-14.18-14.18v0C1566.12,1333.86,1572.47,1327.51,1580.3,1327.51z"/>
		<path class="st0" d="M806.29,1439.11h42.43c7.83,0,14.18,6.35,14.18,14.18l0,0c0,7.83-6.35,14.18-14.18,14.18h-42.43
			c-7.83,0-14.18-6.35-14.18-14.18l0,0C792.11,1445.46,798.46,1439.11,806.29,1439.11z"/>
	</g>
</g>
</svg>
