<?xml version="1.0" encoding="utf-8"?>
<!-- Generator: Adobe Illustrator 23.0.1, SVG Export Plug-In . SVG Version: 6.00 Build 0)  -->
<svg version="1.1" id="Layer_1" xmlns="http://www.w3.org/2000/svg" xmlns:xlink="http://www.w3.org/1999/xlink" x="0px" y="0px"
	 viewBox="0 0 674.49 1126.24" style="enable-background:new 0 0 674.49 1126.24;" xml:space="preserve">
<style type="text/css">
	.ufo3-0{opacity:0.9;fill:#FFFDAB;}
	.ufo3-1{fill:#C1DFF4;}
	.ufo3-2{fill:#FACBC8;}
	.ufo3-3{fill:none;stroke:#667682;stroke-width:5;stroke-miterlimit:10;}
	.ufo3-4{fill:none;stroke:#667682;stroke-width:5;stroke-linecap:round;stroke-miterlimit:10;}
	.ufo3-5{fill:none;stroke:#FCFCFC;stroke-width:5;stroke-linecap:round;stroke-miterlimit:10;}
	.ufo3-6{fill:#C1DFF4;stroke:#667682;stroke-width:5;stroke-miterlimit:10;}
	.ufo3-7{fill:#C1DFF4;stroke:#FFFFFF;stroke-width:5;stroke-linecap:round;stroke-linejoin:round;stroke-miterlimit:10;}
	.ufo3-8{fill:#F9B4B2;}
	.ufo3-9{fill:none;stroke:#667682;stroke-width:5;stroke-linecap:round;stroke-linejoin:round;stroke-miterlimit:10;}
	.ufo3-10{fill:none;stroke:#FCFCFC;stroke-width:5;stroke-linecap:round;stroke-linejoin:round;stroke-miterlimit:10;}
	.ufo3-11{fill:#B6D5BB;stroke:#667682;stroke-width:5;stroke-miterlimit:10;}
	.ufo3-12{fill:#97C69F;}
	.ufo3-13{fill:#667682;}
	.ufo3-14{fill:#CCB9DA;stroke:#667682;stroke-width:5;stroke-linecap:round;stroke-linejoin:round;stroke-miterlimit:10;}
	.ufo3-15{fill:#AA95C1;}
	.ufo3-16{fill:#AA95C1;stroke:#667682;stroke-width:5;stroke-linecap:round;stroke-linejoin:round;stroke-miterlimit:10;}
	.ufo3-17{fill:#CCB9DA;}
	.ufo3-18{fill:#FBC595;stroke:#667682;stroke-width:5;stroke-linecap:round;stroke-linejoin:round;stroke-miterlimit:10;}
	.ufo3-19{fill:#EAA97D;}
	.ufo3-20{fill:#FFDAA4;}
	.ufo3-21{clip-path:url(#SVGID_2_ufo3);}
	.ufo3-22{fill:#FFFFFF;stroke:#667682;stroke-width:5;stroke-linecap:round;stroke-linejoin:round;stroke-miterlimit:10;}
</style>
<path class="ufo3-0" d="M493.09,327.36c0-9.24-3.5-13.98-6.58-18.15c-3.07-4.16-5.72-7.75-5.72-15.16c0-7.42,2.65-11.01,5.72-15.16
	c3.09-4.18,6.58-8.91,6.58-18.15c0-9.24-3.5-13.98-6.58-18.15c-3.07-4.16-5.72-7.75-5.72-15.16c0-7.42,2.65-11.01,5.72-15.16
	c2.59-3.5,5.46-7.41,6.32-14.02h-72.51h-31.85h-35.68h-36.82h-35.68h-31.85h-72.51c0.98,6.14,3.73,9.86,6.21,13.22
	c3.07,4.16,5.72,7.75,5.72,15.16c0,7.42-2.65,11.01-5.72,15.16c-3.09,4.18-6.58,8.91-6.58,18.15c0,9.24,3.5,13.98,6.58,18.15
	c3.07,4.16,5.72,7.75,5.72,15.16c0,7.42-2.65,11.01-5.72,15.16c-3.09,4.18-6.58,8.91-6.58,18.15c0,9.24,3.5,13.98,6.58,18.15
	c3.07,4.16,5.72,7.75,5.72,15.16c0,7.42-2.65,11.01-5.72,15.16c-3.09,4.18-6.58,8.91-6.58,18.15c0,9.24,3.5,13.98,6.58,18.15
	c3.07,4.16,5.72,7.75,5.72,15.16c0,7.42-2.65,11.01-5.72,15.16c-3.09,4.18-6.58,8.91-6.58,18.15c0,9.24,3.5,13.97,6.58,18.15
	c3.07,4.16,5.72,7.75,5.72,15.16c0,7.42-2.65,11.01-5.72,15.16c-3.09,4.18-6.58,8.91-6.58,18.15c0,9.24,3.5,13.97,6.58,18.15
	c3.07,4.16,5.72,7.75,5.72,15.16c0,7.42-2.65,11.01-5.72,15.16c-3.09,4.18-6.58,8.91-6.58,18.15c0,9.24,3.5,13.98,6.58,18.15
	c3.07,4.16,5.72,7.75,5.72,15.17c0,7.42-2.65,11.01-5.72,15.16c-3.09,4.18-6.58,8.91-6.58,18.15c0,9.24,3.5,13.98,6.58,18.15
	c3.07,4.16,5.72,7.75,5.72,15.16s-2.65,11.01-5.72,15.16c-3.09,4.18-6.58,8.91-6.58,18.15c0,9.24,3.5,13.98,6.58,18.15
	c3.07,4.16,5.72,7.75,5.72,15.16c0,7.42-2.65,11.01-5.72,15.16c-3.09,4.18-6.58,8.91-6.58,18.15c0,9.24,3.5,13.98,6.58,18.15
	c3.07,4.16,5.72,7.75,5.72,15.17c0,7.42-2.65,11.01-5.72,15.17c-3.09,4.18-6.58,8.91-6.58,18.15c0,9.24,3.5,13.98,6.58,18.15
	c3.07,4.16,5.72,7.75,5.72,15.17c0,7.42-2.65,11.01-5.72,15.16c-3.09,4.18-6.58,8.91-6.58,18.15c0,9.24,3.5,13.98,6.58,18.15
	c3.07,4.16,5.72,7.75,5.72,15.17c0,7.42-2.65,11.01-5.72,15.17c-3.09,4.18-6.58,8.91-6.58,18.15c0,9.24,3.5,13.98,6.58,18.15
	c3.07,4.16,5.72,7.75,5.72,15.17c0,7.42-2.65,11.01-5.72,15.17c-3.09,4.18-6.58,8.91-6.58,18.15c0,9.24,3.5,13.98,6.58,18.16
	c3.07,4.16,5.72,7.75,5.72,15.17c0,7.42-2.65,11.01-5.72,15.17c-3.09,4.18-6.58,8.91-6.58,18.16c0,0.02,0,0.03,0,0.05h72.51h32.47
	h35.06h37.44h35.06h32.47h72.51c-0.18-8.75-3.56-13.35-6.57-17.42c-3.07-4.16-5.72-7.75-5.72-15.17c0-7.42,2.65-11.01,5.72-15.17
	c3.09-4.18,6.58-8.91,6.58-18.15c0-9.24-3.5-13.98-6.58-18.15c-3.07-4.16-5.72-7.75-5.72-15.17c0-7.42,2.65-11.01,5.72-15.17
	c3.09-4.18,6.58-8.91,6.58-18.15c0-9.24-3.5-13.98-6.58-18.15c-3.07-4.16-5.72-7.75-5.72-15.17c0-7.42,2.65-11.01,5.72-15.16
	c3.09-4.18,6.58-8.91,6.58-18.15c0-9.24-3.5-13.98-6.58-18.15c-3.07-4.16-5.72-7.75-5.72-15.17c0-7.42,2.65-11.01,5.72-15.17
	c3.09-4.18,6.58-8.91,6.58-18.15c0-9.24-3.5-13.98-6.58-18.15c-3.07-4.16-5.72-7.75-5.72-15.17c0-7.42,2.65-11.01,5.72-15.16
	c3.09-4.18,6.58-8.91,6.58-18.15c0-9.24-3.5-13.98-6.58-18.15c-3.07-4.16-5.72-7.75-5.72-15.16c0-7.42,2.65-11.01,5.72-15.16
	c3.09-4.18,6.58-8.91,6.58-18.15c0-9.24-3.5-13.98-6.58-18.15c-3.07-4.16-5.72-7.75-5.72-15.16c0-7.42,2.65-11.01,5.72-15.16
	c3.09-4.18,6.58-8.91,6.58-18.15c0-9.24-3.5-13.98-6.58-18.15c-3.07-4.16-5.72-7.75-5.72-15.17c0-7.42,2.65-11.01,5.72-15.16
	c3.09-4.18,6.58-8.91,6.58-18.15c0-9.24-3.5-13.97-6.58-18.15c-3.07-4.16-5.72-7.75-5.72-15.16c0-7.42,2.65-11.01,5.72-15.16
	c3.09-4.18,6.58-8.91,6.58-18.15s-3.5-13.97-6.58-18.15c-3.07-4.16-5.72-7.75-5.72-15.16c0-7.42,2.65-11.01,5.72-15.16
	c3.09-4.18,6.58-8.91,6.58-18.15c0-9.24-3.5-13.98-6.58-18.15c-3.07-4.16-5.72-7.75-5.72-15.16c0-7.42,2.65-11.01,5.72-15.16
	c3.09-4.18,6.58-8.91,6.58-18.15c0-9.24-3.5-13.98-6.58-18.15c-3.07-4.16-5.72-7.75-5.72-15.16c0-7.42,2.65-11.01,5.72-15.16
	C489.59,341.34,493.09,336.6,493.09,327.36z"/>
<g class="ufo2-trash1">
	<path class="ufo3-1" d="M330.98,459.42c17.11,9.74,38.88,3.76,48.62-13.35l-72.77-41.41l-8.66-4.93l-2.33-1.33l-7.46-4.25
		c-4.87,8.56-5.81,18.27-3.39,27.08c2.42,8.8,8.19,16.67,16.75,21.54L330.98,459.42z"/>
	<path class="ufo3-2" d="M366.67,410.3l5.1-8.96c-1.68-1.44-3.53-2.74-5.52-3.88l-2.47-1.41L337,380.81c-2-1.14-4.06-2.06-6.16-2.77
		l-5.1,8.96L366.67,410.3z"/>
	<path class="ufo3-2" d="M379.6,446.07c4.87-8.56,5.81-18.27,3.4-27.08c-1.86-6.75-5.68-12.95-11.22-17.66l-5.1,8.96L325.74,387
		l5.1-8.96c-15.87-5.43-33.86,1-42.47,16.12l7.46,4.25l2.33,1.33l8.66,4.93L379.6,446.07z"/>
	<path class="ufo3-3" d="M288.38,394.15c-4.87,8.56-5.81,18.27-3.39,27.08c2.42,8.8,8.19,16.67,16.75,21.54l29.25,16.65
		c17.11,9.74,38.88,3.76,48.62-13.35"/>
	<path class="ufo3-4" d="M306.83,404.66l72.77,41.41c4.87-8.56,5.81-18.27,3.4-27.08c-1.86-6.75-5.68-12.95-11.22-17.66
		c-1.68-1.44-3.53-2.74-5.52-3.88l-2.47-1.41L337,380.81c-2-1.14-4.06-2.06-6.16-2.77c-15.87-5.43-33.86,1-42.47,16.12l7.46,4.25
		l2.33,1.33"/>
	<path class="ufo3-5" d="M346.9,456.23c4.28,0.04,8.63-0.59,12.93-1.97"/>
</g>
<g class="ufo2-trash2">
	<path class="ufo3-6" d="M301.59,535.34c-31.85,12-47.94,47.55-35.94,79.4l115.34-43.45C368.99,539.43,333.44,523.34,301.59,535.34z"/>
	<path class="ufo3-7" d="M306.4,546c8.63-3.25,17.63-3.71,26.01-1.82"/>
</g>
<g class="ufo2-trash3">
	<g>
		<polygon class="ufo3-2" points="372.25,288.64 303.82,317.33 287.8,276.03 356.24,247.34 		"/>
		<polygon class="ufo3-8" points="372.25,288.64 358,294.62 341.98,253.31 356.24,247.34 		"/>
		<polygon class="ufo3-9" points="372.25,288.64 303.82,317.33 287.8,276.03 356.24,247.34 		"/>
		<path class="ufo3-4" d="M346.16,264.08"/>
		<line class="ufo3-4" x1="350.44" y1="274.76" x2="346.38" y2="264.64"/>
	</g>
	<g>
		<path class="ufo3-1" d="M287.66,276c-8.25-19.51,0.41-41.82,19.34-49.82c18.92-8,40.95,1.33,49.2,20.84l-36.44,15.4L287.66,276z"/>
		<path class="ufo3-9" d="M356.2,247.02c-8.25-19.51-30.28-28.84-49.2-20.84c-18.93,8-27.59,30.31-19.34,49.82l32.1-13.57L356.2,247.02
			z"/>
		<path class="ufo3-10" d="M342.45,246.62c-2.95-4.38-7.02-7.7-11.63-9.7"/>
	</g>
</g>
<g class="ufo-spaceship">
	<ellipse class="ufo3-11" cx="337.13" cy="79.83" rx="110.38" ry="77.33"/>
	<path class="ufo3-10" d="M394.59,23.39c25.12,12.57,41.49,33.17,41.49,56.44c0,38.28-44.3,69.32-98.95,69.32s-98.95-31.04-98.95-69.32
		s44.3-69.32,98.95-69.32c11.38,0,22.32,1.35,32.5,3.83"/>
	<ellipse class="ufo3-12" cx="337.13" cy="79.83" rx="84.16" ry="58.96"/>
	<ellipse class="ufo3-13" cx="337.13" cy="48.66" rx="32.5" ry="27.66"/>
	<path class="ufo3-14" d="M654.53,107.79c-60.76-23.86-180.1-40.09-317.4-40.09S80.48,83.93,19.73,107.79H654.53z"/>
	<path class="ufo3-14" d="M654.53,107.79c-60.76-23.86-180.1-40.09-317.4-40.09S80.48,83.93,19.73,107.79H654.53z"/>
	<path class="ufo3-15" d="M51.79,97.35c-11.97,3.28-22.71,6.77-32.06,10.44h634.8c-9.35-3.67-20.09-7.16-32.06-10.44H51.79z"/>
	<path class="ufo3-9" d="M654.53,107.79c-60.76-23.86-180.1-40.09-317.4-40.09S80.48,83.93,19.73,107.79H654.53z"/>
	<path class="ufo3-16" d="M674.18,131.39c-64.52,42.37-191.25,71.17-337.05,71.17S64.6,173.76,0.08,131.39H674.18z"/>
	<path class="ufo3-17" d="M458.33,185.64c-13.81,0.86-27.63,0.47-41.47,0.47c-13.98,0-27.96,0-41.95,0c-15.75,0-31.5,0-47.25,0
		c-15.31,0-30.63,0-45.94,0c-18.99,0-38,0.68-56.99-0.01c-19.12-0.7-38.02-3.49-56.83-6.77c-22.92-4-45.67-8.96-68.04-15.21
		c-19.5-5.45-38.74-11.88-57.31-19.79c-9.16-3.9-18.16-8.17-26.88-12.93H0.08c45.77,30.05,122.84,53.28,215.81,64.24v-0.19h242.48
		v0.19c92.97-10.96,170.04-34.19,215.81-64.24c0,0-15.6,0-15.61,0c-1.38,0-4.2,2.25-5.46,2.9c-1.96,1.01-3.93,2-5.91,2.97
		c-4.11,2.01-8.27,3.92-12.46,5.75c-8.98,3.92-18.14,7.48-27.4,10.75c-20.82,7.34-42.19,13.24-63.77,18.13
		c-11.88,2.69-23.83,5.08-35.84,7.2c-15.03,2.65-30.14,5.03-45.38,6.27C461.01,185.46,459.67,185.56,458.33,185.64z"/>
	<path class="ufo3-9" d="M674.18,131.39c-64.52,42.37-191.25,71.17-337.05,71.17S64.6,173.76,0.08,131.39H674.18z"/>
	<path class="ufo3-13" d="M652.62,150.91H21.64c-11.91,0-21.56-9.65-21.56-21.56v0c0-11.91,9.65-21.56,21.56-21.56h630.98
		c11.91,0,21.56,9.65,21.56,21.56v0C674.18,141.25,664.52,150.91,652.62,150.91z"/>
	<path class="ufo3-18" d="M453.65,70.71H220.6v0c0-12.98,10.53-23.51,23.51-23.51h186.03C443.13,47.2,453.65,57.72,453.65,70.71
		L453.65,70.71z"/>
	<path class="ufo3-19" d="M255.99,47.2h-18.19c-9.42,0-17.05,7.63-17.05,17.05v6.46h18.19v-6.46C238.94,54.83,246.57,47.2,255.99,47.2z
		"/>
	<path class="ufo3-20" d="M418.41,47.2h18.19c9.42,0,17.05,7.63,17.05,17.05v6.46h-18.19v-6.46C435.46,54.83,427.83,47.2,418.41,47.2z"
		/>
	<path class="ufo3-9" d="M453.65,70.71H220.6v0c0-12.98,10.53-23.51,23.51-23.51h186.03C443.13,47.2,453.65,57.72,453.65,70.71
		L453.65,70.71z"/>
	<path class="ufo3-18" d="M517.32,186H151.3v0c0,12.98,10.53,23.51,23.51,23.51h319C506.8,209.51,517.32,198.99,517.32,186L517.32,186z
		"/>
	<path class="ufo3-19" d="M169.73,192.46V186H151.3v6.46c0,9.42,7.63,17.05,17.05,17.05h18.43
		C177.36,209.51,169.73,201.88,169.73,192.46z"/>
	<path class="ufo3-20" d="M494.22,192.46V186h23.11v6.46c0,9.42-9.57,17.05-21.38,17.05h-23.11
		C484.65,209.51,494.22,201.88,494.22,192.46z"/>
	<path class="ufo3-9" d="M517.32,186H151.3v0c0,12.98,10.53,23.51,23.51,23.51h319C506.8,209.51,517.32,198.99,517.32,186L517.32,186z"
		/>
	<g>
		<defs>
			<path id="SVGID_1_ufo3" d="M652.62,150.91H21.64c-11.91,0-21.56-9.65-21.56-21.56v0c0-11.91,9.65-21.56,21.56-21.56h630.98
				c11.91,0,21.56,9.65,21.56,21.56v0C674.18,141.25,664.52,150.91,652.62,150.91z"/>
		</defs>
		<clipPath id="SVGID_2_ufo3">
			<use xlink:href="#SVGID_1_ufo3"  style="overflow:visible;"/>
		</clipPath>
		<g class="ufo3-21">
			<g>
				<polygon class="ufo3-22" points="5.84,107.79 28.51,130.93 51.19,107.79 				"/>
				<polygon class="ufo3-22" points="51.19,107.79 73.86,130.93 96.53,107.79 				"/>
				<polygon class="ufo3-22" points="96.53,107.79 119.2,130.93 141.87,107.79 				"/>
				<polygon class="ufo3-22" points="141.87,107.79 164.54,130.93 187.21,107.79 				"/>
				<polygon class="ufo3-22" points="187.21,107.79 209.89,130.93 232.56,107.79 				"/>
				<polygon class="ufo3-22" points="232.56,107.79 255.23,130.93 277.9,107.79 				"/>
				<polygon class="ufo3-22" points="277.9,107.79 300.57,130.93 323.24,107.79 				"/>
				<polygon class="ufo3-22" points="323.24,107.79 345.92,130.93 368.59,107.79 				"/>
				<polygon class="ufo3-22" points="368.59,107.79 391.26,130.93 413.93,107.79 				"/>
				<polygon class="ufo3-22" points="413.93,107.79 436.6,130.93 459.27,107.79 				"/>
				<polygon class="ufo3-22" points="459.27,107.79 481.94,130.93 504.62,107.79 				"/>
				<polygon class="ufo3-22" points="504.62,107.79 527.29,130.93 549.96,107.79 				"/>
				<polygon class="ufo3-22" points="549.96,107.79 572.63,130.93 595.3,107.79 				"/>
				<polygon class="ufo3-22" points="595.3,107.79 617.97,130.93 640.64,107.79 				"/>
				<polygon class="ufo3-22" points="640.64,107.79 663.32,130.93 685.99,107.79 				"/>
				<polygon class="ufo3-22" points="-39.5,107.79 -16.83,130.93 5.84,107.79 				"/>
			</g>
			<g>
				<polygon class="ufo3-22" points="612.73,150.91 590.45,127.77 568.17,150.91 				"/>
				<polygon class="ufo3-22" points="657.29,150.91 635.01,127.77 612.73,150.91 				"/>
				<polygon class="ufo3-22" points="568.49,150.91 546.21,127.77 523.93,150.91 				"/>
				<polygon class="ufo3-22" points="523.93,150.91 501.64,127.77 479.36,150.91 				"/>
				<polygon class="ufo3-22" points="479.36,150.91 457.08,127.77 434.8,150.91 				"/>
				<polygon class="ufo3-22" points="434.8,150.91 412.52,127.77 390.24,150.91 				"/>
				<polygon class="ufo3-22" points="390.24,150.91 367.96,127.77 345.68,150.91 				"/>
				<polygon class="ufo3-22" points="345.68,150.91 323.4,127.77 301.12,150.91 				"/>
				<polygon class="ufo3-22" points="301.12,150.91 278.84,127.77 256.56,150.91 				"/>
				<polygon class="ufo3-22" points="256.56,150.91 234.28,127.77 212,150.91 				"/>
				<polygon class="ufo3-22" points="212,150.91 189.72,127.77 167.44,150.91 				"/>
				<polygon class="ufo3-22" points="167.44,150.91 145.16,127.77 122.88,150.91 				"/>
				<polygon class="ufo3-22" points="122.88,150.91 100.6,127.77 78.32,150.91 				"/>
				<polygon class="ufo3-22" points="78.32,150.91 56.04,127.77 33.76,150.91 				"/>
				<polygon class="ufo3-22" points="33.76,150.91 11.48,127.77 -10.8,150.91 				"/>
			</g>
		</g>
	</g>
	<path class="ufo3-3" d="M652.62,150.91H21.64c-11.91,0-21.56-9.65-21.56-21.56v0c0-11.91,9.65-21.56,21.56-21.56h630.98
		c11.91,0,21.56,9.65,21.56,21.56v0C674.18,141.25,664.52,150.91,652.62,150.91z"/>
</g>
</svg>
