<?xml version="1.0" encoding="utf-8"?>
<!-- Generator: Adobe Illustrator 23.0.1, SVG Export Plug-In . SVG Version: 6.00 Build 0)  -->
<svg version="1.1" id="Layer_1" xmlns="http://www.w3.org/2000/svg" xmlns:xlink="http://www.w3.org/1999/xlink" x="0px" y="0px"
	 viewBox="0 0 291.42 683.47" style="enable-background:new 0 0 291.42 683.47;" xml:space="preserve">
<style type="text/css">
	.st0{fill:#F1F6FB;}
	.st1{fill:#C3CED4;}
	.st2{fill:none;stroke:#667682;stroke-width:5;stroke-miterlimit:10;}
	.st3{fill:#FFFFFF;}
	.st4{fill:#FDF3F5;}
	.st5{fill:#C1DFF4;}
	.st6{fill:#8FCFF1;}
	.st7{fill:#ABB3B7;}
	.st8{fill:#EFDFE4;}
	.st9{fill:#B6D5BB;}
	.st10{fill:#A0CDAA;}
	.st11{fill:#FBC595;}
	.st12{fill:none;stroke:#667682;stroke-width:5;stroke-linecap:round;stroke-linejoin:round;stroke-miterlimit:10;}
	.st13{fill:none;stroke:#667682;stroke-width:5;stroke-linecap:round;stroke-miterlimit:10;}
	.st14{fill:none;}
</style>
<g>
	<g>
		<path class="st0" d="M92.72,42.96c17.71-21.75,43.7-36.76,73.79-39.87c60.25-6.23,114.14,37.56,120.37,97.82
			c3.47,33.55-8.58,65.14-30.35,87.62c-13.58,8.34-28.61,13.64-44.07,15.8c-1.25,0.17-2.52,0.33-3.77,0.46
			c-7.71,0.82-15.5,0.86-23.25,0.1c-21.61-2.09-42.88-10.36-61-25.08C82.97,146.09,71.24,89.34,92.72,42.96z"/>
		<path class="st1" d="M92.72,42.96c-21.48,46.38-9.75,103.13,31.73,136.84c18.12,14.72,39.38,22.99,61,25.08
			c7.75,0.76,15.54,0.72,23.25-0.1c1.26-0.13,2.52-0.29,3.77-0.46c15.46-2.16,30.49-7.46,44.07-15.8
			c-7.33,7.56-15.77,14.11-25.1,19.34c0,0-0.16,0.08-0.48,0.25c-0.21,0.11-0.49,0.27-0.83,0.48c-0.05,0.03-0.1,0.06-0.15,0.09
			c-1.62,0.88-3.28,1.72-4.96,2.52c-6.2,2.96-12.73,5.35-19.55,7.13c-5.3,1.37-10.77,2.37-16.39,2.95
			c-2.53,0.26-5.06,0.43-7.57,0.52c-8.4,0.3-16.65-0.38-24.61-1.92c-0.22-0.03-0.44-0.08-0.66-0.12c-2.58-0.52-5.12-1.12-7.63-1.82
			c-3.78-1.04-7.49-2.28-11.1-3.73c-36.82-14.57-64.45-48.64-68.8-90.74C65.58,93.31,74.99,64.75,92.72,42.96z"/>
		<path class="st2" d="M92.72,42.96c17.71-21.75,43.7-36.76,73.79-39.87c60.25-6.23,114.14,37.56,120.37,97.82
			c3.47,33.55-8.58,65.14-30.35,87.62c-7.33,7.56-15.77,14.11-25.1,19.34c-0.15,0.09-0.3,0.17-0.45,0.26
			c-0.28,0.16-1.71,0.96-2,1.11l-0.54,0.25c-1.13,0.59-2.27,1.17-3.43,1.72c-6.2,2.96-12.73,5.35-19.55,7.13
			c-5.3,1.37-10.77,2.37-16.39,2.95c-2.53,0.26-5.06,0.43-7.57,0.52c-8.4,0.3-16.65-0.38-24.61-1.92l-0.23-0.05
			c-2.62-0.52-5.81-1.27-8.05-1.9c-3.78-1.04-7.49-2.28-11.1-3.73c-36.82-14.57-64.45-48.64-68.8-90.74
			C65.58,93.31,74.99,64.75,92.72,42.96z"/>
		<path class="st3" d="M228.53,48.29c1.26-0.13,2.47-0.77,3.29-1.87c1.54-2.08,1.11-5.02-0.97-6.57
			c-8.24-6.12-17.37-10.77-27.14-13.81c-11.75-3.65-23.94-4.85-36.25-3.58c-2.58,0.27-4.45,2.57-4.19,5.15s2.57,4.45,5.15,4.19
			c11.04-1.14,21.97-0.06,32.5,3.2c8.75,2.72,16.94,6.89,24.33,12.38C226.23,48.11,227.4,48.4,228.53,48.29z"/>
		<path class="st3" d="M262.87,108.56c2.58-0.27,4.45-2.57,4.19-5.15c-0.88-8.49-2.93-16.77-6.09-24.61c-0.97-2.4-3.7-3.57-6.11-2.6
			c-2.4,0.97-3.57,3.7-2.6,6.11c2.83,7.02,4.67,14.44,5.45,22.06C257.99,106.95,260.3,108.83,262.87,108.56z"/>
	</g>
	<path class="st4" d="M288.63,274.1c1.95,4.2-6.15,5.48-15.88,15.35c-6.66,6.76-11.41,10.52-17.24,9.37l0.26-0.31
		c1.25-0.16,2.5-0.74,3.66-1.8c4.53-4.15,12.11-10.61,11.83-16.67l1-1.19C278.57,276.36,286.38,269.26,288.63,274.1z"/>
	<path class="st4" d="M287.1,256.96c1.3,2.53-1.17,6.84-8.31,12.79c-6.16,5.11-5.41,6.32-6.66,8.53l-1.64-1.05
		c-0.26-0.51-0.6-1.01-1.01-1.5c-1.25-1.49-2.59-2.69-3.78-3.63c2.9-2.93,4.32-5.68,8.45-8.85c2.75-2.11,5.6-3.91,7.22-5.72
		C284.44,255.63,286.2,255.21,287.1,256.96z"/>
	<path class="st4" d="M282.47,253.43c0.62,1.46,0.08,2.78-1.11,4.09c-1.99,1.23-4.55,3.08-7.78,5.36c-4.56,3.22-6.69,6.84-8.14,9.02
		c-1.91-1.47-3.38-2.2-3.38-2.2c-1.77-0.48-3.42-0.7-4.95-0.69c0.57-0.78,2.47-3.23,6.45-7.14
		C270.37,255.16,280.62,249.08,282.47,253.43z"/>
	<path class="st4" d="M281.36,257.52c-1.62,1.81-4.47,3.6-7.22,5.72c-4.13,3.17-5.55,5.93-8.45,8.85c-0.09-0.07-0.17-0.13-0.25-0.19
		c1.45-2.18,3.58-5.8,8.14-9.02C276.82,260.6,279.37,258.75,281.36,257.52z"/>
	<path class="st4" d="M271.25,280.04c0.29,6.05-7.3,12.52-11.83,16.67c-1.16,1.07-2.41,1.65-3.66,1.8L271.25,280.04z"/>
	<path class="st4" d="M271.25,280.04l-15.49,18.47c-0.38,0.05-0.77,0.06-1.16,0.04l-0.01,0l-2.49-1.81l4.83-27.47l7.46,4.05
		l6.09,3.91C270.97,278.15,271.21,279.09,271.25,280.04z"/>
	<path class="st4" d="M270.48,277.23l-6.09-3.91c0.47-0.41,0.9-0.82,1.3-1.23c1.19,0.94,2.53,2.15,3.78,3.63
		C269.89,276.22,270.22,276.72,270.48,277.23z"/>
	<path class="st4" d="M267.13,249.68c2.18,1.47-0.01,5.54-3.04,9.26c-3.43,4.21-5.55,6.76-7.04,10.07
		c-6.27,0.04-10.35,3.9-11.77,9.29l-0.64-0.16c0.66-2.58,2.62-9.79,4.6-13.24c2.44-4.25,6.92-8.93,9.02-11.04
		C260.42,251.68,263.81,247.44,267.13,249.68z"/>
	<path class="st4" d="M265.44,271.9c0.08,0.06,0.16,0.12,0.25,0.19c-0.4,0.41-0.83,0.82-1.3,1.23
		C264.72,272.97,265.06,272.49,265.44,271.9z"/>
	<path class="st4" d="M265.44,271.9c-0.39,0.59-0.72,1.07-1.05,1.42l-7.46-4.05c0,0,0.01-0.01,0.02-0.03
		c0.03-0.04,0.09-0.11,0.16-0.23c1.52-0.01,3.18,0.21,4.95,0.69C262.06,269.7,263.53,270.43,265.44,271.9z"/>
	<path class="st4" d="M254.6,298.55l0.35,0.26c-3.82,1.95-13.69,7.07-17.45,9.13c-15.62,8.51-31.23,17.04-46.84,25.57
		c-20.07,10.97-25.08-10.04-26.59-15.49c-1.24-4.47-14.06-44.94-18.63-59.35c0,0,0,0,0-0.01c0.76-2.08,1.49-4.16,2.22-6.21
		l13.26-4.01l20.54,68.03l56.66-27.54c0.26,0.21,0.55,0.41,0.86,0.61c1.33,0.83,8.72,10.24,12.64,9.95l0.31-1.72
		C252.79,298.21,253.69,298.48,254.6,298.55L254.6,298.55z"/>
	<path class="st4" d="M257.05,269c0.02,0,0.04,0,0.06,0c-0.08,0.11-0.13,0.19-0.16,0.23C256.98,269.15,257.01,269.08,257.05,269z"/>
	<path class="st4" d="M257.05,269c-0.04,0.07-0.07,0.15-0.1,0.23c-0.01,0.03-0.02,0.03-0.02,0.03l-4.83,27.47l-4.44-3.22
		c-1.36-2.18-2.36-4.96-2.77-8.14c-0.32-2.51-0.19-4.93,0.38-7.1C246.7,272.9,250.79,269.04,257.05,269z"/>
	<path class="st4" d="M252.1,296.74l2.49,1.81c-0.91-0.07-1.81-0.34-2.67-0.8L252.1,296.74z"/>
	<path class="st4" d="M252.1,296.74l-0.18,1.01c-1.59-0.84-3.07-2.29-4.26-4.23L252.1,296.74z"/>
	<path class="st4" d="M251.93,297.75l-0.31,1.72c-3.92,0.29-11.31-9.12-12.64-9.95c-0.31-0.2-0.6-0.4-0.86-0.61l1.92-0.93l7.63,5.53
		C248.86,295.46,250.34,296.91,251.93,297.75z"/>
	<path class="st4" d="M247.67,293.52l-7.63-5.53l-1.92,0.93c-3.68-2.96-3.07-7.79-2.87-11.58c0.21-4.06-1.66-9.74,0.53-11.42
		c2.18-1.69,6.2,0.81,7.4,6.98c1.21,6.17,1.21,6.17,1.21,6.17s0.09-0.35,0.24-0.95l0.64,0.16c-0.57,2.17-0.71,4.59-0.38,7.1
		C245.31,288.57,246.31,291.34,247.67,293.52z"/>
	<path class="st5" d="M231.99,461.02c0.16,2.33-0.12,4.72-0.91,7.06l-50.67,137.17c-1.02,3.02-2.38,5.69-4.06,7.83
		c-6.62-12.9-11.44-17.92-15.1-19.32l34.31-123.02c3.72-12.89-37.16-34.11-51.1-43.91c-7.9-5.55-22.61-16.52-40.14-29.12
		L75.37,334.1c8.41,0.9,16.77,0.49,21.69-0.35l124.95,110.68C227.5,448.73,232.28,454.45,231.99,461.02z"/>
	<path class="st6" d="M144.46,426.84c13.94,9.8,54.82,31.02,51.1,43.91l-34.31,123.02c-3.67-1.4-6.16,0.86-8.1,2.52l36.38-125.98
		c0,0-41.07-29.48-77.48-55.61l-7.73-16.98C121.85,410.31,136.56,421.28,144.46,426.84z"/>
	<path class="st1" d="M181.46,661.03c0.19,8.46-4.88,17.63-11.53,19.59c-0.99,0.3-1.95,0.4-2.86,0.33c-1.13-0.08-2.2-0.43-3.19-0.98
		c0.47,0.17,0.93,0.27,1.38,0.31c0.49,0.04,0.97-0.01,1.43-0.14c3.85-1.14,5.37-8.22,3.36-15.73c-4.23-15.57-8.47-31.14-12.7-46.72
		c-0.26-0.97-0.58-1.9-0.95-2.78c1.33,1.09,2.97,1.98,4.93,2.64c6.41,2.18,11.45,0.08,15.02-4.46c0,0.01,0.01,0.03,0.01,0.04
		C183.73,627.49,181.09,644.9,181.46,661.03z"/>
	<path class="st7" d="M150.94,607.79c0.5,0.33,0.99,0.72,1.46,1.16c0.72,2.32,2.04,4.35,4.02,5.96c0.37,0.88,0.68,1.81,0.95,2.78
		c4.23,15.58,8.47,31.15,12.7,46.72c2.01,7.51,0.49,14.6-3.36,15.73c-0.46,0.14-0.94,0.18-1.43,0.14c-0.45-0.03-0.91-0.14-1.38-0.31
		c-0.01,0-0.02,0-0.03-0.01c-3.51-1.97-6.13-6.56-7.81-11.43c-5.13-15.3-10.27-30.61-15.4-45.91c-0.04-0.12-0.08-0.26-0.12-0.38
		c-2.21-7.27-0.24-14.26,4.46-15.65c0.69-0.2,1.4-0.28,2.11-0.22C148.4,606.46,149.71,606.96,150.94,607.79z"/>
	<path class="st8" d="M190.66,333.51c-3.29,1.8-6.58,3.59-9.87,5.39c-3.64,2-7.83,4.05-11.78,2.77c-1.83-0.59-3.38-1.86-4.64-3.31
		c-2.64-3.06-4.12-6.95-5.21-10.84c-1.88-6.7-3.85-13.33-5.85-20c-3.47-11.49-6.93-22.99-10.41-34.48c-0.4-1.34-0.81-2.68-1.21-4.02
		c1.27-3.46,2.52-6.92,3.75-10.36c4.57,14.41,17.39,54.88,18.63,59.35C165.58,323.47,170.59,344.47,190.66,333.51z"/>
	<path class="st1" d="M161.25,593.76c3.66,1.4,8.48,6.42,15.1,19.32c-3.57,4.54-8.6,6.64-15.02,4.46c-1.96-0.66-3.59-1.55-4.93-2.64
		c-1.03-2.43-2.43-4.47-4.02-5.96c-0.24-0.78-0.42-1.58-0.53-2.41L161.25,593.76z"/>
	<path class="st1" d="M156.05,668.53c1.67,4.87,4.29,9.46,7.81,11.43c-3.24-1.18-6.69-5.53-8.53-11.21
		c-4.89-15.38-9.79-30.76-14.69-46.13c-0.04-0.12-0.08-0.26-0.11-0.38c0.03,0.12,0.08,0.26,0.12,0.38
		C145.79,637.92,150.92,653.23,156.05,668.53z"/>
	<path class="st7" d="M161.25,593.76l-9.39,12.77c-0.16-1.2-0.19-2.45-0.09-3.74c0.15-2.07,0.62-4.24,1.37-6.46l0.01-0.04
		C155.1,594.63,157.59,592.37,161.25,593.76z"/>
	<path class="st1" d="M184.68,222.38c-0.93,0.09-1.86,0.15-2.79,0.2c-0.22,0-0.43,0.02-0.66,0.02l0.23-0.02
		C182.49,222.53,183.58,222.46,184.68,222.38z"/>
	<path class="st1" d="M152.39,608.95c1.59,1.48,2.99,3.52,4.02,5.96C154.43,613.3,153.12,611.26,152.39,608.95z"/>
	<path class="st7" d="M153.15,596.28l-0.01,0.04c-0.75,2.23-1.22,4.39-1.37,6.46c-0.1,1.29-0.07,2.54,0.09,3.74l-0.93,1.26
		c-1.23-0.83-2.54-1.33-3.83-1.43c-0.71-0.05-1.41,0.03-2.11,0.22c-4.71,1.39-6.67,8.38-4.46,15.65c-2.37-7.24-1-14.48,5.42-19.99
		c1.51-1.29,4.4-3.75,6.52-5.41C152.69,596.66,152.91,596.47,153.15,596.28z"/>
	<path class="st1" d="M151.86,606.53c0.11,0.83,0.28,1.64,0.53,2.41c-0.47-0.44-0.95-0.83-1.46-1.16L151.86,606.53z"/>
	<path class="st9" d="M152.98,222.12l7.94,26.32l-13.26,4.01l-3.83,1.16l-6.23,1.88c-12.46,9.07-7.82,25.48-3.73,34.19
		c-3.13,7.96-6.35,15.69-9.63,22.89c-5.48,12.04-10.94,16.41-24.44,20.57c-0.72,0.22-1.65,0.44-2.75,0.62l-9.63-8.53
		c-4.84-3.79-13.15-5.44-18.91-6.16l-3.38-7.42c-5.19-10.66-18.15-15.15-28.82-9.96l-4.16-4.07c3.36-3.21,10.73-6.84,19.54-13.29
		c1.35,0.88,2.7,1.77,4.05,2.66c0.82,0.54,1.63,1.08,2.45,1.62c0.75,0.49,1.49,0.99,2.24,1.48c5.4,3.57,10.8,7.14,16.2,10.71
		c0.61,0.4,1.22,0.79,1.82,1.2c4.36,3.16,9.09,5.04,12.26,0.68c3.16-4.36,1.27-8.18-3.1-11.35l-23.12-17.96
		c10.65-10.88,15.43-21.53,16.66-24.58c0.01-0.02,0.02-0.04,0.02-0.07c0.04-0.11,0.08-0.2,0.12-0.28c0.03-0.09,0.06-0.17,0.09-0.23
		c0.02-0.07,0.04-0.13,0.06-0.17c0-0.01,0-0.02,0.01-0.03c0-0.02,0-0.03,0.01-0.03c0-0.02,0-0.03,0.01-0.04c0,0,8.56,6.04,18.04-0.1
		c9.48-6.14,8.7-14.07,8.7-14.07s8.98,0.79,13.47-6.13c4.87-7.47-1.09-15.96-1.09-15.96s0.95-1.4,1.83-3.66
		c3.93,2.31,8.03,4.39,12.31,6.2c4.9,2.07,10.02,3.81,15.34,5.16c0.64,0.17,1.28,0.33,1.93,0.47
		C152.41,220.55,152.74,221.31,152.98,222.12z"/>
	<path class="st9" d="M151.29,218.65c0.26,0.38,0.51,0.78,0.74,1.19c-0.64-0.14-1.29-0.3-1.93-0.47
		c-5.32-1.36-10.44-3.09-15.34-5.16c-4.27-1.81-8.38-3.89-12.31-6.2c0.21-0.52,0.41-1.07,0.59-1.67c0.69-2.27,1.14-5.1,0.7-8.11
		c0.57,0.21,1.15,0.45,1.75,0.72l8.44,3.85C141.78,206.38,147.95,211.97,151.29,218.65z"/>
	<path class="st4" d="M143.84,253.6l3.83-1.16c-0.73,2.05-1.47,4.13-2.22,6.21C144.45,255.51,143.84,253.6,143.84,253.6z"/>
	<path class="st8" d="M145.44,258.66C145.44,258.67,145.44,258.67,145.44,258.66c-1.23,3.45-2.48,6.91-3.75,10.37
		c-1.36-4.51-2.73-9.03-4.09-13.54l6.23-1.88C143.84,253.6,144.45,255.51,145.44,258.66z"/>
	<path class="st10" d="M137.61,255.48c1.36,4.51,2.73,9.03,4.09,13.54c-2.53,6.93-5.15,13.87-7.82,20.64
		C129.79,280.97,125.14,264.56,137.61,255.48z"/>
	<path class="st5" d="M124.3,441.63c3.01,8.12,3.83,14.98,1.2,20.21c-0.48,1.09-1.06,2.15-1.81,3.15l-75.39,88.8
		c-2.75,3.66-5.65,7.02-8.81,8.58c-2.93-11.29-5.84-17.31-8.57-20.32c0,0,0,0,0-0.01c0.36-0.49,14.1-19.35,27.37-36.07
		c13.46-16.94,37.35-46.09,37.35-46.09c2.9-6.36-8.41-25.8-20.46-43.48c-12.05-17.67-27.8-47.44-27.8-47.44l17.28,11.73
		c9.83,7.06,27.94,20.05,47.37,34L124.3,441.63z"/>
	<path class="st6" d="M104.32,397.72l7.73,16.98c-19.44-13.96-37.54-26.95-47.37-34l-0.43-10.87
		C78.07,379.04,91.9,388.79,104.32,397.72z"/>
	<path class="st11" d="M81.5,247.93c-0.01,0.01-0.01,0.03-0.01,0.04c-0.01,0.01-0.01,0.02-0.01,0.03c-0.01,0.01-0.01,0.02-0.01,0.03
		c-0.02,0.04-0.04,0.1-0.06,0.17c-0.03,0.07-0.05,0.14-0.09,0.23c-0.04,0.08-0.08,0.17-0.12,0.28c0,0.03-0.01,0.05-0.02,0.07
		c-1.01,2.33-4.57,8.61-13.56,9.05c-0.83,0.04-1.59,0.02-2.32-0.04c-5.93-0.53-8.58-4.28-9.69-6.75l25.66-12.41l0.07,0.14
		l31.54-15.24c5.35-2.58,7.61-9.08,5.03-14.43c-0.87-1.8-2.18-3.25-3.74-4.28l1.04-1.45c0.15,0.11,0.3,0.21,0.46,0.32
		c0.43,0.3,0.87,0.6,1.3,0.89c1.79,1.2,3.61,2.35,5.49,3.44c-0.87,2.26-1.83,3.66-1.83,3.66s5.96,8.49,1.09,15.96
		c-4.49,6.91-13.47,6.13-13.47,6.13s0.78,7.93-8.7,14.07C90.06,253.97,81.5,247.93,81.5,247.93z"/>
	<path class="st11" d="M123.74,198.23c0.44,3.01-0.01,5.83-0.7,8.11c-0.18,0.6-0.38,1.15-0.59,1.67c-1.87-1.09-3.7-2.24-5.49-3.44
		c-0.43-0.29-0.87-0.59-1.3-0.89c-0.27-0.19-0.54-0.38-0.81-0.58c-0.31-0.22-0.63-0.44-0.94-0.67c-0.45-0.33-0.9-0.65-1.34-0.98
		c-0.01-0.01-0.01-0.02-0.02-0.02c-0.05-0.04-0.09-0.07-0.14-0.1c-0.01,0-0.02,0-0.02-0.01c-0.04-0.04-0.08-0.07-0.12-0.1
		c-0.23-0.2-0.43-0.35-0.59-0.47c-0.14-0.1-0.24-0.18-0.32-0.23c-0.04-0.02-0.07-0.05-0.11-0.08c-8.22-6.35-15.41-13.84-21.39-22.16
		c0.53,0.45,1.08,0.9,1.63,1.33c1.56,2.03,2.92,3.75,3.03,3.91c5.84,8.17,8.82,9.55,15.64,14.35
		C114.35,196.27,118.72,196.32,123.74,198.23z"/>
	<path class="st11" d="M117.9,209.1c2.58,5.35,0.32,11.85-5.03,14.43l-31.54,15.24l-0.07-0.14l5.58-2.7l-9.34-19.32l25.95-12.55
		c3.56-1.72,7.62-1.3,10.7,0.74C115.72,205.85,117.02,207.3,117.9,209.1z"/>
	<path class="st5" d="M75.37,334.1l28.95,63.62c-12.41-8.92-26.25-18.68-40.08-27.9l-1.53-38.32C66.63,332.8,71,333.63,75.37,334.1z
		"/>
	<path class="st11" d="M114.85,203.1c0.27,0.19,0.54,0.38,0.81,0.58c-0.16-0.11-0.31-0.21-0.46-0.32
		C115.09,203.28,114.97,203.19,114.85,203.1z"/>
	<path class="st11" d="M115.2,203.36l-1.04,1.45c-3.09-2.04-7.14-2.46-10.7-0.74L77.5,216.62l-0.07-0.14
		c-3.27,1.58-6.53,3.15-9.8,4.74c-11.06,5.35-22.05,10.86-33.2,16.03c0.17-3.68,1.54-6.4,1.54-6.4s-7.75-2.38-5.06-13.64
		c2.69-11.26,14.34-14.17,14.34-14.17s-6.55-9.39,1.29-15.37c7.85-5.97,15.3,0.32,15.3,0.32s-1.37-9.42,7.24-12.62
		c8.38-3.11,13.19,4.88,13.19,4.88s0.54-5.36,4.36-6.77c1.03,1.63,2.11,3.24,3.24,4.81c5.98,8.32,13.16,15.81,21.39,22.16
		c0.03,0.03,0.06,0.06,0.11,0.08c0.1,0.08,0.19,0.16,0.29,0.24c0.09,0.08,0.34,0.26,0.62,0.47c0.04,0.03,0.08,0.06,0.12,0.1
		c0,0.01,0.01,0.01,0.02,0.01c0.05,0.04,0.09,0.07,0.14,0.1c0.01,0,0.01,0.01,0.02,0.02c0.37,0.29,0.72,0.56,0.86,0.66l0.48,0.32
		c0.31,0.23,0.63,0.45,0.94,0.67C114.97,203.19,115.09,203.28,115.2,203.36z"/>
	<path class="st6" d="M75.19,416.4c12.05,17.67,23.36,37.12,20.46,43.48c0,0-23.9,29.14-37.35,46.09
		c-13.28,16.72-27.01,35.58-27.37,36.07c-1.84-2.03-3.6-2.69-5.22-2.68c0.47-0.76,1-1.5,1.55-2.24L89,454.89
		c0,0-46.15-78.35-62.29-105.76c3.86,6.5,13.3,14.38,20.69,19.82C47.4,368.96,63.14,398.72,75.19,416.4z"/>
	<path class="st11" d="M113.91,202.43l-0.48-0.32c-0.13-0.1-0.49-0.36-0.86-0.66C113.01,201.78,113.46,202.11,113.91,202.43z"/>
	<path class="st11" d="M111.69,200.75c0.16,0.12,0.36,0.28,0.59,0.47c-0.28-0.21-0.53-0.39-0.62-0.47c-0.1-0.08-0.2-0.15-0.29-0.24
		C111.44,200.57,111.55,200.65,111.69,200.75z"/>
	<path class="st9" d="M87.43,325.22l9.63,8.53c-4.92,0.84-13.28,1.25-21.69,0.35l-6.85-15.04
		C74.28,319.78,82.59,321.43,87.43,325.22z"/>
	<path class="st9" d="M87.63,291.32c4.37,3.16,6.26,6.98,3.1,11.35c-3.17,4.36-7.9,2.48-12.26-0.68c-0.61-0.41-1.21-0.8-1.82-1.2
		c-5.4-3.57-10.8-7.14-16.2-10.71c-0.75-0.49-1.49-0.99-2.24-1.48c-0.81-0.53-1.62-1.07-2.45-1.62c-1.35-0.89-2.7-1.78-4.05-2.66
		c2.73-2,5.59-4.26,8.52-6.87c1.53-1.36,2.95-2.73,4.28-4.09L87.63,291.32z"/>
	<path class="st11" d="M91.5,179.62c-0.55-0.44-1.1-0.88-1.63-1.33c-1.13-1.57-2.21-3.17-3.24-4.81c0.05-0.03,0.11-0.04,0.17-0.07
		C87.62,174.56,89.71,177.29,91.5,179.62z"/>
	
		<rect x="76.29" y="216.9" transform="matrix(0.9002 -0.4355 0.4355 0.9002 -91.2004 57.2844)" class="st11" width="6.2" height="21.46"/>
	<path class="st9" d="M68.52,319.06l6.85,15.04c-4.37-0.47-8.74-1.3-12.66-2.6l-0.52-12.96C62.19,318.54,64.83,318.61,68.52,319.06z
		"/>
	<path class="st11" d="M81.32,248.43c-0.04,0.08-0.08,0.17-0.12,0.28C81.23,248.6,81.28,248.51,81.32,248.43z"/>
	<path class="st11" d="M71.93,219.32l9.34,19.32L55.6,251.04c-0.57-1.26-0.73-2.2-0.73-2.2s-8.29,6.9-16.07-0.61
		c-1.21-1.16-2.1-2.38-2.76-3.62c-1.36-2.54-1.7-5.12-1.59-7.36c11.14-5.17,22.13-10.69,33.2-16.03c3.27-1.58,6.53-3.16,9.8-4.74
		l0.07,0.14L71.93,219.32z"/>
	<path class="st10" d="M67.61,257.83c8.99-0.44,12.54-6.73,13.56-9.05c-1.23,3.05-6.01,13.7-16.66,24.58l-7.07-5.49
		c2.91-3.18,5.5-6.57,7.86-10.07C66.02,257.85,66.78,257.87,67.61,257.83z"/>
	<path class="st6" d="M64.24,369.82l0.43,10.87L47.4,368.96L26.7,349.13c-1.61-2.72-2.92-4.94-3.85-6.53
		c-7.31-12.4-5.94-28.02-0.78-37.98c2.22,3.21,4.93,6.14,7.97,8.81l-0.81,1.13c-3.52,11.98-2.62,30.35,31.78,53.11
		C62.09,368.38,63.17,369.09,64.24,369.82z"/>
	<path class="st9" d="M65.15,311.64l3.38,7.42c-3.69-0.45-6.33-0.53-6.33-0.53l0.52,12.96c-0.77-0.25-1.53-0.53-2.25-0.83
		c-5.88-2.38-11.63-4.99-16.93-7.95l0.02-0.03c0,0-13.32-16.12-13.31-21.55c0-1.2,0.7-2.34,1.94-3.53l4.16,4.07
		C46.99,296.49,59.96,300.97,65.15,311.64z"/>
	<path class="st5" d="M62.71,331.5l1.53,38.32c-1.07-0.72-2.15-1.44-3.22-2.15c-34.4-22.75-35.3-41.13-31.78-53.11l0.81-1.13
		c3.97,3.48,8.54,6.54,13.47,9.29c5.31,2.96,11.05,5.57,16.93,7.95C61.19,330.96,61.94,331.24,62.71,331.5z"/>
	<path class="st10" d="M57.44,267.87l7.07,5.49c-1.33,1.36-2.76,2.73-4.28,4.09c-2.93,2.61-5.79,4.87-8.52,6.87
		c-2.63-1.75-5.28-3.49-7.92-5.22C49.08,275.93,53.55,272.09,57.44,267.87z"/>
	<path class="st1" d="M39.56,562.62c4.03,15.63-2.36,32.04-5.54,47.87c-1.67,8.3-8.63,16.13-15.55,16.58c-0.42,0.03-0.81,0.03-1.2,0
		c-1.76-0.13-3.24-0.82-4.49-1.91c0.68,0.42,1.39,0.67,2.11,0.72c0.18,0.01,0.35,0.02,0.53,0c4.01-0.26,7.04-6.84,6.74-14.61
		c-0.71-16.12-1.42-32.24-2.13-48.36c-0.15-3.62-1.16-6.88-2.72-9.29l5.17-4.39c0.16,2.71,1.44,5.24,4.27,7.37l3.88,4.73
		c3.19,2.39,6.13,2.4,8.88,1.05C39.52,562.44,39.55,562.53,39.56,562.62z"/>
	<path class="st1" d="M39.5,562.36c-2.75,1.36-5.69,1.35-8.88-1.05l-3.88-4.73c-2.83-2.13-4.11-4.66-4.27-7.37l8.45-7.17
		C33.65,545.05,36.57,551.07,39.5,562.36z"/>
	<path class="st4" d="M43.38,256.95l14.06,10.92c-3.89,4.22-8.35,8.06-13.65,11.23c-2.28-1.51-4.56-3-6.85-4.5
		c-3.13-2.06-6.32-4.05-9.41-6.17c-14.12-17.71,6.78-22.87,6.78-22.87l1.71-0.94c0.66,1.24,1.56,2.46,2.76,3.62
		c7.78,7.52,16.07,0.61,16.07,0.61s0.16,0.93,0.73,2.2L43.38,256.95z"/>
	<path class="st5" d="M26.7,349.13l20.69,19.82C40,363.51,30.56,355.63,26.7,349.13z"/>
	<path class="st7" d="M30.92,542.03C30.92,542.04,30.92,542.04,30.92,542.03l-8.45,7.18c-0.19-3.15,1.11-6.54,3.23-9.86
		c0,0,0,0,0.01,0C27.33,539.34,29.09,540.01,30.92,542.03z"/>
	<path class="st10" d="M43.79,279.1c2.64,1.73,5.29,3.47,7.92,5.22c-8.81,6.44-16.18,10.07-19.54,13.29l-1.93-1.89
		c-3.15,1.53-5.99,4.72-8.17,8.91c-0.12-0.17-0.24-0.34-0.36-0.52c-3.51-5.22-9.64-14.36,5.78-18.29
		C33.7,284.23,39.07,281.93,43.79,279.1z"/>
	<path class="st10" d="M43.54,322.69l-0.02,0.03c-4.94-2.75-9.5-5.81-13.47-9.29c-3.05-2.68-5.75-5.6-7.97-8.81
		c2.18-4.19,5.02-7.38,8.17-8.91l1.93,1.89c-1.24,1.19-1.94,2.33-1.94,3.53C30.22,306.57,43.54,322.69,43.54,322.69z"/>
	<path class="st7" d="M12.77,625.15C12.77,625.15,12.77,625.14,12.77,625.15c-3.06-2.68-4.63-7.77-5.18-12.93
		c-1.65-16.07-3.3-32.11-4.95-48.18c0-0.03-0.01-0.04,0-0.07c-0.68-7.73,2.81-14.28,7.77-14.62c0.27-0.01,0.53-0.01,0.81,0.01
		c2.35,0.17,4.5,1.76,6.09,4.24c1.55,2.41,2.57,5.67,2.72,9.29c0.71,16.12,1.42,32.24,2.13,48.36c0.31,7.78-2.72,14.35-6.74,14.61
		c-0.18,0.01-0.35,0.01-0.53,0C14.16,625.82,13.46,625.57,12.77,625.15z"/>
	<path class="st7" d="M22.47,549.22l-5.17,4.39c-1.59-2.48-3.74-4.07-6.09-4.24c-0.27-0.02-0.54-0.02-0.81-0.01
		c-4.96,0.33-8.45,6.89-7.77,14.62c-0.83-7.7,2.07-14.61,9.66-18.64c1.76-0.93,5.11-2.69,7.54-3.85c1.6-0.76,3.61-2.1,5.87-2.12
		C23.58,542.67,22.28,546.07,22.47,549.22z"/>
	<path class="st1" d="M7.59,612.22c0.56,5.16,2.13,10.25,5.18,12.93c-2.94-1.83-5.39-6.88-5.94-12.88
		c-1.4-16.08-2.79-32.15-4.19-48.23C4.29,580.11,5.94,596.15,7.59,612.22z"/>
	<path class="st8" d="M36.03,244.61l-1.71,0.94c0,0-20.9,5.16-6.78,22.87c-2.68-1.84-5.56-3.42-8.16-5.35
		c-2.55-1.89-4.83-4.47-5.34-7.6c-0.59-3.61,1.34-7.25,4.07-9.69c2.72-2.44,6.14-3.92,9.48-5.41c2.29-1.02,4.57-2.06,6.86-3.12
		C34.34,239.48,34.67,242.07,36.03,244.61z"/>
	<path class="st12" d="M256.95,269.23c0.03-0.08,0.06-0.16,0.1-0.23c1.49-3.31,3.61-5.85,7.04-10.07c3.03-3.72,5.22-7.79,3.04-9.26
		c-3.32-2.23-6.71,2-8.87,4.18c-2.1,2.11-6.58,6.79-9.02,11.04c-1.98,3.45-3.94,10.66-4.6,13.24c-0.16,0.6-0.24,0.95-0.24,0.95
		s0,0-1.21-6.17c-1.21-6.17-5.22-8.67-7.4-6.98c-2.19,1.68-0.32,7.36-0.53,11.42c-0.2,3.79-0.81,8.61,2.87,11.58"/>
	<path class="st12" d="M256.93,269.27c0,0,0.01-0.01,0.02-0.03c0.03-0.04,0.09-0.11,0.16-0.23c0.57-0.78,2.47-3.23,6.45-7.14
		c6.81-6.7,17.07-12.79,18.91-8.44c0.62,1.46,0.08,2.78-1.11,4.09"/>
	<path class="st12" d="M264.39,273.32c0.33-0.35,0.66-0.83,1.05-1.42c1.45-2.18,3.58-5.8,8.14-9.02c3.23-2.28,5.78-4.13,7.78-5.36
		c3.07-1.89,4.83-2.31,5.74-0.56c1.3,2.53-1.17,6.84-8.31,12.79c-6.16,5.11-5.41,6.32-6.66,8.53"/>
	<path class="st12" d="M255.51,298.82c5.84,1.15,10.59-2.6,17.24-9.37c9.73-9.87,17.82-11.16,15.88-15.35
		c-2.25-4.84-10.05,2.26-16.38,4.75"/>
	<path class="st12" d="M34.44,237.25c-2.28,1.05-4.56,2.1-6.86,3.12c-3.35,1.49-6.77,2.97-9.48,5.41c-2.73,2.44-4.66,6.09-4.07,9.69
		c0.51,3.14,2.79,5.71,5.34,7.6c2.6,1.93,5.48,3.51,8.16,5.35c3.09,2.12,6.28,4.11,9.41,6.17c2.28,1.5,4.56,2.99,6.85,4.5"/>
	<polyline class="st12" points="57.44,267.87 43.38,256.95 55.6,251.04 	"/>
	<path class="st2" d="M22.08,304.62c-5.16,9.96-6.53,25.58,0.78,37.98c0.93,1.59,2.24,3.81,3.85,6.53
		C42.85,376.54,89,454.89,89,454.89l-61.74,82.22c-0.55,0.74-1.08,1.49-1.55,2.24"/>
	<path class="st2" d="M39.5,562.36c3.16-1.56,6.07-4.91,8.81-8.58l75.39-88.8c0.74-1,1.33-2.05,1.81-3.15
		c2.63-5.24,1.81-12.09-1.2-20.21l-12.26-26.93"/>
	<path class="st13" d="M153.15,596.28l36.38-125.98c0,0-41.07-29.48-77.48-55.61c-19.44-13.96-37.54-26.95-47.37-34"/>
	<path class="st13" d="M97.06,333.75l124.95,110.68c5.49,4.3,10.27,10.02,9.97,16.59c0.16,2.33-0.12,4.72-0.91,7.06l-50.67,137.17
		c-1.02,3.02-2.38,5.69-4.06,7.83"/>
	<path class="st12" d="M65.29,257.79c-2.36,3.5-4.95,6.9-7.86,10.07c-3.89,4.22-8.35,8.06-13.65,11.23
		c-4.72,2.83-10.09,5.13-16.29,6.72c-15.42,3.93-9.29,13.07-5.78,18.29c0.12,0.17,0.23,0.34,0.36,0.52
		c2.22,3.21,4.93,6.14,7.97,8.81c3.97,3.48,8.54,6.54,13.47,9.29c5.31,2.96,11.05,5.57,16.93,7.95c0.73,0.29,1.48,0.57,2.25,0.83
		c3.91,1.3,8.28,2.13,12.66,2.6c8.41,0.9,16.77,0.49,21.69-0.35c1.1-0.19,2.03-0.4,2.75-0.62c13.5-4.16,18.96-8.53,24.44-20.57
		c3.28-7.19,6.5-14.92,9.63-22.89c2.67-6.77,5.29-13.71,7.82-20.64"/>
	<path class="st12" d="M160.93,248.44l-7.94-26.32c-0.24-0.81-0.57-1.57-0.96-2.28c-0.23-0.41-0.47-0.81-0.74-1.19
		c-3.34-6.67-9.5-12.26-17.36-15.84l-8.44-3.85c-0.59-0.27-1.18-0.51-1.75-0.72"/>
	<path class="st2" d="M124.37,205.96c0.26,0.17,0.53,0.33,0.8,0.49"/>
	<path class="st12" d="M81.5,247.93c0,0,8.56,6.04,18.04-0.1c9.48-6.14,8.7-14.07,8.7-14.07s8.98,0.79,13.47-6.13
		c4.87-7.47-1.09-15.96-1.09-15.96s0.95-1.4,1.83-3.66c0.21-0.52,0.41-1.07,0.59-1.67c0.69-2.27,1.14-5.1,0.7-8.11
		c-5.01-1.92-9.39-1.96-13.57-0.36"/>
	<path class="st12" d="M81.19,248.71c0.04-0.11,0.08-0.2,0.12-0.28"/>
	<path class="st12" d="M110.17,197.87c-6.82-4.79-9.8-6.18-15.64-14.35c-0.11-0.15-1.46-1.88-3.03-3.91
		c-1.8-2.33-3.89-5.05-4.71-6.21c-0.06,0.02-0.11,0.03-0.17,0.07c-3.82,1.41-4.36,6.77-4.36,6.77s-4.82-7.99-13.19-4.88
		c-8.61,3.2-7.24,12.62-7.24,12.62s-7.45-6.29-15.3-0.32c-7.84,5.98-1.29,15.37-1.29,15.37s-11.65,2.9-14.34,14.17
		c-2.69,11.26,5.06,13.64,5.06,13.64s-1.37,2.72-1.54,6.4c-0.1,2.24,0.23,4.83,1.59,7.36c0.66,1.24,1.56,2.46,2.76,3.62
		c7.78,7.52,16.07,0.61,16.07,0.61s0.16,0.93,0.73,2.2c1.11,2.47,3.76,6.22,9.69,6.75c0.73,0.06,1.49,0.08,2.32,0.04
		c8.99-0.44,12.54-6.73,13.56-9.05"/>
	<path class="st12" d="M240.04,287.99l-1.92,0.93l-56.66,27.54l-20.54-68.03l-13.26,4.01l-3.83,1.16l-6.23,1.88
		c1.36,4.51,2.73,9.03,4.09,13.54c0.4,1.34,0.81,2.68,1.21,4.02c3.47,11.49,6.94,22.99,10.41,34.48c2,6.67,3.97,13.3,5.85,20
		c1.09,3.89,2.57,7.78,5.21,10.84c1.26,1.45,2.81,2.72,4.64,3.31c3.95,1.28,8.14-0.78,11.78-2.77c3.29-1.8,6.58-3.59,9.87-5.39
		c15.61-8.53,31.22-17.06,46.84-25.57c3.76-2.06,13.63-7.18,17.45-9.13"/>
	<path class="st12" d="M26.7,349.13c3.86,6.5,13.3,14.38,20.69,19.82"/>
	<path class="st2" d="M140.54,622.24c-2.37-7.24-1-14.48,5.42-19.99c1.51-1.29,4.4-3.75,6.52-5.41c0.22-0.17,0.44-0.36,0.68-0.55
		c1.95-1.66,4.44-3.92,8.1-2.52c3.66,1.4,8.48,6.42,15.1,19.32c0,0.01,0.01,0.03,0.01,0.04c7.36,14.37,4.73,31.78,5.1,47.92
		c0.19,8.46-4.88,17.63-11.53,19.59c-0.99,0.3-1.95,0.4-2.86,0.33c-1.13-0.08-2.2-0.43-3.19-0.98"/>
	<path class="st2" d="M163.86,679.96c-3.24-1.18-6.69-5.53-8.53-11.21c-4.89-15.38-9.79-30.76-14.69-46.13
		c-0.04-0.12-0.08-0.26-0.11-0.38c-2.21-7.27-0.24-14.26,4.46-15.65c0.69-0.2,1.4-0.28,2.11-0.22c1.29,0.1,2.6,0.6,3.83,1.43
		c0.5,0.33,0.99,0.72,1.46,1.16c1.59,1.48,2.99,3.52,4.02,5.96c0.37,0.88,0.68,1.81,0.95,2.78c4.23,15.58,8.47,31.15,12.7,46.72
		c2.01,7.51,0.49,14.6-3.36,15.73c-0.46,0.14-0.94,0.18-1.43,0.14c-0.45-0.03-0.91-0.14-1.38-0.31
		C163.88,679.97,163.87,679.97,163.86,679.96z"/>
	<path class="st2" d="M30.92,542.04c2.73,3.01,5.64,9.03,8.57,20.32c0.02,0.08,0.05,0.17,0.07,0.25
		c4.03,15.63-2.36,32.04-5.54,47.87c-1.67,8.3-8.63,16.13-15.55,16.58c-0.42,0.03-0.81,0.03-1.2,0c-1.76-0.13-3.24-0.82-4.49-1.91"
		/>
	<path class="st2" d="M2.64,563.97c-0.83-7.7,2.07-14.61,9.66-18.64c1.76-0.93,5.11-2.69,7.54-3.85c1.6-0.76,3.61-2.1,5.87-2.12
		c0,0,0,0,0.01,0c1.62-0.01,3.38,0.65,5.22,2.68"/>
	<path class="st2" d="M12.77,625.14L12.77,625.14C12.77,625.15,12.77,625.14,12.77,625.14c-2.95-1.83-5.4-6.87-5.95-12.87
		c-1.4-16.08-2.79-32.15-4.19-48.23c0-0.03-0.01-0.04,0-0.07c-0.68-7.73,2.81-14.28,7.77-14.62c0.27-0.01,0.53-0.01,0.81,0.01
		c2.35,0.17,4.5,1.76,6.09,4.24c1.55,2.41,2.57,5.67,2.72,9.29c0.71,16.12,1.42,32.24,2.13,48.36c0.31,7.78-2.72,14.35-6.74,14.61
		c-0.18,0.01-0.35,0.01-0.53,0C14.16,625.82,13.46,625.57,12.77,625.14"/>
	<path class="st14" d="M133.88,289.67c-4.09-8.71-8.74-25.11,3.73-34.19"/>
	<path class="st14" d="M43.54,322.69c0,0-13.32-16.12-13.31-21.55c0-1.2,0.7-2.34,1.94-3.53c3.36-3.21,10.73-6.84,19.54-13.29
		c2.73-2,5.59-4.26,8.52-6.87c1.53-1.36,2.95-2.73,4.28-4.09c10.65-10.88,15.43-21.53,16.66-24.58c0.01-0.02,0.02-0.04,0.02-0.07
		c0.04-0.11,0.08-0.2,0.12-0.28c0.03-0.09,0.06-0.17,0.09-0.23c0.02-0.07,0.04-0.13,0.06-0.17c0-0.01,0-0.02,0.01-0.03
		c0-0.02,0-0.03,0.01-0.03c0-0.02,0-0.03,0.01-0.04c0-0.01,0-0.01,0-0.01"/>
	<path class="st14" d="M34.32,245.55c0,0-20.9,5.16-6.78,22.87"/>
	<path class="st14" d="M29.24,314.56c-3.52,11.98-2.62,30.35,31.78,53.11c1.08,0.71,2.15,1.42,3.22,2.15
		c13.83,9.23,27.66,18.98,40.08,27.9c17.53,12.6,32.24,23.56,40.14,29.12c13.94,9.8,54.82,31.02,51.1,43.91l-34.31,123.02
		l-9.39,12.77l-0.93,1.26l-0.6,0.82"/>
	<path class="st14" d="M64.67,380.69L47.4,368.96c0,0,15.74,29.77,27.8,47.44c12.05,17.67,23.36,37.12,20.46,43.48
		c0,0-23.9,29.14-37.35,46.09c-13.28,16.72-27.01,35.58-27.37,36.07c0,0.01,0,0.01,0,0.01l-8.45,7.17l-5.17,4.39"/>
	<path class="st14" d="M143.84,253.6c0,0,0.61,1.9,1.61,5.06c0,0.01,0,0.01,0,0.01c4.57,14.41,17.39,54.88,18.63,59.35
		c1.51,5.45,6.52,26.46,26.59,15.49"/>
</g>
</svg>
