<?xml version="1.0" encoding="utf-8"?>
<!-- Generator: Adobe Illustrator 23.0.1, SVG Export Plug-In . SVG Version: 6.00 Build 0)  -->
<svg version="1.1" id="Layer_1" xmlns="http://www.w3.org/2000/svg" xmlns:xlink="http://www.w3.org/1999/xlink" x="0px" y="0px"
	 viewBox="0 0 966.5 300.27" style="enable-background:new 0 0 966.5 300.27;" xml:space="preserve">
<style type="text/css">
	.st0{fill:#B6D5BB;stroke:#667682;stroke-width:5;stroke-miterlimit:10;}
	.st1{fill:none;stroke:#FCFCFC;stroke-width:5;stroke-linecap:round;stroke-linejoin:round;stroke-miterlimit:10;}
	.st2{fill:#97C69F;}
	.st3{fill:#667682;}
	.st4{fill:#CCB9DA;stroke:#667682;stroke-width:5;stroke-linecap:round;stroke-linejoin:round;stroke-miterlimit:10;}
	.st5{fill:#AA95C1;}
	.st6{fill:none;stroke:#667682;stroke-width:5;stroke-linecap:round;stroke-linejoin:round;stroke-miterlimit:10;}
	.st7{fill:#AA95C1;stroke:#667682;stroke-width:5;stroke-linecap:round;stroke-linejoin:round;stroke-miterlimit:10;}
	.st8{fill:#CCB9DA;}
	.st9{fill:#FBC595;stroke:#667682;stroke-width:5;stroke-linecap:round;stroke-linejoin:round;stroke-miterlimit:10;}
	.st10{fill:#EAA97D;}
	.st11{fill:#FFDAA4;}
	.st12{clip-path:url(#SVGID_2_);}
	.st13{fill:#FFFFFF;stroke:#667682;stroke-width:5;stroke-linecap:round;stroke-linejoin:round;stroke-miterlimit:10;}
	.st14{fill:none;stroke:#667682;stroke-width:5;stroke-miterlimit:10;}
</style>
<g>
	<ellipse class="st0" cx="483.25" cy="112.8" rx="157.44" ry="110.3"/>
	<path class="st1" d="M565.21,32.3c35.82,17.93,59.18,47.31,59.18,80.5c0,54.61-63.19,98.88-141.13,98.88
		s-141.13-44.27-141.13-98.88s63.19-98.88,141.13-98.88c16.24,0,31.83,1.92,46.35,5.46"/>
	<ellipse class="st2" cx="483.25" cy="112.8" rx="120.05" ry="84.1"/>
	<ellipse class="st3" cx="483.25" cy="68.34" rx="46.35" ry="39.46"/>
	<path class="st4" d="M935.97,152.68C849.31,118.64,679.08,95.5,483.25,95.5s-366.06,23.14-452.72,57.18H935.97z"/>
	<path class="st4" d="M935.97,152.68C849.31,118.64,679.08,95.5,483.25,95.5s-366.06,23.14-452.72,57.18H935.97z"/>
	<path class="st5" d="M76.25,137.79c-17.08,4.68-32.4,9.65-45.73,14.89h905.45c-13.33-5.24-28.65-10.21-45.73-14.89H76.25z"/>
	<path class="st6" d="M935.97,152.68C849.31,118.64,679.08,95.5,483.25,95.5s-366.06,23.14-452.72,57.18H935.97z"/>
	<path class="st7" d="M964,186.34c-92.03,60.43-272.79,101.52-480.75,101.52S94.53,246.78,2.5,186.34H964z"/>
	<path class="st8" d="M656.12,263.72c-19.7,1.23-39.41,0.68-59.15,0.68c-19.94,0-39.89,0-59.83,0c-22.47,0-44.93,0-67.4,0
		c-21.84,0-43.68,0-65.53,0c-27.09,0-54.2,0.98-81.28-0.02c-27.27-1-54.23-4.98-81.05-9.66c-32.69-5.7-65.14-12.78-97.05-21.7
		c-27.81-7.78-55.25-16.94-81.74-28.23c-13.07-5.57-25.9-11.66-38.33-18.45H2.5c65.28,42.87,175.21,75.99,307.82,91.63v-0.27h345.86
		v0.27c132.61-15.64,242.54-48.77,307.82-91.63c0,0-22.26,0-22.26,0c-1.97,0-5.99,3.21-7.79,4.14c-2.79,1.44-5.6,2.85-8.42,4.23
		c-5.86,2.86-11.79,5.59-17.77,8.2c-12.81,5.6-25.87,10.67-39.08,15.33c-29.7,10.47-60.17,18.88-90.96,25.86
		c-16.94,3.84-33.99,7.25-51.12,10.27c-21.44,3.78-43,7.18-64.73,8.94C659.95,263.47,658.04,263.6,656.12,263.72z"/>
	<path class="st6" d="M964,186.34c-92.03,60.43-272.79,101.52-480.75,101.52S94.53,246.78,2.5,186.34H964z"/>
	<path class="st3" d="M933.25,214.18h-900c-16.98,0-30.75-13.77-30.75-30.75v0c0-16.98,13.77-30.75,30.75-30.75h900
		c16.98,0,30.75,13.77,30.75,30.75v0C964,200.41,950.23,214.18,933.25,214.18z"/>
	<path class="st9" d="M649.46,99.79H317.04v-9.22c0-13.43,10.89-24.32,24.32-24.32h283.78c13.43,0,24.32,10.89,24.32,24.32V99.79z"
		/>
	<path class="st10" d="M367.51,66.25h-25.95c-13.43,0-24.32,10.89-24.32,24.32v9.22h25.95v-9.22
		C343.2,77.14,354.08,66.25,367.51,66.25z"/>
	<path class="st11" d="M599.19,66.25h25.95c13.43,0,24.32,10.89,24.32,24.32v9.22h-25.95v-9.22
		C623.51,77.14,612.62,66.25,599.19,66.25z"/>
	<path class="st6" d="M649.46,99.79H317.04v-9.22c0-13.43,10.89-24.32,24.32-24.32h283.78c13.43,0,24.32,10.89,24.32,24.32V99.79z"
		/>
	<path class="st9" d="M740.27,264.24H218.19v9.22c0,13.43,10.89,24.32,24.32,24.32h473.44c13.43,0,24.32-10.89,24.32-24.32V264.24z"
		/>
	<path class="st10" d="M244.48,273.45v-9.22h-26.29v9.22c0,13.43,10.89,24.32,24.32,24.32h26.28
		C255.37,297.77,244.48,286.88,244.48,273.45z"/>
	<path class="st11" d="M707.31,273.45v-9.22h32.96v9.22c0,13.43-13.65,24.32-30.49,24.32h-32.96
		C693.66,297.77,707.31,286.88,707.31,273.45z"/>
	<path class="st6" d="M740.27,264.24H218.19v9.22c0,13.43,10.89,24.32,24.32,24.32h473.44c13.43,0,24.32-10.89,24.32-24.32V264.24z"
		/>
	<g>
		<defs>
			<path id="SVGID_1_" d="M933.25,214.18h-900c-16.98,0-30.75-13.77-30.75-30.75v0c0-16.98,13.77-30.75,30.75-30.75h900
				c16.98,0,30.75,13.77,30.75,30.75v0C964,200.41,950.23,214.18,933.25,214.18z"/>
		</defs>
		<clipPath id="SVGID_2_">
			<use xlink:href="#SVGID_1_"  style="overflow:visible;"/>
		</clipPath>
		<g class="st12">
			<g>
				<polygon class="st13" points="10.72,152.68 43.06,185.68 75.4,152.68 				"/>
				<polygon class="st13" points="75.4,152.68 107.73,185.68 140.07,152.68 				"/>
				<polygon class="st13" points="140.07,152.68 172.41,185.68 204.75,152.68 				"/>
				<polygon class="st13" points="204.75,152.68 237.08,185.68 269.42,152.68 				"/>
				<polygon class="st13" points="269.42,152.68 301.76,185.68 334.1,152.68 				"/>
				<polygon class="st13" points="334.1,152.68 366.43,185.68 398.77,152.68 				"/>
				<polygon class="st13" points="398.77,152.68 431.11,185.68 463.45,152.68 				"/>
				<polygon class="st13" points="463.45,152.68 495.78,185.68 528.12,152.68 				"/>
				<polygon class="st13" points="528.12,152.68 560.46,185.68 592.8,152.68 				"/>
				<polygon class="st13" points="592.8,152.68 625.13,185.68 657.47,152.68 				"/>
				<polygon class="st13" points="657.47,152.68 689.81,185.68 722.15,152.68 				"/>
				<polygon class="st13" points="722.15,152.68 754.48,185.68 786.82,152.68 				"/>
				<polygon class="st13" points="786.82,152.68 819.16,185.68 851.49,152.68 				"/>
				<polygon class="st13" points="851.49,152.68 883.83,185.68 916.17,152.68 				"/>
				<polygon class="st13" points="916.17,152.68 948.51,185.68 980.84,152.68 				"/>
				<polygon class="st13" points="-53.95,152.68 -21.62,185.68 10.72,152.68 				"/>
			</g>
			<g>
				<polygon class="st13" points="876.35,214.18 844.57,181.17 812.79,214.18 				"/>
				<polygon class="st13" points="939.91,214.18 908.13,181.17 876.35,214.18 				"/>
				<polygon class="st13" points="813.25,214.18 781.47,181.17 749.69,214.18 				"/>
				<polygon class="st13" points="749.69,214.18 717.91,181.17 686.13,214.18 				"/>
				<polygon class="st13" points="686.13,214.18 654.35,181.17 622.57,214.18 				"/>
				<polygon class="st13" points="622.57,214.18 590.79,181.17 559.01,214.18 				"/>
				<polygon class="st13" points="559.01,214.18 527.23,181.17 495.45,214.18 				"/>
				<polygon class="st13" points="495.45,214.18 463.67,181.17 431.89,214.18 				"/>
				<polygon class="st13" points="431.89,214.18 400.11,181.17 368.33,214.18 				"/>
				<polygon class="st13" points="368.33,214.18 336.55,181.17 304.77,214.18 				"/>
				<polygon class="st13" points="304.77,214.18 272.99,181.17 241.22,214.18 				"/>
				<polygon class="st13" points="241.22,214.18 209.44,181.17 177.66,214.18 				"/>
				<polygon class="st13" points="177.66,214.18 145.88,181.17 114.1,214.18 				"/>
				<polygon class="st13" points="114.1,214.18 82.32,181.17 50.54,214.18 				"/>
				<polygon class="st13" points="50.54,214.18 18.76,181.17 -13.02,214.18 				"/>
			</g>
		</g>
	</g>
	<path class="st14" d="M933.25,214.18h-900c-16.98,0-30.75-13.77-30.75-30.75v0c0-16.98,13.77-30.75,30.75-30.75h900
		c16.98,0,30.75,13.77,30.75,30.75v0C964,200.41,950.23,214.18,933.25,214.18z"/>
</g>
</svg>
