<?xml version="1.0" encoding="utf-8"?>
<!-- Generator: Adobe Illustrator 23.0.1, SVG Export Plug-In . SVG Version: 6.00 Build 0)  -->
<svg version="1.1" id="Layer_1" xmlns="http://www.w3.org/2000/svg" xmlns:xlink="http://www.w3.org/1999/xlink" x="0px" y="0px"
	 viewBox="0 0 2503.8 306" style="enable-background:new 0 0 2503.8 306;" xml:space="preserve">
<style type="text/css">
	.st0{fill:#CCB9DA;}
</style>
<path class="st0" d="M2489.9,166.9h-249.8c-7.7,0-13.9-6.2-13.9-13.9s6.2-13.9,13.9-13.9h98.2c7.7,0,13.9-6.2,13.9-13.9v0
	c0-7.7-6.2-13.9-13.9-13.9h-334.5c-7.7,0-13.9-6.2-13.9-13.9s6.2-13.9,13.9-13.9h114.8c7.7,0,13.9-6.2,13.9-13.9v0
	c0-7.7-6.2-13.9-13.9-13.9h-392.9c-7.7,0-13.9-6.2-13.9-13.9s6.2-13.9,13.9-13.9h120c7.7,0,13.9-6.2,13.9-13.9v0
	c0-7.7-6.2-13.9-13.9-13.9h-587.4h-12.6H806c-7.7,0-13.9,6.2-13.9,13.9s6.2,13.9,13.9,13.9h149.9c7.7,0,13.9,6.2,13.9,13.9v0
	c0,7.7-6.2,13.9-13.9,13.9H291.5c-7.7,0-13.9,6.2-13.9,13.9v0c0,7.7,6.2,13.9,13.9,13.9h306.9c7.7,0,13.9,6.2,13.9,13.9
	s-6.2,13.9-13.9,13.9H13.9c-7.7,0-13.9,6.2-13.9,13.9v0c0,7.7,6.2,13.9,13.9,13.9h249.8c7.7,0,13.9,6.2,13.9,13.9
	s-6.2,13.9-13.9,13.9h-98.2c-7.7,0-13.9,6.2-13.9,13.9v0c0,7.7,6.2,13.9,13.9,13.9H500c7.7,0,13.9,6.2,13.9,13.9
	s-6.2,13.9-13.9,13.9H385.2c-7.7,0-13.9,6.2-13.9,13.9v0c0,7.7,6.2,13.9,13.9,13.9h392.9c7.7,0,13.9,6.2,13.9,13.9
	s-6.2,13.9-13.9,13.9h-120c-7.7,0-13.9,6.2-13.9,13.9v0c0,7.7,6.2,13.9,13.9,13.9h587.4h12.6h439.6c7.7,0,13.9-6.2,13.9-13.9
	s-6.2-13.9-13.9-13.9H1548c-7.7,0-13.9-6.2-13.9-13.9v0c0-7.7,6.2-13.9,13.9-13.9h664.3c7.7,0,13.9-6.2,13.9-13.9v0
	c0-7.7-6.2-13.9-13.9-13.9h-306.9c-7.7,0-13.9-6.2-13.9-13.9s6.2-13.9,13.9-13.9h584.5c7.7,0,13.9-6.2,13.9-13.9v0
	C2503.8,173.2,2497.6,166.9,2489.9,166.9z"/>
</svg>
