<?xml version="1.0" encoding="utf-8"?>
<!-- Generator: Adobe Illustrator 23.0.1, SVG Export Plug-In . SVG Version: 6.00 Build 0)  -->
<svg version="1.1" id="Layer_1" xmlns="http://www.w3.org/2000/svg" xmlns:xlink="http://www.w3.org/1999/xlink" x="0px" y="0px"
	 viewBox="0 0 309.2 864.1" style="enable-background:new 0 0 309.2 864.1;" xml:space="preserve">
<style type="text/css">
	.st0{fill:#E2AF86;}
	.st1{fill:#ABB3B7;}
	.st2{fill:#FDF3F5;}
	.st3{fill:#C3CED4;}
	.st4{fill:#EFDFE4;}
	.st5{fill:#939393;}
	.st6{fill:#8FCFF1;}
	.st7{fill:#C1DFF4;}
	.st8{fill:#A0CDAA;}
	.st9{fill:#F1F6FB;}
	.st10{fill:#FBC595;}
	.st11{fill:#B6D5BB;}
	.st12{fill:#FFFFFF;}
	.st13{fill:none;stroke:#667682;stroke-width:5;stroke-linecap:round;stroke-linejoin:round;stroke-miterlimit:10;}
	.st14{fill:none;stroke:#667682;stroke-width:5;stroke-miterlimit:10;}
	.st15{fill:none;stroke:#667682;stroke-width:5;stroke-linejoin:round;stroke-miterlimit:10;}
	.st16{fill:none;}
	.st17{fill:none;stroke:#FFFFFF;stroke-width:7;stroke-linecap:round;stroke-linejoin:round;stroke-miterlimit:10;}
</style>
<ellipse id="DESIGN_SHADOW" class="st0" cx="189.9" cy="847.9" rx="117.6" ry="16.2"/>
<g>
	<g>
		<path class="st1" d="M306.7,795.7l0,0.4c0,9.1-11.8,12.2-20.9,12.2h-0.7c8.2-1,16.4-5.3,13.9-11.1c-1.9-4.5-7.1-9.3-23.5-13.2
			c1.9-1.8,3.4-3.9,4.4-6.2c2.5,0.8,5.2,1.9,7.8,3c0.3,0.1,0.5,0.2,0.8,0.4c1.3,0.6,2.7,1.2,4,1.9c0.4,0.2,0.7,0.4,1.1,0.6
			c0.4,0.2,0.8,0.4,1.2,0.6c0.7,0.4,1.3,0.8,2,1.1c0.3,0.2,0.6,0.4,0.9,0.5c0,0,0.1,0,0.1,0.1l1,0.6c0.2,0.1,0.3,0.2,0.5,0.3
			l6.5,6.1c0.1,0.2,0.2,0.3,0.3,0.5c0.1,0.1,0.2,0.3,0.2,0.4c0,0.1,0.1,0.2,0.1,0.3c0,0.1,0.1,0.2,0.1,0.3l0.2,1
			C306.7,795.6,306.7,795.7,306.7,795.7z"/>
		<path class="st2" d="M306.7,795.7c0-0.1,0-0.1,0-0.2C306.7,795.6,306.7,795.7,306.7,795.7z"/>
		<path class="st2" d="M306.5,794.5c0-0.1-0.1-0.2-0.1-0.3C306.4,794.3,306.4,794.4,306.5,794.5z"/>
		<path class="st3" d="M306.2,793.9c-0.1-0.2-0.1-0.3-0.2-0.4C306.1,793.6,306.1,793.7,306.2,793.9z"/>
		<path class="st3" d="M306,793.5c-0.1-0.2-0.2-0.3-0.3-0.5C305.8,793.2,305.9,793.3,306,793.5z"/>
		<path class="st3" d="M299,797.1c2.5,5.8-5.7,10-13.9,11.1h-32.3c-9.1,0-16.5-7.4-16.5-16.5c0-1,0.1-1.9,0.2-2.8
			c0-0.2,0.1-0.4,0.1-0.5c0.1-0.5,0.2-1.1,0.4-1.6c0.2-0.5,0.3-1,0.5-1.5c0,0,0,0,0-0.1c4.6,3.7,11.1,6,18.2,6
			c8,0,15.1-2.8,19.7-7.2C291.9,787.8,297.1,792.6,299,797.1z"/>
		<path class="st2" d="M299.2,786.9c-0.2-0.1-0.3-0.2-0.5-0.3C298.9,786.7,299,786.8,299.2,786.9z"/>
		<path class="st2" d="M297.7,785.9c-0.3-0.2-0.6-0.4-0.9-0.5C297.1,785.5,297.4,785.7,297.7,785.9z"/>
		<path class="st2" d="M296.8,785.3c-0.6-0.4-1.3-0.8-2-1.1C295.5,784.6,296.1,784.9,296.8,785.3z"/>
		<path class="st2" d="M293.6,783.6c-0.4-0.2-0.7-0.4-1.1-0.6C292.9,783.2,293.2,783.4,293.6,783.6z"/>
		<path class="st3" d="M288.5,781.1c-0.3-0.1-0.5-0.2-0.8-0.4C288,780.8,288.2,781,288.5,781.1z"/>
		<path class="st4" d="M279.9,777.7c-0.9,2.3-2.4,4.4-4.4,6.2c-0.7-0.2-1.5-0.3-2.2-0.5c-11.3-2.5-12.7-4.9-12.2-6.4l5.7-1.9h1.4
			C270.9,775.2,275.1,776.1,279.9,777.7z"/>
		<path class="st5" d="M275.5,277.6c1.2,1.5-7.6,10.8-21.2,22.9c-7.3,0.1-13.9,2-19.1,4.3C256.1,287.8,273.9,275.7,275.5,277.6z"/>
		<path class="st2" d="M273.3,783.4c0.8,0.2,1.5,0.3,2.2,0.5c-4.6,4.4-11.7,7.2-19.7,7.2c-7.2,0-13.6-2.3-18.2-6
			c0.3-0.7,0.6-1.3,1-2l0.3,1.1l22.3-7.3C260.6,778.5,262,780.9,273.3,783.4z"/>
		<path class="st6" d="M194.6,397l73.7,377.7l-1.4,0.5h-4.4c-2-9.7-36.7-175.4-43-210.4c-6.5-36-23.6-119.9-25.4-134.7
			c-1.8-14.8-4.1-20.4-4.1-20.4l-5.6,2.5C189.4,408.4,193.3,403.4,194.6,397z"/>
		<path class="st7" d="M266.9,775.2l-5.7,1.9c0.3-0.9,1.4-1.4,1.4-1.4s0-0.2-0.1-0.4H266.9z"/>
		<path class="st8" d="M194.9,390.3c0,0-3.2-25.4-6.7-53.3c-1.8-14.1-3.7-28.9-5.3-41.3c-0.2-2-0.5-3.9-0.7-5.7
			c-1.6-12.8-2.9-22.1-3.1-24c-0.8-5.1-2.6-10-5.2-14.4c-1.2-0.9-2.5-1.6-3.8-2.2c-3.5,0.5-7,0.9-10.6,1.2c-1.2,0.1-2.5,0.2-3.7,0.2
			c-0.5,0.3-1.1,0.7-1.5,1.1c0.1-0.4,0.2-0.7,0.3-1.1c-1.2,0-2.4,0.1-3.6,0.1c-6.4,0-12.7-0.5-18.8-1.4c-2-0.3-4-0.7-6-1.1
			c-5.8-1.2-11.4-2.7-16.9-4.7c-0.8-0.3-1.6-0.6-2.4-0.9c0,0,0,0,0,0l-0.7,0.4c-0.3-0.3-0.7-0.7-1-1.1l63,177.2l16.2-7.2
			c5.1-3.8,9-8.8,10.3-15.2c0,0,0,0,0,0C195,394.9,195.1,392.7,194.9,390.3z"/>
		<path class="st3" d="M238.6,38.8c22.5,22.5,36.4,53.6,36.4,87.9c0,47.9-27.2,89.5-66.9,110.2c-3.1,1.6-6.2,3.1-9.4,4.4
			c1.8-2.1,3.5-5.4,1.6-9.3c-3.3-6.8-12.7-7.1-12.7-7.1s8.3-3.4,5.5-8.3c9.2-5.4,17.8-12.1,25.7-20
			C261.6,153.9,268.2,88.6,238.6,38.8z"/>
		<path class="st2" d="M258.6,300.1c19,3.8,17.7,28.3,5.4,35.4c-2.2,1-3.6,0.3-4.9,0.3l-2.2-0.6l-1.8-13.6c-3.4,1.4-5.4,0.8-9.5,3.5
			c-0.2-0.5-0.4-0.9-0.6-1.4l7.5-8.7c0,0-3.8,0.9-7.4,2.2l5.3-6.9l11.7-9c-2-0.4-4-0.6-5.9-0.6C257.1,300.4,257.8,300.2,258.6,300.1
			z"/>
		<path class="st4" d="M264,335.4l-13.4,55.3c-1.1,3.8-3.5,6.9-6.5,8.9c-0.4,0.3-0.8,0.5-1.2,0.8c-2.9,1.7-6.2,2.3-9.3,2l0-0.1
			c15.9-8.9,13.6-36.6,18.9-54.3c3.1-10.5,4.7-12.1,6.6-12.2C260.4,335.7,261.8,336.4,264,335.4z"/>
		<path class="st7" d="M262.4,775.2c0.1,0.3,0.1,0.4,0.1,0.4s-1,0.5-1.4,1.4l-22.3,7.3l-0.3-1.1c0.7-1.2,1.6-2.3,2.5-3.2
			c3-3,7.1-4.9,11.7-4.9H262.4z"/>
		<path class="st7" d="M262.4,775.2h-9.6c-4.5,0-8.7,1.9-11.7,4.9c-1,1-1.8,2.1-2.5,3.2l-97.3-338.5c0,0-9.8,6.1-12.2,31.5
			c-2.4,25.4-0.6,78.5-2.4,114c-1.8,35.4-5.9,105.7-7.7,183.7c0,0.5,0,1,0.1,1.5h-19c-1.5,0-3.1,0.6-4.8,1.7l-16.2-379
			c1.2-0.2,2.6-0.5,4-1c6,14.4,28.7,23.4,41.5,23.7l28.9,0.8c8.9,0.2,21.7-2.6,30.8-9.3l5.6-2.5c0,0,2.4,5.6,4.1,20.4
			c1.8,14.8,18.9,98.6,25.4,134.7C225.7,599.7,260.4,765.5,262.4,775.2z"/>
		<path class="st2" d="M262.2,301.2l-11.7,9l1.9-2.5c-1.9,0-4.7,0.3-7.6,1c3-2.5,5.8-5,8.5-7.3c0.9-0.3,1.9-0.6,3-0.8
			C258.3,300.6,260.2,300.8,262.2,301.2z"/>
		<path class="st2" d="M256.9,335.2l2.2,0.6c-1.9,0.1-3.5,1.8-6.6,12.2c-5.3,17.7-3,45.5-18.9,54.3l0,0.1c-4.9-0.5-9.5-3.2-12.1-7.8
			l-33-57.1l0.3-0.2c4.1-19.5,11.2-37.2,11.2-37.2l0.1-0.1l11.9,24.9c-9.7,9.1-15.6,15.7-14.6,16.9c1,1.2,7.9-2.8,17.9-10l16,33.5
			l10.9-27.3c3.2-1.8,6.3-4.5,6.3-4.5S252.8,336.3,256.9,335.2z"/>
		<path class="st2" d="M255.1,321.6l1.8,13.6c-4.1,1.2-8.5-1.5-8.5-1.5s-3.1,2.7-6.3,4.5l4.4-11.1c-0.3-0.6-0.6-1.3-0.9-2
			C249.7,322.4,251.7,322.9,255.1,321.6z"/>
		<path class="st2" d="M254.3,300.5c0.7,0,1.4,0,2,0c-1.1,0.3-2.1,0.5-3,0.8C253.6,301.1,254,300.8,254.3,300.5z"/>
		<path class="st2" d="M254.3,300.5c-0.3,0.3-0.6,0.6-1,0.9c-5.6,1.8-8.5,4.6-9.8,7.6c-4.3,1.1-8.6,2.9-10.1,5.3
			c-1.2,1.9-3.4,4.9-5.3,7.9c-4.2,3.3-8.2,6.3-11.8,8.9c-0.1-3.5,3.3-10.8,7.2-16.6c3.2-2.7,6.5-5.5,10-8.4c0.6-0.5,1.2-0.9,1.7-1.4
			C240.4,302.5,247,300.6,254.3,300.5z"/>
		<path class="st2" d="M252.6,314.9l-7.5,8.7c-0.6-1.3-1.1-2.8-1.6-4.3l1.7-2.3C248.8,315.9,252.6,314.9,252.6,314.9z"/>
		<path class="st2" d="M252.4,307.7l-1.9,2.5l-7.7,5.9c-0.3-2-0.3-4,0.3-5.9c0.6-0.5,1.2-1,1.8-1.5
			C247.8,308.1,250.6,307.7,252.4,307.7z"/>
		<path class="st2" d="M242.8,316.2l7.7-5.9l-5.3,6.9c-0.7,0.2-1.5,0.5-2.1,0.8C243,317.3,242.9,316.8,242.8,316.2z"/>
		<path class="st2" d="M246.6,327l-4.4,11.1c-2.4,1.3-4.7,2.1-5.8,0.8c-1.2-1.5-1.7-2.5-1.4-3.6l3.9-4.5c0.8-0.7,1.7-1.6,2.8-2.5
			c1.6-1.5,3-2.5,4.1-3.3C246,325.8,246.3,326.4,246.6,327z"/>
		<path class="st2" d="M245.3,317.1l-1.7,2.3c-0.2-0.5-0.3-1-0.4-1.5C243.8,317.6,244.5,317.4,245.3,317.1z"/>
		<path class="st2" d="M245.1,323.6l-6.3,7.2c-2.3,2.1-3.6,3.4-3.9,4.5l-1,1.2c0,0-2,0.4-3.1-0.9c0.3,0,0.4-0.1,0.4-0.1l12.3-16.1
			C244,320.9,244.5,322.3,245.1,323.6z"/>
		<path class="st2" d="M253.3,301.4c-2.7,2.4-5.5,4.8-8.5,7.3c-0.5,0.1-0.9,0.2-1.3,0.3C244.8,306,247.7,303.2,253.3,301.4z"/>
		<path class="st2" d="M243.5,319.4l-12.3,16.1c0,0-0.2,0-0.4,0.1c-0.4-0.5-0.7-1.2-0.8-2.3c-0.2-4,7.1-11.6,10-13.8
			c0.7-0.5,1.8-1.1,3.1-1.6C243.3,318.4,243.4,318.9,243.5,319.4z"/>
		<path class="st2" d="M243.5,309c0.5-0.1,0.9-0.2,1.3-0.3c-0.6,0.5-1.2,1-1.8,1.5C243.2,309.8,243.3,309.4,243.5,309z"/>
		<path class="st2" d="M243.5,309c-0.2,0.4-0.3,0.8-0.4,1.2c-1.2,1-2.5,2.1-3.7,3.1c-3.9,3.2-7.7,6.2-11.3,9c1.9-3.1,4.1-6,5.3-7.9
			C234.9,312,239.2,310.2,243.5,309z"/>
		<path class="st2" d="M242.8,316.2c0.1,0.6,0.2,1.2,0.3,1.8c-1.3,0.5-2.3,1.1-3.1,1.6c-3,2.2-10.2,9.8-10,13.8
			c0,1.1,0.3,1.8,0.8,2.3c-1.3,0.2-5.3,0.6-6.4-3c-0.1-0.3-0.1-0.5-0.2-0.8c0,0,0,0,0,0c0.8-0.8,1.5-1.8,2-2.9L242.8,316.2z"/>
		<path class="st2" d="M242.8,316.2l-16.5,12.7c-0.5,1.1-1.2,2.1-2,2.9c-0.2-2.4,1.7-6,3.8-9.5c3.6-2.8,7.4-5.8,11.3-9
			c1.3-1,2.5-2.1,3.7-3.1C242.5,312.1,242.5,314.2,242.8,316.2z"/>
		<path class="st9" d="M238.6,38.8c29.6,49.8,23,115.1-19.8,157.9c-7.9,7.9-16.5,14.5-25.7,20c-0.1-0.1-0.2-0.3-0.3-0.4
			c-3.5-5.1-9.5-4.7-9.5-4.7s3.2-5-0.5-10c-3.7-5-16.9-6.4-16.9-6.4l-18.7,15.5c-2.7,8.8-9.8,13.6-6.2,20.6l-12.6-0.2
			c-0.4,0-0.9,0-1.3,0c-1.5-2.4-3.2-5-4.3-8.2l-19.3-14.8c0,0-13.1,1.9-16.7,7s-0.1,10-0.1,10s-2.5-0.1-5.2,1.3
			c-3.6-1.3-7.1-2.8-10.6-4.5c-27.1-22.8-44.4-57-44.4-95.2C26.6,58.1,82.2,2.5,150.8,2.5C185.1,2.5,216.1,16.4,238.6,38.8z
			 M157.3,29.8c0-2.9-2.4-5.3-5.3-5.3c-14,0-27.6,2.8-40.4,8.2c-10.6,4.6-20.4,10.9-29,18.7c-2.2,2-2.3,5.3-0.3,7.5
			c1,1.2,2.5,1.7,3.9,1.7c1.3,0,2.6-0.5,3.6-1.4c7.7-7.1,16.4-12.7,26-16.8c11.5-4.9,23.7-7.4,36.2-7.4
			C154.9,35.1,157.3,32.7,157.3,29.8z M63.4,101.7c0.8-2.8-0.8-5.8-3.6-6.6C57,94.3,54,96,53.2,98.8c-2.6,9.2-4,18.8-4,28.4
			c0,2.9,2.4,5.3,5.3,5.3s5.3-2.4,5.3-5.3C59.8,118.6,61,110,63.4,101.7z"/>
		<path class="st2" d="M238.8,330.9l-3.9,4.5C235.2,334.2,236.5,333,238.8,330.9z"/>
		<path class="st3" d="M237.6,785.2C237.6,785.2,237.6,785.3,237.6,785.2C237.5,785.3,237.6,785.2,237.6,785.2L237.6,785.2z"/>
		<path class="st3" d="M237,786.7c0.2-0.5,0.3-1,0.5-1.5C237.3,785.7,237.2,786.2,237,786.7z"/>
		<path class="st2" d="M236.6,788.3c0,0.2-0.1,0.4-0.1,0.5C236.5,788.7,236.5,788.5,236.6,788.3z"/>
		<path class="st2" d="M235.2,304.8c-0.6,0.5-1.2,0.9-1.7,1.4c-3.5,2.9-6.8,5.7-10,8.4c2.3-3.4,4.8-6.2,7-7.5
			C231.9,306.4,233.5,305.6,235.2,304.8z"/>
		<path class="st2" d="M228.1,322.3c-2.2,3.4-4,7-3.8,9.5c0,0,0,0,0,0c-2.3,2.4-5.5,3.4-7.5,0.9c-0.3-0.4-0.4-0.9-0.4-1.6
			C219.9,328.6,223.9,325.6,228.1,322.3z"/>
		<path class="st5" d="M223.5,314.6c-3.9,5.8-7.3,13.1-7.2,16.6c-0.4,0.3-0.7,0.5-1.1,0.8l-3.3-6.9
			C215.4,321.8,219.3,318.3,223.5,314.6z"/>
		<path class="st5" d="M211.9,325l3.3,6.9c-10,7.1-16.9,11.1-17.9,10C196.4,340.7,202.2,334.1,211.9,325z"/>
		<path class="st10" d="M201.9,276.4c0.4,0.9,5.7,12.5-1.5,14.7c-1.7,0.5-3.3,0.4-4.7-0.1l-3.1-6.4l-14.9-28.4c-1-1.8-2.4-3.3-4-4.5
			c-0.5-0.9-1-1.7-1.6-2.6c5-0.9,9.9-2,14.7-3.5c0.2-0.1,0.5-0.1,0.7-0.2c2.3-0.7,4.6-1.5,6.9-2.4c0.5-0.2,1-0.4,1.5-0.6
			c0.9-0.3,1.8-0.7,2.7-1.1c-1.2,1.4-2.4,2.2-2.6,2.3c0.4-0.1,6.5-1.6,11.5,5.4c5.1,7.2-4.3,12.5-4.3,12.5s10.8,5.9,5.5,12.1
			C203.8,279.5,202.1,276.8,201.9,276.4z"/>
		<path class="st3" d="M200.3,232.1c1.9,3.9,0.2,7.2-1.6,9.3c-0.9,0.4-1.8,0.7-2.7,1.1c-0.5,0.2-1,0.4-1.5,0.6
			c-2.3,0.9-5,1.8-7.4,2.5l-0.3,0.1c-4.8,1.4-9.7,2.6-14.7,3.5c-5.4-8-13.3-14.2-21.4-16.6c0.7-0.1,1.4-0.3,2.2-0.4
			c13.9-2.8,27.5-7.9,40.1-15.4c2.8,4.9-5.5,8.3-5.5,8.3S197,225.3,200.3,232.1z"/>
		<path class="st4" d="M195.7,291l4.3,9.1l-0.1,0.1c0,0-7.1,17.7-11.2,37.2l-0.3,0.2l-0.3-0.4c-1.8-14.1-3.7-28.9-5.3-41.3
			c3.2-1.3,4.4-5.4,4.9-8.6l2.1-1.1C191.2,287.9,193.2,290.1,195.7,291z"/>
		<path class="st2" d="M192.7,284.6l3.1,6.4c-2.6-0.9-4.6-3.1-5.9-5L192.7,284.6z"/>
		<path class="st9" d="M192.8,216.3c0.1,0.1,0.2,0.3,0.3,0.4c-12.6,7.4-26.1,12.6-40.1,15.4c-0.7,0.2-1.4,0.3-2.2,0.4
			c-2.2-0.7-4.5-1.1-6.7-1.1l-3.1,0c-3.6-7,3.5-11.8,6.2-20.6l18.7-15.5c0,0,13.2,1.5,16.9,6.4c3.7,5,0.5,10,0.5,10
			S189.3,211.1,192.8,216.3z"/>
		<path class="st8" d="M177.8,256.2l14.9,28.4l-2.8,1.5c-1.2-1.6-1.8-3-1.8-3s0.1,1.8-0.3,4.1l-5.6,2.9c-1.6-12.8-2.9-22.1-3.1-24
			c-0.8-5.1-2.6-10-5.2-14.4C175.4,252.9,176.8,254.4,177.8,256.2z"/>
		<path class="st3" d="M187.2,245.5c2.3-0.7,5.1-1.7,7.4-2.5c-2.3,0.9-4.6,1.6-6.9,2.4c-0.2,0.1-0.5,0.2-0.7,0.2L187.2,245.5z"/>
		<path class="st11" d="M189.9,286l-2.1,1.1c0.3-2.3,0.3-4.1,0.3-4.1S188.7,284.4,189.9,286z"/>
		<path class="st4" d="M182.2,290.1l5.6-2.9c-0.4,3.2-1.7,7.3-4.9,8.6C182.7,293.8,182.4,291.9,182.2,290.1z"/>
		<path class="st11" d="M172.2,249.1c0.6,0.8,1.1,1.7,1.6,2.6c-1.2-0.9-2.5-1.6-3.8-2.2C170.7,249.4,171.5,249.2,172.2,249.1z"/>
		<path class="st3" d="M172.2,249.1c-0.7,0.1-1.5,0.3-2.2,0.4c-4.3-1.7-9.4-1.5-13.7,1c-0.2,0.1-0.4,0.3-0.7,0.4c-0.4,0-0.8,0-1.2,0
			c0.9-5-3.8-8.4-11-16.3c-0.3-0.3-0.5-0.6-0.8-0.9c2.7-0.3,5.5-0.7,8.2-1.2C158.9,234.9,166.8,241.1,172.2,249.1z"/>
		<path class="st3" d="M156.3,250.4c4.3-2.5,9.3-2.7,13.7-1c-3.5,0.5-7,0.9-10.6,1.2c-1.2,0.1-2.5,0.2-3.7,0.2
			C155.9,250.7,156.1,250.6,156.3,250.4z"/>
		<path class="st12" d="M152,24.4c2.9,0,5.3,2.4,5.3,5.3c0,2.9-2.4,5.3-5.3,5.3c-12.6,0-24.8,2.5-36.2,7.4
			c-9.5,4.1-18.3,9.7-26,16.8c-1,0.9-2.3,1.4-3.6,1.4c-1.4,0-2.9-0.6-3.9-1.7c-2-2.2-1.8-5.5,0.3-7.5c8.6-7.9,18.3-14.2,29-18.7
			C124.4,27.2,138,24.4,152,24.4z"/>
		<path class="st11" d="M154.4,250.9c0.4,0,0.8,0,1.2,0c-0.5,0.3-1.1,0.7-1.5,1.1C154.3,251.6,154.4,251.2,154.4,250.9z"/>
		<path class="st3" d="M143.4,234.6c7.2,7.8,11.9,11.3,11,16.3c-1.2,0-2.4,0.1-3.6,0.1c-6.4,0-12.7-0.5-18.8-1.4c-2-0.3-4-0.7-6-1.1
			c0.5-0.5,1-1.1,1.5-1.7c4.1-4.8,3.6-8.4,1.7-12.1c4.5-0.1,9-0.4,13.5-0.9C142.9,234,143.1,234.3,143.4,234.6z"/>
		<path class="st9" d="M144.1,231.4c2.2,0.1,4.5,0.5,6.7,1.1c-2.7,0.5-5.5,0.9-8.2,1.2c-0.7-0.8-1.2-1.6-1.6-2.4L144.1,231.4z"/>
		<path class="st3" d="M142.2,799.4c0-0.3,0-0.5,0-0.8C142.1,798.8,142.2,799.1,142.2,799.4z"/>
		<path class="st1" d="M142.1,798.6c0,0.3,0,0.5,0,0.8c0,9.1-6.4,9-14.3,9h-10.5v-0.6c0,0,13.9-0.8,14.6-8.4
			c0.6-7-2.2-10.7-5.3-13.8l0.1-3.4c1.6-0.9,2.9-2,4-3.2c0.2,0.1,0.3,0.3,0.5,0.4c0.4,0.4,0.8,0.7,1.2,1.1c0.2,0.2,0.4,0.4,0.5,0.5
			c2,2,3.8,4.5,5.3,7c0.1,0.2,0.3,0.5,0.4,0.7c0.1,0.2,0.3,0.5,0.4,0.7c0.1,0.2,0.2,0.5,0.4,0.7l0.9,1.9c0.1,0.2,0.2,0.4,0.3,0.6
			l0.1,0.3c0.1,0.3,0.2,0.6,0.3,0.8l0.2,0.6c0.1,0.2,0.1,0.4,0.2,0.5l0.2,0.9c0.1,0.3,0.1,0.5,0.2,0.8l0,0.2
			c0.1,0.3,0.1,0.5,0.1,0.8l0,0.1c0,0.3,0.1,0.5,0.1,0.8L142.1,798.6z"/>
		<path class="st3" d="M142.1,798.4c0-0.3,0-0.5-0.1-0.8C142.1,797.9,142.1,798.2,142.1,798.4z"/>
		<path class="st3" d="M142,797.5c0-0.3-0.1-0.5-0.1-0.8C141.9,797,142,797.3,142,797.5z"/>
		<path class="st3" d="M141.8,796.6c0-0.2-0.1-0.5-0.2-0.8C141.7,796.1,141.8,796.3,141.8,796.6z"/>
		<path class="st2" d="M141.4,794.9c-0.1-0.2-0.1-0.4-0.2-0.5C141.3,794.6,141.4,794.7,141.4,794.9z"/>
		<path class="st6" d="M141.2,444.7l-14.2,331.7c-1.4-0.7-2.8-1.1-4-1.1h-3.9c-0.1-0.5-0.1-1-0.1-1.5c1.8-78,5.9-148.2,7.7-183.7
			c1.8-35.4,0-88.6,2.4-114C131.4,450.8,141.2,444.7,141.2,444.7z"/>
		<path class="st9" d="M141,231.3c0.4,0.8,0.9,1.6,1.6,2.4c-4.5,0.5-9,0.8-13.5,0.9c-0.6-1.1-1.3-2.3-2-3.5c0.4,0,0.9,0,1.3,0
			L141,231.3z"/>
		<path class="st3" d="M141.1,793.8c-0.1-0.3-0.2-0.6-0.3-0.8C140.9,793.2,141,793.5,141.1,793.8z"/>
		<path class="st3" d="M140.6,792.6c-0.1-0.2-0.2-0.4-0.3-0.6C140.4,792.2,140.5,792.4,140.6,792.6z"/>
		<path class="st2" d="M139.5,790.1c-0.1-0.2-0.2-0.5-0.4-0.7C139.2,789.6,139.4,789.9,139.5,790.1z"/>
		<path class="st2" d="M139.1,789.4c-0.1-0.2-0.2-0.5-0.4-0.7c-0.1-0.2-0.3-0.5-0.4-0.7C138.6,788.5,138.9,788.9,139.1,789.4z"/>
		<path class="st2" d="M133,781c-0.2-0.2-0.4-0.4-0.5-0.5C132.7,780.7,132.9,780.8,133,781z"/>
		<path class="st3" d="M126.7,785.6c3.2,3.1,6,6.8,5.3,13.8c-0.7,7.6-14.6,8.4-14.6,8.4v0.6H94.9c-2.3,0-4.4,0.2-6.4,0.2
			c-4.7,0-7.9-0.9-7.9-7.4c0-0.3,0-0.5,0-0.8c0,0,0-0.1,0-0.1c0-0.3,0-0.6,0.1-0.9c0,0,0-0.1,0-0.1c0-0.3,0.1-0.5,0.1-0.8
			c0.2-0.9,0.4-1.8,0.7-2.7c0-0.2,0.1-0.3,0.2-0.5c0.2-0.5,0.4-1,0.6-1.6c0.1-0.2,0.2-0.4,0.3-0.6c0.2-0.5,0.5-1.1,0.8-1.6
			c0.1-0.2,0.2-0.5,0.4-0.7c0.4-0.8,0.8-1.5,1.2-2.2c0.1-0.2,0.3-0.5,0.4-0.7c0.3-0.5,0.6-1,0.9-1.4c0.5-0.7,0.9-1.3,1.4-2
			c0,0,0.1-0.1,0.1-0.1c0.3-0.4,0.6-0.8,0.9-1.2c0.1-0.1,0.1-0.2,0.2-0.2c0.2-0.2,0.3-0.4,0.5-0.5c0.2-0.2,0.4-0.4,0.5-0.6
			c0.2-0.2,0.3-0.3,0.5-0.5c0.2-0.2,0.4-0.5,0.6-0.7c0.2-0.2,0.4-0.4,0.6-0.6c0.2-0.2,0.4-0.4,0.6-0.5c0.9,0.9,2,1.8,3.3,2.6
			l0.4,9.5h30.5L126.7,785.6z"/>
		<path class="st2" d="M131.3,779.4c-0.2-0.1-0.3-0.3-0.5-0.4c-1.1,1.2-2.5,2.3-4,3.2l0.2-5.8C128.5,777.1,129.9,778.1,131.3,779.4z
			"/>
		<path class="st3" d="M129.1,234.6c1.9,3.7,2.5,7.3-1.7,12.1c-0.5,0.6-1,1.2-1.5,1.7c-5.8-1.2-11.4-2.7-16.9-4.7
			c-0.8-0.3-1.6-0.6-2.4-0.9l4.4-2.7c1.6-2.4,3.5-4.4,5.8-6c1.8,0.2,3.6,0.3,5.5,0.3c1.4,0.1,2.9,0.1,4.3,0.1
			C127.6,234.7,128.3,234.7,129.1,234.6z"/>
		<path class="st9" d="M129.1,234.6c-0.8,0-1.6,0-2.4,0c-1.4,0-2.9,0-4.3-0.1c-1.8-0.1-3.6-0.2-5.5-0.3c2.8-1.9,6.2-3,10.1-3.1
			C127.8,232.4,128.5,233.5,129.1,234.6z"/>
		<path class="st4" d="M127.1,776.4l-0.2,5.8c-0.8,0.5-1.6,0.9-2.4,1.2c-2.5-2.3-4.7-4.6-5.3-8.1h3.9
			C124.3,775.3,125.7,775.7,127.1,776.4z"/>
		<path class="st3" d="M126.8,782.2l-0.1,3.4c-0.7-0.7-1.5-1.4-2.3-2.1C125.3,783,126.1,782.6,126.8,782.2z"/>
		<path class="st3" d="M126.7,785.6l-0.2,5.8H95.9l-0.4-9.5c4.1,2.6,9.7,4.2,15.9,4.2c4.9,0,9.4-1,13-2.6
			C125.2,784.1,125.9,784.8,126.7,785.6z"/>
		<path class="st2" d="M124.6,362.1c1.6,3.7-0.9,6.2-0.9,6.2l-3.2,0.3c-1.5-0.4-3-0.1-5.3,0.4c-1.2-2-2.9-4.3-4.5-6.4l11.6-1.2
			c0,0,0.1-0.2,0.3-0.4C123.7,361.2,124.4,361.6,124.6,362.1z"/>
		<path class="st2" d="M123.7,370.4c3.9,3-3.8,6.3-3.8,6.3s-7.2,1.4-13.1,4.1c-4.6,2.1-9.2,8-15,12.1h-9.9c-0.3-1.5-0.4-3-0.2-4.6
			c12.6-4.8,34.5-12.8,35.1-15.1c0.2-0.8-0.5-2.3-1.6-4.1l5.3-0.4C121.5,368.9,122.5,369.5,123.7,370.4z"/>
		<path class="st2" d="M124.4,783.4c-3.7,1.7-8.2,2.6-13,2.6c-6.2,0-11.8-1.6-15.9-4.2l-0.2-4.9c1.7-1.1,3.3-1.7,4.8-1.7h19
			C119.7,778.8,121.9,781.1,124.4,783.4z"/>
		<path class="st9" d="M122.8,223c1.1,3.2,2.8,5.8,4.3,8.2c-3.9,0.1-7.3,1.2-10.1,3.1c-12.1-0.9-24-3.5-35.5-7.8
			c2.7-1.4,5.2-1.3,5.2-1.3s-3.4-4.9,0.1-10s16.7-7,16.7-7L122.8,223z"/>
		<path class="st2" d="M122.5,355.2c2,2.6,0.8,4.9,0.2,5.8c-2.9-0.5-8.3,0.3-12.3,1.1c-2.1-2.6-3.8-4.6-3.8-4.6l4.4-1.6
			c0,0,0.9-0.4,1.7-1.1C117.3,354.3,121.7,354.3,122.5,355.2z"/>
		<path class="st2" d="M122.6,361c-0.2,0.3-0.3,0.4-0.3,0.4l-11.6,1.2c-0.1-0.2-0.3-0.3-0.4-0.5C114.4,361.3,119.7,360.5,122.6,361z
			"/>
		<path class="st2" d="M120.5,368.6l-5.3,0.4c0,0,0,0,0-0.1C117.5,368.5,119,368.2,120.5,368.6z"/>
		<path class="st2" d="M115.2,369.1c1.1,1.8,1.8,3.3,1.6,4.1c-0.6,2.4-22.5,10.3-35.1,15.1c0-0.3,0.1-0.7,0.1-1.1l0.5-2.4l2.7-2.4
			l-1.8-2.4l1.3-6.9l9.4,3.8c5.6-2.7,12.3-6.1,18.5-7.3c0.9-0.2,1.7-0.3,2.4-0.5L115.2,369.1z"/>
		<path class="st2" d="M115.2,369.1l-0.5,0C114.9,369.1,115,369,115.2,369.1C115.2,369,115.2,369,115.2,369.1z"/>
		<path class="st2" d="M115.2,369c-0.2,0-0.3,0.1-0.5,0.1l-23.7,2c5.2-3.1,10.9-6.8,14.7-7.9c0.1,0,0.2-0.1,0.3-0.1l4.6-0.5
			C112.3,364.7,114,367,115.2,369z"/>
		<path class="st2" d="M91,371.1l23.7-2c-0.7,0.2-1.5,0.3-2.4,0.5c-6.2,1.1-12.9,4.6-18.5,7.3l-9.4-3.8l1.6-8.4l1.8,0.3l18.3-1.9
			c-0.1,0-0.2,0.1-0.3,0.1C101.9,364.3,96.2,368,91,371.1z"/>
		<path class="st2" d="M113.9,350.9c0.6,1.7-0.3,3-1.3,3.8c-4.9,0.5-10.3,1.4-12.6,2.1c-3.1,0.9-8.3,4-12.2,8.2l-1.8-0.3l2-10.6
			c0.5-0.4,1-0.7,1.6-1C94.2,350.4,112.8,347.8,113.9,350.9z"/>
		<path class="st3" d="M117,234.3c-2.3,1.5-4.2,3.5-5.8,6l-4.4,2.7c0,0,0,0,0,0c-0.5-0.2-1-0.4-1.5-0.6c-0.1,0-0.1,0-0.2-0.1
			c-0.6-0.2-1.2-0.5-1.8-0.7c-0.1,0-0.1-0.1-0.2-0.1c-0.4-0.2-0.8-0.3-1-0.4c-0.3-0.1-0.5-0.2-0.5-0.2c0,0,0,0,0,0
			c-7.9-3.4-15.4-7.7-22.4-12.6c0.8-0.8,1.6-1.3,2.5-1.7C93,230.7,104.9,233.3,117,234.3z"/>
		<path class="st2" d="M112.6,354.8c-0.8,0.7-1.7,1.1-1.7,1.1l-4.4,1.6c0,0,1.7,2,3.8,4.6c-1.7,0.3-3.2,0.7-4.2,1L87.8,365
			c3.8-4.2,9.1-7.3,12.2-8.2C102.3,356.1,107.6,355.2,112.6,354.8z"/>
		<path class="st2" d="M110.7,362.6l-4.6,0.5c1-0.3,2.5-0.6,4.2-1C110.4,362.3,110.5,362.5,110.7,362.6z"/>
		<path class="st10" d="M106.8,242.9l-0.7,0.4c-0.3-0.3-0.7-0.7-1-1.1c0.1,0,0.1,0,0.2,0.1C105.8,242.5,106.3,242.7,106.8,242.9z"/>
		<path class="st3" d="M105.3,242.3c0.5,0.2,1,0.4,1.5,0.6C106.3,242.7,105.8,242.5,105.3,242.3z"/>
		<path class="st10" d="M106.1,243.3l-23.6,14.2l-19.8,11.9c-0.5-1.7-0.3-3.7,1.1-5.9c4.8-7.4,9.4-9.5,9.4-9.5s-5.7-0.9-2.7-7.8
			c3-6.9,12.5-7.5,12.5-7.5s-8.9-3.3-5.5-8.6c0.5-0.8,1.1-1.5,1.6-2c7,4.9,14.5,9.2,22.4,12.6c0,0,0,0,0,0c0.2,0.1,0.3,0.1,0.5,0.2
			c0.3,0.1,2,0.9,2.4,1l0.6,0.2C105.4,242.6,105.8,243,106.1,243.3z"/>
		<path class="st10" d="M105.1,242.2l-0.6-0.2c-0.4-0.1-2.1-0.9-2.4-1c-0.2-0.1-0.3-0.1-0.5-0.2c0.1,0,0.3,0.1,0.5,0.2
			c0.2,0.1,0.6,0.2,1,0.4c0.1,0,0.1,0.1,0.2,0.1C103.9,241.8,104.5,242,105.1,242.2z"/>
		<path class="st10" d="M102,280.4l-1,5.5c-1.6,2.1-2.1,4.8-1.4,7.4l-2.9,15.1c-1.2,0.6-2.6,1-4.2,1.1c-8,0.6-8-12.8-8-12.8
			s-4.5,10.6-12.1,8.5c-3-0.8-3.9-3.3-4-5.9l27.7-15.6L102,280.4z"/>
		<path class="st11" d="M185.5,387.9c0.2-5.3-0.3-11.4-2.1-18.3c-6.2-24.3-8.8-37.8-8.9-56.1c0-0.4,0-0.8,0-1.2
			c0-4.7,1.1-10.5,1.4-17.3c0-0.5,0-1.1,0-1.6c0.1-5.5-0.5-11.6-2.7-18.1c-0.2-0.5-0.3-0.9-0.5-1.4c-4-10.9-10-11.2-17.5-10.4
			c-2.1,0.2-4.4,0.5-6.8,0.6c-1.5,0.1-3.1,0.1-4.7,0.1c-8.3-0.4-15.8-2.9-24-8.7c-4.3-3.1-8.9-7.1-13.8-12.2l-23.6,14.2l9.7,18.5
			l4,7.7l5.8-3.3l-1,5.5l-1.4,7.4l-2.9,15.1L88,354.2c0.5-0.4,1-0.7,1.6-1c4.6-2.8,23.2-5.3,24.3-2.2c0.6,1.7-0.3,3-1.3,3.8
			c4.8-0.5,9.2-0.5,9.9,0.4c2,2.6,0.8,4.9,0.2,5.8c1,0.2,1.8,0.6,2,1.2c1.6,3.7-0.9,6.2-0.9,6.2l-3.2,0.3c1,0.3,2,0.8,3.2,1.8
			c3.9,3-3.8,6.3-3.8,6.3s-7.2,1.4-13.1,4.1c-4.6,2.1-9.2,8-15,12.1c-1.7,1.2-3.5,2.3-5.4,3c-1.2,0.4-2.3,0.8-3.3,1.1
			c6,14.4,28.7,23.4,41.5,23.7l28.9,0.8c8.9,0.2,21.7-2.6,30.8-9.3l-16.2,7.2C169.1,418.9,184.5,410.3,185.5,387.9z"/>
		<path class="st4" d="M70.5,290.6c-0.2,0.4-1.2,2.1-4.2,0.1c2.3-1.6,4.7-3.2,7.2-4.7c8.7-5.3,14.5-8.4,18.7-10l4,7.7l-27.7,15.6
			C68.5,295.5,70.3,291.2,70.5,290.6z"/>
		<path class="st2" d="M95.3,777l0.2,4.9c-1.2-0.8-2.3-1.6-3.3-2.6C93.2,778.4,94.3,777.6,95.3,777z"/>
		<path class="st2" d="M82.5,257.5l9.7,18.5c-4.1,1.6-10,4.6-18.7,10c-2.5,1.6-4.9,3.1-7.2,4.7c-0.8-0.5-1.7-1.3-2.8-2.5
			c-5.5-6,5-12.3,5-12.3s-4.7-2.4-5.8-6.4L82.5,257.5z"/>
		<path class="st2" d="M81.9,392.8h9.9c-1.7,1.2-3.5,2.3-5.4,3c-1.2,0.4-2.3,0.8-3.3,1.1C82.6,395.6,82.2,394.3,81.9,392.8z"/>
		<path class="st2" d="M91.7,779.8c-0.2,0.2-0.4,0.4-0.6,0.6C91.3,780.2,91.5,780,91.7,779.8z"/>
		<path class="st2" d="M90.5,781.1c-0.2,0.2-0.3,0.3-0.5,0.5C90.2,781.4,90.3,781.2,90.5,781.1z"/>
		<path class="st2" d="M89.5,782.2c-0.2,0.2-0.3,0.4-0.5,0.5C89.2,782.6,89.3,782.4,89.5,782.2z"/>
		<path class="st2" d="M88.8,783c-0.3,0.4-0.6,0.8-0.9,1.2C88.2,783.8,88.5,783.4,88.8,783z"/>
		<path class="st2" d="M88,354.2l-2,10.6l-1.6,8.4l-9.1-3.7l-0.6-0.7c0.4-0.4,0.6-0.6,0.6-0.6S81.8,358.7,88,354.2z"/>
		<path class="st2" d="M87.4,784.8c0.1-0.2,0.2-0.3,0.4-0.5c-0.5,0.6-0.9,1.3-1.4,2C86.7,785.8,87,785.3,87.4,784.8z"/>
		<path class="st2" d="M85.4,787.7c-0.2,0.2-0.3,0.5-0.4,0.7C85.1,788.2,85.3,788,85.4,787.7z"/>
		<polygon class="st2" points="83.2,379.9 85,382.4 82.2,384.8 		"/>
		<path class="st2" d="M85,788.4c-0.4,0.7-0.9,1.5-1.2,2.2C84.1,789.9,84.5,789.2,85,788.4z"/>
		<polygon class="st2" points="84.5,373.1 83.2,379.9 75.4,369.4 		"/>
		<path class="st2" d="M83.7,790.7c-0.1,0.2-0.2,0.5-0.4,0.7C83.5,791.2,83.6,790.9,83.7,790.7z"/>
		<path class="st2" d="M75.4,369.4l7.8,10.6l-0.9,4.9l-6.5,5.8c-0.2,0.1-0.4,0.2-0.6,0.2c-8.7,3.8-9.3-22.1-5.4-20.9
			c2.1,0.7,3.7-0.1,4.7-0.9L75.4,369.4z"/>
		<path class="st2" d="M82.6,793c-0.1,0.2-0.2,0.4-0.3,0.6C82.4,793.4,82.5,793.2,82.6,793z"/>
		<path class="st2" d="M82.2,384.8l-0.5,2.4c0,0.4-0.1,0.7-0.1,1.1c-2.4,0.9-4.4,1.7-5.9,2.3L82.2,384.8z"/>
		<path class="st2" d="M81.9,392.8c0.2,1.4,0.7,2.8,1.2,4.1c-1.5,0.5-2.8,0.8-4,1l-0.2-5.1H81.9z"/>
		<path class="st2" d="M81.9,392.8h-3.1l0.2,5.1c-3.8,0.6-6.3-0.3-8.7-2.6l5.4-4.8c1.5-0.6,3.5-1.4,5.9-2.3
			C81.6,389.8,81.6,391.4,81.9,392.8z"/>
		<path class="st2" d="M81.8,795.2c-0.1,0.2-0.1,0.3-0.2,0.5C81.7,795.6,81.7,795.4,81.8,795.2z"/>
		<path class="st3" d="M80.9,798.4c-0.1,0.3-0.1,0.6-0.1,0.8C80.8,799,80.8,798.7,80.9,798.4z"/>
		<path class="st3" d="M80.7,799.3c0,0.3-0.1,0.6-0.1,0.9C80.6,799.9,80.7,799.6,80.7,799.3z"/>
		<path class="st3" d="M80.6,800.3c0,0.3,0,0.5,0,0.8C80.6,800.9,80.6,800.6,80.6,800.3z"/>
		<path class="st3" d="M81.6,226.4c-0.8,0.4-1.7,1-2.5,1.7c-2.8-2-5.5-4.1-8.1-6.3C74.4,223.6,78,225.1,81.6,226.4z"/>
		<path class="st2" d="M75.8,390.6l-5.4,4.8c-0.1-0.1-0.2-0.2-0.3-0.3c-2.8-2.9-22.4-24.4-33.3-36.4c-0.7-0.7-1.3-1.4-1.9-2.1
			l-1.1-1.3c-0.7-0.8-1.4-1.5-1.9-2.1l-0.8-0.9l-0.6-0.7c-0.1-0.1-0.2-0.2-0.3-0.3l-0.2-0.2L74.4,369c-0.9,0.8-2.5,1.6-4.7,0.9
			c-3.9-1.2-3.3,24.7,5.4,20.9C75.4,390.8,75.6,390.7,75.8,390.6z"/>
		<path class="st2" d="M75.4,369.4l-1-0.4c0.2-0.1,0.3-0.2,0.4-0.4L75.4,369.4z"/>
		<path class="st2" d="M36.9,317.2l37.9,51.4c-0.1,0.1-0.3,0.2-0.4,0.4l-44.5-17.9h0L6.2,324.8c-2.9-3.4-4-7.6-3.6-11.7
			c0.4-4.7,3-9.2,7.3-11.8l52.8-31.8c1.1,4,5.8,6.4,5.8,6.4s-10.5,6.3-5,12.3c1.1,1.2,2,2,2.8,2.5c-17.7,12.4-27.3,24.8-27.9,25.6
			L36.9,317.2z"/>
		<path class="st2" d="M70.4,395.4l-0.2,0.2l-33.4-36.9c10.9,12,30.5,33.5,33.3,36.4C70.2,395.2,70.3,395.3,70.4,395.4z"/>
		<path class="st4" d="M66.3,290.7c2.9,2,4,0.3,4.2-0.1c-0.2,0.5-2,4.9-2,8.7l-30.1,17C39.1,315.5,48.6,303.1,66.3,290.7z"/>
		<path class="st12" d="M59.8,95.2c2.8,0.8,4.4,3.8,3.6,6.6c-2.4,8.2-3.6,16.8-3.6,25.5c0,2.9-2.4,5.3-5.3,5.3s-5.3-2.4-5.3-5.3
			c0-9.7,1.3-19.2,4-28.4C54,96,57,94.3,59.8,95.2z"/>
		<path class="st2" d="M33.8,355.3l1.1,1.3C34.5,356.1,34.1,355.7,33.8,355.3z"/>
		<path class="st2" d="M31,352.3l0.8,0.9C31.5,352.8,31.3,352.6,31,352.3z"/>
		<path class="st2" d="M30.4,351.6l0.6,0.7C30.8,352,30.6,351.8,30.4,351.6z"/>
		<path class="st2" d="M30.1,351.3c-0.1-0.1-0.1-0.1-0.2-0.2h0L30.1,351.3z"/>
		<path class="st13" d="M306.7,795.5c0,0.1,0,0.1,0,0.2"/>
		<path class="st13" d="M306.3,794.2c0,0.1,0.1,0.2,0.1,0.3"/>
		<path class="st13" d="M298.7,786.6c0.2,0.1,0.3,0.2,0.5,0.3"/>
		<path class="st13" d="M294.8,784.2c0.7,0.4,1.3,0.8,2,1.1c0.3,0.2,0.6,0.4,0.9,0.5"/>
		<path class="st13" d="M292.5,783c0.4,0.2,0.7,0.4,1.1,0.6"/>
		<path class="st13" d="M266.9,775.2h1.4c2.6,0,6.9,1,11.6,2.6"/>
		<path class="st13" d="M237.6,785.2c0.3-0.7,0.6-1.3,1-2"/>
		<path class="st13" d="M236.5,788.9c0-0.2,0.1-0.4,0.1-0.5"/>
		<path class="st14" d="M279.9,777.7c-0.9,2.3-2.4,4.4-4.4,6.2c-4.6,4.4-11.7,7.2-19.7,7.2c-7.2,0-13.6-2.3-18.2-6h0c0,0,0,0,0,0.1
			c-0.2,0.5-0.4,1-0.5,1.5c-0.2,0.5-0.3,1.1-0.4,1.6c0,0.2-0.1,0.4-0.1,0.5c-0.2,0.9-0.2,1.9-0.2,2.8c0,9.1,7.4,16.5,16.5,16.5h32.3
			h0.7c9.1,0,20.9-3.1,20.9-12.2l0-0.4c0-0.1,0-0.1,0-0.2l-0.2-1c0-0.1-0.1-0.2-0.1-0.3c0-0.1-0.1-0.2-0.1-0.3
			c-0.1-0.2-0.1-0.3-0.2-0.4c-0.1-0.2-0.2-0.3-0.3-0.5l-6.5-6.1c-0.2-0.1-0.3-0.2-0.5-0.3l-1-0.6c0,0-0.1,0-0.1-0.1
			c-0.3-0.2-0.6-0.4-0.9-0.5c-0.6-0.4-1.3-0.8-2-1.1c-0.4-0.2-0.8-0.4-1.2-0.6c-0.4-0.2-0.7-0.4-1.1-0.6c-1.3-0.7-2.6-1.3-4-1.9
			c-0.3-0.1-0.5-0.2-0.8-0.4C285.1,779.6,282.4,778.6,279.9,777.7z"/>
		<path class="st15" d="M196.1,243.7c0.1-0.1,1.4-0.9,2.6-2.3"/>
		<path class="st15" d="M201.8,276.4C201.8,276.4,201.8,276.4,201.8,276.4C201.9,276.4,201.9,276.4,201.8,276.4
			c0.2,0.5,2,3.1,6.9-2.6c5.3-6.2-5.5-12.1-5.5-12.1s9.4-5.2,4.3-12.5c-4.9-7-11.1-5.5-11.5-5.4c0,0,0,0,0,0"/>
		<path class="st15" d="M195.7,291c1.4,0.5,3,0.6,4.7,0.1c7.2-2.2,1.9-13.8,1.5-14.7"/>
		<path class="st15" d="M62.7,269.5c-0.5-1.7-0.3-3.7,1.1-5.9c4.8-7.4,9.4-9.5,9.4-9.5s-5.7-0.9-2.7-7.8c3-6.9,12.5-7.5,12.5-7.5
			s-8.9-3.3-5.5-8.6c0.5-0.8,1.1-1.5,1.6-2"/>
		<path class="st15" d="M96.7,308.5c-1.2,0.6-2.6,1-4.2,1.1c-8,0.6-8-12.8-8-12.8s-4.5,10.6-12.1,8.5c-3-0.8-3.9-3.3-4-5.9"/>
		<path class="st15" d="M101,285.9c-1.6,2.1-2.1,4.8-1.4,7.4"/>
		<path class="st13" d="M188.2,337.1l0.3,0.4l33,57.1c2.6,4.6,7.2,7.3,12.1,7.8c3.1,0.3,6.4-0.3,9.3-2c0.4-0.2,0.8-0.5,1.2-0.8
			c3.1-2,5.5-5.1,6.5-8.9l13.4-55.3c12.3-7,13.7-31.6-5.4-35.4c-0.8,0.1-1.6,0.3-2.3,0.5"/>
		<polyline class="st13" points="211.9,325 200.1,300.1 195.7,291 192.7,284.6 		"/>
		<polyline class="st13" points="242.1,338.1 231.2,365.4 215.3,331.9 		"/>
		<path class="st14" d="M182.2,290.1l5.6-2.9l2.1-1.1l2.8-1.5l-14.9-28.4c-1-1.8-2.4-3.3-4-4.5"/>
		<path class="st14" d="M254.3,300.5c13.6-12.1,22.4-21.5,21.2-22.9c-1.6-1.9-19.4,10.2-40.2,27.2"/>
		<path class="st14" d="M223.5,314.6c-4.3,3.7-8.2,7.2-11.6,10.4c-9.7,9.1-15.6,15.7-14.6,16.9c1,1.2,7.9-2.8,17.9-10
			c0.3-0.2,0.7-0.5,1.1-0.8"/>
		<path class="st14" d="M262.2,301.2c-2-0.4-4-0.6-5.9-0.6c-0.7,0-1.4,0-2,0c-7.3,0.1-13.9,2-19.1,4.3c-1.8,0.8-3.4,1.6-4.7,2.4
			c-2.2,1.2-4.7,4.1-7,7.5c-3.9,5.8-7.3,13.1-7.2,16.6c0,0.7,0.2,1.2,0.4,1.6c2,2.4,5.1,1.5,7.5-0.9"/>
		<path class="st13" d="M252.4,307.7c-1.9,0-4.7,0.3-7.6,1c-0.5,0.1-0.9,0.2-1.3,0.3c-4.3,1.1-8.6,2.9-10.1,5.3
			c-1.2,1.9-3.4,4.9-5.3,7.9c-2.2,3.4-4,7-3.8,9.5c0,0,0,0,0,0c0,0.3,0.1,0.6,0.2,0.8c1.1,3.6,5.1,3.2,6.4,3"/>
		<path class="st13" d="M252.6,314.9c0,0-3.8,0.9-7.4,2.2c-0.7,0.2-1.5,0.5-2.1,0.8c-1.3,0.5-2.3,1.1-3.1,1.6
			c-3,2.2-10.2,9.8-10,13.8c0,1.1,0.3,1.8,0.8,2.3c1.1,1.3,3.1,0.9,3.1,0.9"/>
		<path class="st13" d="M254.1,335.2c-4.1,1.2-5.7-1.5-5.7-1.5s-3.1,2.7-6.3,4.5c-2.4,1.3-4.7,2.1-5.8,0.8c-1.2-1.5-1.7-2.5-1.4-3.6
			c0.3-1.1,1.6-2.4,3.9-4.5c0.8-0.7,1.7-1.6,2.8-2.5c1.6-1.5,3-2.5,4.1-3.3c4-2.7,6-2.1,9.5-3.5"/>
		<polyline class="st13" points="127.1,776.4 141.2,444.7 238.6,783.2 238.9,784.3 261.2,777 266.9,775.2 268.3,774.7 194.6,397 		
			"/>
		<line class="st13" x1="79.1" y1="397.9" x2="95.3" y2="777"/>
		<path class="st14" d="M83.1,397c6,14.4,28.7,23.4,41.5,23.7l28.9,0.8c8.9,0.2,21.7-2.6,30.8-9.3c5.1-3.8,9-8.8,10.3-15.2
			c0,0,0,0,0,0c0.4-2.1,0.5-4.3,0.4-6.7c0,0-3.2-25.4-6.7-53.3c-1.8-14.1-3.7-28.9-5.3-41.3c-0.2-2-0.5-3.9-0.7-5.7
			c-1.6-12.8-2.9-22.1-3.1-24c-0.8-5.1-2.6-10-5.2-14.4c-0.5-0.9-1-1.7-1.6-2.6"/>
		<polyline class="st14" points="96.2,283.7 102,280.4 101,285.9 99.6,293.4 96.7,308.5 88,354.2 		"/>
		<polyline class="st14" points="106.8,242.9 106.1,243.3 82.5,257.5 		"/>
		<path class="st13" d="M74.8,368.6l-37.9-51.4l1.5-0.9l30.1-17l27.7-15.6l-4-7.7l-9.7-18.5l-19.8,11.9L9.9,301.3
			c-4.3,2.6-6.9,7.1-7.3,11.8c-0.5,4.1,0.7,8.4,3.6,11.7l23.8,26.3"/>
		<polyline class="st13" points="36.8,358.6 70.2,395.5 70.4,395.4 		"/>
		<path class="st13" d="M112.6,354.8c1-0.9,1.9-2.2,1.3-3.8c-1.1-3.1-19.6-0.6-24.3,2.2c-0.5,0.3-1,0.7-1.6,1
			c-6.2,4.6-12.7,13.9-12.7,13.9s-0.2,0.3-0.6,0.6c-0.1,0.1-0.3,0.2-0.4,0.4"/>
		<path class="st13" d="M87.8,365c3.8-4.2,9.1-7.3,12.2-8.2c2.3-0.7,7.6-1.6,12.6-2.1c4.8-0.5,9.2-0.5,9.9,0.4
			c2,2.6,0.8,4.9,0.2,5.8"/>
		<path class="st13" d="M91,371.1c5.2-3.1,10.9-6.8,14.7-7.9c0.1,0,0.2-0.1,0.3-0.1c1-0.3,2.5-0.6,4.2-1c4.1-0.9,9.4-1.7,12.3-1.1
			c1,0.2,1.8,0.6,2,1.2c1.6,3.7-0.9,6.2-0.9,6.2"/>
		<path class="st13" d="M93.8,376.8c5.6-2.7,12.3-6.1,18.5-7.3c0.9-0.2,1.7-0.3,2.4-0.5c0.2,0,0.3-0.1,0.5-0.1
			c2.3-0.5,3.8-0.8,5.3-0.4c1,0.3,2,0.8,3.2,1.8c3.9,3-3.8,6.3-3.8,6.3s-7.2,1.4-13.1,4.1c-4.6,2.1-9.2,8-15,12.1
			c-1.7,1.2-3.5,2.3-5.4,3c-1.2,0.4-2.3,0.8-3.3,1.1c-1.5,0.5-2.8,0.8-4,1c-3.8,0.6-6.3-0.3-8.7-2.6c-0.1-0.1-0.2-0.2-0.3-0.3
			c-2.8-2.9-22.4-24.4-33.3-36.4c-0.7-0.7-1.3-1.4-1.9-2.1c-0.4-0.4-0.8-0.9-1.1-1.3c-0.7-0.8-1.4-1.5-1.9-2.1
			c-0.3-0.3-0.5-0.6-0.8-0.9c-0.2-0.3-0.4-0.5-0.6-0.7c-0.1-0.1-0.2-0.2-0.3-0.3c-0.1-0.1-0.1-0.1-0.2-0.2"/>
		<path class="st14" d="M238.6,38.8c-22.5-22.4-53.5-36.3-87.8-36.3C82.2,2.5,26.6,58.1,26.6,126.7c0,38.2,17.2,72.4,44.4,95.2
			c2.6,2.2,5.3,4.3,8.1,6.3c7,4.9,14.5,9.2,22.4,12.6c0,0,0,0,0,0c0.2,0.1,0.3,0.1,0.5,0.2c0.3,0.1,2,0.9,2.4,1l0.6,0.2
			c0.1,0,0.1,0,0.2,0.1c0.5,0.2,1,0.4,1.5,0.6c0,0,0,0,0,0c0.8,0.3,1.6,0.6,2.4,0.9c5.5,1.9,11.1,3.5,16.9,4.7c2,0.4,4,0.8,6,1.1
			c6.1,0.9,12.4,1.4,18.8,1.4c1.2,0,2.4,0,3.6-0.1c0.4,0,0.8,0,1.2,0c1.2,0,2.5-0.1,3.7-0.2c3.6-0.2,7.1-0.6,10.6-1.2
			c0.7-0.1,1.5-0.2,2.2-0.4c5-0.9,9.9-2,14.7-3.5l0.3-0.1c2.3-0.7,5.1-1.7,7.4-2.5c0.5-0.2,1-0.4,1.5-0.6c0.9-0.3,1.8-0.7,2.7-1.1
			c3.2-1.3,6.3-2.8,9.4-4.4c39.8-20.7,66.9-62.3,66.9-110.2C275,92.4,261.1,61.3,238.6,38.8z"/>
		<path class="st13" d="M141.3,794.4c0.1,0.2,0.1,0.4,0.2,0.5"/>
		<path class="st13" d="M138.3,788c0.3,0.5,0.5,0.9,0.8,1.4c0.1,0.2,0.3,0.5,0.4,0.7"/>
		<path class="st13" d="M132.5,780.5c0.2,0.2,0.4,0.4,0.5,0.5"/>
		<path class="st13" d="M92.2,779.3c1-0.9,2-1.7,3-2.4c1.7-1.1,3.3-1.7,4.8-1.7h19h3.9c1.3,0,2.6,0.4,4,1.1c1.4,0.7,2.9,1.7,4.3,3"
			/>
		<path class="st13" d="M91.1,780.4c0.2-0.2,0.4-0.4,0.6-0.6"/>
		<path class="st13" d="M90,781.6c0.2-0.2,0.3-0.3,0.5-0.5"/>
		<path class="st13" d="M89,782.7c0.2-0.2,0.3-0.4,0.5-0.5"/>
		<path class="st13" d="M87.9,784.2c0.3-0.4,0.6-0.8,0.9-1.2"/>
		<path class="st13" d="M86.4,786.3c0.3-0.5,0.7-1,1-1.5c0.1-0.2,0.2-0.3,0.4-0.5"/>
		<path class="st13" d="M83.4,791.4c0.1-0.2,0.2-0.5,0.4-0.7c0.4-0.7,0.8-1.5,1.2-2.2c0.1-0.2,0.3-0.5,0.4-0.7"/>
		<path class="st13" d="M82.4,793.7c0.1-0.2,0.2-0.4,0.3-0.6"/>
		<path class="st13" d="M81.6,795.7c0-0.2,0.1-0.3,0.2-0.5"/>
		<path class="st13" d="M137.9,445c3.3,0.4,9.1-3.2,9.1-3.2"/>
		<path class="st14" d="M131.3,779.4c-0.2-0.1-0.3-0.3-0.5-0.4c-1.1,1.2-2.5,2.3-4,3.2c-0.8,0.5-1.6,0.9-2.4,1.2
			c-3.7,1.7-8.2,2.6-13,2.6c-6.2,0-11.8-1.6-15.9-4.2c-1.2-0.8-2.3-1.6-3.3-2.6c-0.2,0.2-0.4,0.3-0.6,0.5c-0.2,0.2-0.4,0.4-0.6,0.6
			c-0.2,0.2-0.4,0.4-0.6,0.7c-0.2,0.2-0.3,0.3-0.5,0.5c-0.2,0.2-0.4,0.4-0.5,0.6c-0.2,0.2-0.3,0.4-0.5,0.5c-0.1,0.1-0.1,0.2-0.2,0.2
			c-0.3,0.4-0.6,0.8-0.9,1.2c0,0-0.1,0.1-0.1,0.1c-0.5,0.6-0.9,1.3-1.4,2c-0.3,0.5-0.6,1-0.9,1.4c-0.2,0.2-0.3,0.5-0.4,0.7
			c-0.4,0.7-0.9,1.5-1.2,2.2c-0.1,0.2-0.2,0.5-0.4,0.7c-0.3,0.5-0.5,1.1-0.8,1.6c-0.1,0.2-0.2,0.4-0.3,0.6c-0.2,0.5-0.4,1-0.6,1.6
			c-0.1,0.2-0.1,0.3-0.2,0.5c-0.3,0.9-0.6,1.9-0.7,2.7c-0.1,0.3-0.1,0.6-0.1,0.8c0,0,0,0,0,0.1c0,0.3-0.1,0.6-0.1,0.9
			c0,0,0,0.1,0,0.1c0,0.3,0,0.5,0,0.8c0,6.5,3.2,7.4,7.9,7.4c1.9,0,4.1-0.2,6.4-0.2h22.5h10.5c7.8,0,14.3,0.1,14.3-9
			c0-0.3,0-0.5,0-0.8l0-0.1c0-0.3,0-0.5-0.1-0.8l0-0.1c0-0.3-0.1-0.5-0.1-0.8l0-0.2c-0.1-0.2-0.1-0.5-0.2-0.8l-0.2-0.9
			c-0.1-0.2-0.1-0.4-0.2-0.5l-0.2-0.6c-0.1-0.3-0.2-0.6-0.3-0.8l-0.1-0.3c-0.1-0.2-0.2-0.4-0.3-0.6l-0.9-1.9
			c-0.1-0.2-0.2-0.5-0.4-0.7c-0.1-0.2-0.2-0.5-0.4-0.7c-0.1-0.2-0.3-0.5-0.4-0.7c-1.5-2.5-3.3-4.9-5.3-7c-0.2-0.2-0.4-0.4-0.5-0.5
			C132.1,780.1,131.7,779.7,131.3,779.4z"/>
		<path class="st16" d="M119,773.8c1.8-78,5.9-148.2,7.7-183.7c1.8-35.4,0-88.6,2.4-114c2.4-25.4,12.2-31.5,12.2-31.5"/>
		<path class="st16" d="M168,419.5L168,419.5l16.2-7.2l5.6-2.5c0,0,2.4,5.6,4.1,20.4c1.8,14.8,18.9,98.6,25.4,134.7
			c6.3,35,41,200.7,43,210.4c0.1,0.3,0.1,0.4,0.1,0.4s-1,0.5-1.4,1.4c-0.6,1.5,0.8,3.9,12.2,6.4c0.8,0.2,1.5,0.3,2.2,0.5
			c16.4,3.9,21.5,8.7,23.5,13.2c2.5,5.8-5.7,10-13.9,11.1c-0.8,0.1-1.7,0.2-2.5,0.2"/>
		<path class="st16" d="M188.7,337.4c4.1-19.5,11.2-37.2,11.2-37.2"/>
		<path class="st16" d="M264,335.4c-2.2,1-3.6,0.3-4.9,0.3c-1.9,0.1-3.5,1.8-6.6,12.2c-5.3,17.7-3,45.5-18.9,54.3"/>
		<path class="st16" d="M104.2,277.4c-3-2.4-5.2-4-12.1-1.4c-4.1,1.6-10,4.6-18.7,10c-2.5,1.6-4.9,3.1-7.2,4.7
			c-17.7,12.4-27.3,24.8-27.9,25.6c0,0,0,0,0,0"/>
		<path class="st16" d="M119,773.8c0,0.5,0,1,0.1,1.5c0.5,3.5,2.8,5.8,5.3,8.1c0.8,0.7,1.5,1.4,2.3,2.1c3.2,3.1,6,6.8,5.3,13.8
			c-0.7,7.6-14.6,8.4-14.6,8.4"/>
	</g>
	<polyline class="st17" points="169.7,331.4 125.2,331.4 125.2,286.9 	"/>
	<polyline class="st17" points="115.5,296.7 160,296.7 160,341.2 	"/>
	<line class="st17" x1="168" y1="289.1" x2="126.2" y2="331.2"/>
</g>
</svg>
