<?xml version="1.0" encoding="utf-8"?>
<!-- Generator: Adobe Illustrator 23.0.1, SVG Export Plug-In . SVG Version: 6.00 Build 0)  -->
<svg version="1.1" id="Layer_1" xmlns="http://www.w3.org/2000/svg" xmlns:xlink="http://www.w3.org/1999/xlink" x="0px" y="0px"
	 viewBox="0 0 697.49 1126.24" style="enable-background:new 0 0 697.49 1126.24;" xml:space="preserve">
<style type="text/css">
	.ufo1-0{opacity:0.9;fill:#FFFDAB;}
	.ufo1-1{fill:#C1DFF4;}
	.ufo1-2{fill:#FACBC8;}
	.ufo1-3{fill:none;stroke:#667682;stroke-width:5;stroke-miterlimit:10;}
	.ufo1-4{fill:none;stroke:#667682;stroke-width:5;stroke-linecap:round;stroke-miterlimit:10;}
	.ufo1-5{fill:none;stroke:#FCFCFC;stroke-width:5;stroke-linecap:round;stroke-miterlimit:10;}
	.ufo1-6{fill:#F9B4B2;}
	.ufo1-7{fill:none;stroke:#667682;stroke-width:5;stroke-linecap:round;stroke-linejoin:round;stroke-miterlimit:10;}
	.ufo1-8{fill:#8FCFF1;stroke:#667682;stroke-width:5;stroke-linecap:round;stroke-linejoin:round;stroke-miterlimit:10;}
	.ufo1-9{fill:#71BFF4;}
	.ufo1-10{fill:#B6D5BB;stroke:#667682;stroke-width:5;stroke-miterlimit:10;}
	.ufo1-11{fill:none;stroke:#FCFCFC;stroke-width:5;stroke-linecap:round;stroke-linejoin:round;stroke-miterlimit:10;}
	.ufo1-12{fill:#97C69F;}
	.ufo1-13{fill:#667682;}
	.ufo1-14{fill:#CCB9DA;stroke:#667682;stroke-width:5;stroke-linecap:round;stroke-linejoin:round;stroke-miterlimit:10;}
	.ufo1-15{fill:#AA95C1;}
	.ufo1-16{fill:#AA95C1;stroke:#667682;stroke-width:5;stroke-linecap:round;stroke-linejoin:round;stroke-miterlimit:10;}
	.ufo1-17{fill:#CCB9DA;}
	.ufo1-18{fill:#FBC595;stroke:#667682;stroke-width:5;stroke-linecap:round;stroke-linejoin:round;stroke-miterlimit:10;}
	.ufo1-19{fill:#EAA97D;}
	.ufo1-20{fill:#FFDAA4;}
	.ufo1-21{clip-path:url(#SVGID_2_ufo1);}
	.ufo1-22{fill:#FFFFFF;stroke:#667682;stroke-width:5;stroke-linecap:round;stroke-linejoin:round;stroke-miterlimit:10;}
</style>
<path class="ufo1-0" d="M502.09,327.36c0-9.24-3.5-13.98-6.58-18.15c-3.07-4.16-5.72-7.75-5.72-15.16c0-7.42,2.65-11.01,5.72-15.16
	c3.09-4.18,6.58-8.91,6.58-18.15c0-9.24-3.5-13.98-6.58-18.15c-3.07-4.16-5.72-7.75-5.72-15.16c0-7.42,2.65-11.01,5.72-15.16
	c2.59-3.5,5.46-7.41,6.32-14.02h-72.51h-31.85h-35.68h-36.82h-35.68h-31.85h-72.51c0.98,6.14,3.73,9.86,6.21,13.22
	c3.07,4.16,5.72,7.75,5.72,15.16c0,7.42-2.65,11.01-5.72,15.16c-3.09,4.18-6.58,8.91-6.58,18.15c0,9.24,3.5,13.98,6.58,18.15
	c3.07,4.16,5.72,7.75,5.72,15.16c0,7.42-2.65,11.01-5.72,15.16c-3.09,4.18-6.58,8.91-6.58,18.15c0,9.24,3.5,13.98,6.58,18.15
	c3.07,4.16,5.72,7.75,5.72,15.16c0,7.42-2.65,11.01-5.72,15.16c-3.09,4.18-6.58,8.91-6.58,18.15c0,9.24,3.5,13.98,6.58,18.15
	c3.07,4.16,5.72,7.75,5.72,15.16c0,7.42-2.65,11.01-5.72,15.16c-3.09,4.18-6.58,8.91-6.58,18.15c0,9.24,3.5,13.97,6.58,18.15
	c3.07,4.16,5.72,7.75,5.72,15.16c0,7.42-2.65,11.01-5.72,15.16c-3.09,4.18-6.58,8.91-6.58,18.15c0,9.24,3.5,13.97,6.58,18.15
	c3.07,4.16,5.72,7.75,5.72,15.16c0,7.42-2.65,11.01-5.72,15.16c-3.09,4.18-6.58,8.91-6.58,18.15c0,9.24,3.5,13.98,6.58,18.15
	c3.07,4.16,5.72,7.75,5.72,15.17c0,7.42-2.65,11.01-5.72,15.16c-3.09,4.18-6.58,8.91-6.58,18.15c0,9.24,3.5,13.98,6.58,18.15
	c3.07,4.16,5.72,7.75,5.72,15.16s-2.65,11.01-5.72,15.16c-3.09,4.18-6.58,8.91-6.58,18.15c0,9.24,3.5,13.98,6.58,18.15
	c3.07,4.16,5.72,7.75,5.72,15.16c0,7.42-2.65,11.01-5.72,15.16c-3.09,4.18-6.58,8.91-6.58,18.15c0,9.24,3.5,13.98,6.58,18.15
	c3.07,4.16,5.72,7.75,5.72,15.17c0,7.42-2.65,11.01-5.72,15.17c-3.09,4.18-6.58,8.91-6.58,18.15c0,9.24,3.5,13.98,6.58,18.15
	c3.07,4.16,5.72,7.75,5.72,15.17c0,7.42-2.65,11.01-5.72,15.16c-3.09,4.18-6.58,8.91-6.58,18.15c0,9.24,3.5,13.98,6.58,18.15
	c3.07,4.16,5.72,7.75,5.72,15.17c0,7.42-2.65,11.01-5.72,15.17c-3.09,4.18-6.58,8.91-6.58,18.15c0,9.24,3.5,13.98,6.58,18.15
	c3.07,4.16,5.72,7.75,5.72,15.17c0,7.42-2.65,11.01-5.72,15.17c-3.09,4.18-6.58,8.91-6.58,18.15c0,9.24,3.5,13.98,6.58,18.16
	c3.07,4.16,5.72,7.75,5.72,15.17c0,7.42-2.65,11.01-5.72,15.17c-3.09,4.18-6.58,8.91-6.58,18.16c0,0.02,0,0.03,0,0.05h72.51h32.47
	h35.06h37.44h35.06h32.47h72.51c-0.18-8.75-3.56-13.35-6.57-17.42c-3.07-4.16-5.72-7.75-5.72-15.17c0-7.42,2.65-11.01,5.72-15.17
	c3.09-4.18,6.58-8.91,6.58-18.15c0-9.24-3.5-13.98-6.58-18.15c-3.07-4.16-5.72-7.75-5.72-15.17c0-7.42,2.65-11.01,5.72-15.17
	c3.09-4.18,6.58-8.91,6.58-18.15c0-9.24-3.5-13.98-6.58-18.15c-3.07-4.16-5.72-7.75-5.72-15.17c0-7.42,2.65-11.01,5.72-15.16
	c3.09-4.18,6.58-8.91,6.58-18.15c0-9.24-3.5-13.98-6.58-18.15c-3.07-4.16-5.72-7.75-5.72-15.17c0-7.42,2.65-11.01,5.72-15.17
	c3.09-4.18,6.58-8.91,6.58-18.15c0-9.24-3.5-13.98-6.58-18.15c-3.07-4.16-5.72-7.75-5.72-15.17c0-7.42,2.65-11.01,5.72-15.16
	c3.09-4.18,6.58-8.91,6.58-18.15c0-9.24-3.5-13.98-6.58-18.15c-3.07-4.16-5.72-7.75-5.72-15.16c0-7.42,2.65-11.01,5.72-15.16
	c3.09-4.18,6.58-8.91,6.58-18.15c0-9.24-3.5-13.98-6.58-18.15c-3.07-4.16-5.72-7.75-5.72-15.16c0-7.42,2.65-11.01,5.72-15.16
	c3.09-4.18,6.58-8.91,6.58-18.15c0-9.24-3.5-13.98-6.58-18.15c-3.07-4.16-5.72-7.75-5.72-15.17c0-7.42,2.65-11.01,5.72-15.16
	c3.09-4.18,6.58-8.91,6.58-18.15c0-9.24-3.5-13.97-6.58-18.15c-3.07-4.16-5.72-7.75-5.72-15.16c0-7.42,2.65-11.01,5.72-15.16
	c3.09-4.18,6.58-8.91,6.58-18.15s-3.5-13.97-6.58-18.15c-3.07-4.16-5.72-7.75-5.72-15.16c0-7.42,2.65-11.01,5.72-15.16
	c3.09-4.18,6.58-8.91,6.58-18.15c0-9.24-3.5-13.98-6.58-18.15c-3.07-4.16-5.72-7.75-5.72-15.16c0-7.42,2.65-11.01,5.72-15.16
	c3.09-4.18,6.58-8.91,6.58-18.15c0-9.24-3.5-13.98-6.58-18.15c-3.07-4.16-5.72-7.75-5.72-15.16c0-7.42,2.65-11.01,5.72-15.16
	C498.59,341.34,502.09,336.6,502.09,327.36z"/>
<g class="ufo2-trash1">
	<path class="ufo1-1" d="M330.46,287.1c14.07-17.64,39.77-20.53,57.41-6.46l-59.82,74.99l-7.12,8.93l-1.92,2.41l-6.13,7.69
		c-8.82-7.03-13.95-16.97-15.12-27.37c-1.17-10.39,1.63-21.22,8.66-30.04L330.46,287.1z"/>
	<path class="ufo1-2" d="M389.32,324.2l9.24,7.37c-1.18,2.25-2.59,4.42-4.23,6.48l-2.03,2.55l-22.01,27.59
		c-1.64,2.06-3.45,3.92-5.38,5.56l-9.24-7.37L389.32,324.2z"/>
	<path class="ufo1-2" d="M387.87,280.64c8.82,7.03,13.95,16.97,15.13,27.36c0.89,7.97-0.54,16.19-4.43,23.56l-9.24-7.37l-33.65,42.18
		l9.24,7.37c-14.58,12.52-36.46,13.33-52.03,0.9l6.13-7.69l1.92-2.41l7.12-8.93L387.87,280.64z"/>
	<path class="ufo1-3" d="M312.88,374.65c-8.82-7.03-13.95-16.97-15.12-27.37c-1.17-10.39,1.63-21.22,8.66-30.04l24.04-30.14
		c14.07-17.64,39.77-20.53,57.41-6.46"/>
	<path class="ufo1-4" d="M328.05,355.63l59.82-74.99c8.82,7.03,13.95,16.97,15.13,27.36c0.89,7.97-0.54,16.19-4.43,23.56
		c-1.18,2.25-2.59,4.42-4.23,6.48l-2.03,2.55l-22.01,27.59c-1.64,2.06-3.45,3.92-5.38,5.56c-14.58,12.52-36.46,13.33-52.03,0.9
		l6.13-7.69l1.92-2.41"/>
	<path class="ufo1-5" d="M348.76,283.74c4.53-1.86,9.43-3.04,14.59-3.4"/>
</g>
<g class="ufo2-trash2">
	
		<rect x="306.93" y="478.79" transform="matrix(0.7727 -0.6348 0.6348 0.7727 -265.4922 337.9006)" class="ufo1-2" width="64.3" height="121.75"/>
	
		<rect x="352.05" y="462.63" transform="matrix(0.7727 -0.6348 0.6348 0.7727 -250.7644 346.7134)" class="ufo1-6" width="13.39" height="121.75"/>
	
		<rect x="306.93" y="478.79" transform="matrix(0.7727 -0.6348 0.6348 0.7727 -265.4922 337.9006)" class="ufo1-7" width="64.3" height="121.75"/>
	<line class="ufo1-4" x1="338.21" y1="509.06" x2="335.07" y2="505.24"/>
	<line class="ufo1-4" x1="358.09" y1="533.25" x2="346.48" y2="519.12"/>
</g>
<g class="ufo2-trash3">
	
		<rect x="292.16" y="681.02" transform="matrix(0.9189 0.3944 -0.3944 0.9189 321.1198 -68.4065)" class="ufo1-8" width="69.6" height="131.79"/>
	
		<rect x="345.03" y="691.89" transform="matrix(0.9189 0.3944 -0.3944 0.9189 327.4594 -77.5123)" class="ufo1-9" width="14.49" height="131.79"/>
	
		<rect x="292.16" y="681.02" transform="matrix(0.9189 0.3944 -0.3944 0.9189 321.1198 -68.4065)" class="ufo1-7" width="69.6" height="131.79"/>
	<line class="ufo1-4" x1="355.95" y1="730.86" x2="358.06" y2="725.94"/>
	<line class="ufo1-4" x1="342.58" y1="762" x2="350.39" y2="743.81"/>
</g>
<g class="ufo-spaceship">
	<ellipse class="ufo1-10" cx="346.13" cy="79.83" rx="110.38" ry="77.33"/>
	<path class="ufo1-11" d="M403.59,23.39c25.12,12.57,41.49,33.17,41.49,56.44c0,38.28-44.3,69.32-98.95,69.32s-98.95-31.04-98.95-69.32
		s44.3-69.32,98.95-69.32c11.38,0,22.32,1.35,32.5,3.83"/>
	<ellipse class="ufo1-12" cx="346.13" cy="79.83" rx="84.16" ry="58.96"/>
	<ellipse class="ufo1-13" cx="346.13" cy="48.66" rx="32.5" ry="27.66"/>
	<path class="ufo1-14" d="M663.53,107.79c-60.76-23.86-180.1-40.09-317.4-40.09S89.48,83.93,28.73,107.79H663.53z"/>
	<path class="ufo1-14" d="M663.53,107.79c-60.76-23.86-180.1-40.09-317.4-40.09S89.48,83.93,28.73,107.79H663.53z"/>
	<path class="ufo1-15" d="M60.79,97.35c-11.97,3.28-22.71,6.77-32.06,10.44h634.8c-9.35-3.67-20.09-7.16-32.06-10.44H60.79z"/>
	<path class="ufo1-7" d="M663.53,107.79c-60.76-23.86-180.1-40.09-317.4-40.09S89.48,83.93,28.73,107.79H663.53z"/>
	<path class="ufo1-16" d="M683.18,131.39c-64.52,42.37-191.25,71.17-337.05,71.17S73.6,173.76,9.08,131.39H683.18z"/>
	<path class="ufo1-17" d="M467.33,185.64c-13.81,0.86-27.63,0.47-41.47,0.47c-13.98,0-27.96,0-41.95,0c-15.75,0-31.5,0-47.25,0
		c-15.31,0-30.63,0-45.94,0c-18.99,0-38,0.68-56.99-0.01c-19.12-0.7-38.02-3.49-56.83-6.77c-22.92-4-45.67-8.96-68.04-15.21
		c-19.5-5.45-38.74-11.88-57.31-19.79c-9.16-3.9-18.16-8.17-26.88-12.93H9.08c45.77,30.05,122.84,53.28,215.81,64.24v-0.19h242.48
		v0.19c92.97-10.96,170.04-34.19,215.81-64.24c0,0-15.6,0-15.61,0c-1.38,0-4.2,2.25-5.46,2.9c-1.96,1.01-3.93,2-5.91,2.97
		c-4.11,2.01-8.27,3.92-12.46,5.75c-8.98,3.92-18.14,7.48-27.4,10.75c-20.82,7.34-42.19,13.24-63.77,18.13
		c-11.88,2.69-23.83,5.08-35.84,7.2c-15.03,2.65-30.14,5.03-45.38,6.27C470.01,185.46,468.67,185.56,467.33,185.64z"/>
	<path class="ufo1-7" d="M683.18,131.39c-64.52,42.37-191.25,71.17-337.05,71.17S73.6,173.76,9.08,131.39H683.18z"/>
	<path class="ufo1-13" d="M661.62,150.91H30.64c-11.91,0-21.56-9.65-21.56-21.56v0c0-11.91,9.65-21.56,21.56-21.56h630.98
		c11.91,0,21.56,9.65,21.56,21.56v0C683.18,141.25,673.52,150.91,661.62,150.91z"/>
	<path class="ufo1-18" d="M462.65,70.71H229.6v0c0-12.98,10.53-23.51,23.51-23.51h186.03C452.13,47.2,462.65,57.72,462.65,70.71
		L462.65,70.71z"/>
	<path class="ufo1-19" d="M264.99,47.2h-18.19c-9.42,0-17.05,7.63-17.05,17.05v6.46h18.19v-6.46C247.94,54.83,255.57,47.2,264.99,47.2z
		"/>
	<path class="ufo1-20" d="M427.41,47.2h18.19c9.42,0,17.05,7.63,17.05,17.05v6.46h-18.19v-6.46C444.46,54.83,436.83,47.2,427.41,47.2z"
		/>
	<path class="ufo1-7" d="M462.65,70.71H229.6v0c0-12.98,10.53-23.51,23.51-23.51h186.03C452.13,47.2,462.65,57.72,462.65,70.71
		L462.65,70.71z"/>
	<path class="ufo1-18" d="M526.32,186H160.3v0c0,12.98,10.53,23.51,23.51,23.51h319C515.8,209.51,526.32,198.99,526.32,186L526.32,186z
		"/>
	<path class="ufo1-19" d="M178.73,192.46V186H160.3v6.46c0,9.42,7.63,17.05,17.05,17.05h18.43
		C186.36,209.51,178.73,201.88,178.73,192.46z"/>
	<path class="ufo1-20" d="M503.22,192.46V186h23.11v6.46c0,9.42-9.57,17.05-21.38,17.05h-23.11
		C493.65,209.51,503.22,201.88,503.22,192.46z"/>
	<path class="ufo1-7" d="M526.32,186H160.3v0c0,12.98,10.53,23.51,23.51,23.51h319C515.8,209.51,526.32,198.99,526.32,186L526.32,186z"
		/>
	<g>
		<defs>
			<path id="SVGID_1_ufo1" d="M661.62,150.91H30.64c-11.91,0-21.56-9.65-21.56-21.56v0c0-11.91,9.65-21.56,21.56-21.56h630.98
				c11.91,0,21.56,9.65,21.56,21.56v0C683.18,141.25,673.52,150.91,661.62,150.91z"/>
		</defs>
		<clipPath id="SVGID_2_ufo1">
			<use xlink:href="#SVGID_1_ufo1"  style="overflow:visible;"/>
		</clipPath>
		<g class="ufo1-21">
			<g>
				<polygon class="ufo1-22" points="14.84,107.79 37.51,130.93 60.19,107.79 				"/>
				<polygon class="ufo1-22" points="60.19,107.79 82.86,130.93 105.53,107.79 				"/>
				<polygon class="ufo1-22" points="105.53,107.79 128.2,130.93 150.87,107.79 				"/>
				<polygon class="ufo1-22" points="150.87,107.79 173.54,130.93 196.21,107.79 				"/>
				<polygon class="ufo1-22" points="196.21,107.79 218.89,130.93 241.56,107.79 				"/>
				<polygon class="ufo1-22" points="241.56,107.79 264.23,130.93 286.9,107.79 				"/>
				<polygon class="ufo1-22" points="286.9,107.79 309.57,130.93 332.24,107.79 				"/>
				<polygon class="ufo1-22" points="332.24,107.79 354.92,130.93 377.59,107.79 				"/>
				<polygon class="ufo1-22" points="377.59,107.79 400.26,130.93 422.93,107.79 				"/>
				<polygon class="ufo1-22" points="422.93,107.79 445.6,130.93 468.27,107.79 				"/>
				<polygon class="ufo1-22" points="468.27,107.79 490.94,130.93 513.62,107.79 				"/>
				<polygon class="ufo1-22" points="513.62,107.79 536.29,130.93 558.96,107.79 				"/>
				<polygon class="ufo1-22" points="558.96,107.79 581.63,130.93 604.3,107.79 				"/>
				<polygon class="ufo1-22" points="604.3,107.79 626.97,130.93 649.64,107.79 				"/>
				<polygon class="ufo1-22" points="649.64,107.79 672.32,130.93 694.99,107.79 				"/>
				<polygon class="ufo1-22" points="-30.5,107.79 -7.83,130.93 14.84,107.79 				"/>
			</g>
			<g>
				<polygon class="ufo1-22" points="621.73,150.91 599.45,127.77 577.17,150.91 				"/>
				<polygon class="ufo1-22" points="666.29,150.91 644.01,127.77 621.73,150.91 				"/>
				<polygon class="ufo1-22" points="577.49,150.91 555.21,127.77 532.93,150.91 				"/>
				<polygon class="ufo1-22" points="532.93,150.91 510.64,127.77 488.36,150.91 				"/>
				<polygon class="ufo1-22" points="488.36,150.91 466.08,127.77 443.8,150.91 				"/>
				<polygon class="ufo1-22" points="443.8,150.91 421.52,127.77 399.24,150.91 				"/>
				<polygon class="ufo1-22" points="399.24,150.91 376.96,127.77 354.68,150.91 				"/>
				<polygon class="ufo1-22" points="354.68,150.91 332.4,127.77 310.12,150.91 				"/>
				<polygon class="ufo1-22" points="310.12,150.91 287.84,127.77 265.56,150.91 				"/>
				<polygon class="ufo1-22" points="265.56,150.91 243.28,127.77 221,150.91 				"/>
				<polygon class="ufo1-22" points="221,150.91 198.72,127.77 176.44,150.91 				"/>
				<polygon class="ufo1-22" points="176.44,150.91 154.16,127.77 131.88,150.91 				"/>
				<polygon class="ufo1-22" points="131.88,150.91 109.6,127.77 87.32,150.91 				"/>
				<polygon class="ufo1-22" points="87.32,150.91 65.04,127.77 42.76,150.91 				"/>
				<polygon class="ufo1-22" points="42.76,150.91 20.48,127.77 -1.8,150.91 				"/>
			</g>
		</g>
	</g>
	<path class="ufo1-3" d="M661.62,150.91H30.64c-11.91,0-21.56-9.65-21.56-21.56v0c0-11.91,9.65-21.56,21.56-21.56h630.98
		c11.91,0,21.56,9.65,21.56,21.56v0C683.18,141.25,673.52,150.91,661.62,150.91z"/>
</g>
</svg>
