<?xml version="1.0" encoding="utf-8"?>
<!-- Generator: Adobe Illustrator 23.0.1, SVG Export Plug-In . SVG Version: 6.00 Build 0)  -->
<svg version="1.1" id="Layer_1" xmlns="http://www.w3.org/2000/svg" xmlns:xlink="http://www.w3.org/1999/xlink" x="0px" y="0px"
	 viewBox="0 0 150.6 146.6" style="enable-background:new 0 0 150.6 146.6;" xml:space="preserve">
<style type="text/css">
	.st0{fill:#CFA9A7;}
	.st1{fill:#C49B9B;}
	.st2{fill:none;stroke:#667682;stroke-width:5;stroke-linecap:round;stroke-miterlimit:10;}
	.st3{fill:none;stroke:#667682;stroke-width:5;stroke-linecap:round;stroke-linejoin:round;stroke-miterlimit:10;}
	.st4{fill:#FFFFFF;stroke:#667682;stroke-width:5;stroke-miterlimit:10;}
	.st5{fill:#FFFFFF;stroke:#667682;stroke-width:5;stroke-linecap:round;stroke-linejoin:round;stroke-miterlimit:10;}
	.st6{fill:none;stroke:#667682;stroke-width:5;stroke-miterlimit:10;}
	.st7{fill:#667682;}
</style>
<g>
	<path class="st0" d="M98.6,68.9H53.4c-7.2,0-13.1-5.9-13.1-13.1v-6.3c0-7.2,5.9-13.1,13.1-13.1h45.1c7.2,0,13.1,5.9,13.1,13.1v6.3
		C111.6,63.1,105.7,68.9,98.6,68.9z"/>
	<path class="st1" d="M64.7,70.9c-8.9,0-16.2-8.6-16.2-19v0c0-5.5,2-10.4,5.2-13.9h-0.6c-8.9,0-16.2,8.6-16.2,19v0
		c0,10.5,7.3,19,16.2,19h38.8c4.2,0,8.1-1.9,11-5.1H64.7z"/>
	<path class="st0" d="M113.1,102.8h-35H37.9c-9.8,0-17.8-8-17.8-17.8v0c0-9.8,8-17.8,17.8-17.8h75.2c9.8,0,17.8,8,17.8,17.8v0
		C130.9,94.8,122.9,102.8,113.1,102.8z"/>
	<path class="st1" d="M50.9,102.4c-9.8,0-17.8-8.3-17.8-18.5c0-5.7,2.5-10.8,6.4-14.2h-1.7c-9.8,0-17.8,8.3-17.8,18.5v0
		c0,10.2,8,18.5,17.8,18.5h75.2c4.3,0,8.3-1.6,11.4-4.3H50.9z"/>
	<path class="st2" d="M52.4,69.1c-8.9-0.1-16.2-7.5-16.1-16.4l0,0c0.1-8.9,7.5-16.2,16.4-16.1l3.7-0.1"/>
	<path class="st0" d="M126.8,102.3c11.8,0,21.4,9.6,21.4,21.4v0c0,11.8-9.6,21.4-21.4,21.4H23.9c-11.8,0-21.4-9.6-21.4-21.4v0
		c0-11.8,9.6-21.4,21.4-21.4"/>
	<path class="st3" d="M97.7,69c8.9,0,16.2-7.3,16.2-16.2v0c0-8.9-7.3-16.2-16.2-16.2h-3.1"/>
	<path class="st1" d="M38.5,139.6c-11.8,0-21.4-9.6-21.4-21.4c0-7.7,4.9-14.8,12.3-18.3l-6.3,0c-11.8,0-21.4,9.6-21.4,21.4
		s9.6,21.4,21.4,21.4h102.9c4,0,7.8-1.1,11-3.1H38.5z"/>
	<path class="st2" d="M37.9,102.8c-9.8,0-17.8-8-17.8-17.8v0c0-9.8,8-17.8,17.8-17.8h3.4"/>
	<path class="st2" d="M113.1,102.8c9.8,0,17.8-8,17.8-17.8v0c0-9.8-8-17.8-17.8-17.8h-3.5"/>
	<path class="st2" d="M23.9,101.4c-11.8,0-21.4,9.6-21.4,21.4v0c0,11.8,9.6,21.4,21.4,21.4h102.9c11.8,0,21.4-9.6,21.4-21.4v0
		c0-11.8-9.6-21.4-21.4-21.4"/>
	<ellipse class="st4" cx="75" cy="71" rx="20.2" ry="23.6"/>
	<path class="st5" d="M41.3,112.2c6.7,13.1,19.4,21.9,33.9,21.9s27.1-8.8,33.9-21.9H41.3z"/>
	<path class="st0" d="M70.1,38.9c-4.8-0.6-10-1.5-13.1-5.7c-1.1-1.4-1.7-3.1-2-4.9c-0.1-0.7-0.2-1.5-0.2-2.2
		c0-8.5,16.6-11,12.2-19.2C60.8-4.9,93.7,8.8,94.5,26.5c0.2,4-1.1,7.9-4.6,10.3c-5.4,3.6-12.5,3-18.7,2.3C70.9,39,70.5,39,70.1,38.9
		z"/>
	<path class="st1" d="M80.5,33.7c-2.4-0.3-4.8-0.6-7-1.4c-0.5-0.2-1.1-0.4-1.6-0.6c-0.5-0.2-1-0.5-1.5-0.8c-0.5-0.3-1-0.7-1.4-1.1
		c-0.5-0.4-0.9-0.8-1.3-1.3c-0.4-0.5-0.8-1-1.1-1.6c-0.3-0.6-0.6-1.3-0.8-1.9c-0.2-0.7-0.4-1.5-0.5-2.3c-0.1-0.6-0.1-1.2-0.1-1.8
		c0-2.4,1.4-4.4,3.2-6.1c3-2.9,7.4-5.2,9.1-8.1C69.9,2.5,63.2,2,66.4,8c4.4,8.2-12.2,10.7-12.2,19.2c0,4.1,1.7,7.9,5,10.4
		c2.3,1.7,5.2,2.8,8,3.2c4.9,0.8,10.3,0.9,15.2-0.2c2.1-0.4,4.1-1.1,6-2.2c0.9-0.5,1.7-1.1,2.4-1.9c0.4-0.4,0.7-0.8,1-1.2
		c0.1-0.2,0.7-1.3,0.8-1.3c-1.3,0.1-2.5,0.2-3.8,0.2c-2.6,0-5.2-0.2-7.8-0.5C80.8,33.7,80.7,33.7,80.5,33.7z"/>
	<path class="st6" d="M69.9,39.6c-0.7-0.1-15.1-0.3-15.1-13.4c0-8.5,16.6-11,12.2-19.2C60.8-4.9,93.7,8.8,94.5,26.5
		C95.4,44.3,71.9,39.7,69.9,39.6z"/>
</g>
<ellipse id="POOP_EYE_1_" class="st7" cx="80.7" cy="59.6" rx="11.3" ry="13.2"/>
</svg>
