<?xml version="1.0" encoding="utf-8"?>
<!-- Generator: Adobe Illustrator 23.0.1, SVG Export Plug-In . SVG Version: 6.00 Build 0)  -->
<svg version="1.1" id="Layer_1" xmlns="http://www.w3.org/2000/svg" xmlns:xlink="http://www.w3.org/1999/xlink" x="0px" y="0px"
	 viewBox="0 0 2763.5 666.42" style="enable-background:new 0 0 2763.5 666.42;" xml:space="preserve">
<style type="text/css">
	.st0{fill:#F6E9D6;stroke:#667682;stroke-width:5;stroke-miterlimit:10;}
	.st1{fill:#EACAC2;}
	.st2{fill:none;stroke:#667682;stroke-width:5;stroke-miterlimit:10;}
</style>
<g id="THUMBS">
	<path class="st0" d="M2630.37,414.79L2463.93,58.14c-17.87-38.28-63.39-54.84-101.67-36.97v0
		c-38.29,17.87-54.84,63.39-36.97,101.67l136.94,293.44c-56.36,27.43-98.61,81.34-108.33,148.04"/>
	<g>
		<path class="st1" d="M2400.71,463.12c13.25-11.66,28.03-21.51,43.94-29.25l-2.84-6.09
			C2426.57,437.58,2412.73,449.48,2400.71,463.12z"/>
		<path class="st1" d="M2344.67,38.75L2344.67,38.75c38.28-17.87,83.81-1.32,101.67,36.97l163.44,350.2l20.59-11.14L2463.93,58.14
			c-17.87-38.28-63.39-54.84-101.67-36.97v0c-12.34,5.76-22.41,14.41-29.81,24.75C2336.23,43.21,2340.3,40.79,2344.67,38.75z"/>
	</g>
	<path class="st2" d="M2630.37,414.79L2463.93,58.14c-17.87-38.28-63.39-54.84-101.67-36.97v0
		c-38.29,17.87-54.84,63.39-36.97,101.67l136.94,293.44c-56.36,27.43-98.61,81.34-108.33,148.04"/>
	<path class="st0" d="M133.13,414.79L299.57,58.14c17.87-38.28,63.39-54.84,101.67-36.97l0,0c38.29,17.87,54.84,63.39,36.97,101.67
		L301.27,416.28c56.36,27.43,98.61,81.34,108.33,148.04"/>
	<path class="st1" d="M401.24,21.17L401.24,21.17c-7.38-3.44-15.03-5.6-22.69-6.57c34.34,19.5,48.48,62.42,31.49,98.82L273.1,406.85
		c54.55,26.55,95.88,77.92,107.3,141.67l29.21,15.8c-9.73-66.7-51.98-120.61-108.33-148.04l136.94-293.44
		C456.08,84.56,439.53,39.04,401.24,21.17z"/>
	<path class="st2" d="M133.13,414.79L299.57,58.14c17.87-38.28,63.39-54.84,101.67-36.97l0,0c38.29,17.87,54.84,63.39,36.97,101.67
		L301.27,416.28c56.36,27.43,98.61,81.34,108.33,148.04"/>
	<circle class="st0" cx="2396.34" cy="92.62" r="60.96"/>
	<circle class="st0" cx="370.19" cy="92.62" r="60.96"/>
</g>
</svg>
