<?xml version="1.0" encoding="utf-8"?>
<!-- Generator: Adobe Illustrator 23.0.1, SVG Export Plug-In . SVG Version: 6.00 Build 0)  -->
<svg version="1.1" xmlns="http://www.w3.org/2000/svg" xmlns:xlink="http://www.w3.org/1999/xlink" x="0px" y="0px"
	 viewBox="0 0 2008.35 1090.72" style="enable-background:new 0 0 2008.35 1090.72;" xml:space="preserve">
<style type="text/css">
	.st0{fill:#4B9DD6;stroke:#667682;stroke-width:5;stroke-miterlimit:10;}
	.st1{fill:#9DEDA6;stroke:#9DEDA6;stroke-width:5;stroke-linecap:round;stroke-linejoin:round;stroke-miterlimit:10;}
	.st2{fill:#9DEDA6;stroke:#9DEDA6;stroke-width:5;stroke-miterlimit:10;}
	.st3{fill:#4B9DD6;stroke:#4B9DD6;stroke-width:5;stroke-linecap:round;stroke-miterlimit:10;}
	.st4{fill:none;stroke:#9DEDA6;stroke-width:5;stroke-linecap:round;stroke-linejoin:round;stroke-miterlimit:10;}
	.st5{fill:none;stroke:#9DEDA6;stroke-width:5;stroke-miterlimit:10;}
	.st6{fill:#8FCFF1;stroke:#9DEDA6;stroke-width:5;stroke-miterlimit:10;}
	.st7{fill:none;stroke:#9DEDA6;stroke-width:5;stroke-linecap:round;stroke-miterlimit:10;}
</style>
<g id="Layer_3">
</g>
<g id="background">
</g>
<g id="stars">
</g>
<g id="Layer_1">
</g>
<g id="IPAD">
	<path class="st0" d="M1955.85,1088.22H52.5c-27.61,0-50-22.39-50-50V52.5c0-27.61,22.39-50,50-50h1903.35c27.61,0,50,22.39,50,50
		v985.72C2005.85,1065.84,1983.47,1088.22,1955.85,1088.22z"/>
</g>
<g id="INFO">
	<rect x="47.95" y="601.65" class="st1" width="320.03" height="90.09"/>
	<rect x="47.95" y="706.14" class="st1" width="320.03" height="180.21"/>
	<rect x="47.95" y="900.74" class="st1" width="320.03" height="122.08"/>
	<rect x="690.77" y="193.9" class="st1" width="294.94" height="33.21"/>
	<rect x="999.83" y="193.9" class="st1" width="492.09" height="33.21"/>
	<path class="st1" d="M1506.26,227.11h76.55c9.17,0,16.6-7.43,16.6-16.6v0c0-9.17-7.43-16.6-16.6-16.6h-76.55V227.11z"/>
	<rect x="48.7" y="338.51" class="st1" width="319.27" height="248.74"/>
	<path class="st1" d="M367.84,193.9H117.48c-37.99,0-68.78,33.4-68.78,74.59v55.61h319.14v-22.4c0-41.2,30.79-74.59,68.78-74.59
		h240.91V193.9H367.84z"/>
	<path class="st1" d="M367.84,179.5H117.48c-37.99,0-68.78-33.4-68.78-74.59V49.29h319.14v22.4c0,41.2,30.79,74.59,68.78,74.59
		h210.29c16.91,0,30.62,14.87,30.62,33.21v0H367.84z"/>
	<g>
		<ellipse class="st1" cx="1628.68" cy="889.48" rx="9.97" ry="10.81"/>
		<ellipse class="st1" cx="1628.68" cy="889.48" rx="5.89" ry="6.39"/>
		<g>
			<polygon class="st1" points="1734.55,892.74 1732.28,906.73 1617.38,884.76 1626.12,831 1626.26,831.02 			"/>
			<path class="st1" d="M1670.93,883.18l-40.51-15.57l-13.25,17.1l51.03,9.76C1674.71,895.71,1677.17,885.58,1670.93,883.18z"/>
			<path class="st1" d="M1674.57,889.48c0.34-2.5-0.7-5.21-3.55-6.3"/>
			<line class="st1" x1="1661" y1="879.33" x2="1630.5" y2="867.6"/>
			<ellipse class="st1" cx="1651.75" cy="898.49" rx="5.89" ry="6.39"/>
			<line class="st1" x1="1686.37" y1="883.77" x2="1717.11" y2="889.64"/>
			<polygon class="st1" points="1734.55,892.74 1732.28,906.73 1617.38,884.76 1626.12,831 1626.26,831.02 			"/>
		</g>
		<polygon class="st1" points="1734.55,892.74 1732.28,906.73 1617.38,884.76 1626.12,831 1626.26,831.02 		"/>
		<path class="st1" d="M1670.93,883.18l-40.51-15.57l-13.25,17.1l51.03,9.76C1674.71,895.71,1677.17,885.58,1670.93,883.18z"/>
		<ellipse class="st1" cx="1655.97" cy="893.91" rx="11.82" ry="12.82"/>
		<path class="st1" d="M1674.57,889.48c0.34-2.5-0.7-5.21-3.55-6.3"/>
		<ellipse class="st1" cx="1472.57" cy="888.27" rx="9.97" ry="10.81"/>
		<line class="st1" x1="1661" y1="879.33" x2="1630.5" y2="867.6"/>
		<ellipse class="st1" cx="1472.57" cy="888.27" rx="5.89" ry="6.39"/>
		<line class="st1" x1="1686.37" y1="883.77" x2="1717.11" y2="889.64"/>
		<polygon class="st1" points="1734.55,892.74 1732.28,906.73 1617.38,884.76 1626.12,831 1626.26,831.02 		"/>
		<polygon class="st1" points="1474.19,829.74 1474.05,829.76 1365.76,891.48 1368.03,905.47 1482.93,883.5 		"/>
		<polygon class="st1" points="1474.19,829.74 1474.05,829.76 1365.76,891.48 1368.03,905.47 1482.93,883.5 		"/>
		<line class="st1" x1="1382.96" y1="888.43" x2="1413.69" y2="882.55"/>
		<path class="st1" d="M1429.16,881.97l40.51-15.57l13.25,17.1l-51.03,9.76C1425.38,894.5,1422.92,884.37,1429.16,881.97z"/>
		<path class="st1" d="M1425.61,888.27c-0.34-2.5,0.7-5.21,3.55-6.3"/>
		<ellipse class="st1" cx="1446.43" cy="893.36" rx="11.82" ry="12.82"/>
		<line class="st1" x1="1439.18" y1="878.12" x2="1469.68" y2="866.39"/>
		<polygon class="st1" points="1474.19,829.74 1474.05,829.76 1365.76,891.48 1368.03,905.47 1482.93,883.5 		"/>
		<g>
			<path class="st1" d="M1584.36,788.49c5.69-6.16,13.55-9.98,22.23-9.98c17.37,0,31.46,15.27,31.46,34.12
				c0,10.49-4.37,19.88-11.24,26.14c-4.12,2.15-8.57,3.31-13.04,3.48c-0.36,0.01-0.73,0.02-1.09,0.02
				c-2.22,0.01-4.45-0.23-6.64-0.71c-6.11-1.34-11.93-4.58-16.67-9.71C1578.54,820.09,1576.87,802.16,1584.36,788.49z"/>
			<path class="st1" d="M1584.36,788.49c-7.5,13.66-5.82,31.6,5.02,43.36c4.74,5.14,10.56,8.37,16.67,9.71
				c2.19,0.48,4.41,0.72,6.64,0.71c0.36,0,0.73-0.01,1.09-0.02c4.47-0.17,8.92-1.33,13.04-3.48c-2.31,2.11-4.92,3.86-7.73,5.18
				c0,0-0.05,0.02-0.14,0.06c-0.06,0.03-0.15,0.07-0.25,0.12c-0.02,0.01-0.03,0.01-0.05,0.02c-0.49,0.22-0.99,0.43-1.49,0.62
				c-1.86,0.72-3.79,1.25-5.79,1.58c-1.55,0.26-3.14,0.39-4.76,0.39c-0.73,0-1.46-0.03-2.18-0.08c-2.41-0.18-4.74-0.65-6.97-1.38
				c-0.06-0.02-0.12-0.04-0.18-0.06c-0.72-0.24-1.43-0.51-2.12-0.81c-1.05-0.44-2.07-0.95-3.06-1.51
				c-10.08-5.69-16.96-17.11-16.96-30.28C1575.13,803.2,1578.66,794.67,1584.36,788.49z"/>
			<path class="st1" d="M1584.36,788.49c5.69-6.16,13.55-9.98,22.23-9.98c17.37,0,31.46,15.27,31.46,34.12
				c0,10.49-4.37,19.88-11.24,26.14c-2.31,2.11-4.92,3.86-7.73,5.18c-0.04,0.02-0.09,0.04-0.14,0.06c-0.09,0.04-0.52,0.24-0.6,0.28
				l-0.16,0.06c-0.34,0.15-0.68,0.29-1.03,0.42c-1.86,0.72-3.79,1.25-5.79,1.58c-1.55,0.26-3.14,0.39-4.76,0.39
				c-0.73,0-1.46-0.03-2.18-0.08c-2.41-0.18-4.74-0.65-6.97-1.38l-0.07-0.02c-0.73-0.25-1.62-0.58-2.24-0.84
				c-1.05-0.44-2.07-0.95-3.06-1.51c-10.08-5.69-16.96-17.11-16.96-30.28C1575.13,803.2,1578.66,794.67,1584.36,788.49z"/>
			<path class="st1" d="M1622.96,794.49c0.36,0,0.73-0.16,0.99-0.47c0.5-0.59,0.46-1.52-0.08-2.06c-2.17-2.16-4.64-3.89-7.34-5.14
				c-3.24-1.5-6.69-2.27-10.24-2.27c-0.74,0-1.35,0.65-1.35,1.46c0,0.81,0.6,1.46,1.35,1.46c3.18,0,6.27,0.68,9.18,2.03
				c2.42,1.12,4.63,2.67,6.58,4.61C1622.31,794.36,1622.63,794.49,1622.96,794.49z"/>
			<path class="st1" d="M1630.98,814.23c0.74,0,1.35-0.65,1.35-1.46c0-2.66-0.34-5.28-1.01-7.81c-0.21-0.77-0.95-1.22-1.67-1
				c-0.71,0.22-1.13,1.03-0.92,1.81c0.6,2.26,0.91,4.62,0.91,7C1629.63,813.58,1630.24,814.23,1630.98,814.23z"/>
		</g>
		<g>
			<path class="st1" d="M1516.88,788.49c-5.69-6.16-13.55-9.98-22.23-9.98c-17.37,0-31.46,15.27-31.46,34.12
				c0,10.49,4.37,19.88,11.24,26.14c4.12,2.15,8.57,3.31,13.04,3.48c0.36,0.01,0.73,0.02,1.09,0.02c2.22,0.01,4.45-0.23,6.64-0.71
				c6.11-1.34,11.93-4.58,16.67-9.71C1522.7,820.09,1524.38,802.16,1516.88,788.49z"/>
			<path class="st1" d="M1516.88,788.49c7.5,13.66,5.82,31.6-5.02,43.36c-4.74,5.14-10.56,8.37-16.67,9.71
				c-2.19,0.48-4.41,0.72-6.64,0.71c-0.36,0-0.73-0.01-1.09-0.02c-4.47-0.17-8.92-1.33-13.04-3.48c2.31,2.11,4.92,3.86,7.73,5.18
				c0,0,0.05,0.02,0.15,0.06c0.06,0.03,0.15,0.07,0.25,0.12c0.02,0.01,0.03,0.01,0.05,0.02c0.49,0.22,0.99,0.43,1.49,0.62
				c1.86,0.72,3.79,1.25,5.79,1.58c1.55,0.26,3.14,0.39,4.76,0.39c0.73,0,1.46-0.03,2.18-0.08c2.41-0.18,4.74-0.65,6.97-1.38
				c0.06-0.02,0.12-0.04,0.18-0.06c0.72-0.24,1.43-0.51,2.12-0.81c1.05-0.44,2.07-0.95,3.06-1.51
				c10.08-5.69,16.96-17.11,16.96-30.28C1526.11,803.2,1522.58,794.67,1516.88,788.49z"/>
			<path class="st1" d="M1516.88,788.49c-5.69-6.16-13.55-9.98-22.23-9.98c-17.37,0-31.46,15.27-31.46,34.12
				c0,10.49,4.37,19.88,11.24,26.14c2.31,2.11,4.92,3.86,7.73,5.18c0.04,0.02,0.09,0.04,0.14,0.06c0.09,0.04,0.52,0.24,0.6,0.28
				l0.16,0.06c0.34,0.15,0.68,0.29,1.03,0.42c1.86,0.72,3.79,1.25,5.79,1.58c1.55,0.26,3.14,0.39,4.76,0.39
				c0.73,0,1.46-0.03,2.18-0.08c2.41-0.18,4.74-0.65,6.97-1.38l0.07-0.02c0.73-0.25,1.62-0.58,2.24-0.84
				c1.05-0.44,2.07-0.95,3.06-1.51c10.08-5.69,16.96-17.11,16.96-30.28C1526.11,803.2,1522.58,794.67,1516.88,788.49z"/>
			<path class="st1" d="M1478.29,794.49c-0.36,0-0.73-0.16-0.99-0.47c-0.5-0.59-0.46-1.52,0.08-2.06c2.17-2.16,4.64-3.89,7.34-5.14
				c3.24-1.5,6.69-2.27,10.24-2.27c0.74,0,1.35,0.65,1.35,1.46c0,0.81-0.6,1.46-1.35,1.46c-3.18,0-6.27,0.68-9.18,2.03
				c-2.42,1.12-4.63,2.67-6.58,4.61C1478.94,794.36,1478.61,794.49,1478.29,794.49z"/>
			<path class="st1" d="M1470.26,814.23c-0.74,0-1.35-0.65-1.35-1.46c0-2.66,0.34-5.28,1.01-7.81c0.21-0.77,0.95-1.22,1.67-1
				c0.71,0.22,1.13,1.03,0.92,1.81c-0.6,2.26-0.91,4.62-0.91,7C1471.61,813.58,1471.01,814.23,1470.26,814.23z"/>
		</g>
		<polygon class="st1" points="1553.44,702.04 1547.81,702.04 1547.81,702.04 1530.34,794.8 1530.34,833.22 1570.9,833.22 
			1570.9,794.8 		"/>
		<polygon class="st1" points="1553.44,702.04 1547.81,702.04 1547.78,702.17 1565.22,794.8 1565.22,833.22 1570.9,833.22 
			1570.9,794.8 		"/>
		<line class="st1" x1="1550.62" y1="795.98" x2="1550.62" y2="762.37"/>
		<line class="st1" x1="1550.62" y1="740.02" x2="1550.62" y2="726.05"/>
		<polygon class="st1" points="1553.44,702.04 1547.81,702.04 1547.81,702.04 1530.34,794.8 1530.34,833.22 1570.9,833.22 
			1570.9,794.8 		"/>
		<polygon class="st1" points="1553.44,702.04 1547.81,702.04 1547.81,702.04 1530.34,794.8 1530.34,833.22 1570.9,833.22 
			1570.9,794.8 		"/>
		<polygon class="st1" points="1588.67,801.17 1550.62,801.17 1550.62,898.07 1588.67,898.07 1629.22,849.62 		"/>
		<polygon class="st1" points="1591.33,801.17 1510.23,801.17 1469.68,849.62 1510.23,898.07 1591.33,898.07 1631.88,849.62 		"/>
		<polygon class="st1" points="1583.46,801.17 1597.51,801.17 1638.06,849.62 1597.51,898.07 1583.46,898.07 1624.02,849.62 		"/>
		<polygon class="st1" points="1605.06,801.17 1591.33,801.17 1631.88,849.62 1591.33,898.07 1567.01,898.07 1567.01,898.07 
			1605.06,898.07 1645.61,849.62 		"/>
		<polygon class="st1" points="1518.28,801.17 1504.24,801.17 1463.69,849.62 1504.24,898.07 1518.28,898.07 1477.73,849.62 		"/>
		<polygon class="st1" points="1591.33,801.17 1510.23,801.17 1469.68,849.62 1510.23,898.07 1591.33,898.07 1631.88,849.62 		"/>
		<polygon class="st1" points="1510.23,801.17 1496.18,801.17 1455.63,849.62 1496.18,898.07 1510.23,898.07 1469.68,849.62 		"/>
		<ellipse class="st1" cx="1550.62" cy="849.62" rx="39.57" ry="42.91"/>
		<g>
			<ellipse class="st1" cx="1550.62" cy="849.62" rx="49.46" ry="53.64"/>
			<ellipse class="st1" cx="1550.62" cy="849.62" rx="39.57" ry="42.91"/>
			<path class="st1" d="M1517.26,856.35c0-23.7,17.71-42.91,39.57-42.91c9.34,0,17.93,3.52,24.7,9.4
				c-7.25-9.83-18.39-16.13-30.9-16.13c-21.85,0-39.57,19.21-39.57,42.91c0,13.56,5.81,25.65,14.87,33.51
				C1520.51,875.79,1517.26,866.48,1517.26,856.35z"/>
			<ellipse class="st1" cx="1550.62" cy="849.62" rx="31.67" ry="34.35"/>
		</g>
		<ellipse class="st1" cx="1550.62" cy="849.62" rx="49.46" ry="53.64"/>
		<path class="st1" d="M1609.97,849.62"/>
		<ellipse class="st1" cx="1550.62" cy="849.62" rx="39.57" ry="42.91"/>
		<path class="st1" d="M1517.26,856.35c0-23.7,17.71-42.91,39.57-42.91c9.34,0,17.93,3.52,24.7,9.4
			c-7.25-9.83-18.39-16.13-30.9-16.13c-21.85,0-39.57,19.21-39.57,42.91c0,13.56,5.81,25.65,14.87,33.51
			C1520.51,875.79,1517.26,866.48,1517.26,856.35z"/>
		<ellipse class="st1" cx="1550.62" cy="849.62" rx="31.67" ry="34.35"/>
	</g>
	<circle class="st2" cx="1803.18" cy="210.5" r="147.2"/>
	<g>
		<path class="st1" d="M1876.85,1028.41h-63.68c-17.89,0-32.39-14.5-32.39-32.39v-19.48h128.45v19.48
			C1909.24,1013.91,1894.74,1028.41,1876.85,1028.41z"/>
		<rect x="1780.79" y="910.28" class="st1" width="128.45" height="51.86"/>
		<rect x="1780.79" y="844.01" class="st1" width="128.45" height="51.86"/>
		<rect x="1780.79" y="777.74" class="st1" width="128.45" height="51.86"/>
		<rect x="1780.79" y="711.48" class="st1" width="128.45" height="51.86"/>
		<rect x="1780.79" y="645.21" class="st1" width="128.45" height="51.86"/>
		<rect x="1780.79" y="578.94" class="st1" width="128.45" height="51.86"/>
		<rect x="1780.79" y="512.67" class="st1" width="128.45" height="51.86"/>
	</g>
	<path class="st1" d="M826.2,992.27H506.01c-4.82,0-8.72-3.9-8.72-8.72l0,0c0-4.82,3.9-8.72,8.72-8.72H826.2V992.27z"/>
	<path class="st1" d="M826.2,1024.11H506.01c-4.82,0-8.72-3.9-8.72-8.72l0,0c0-4.82,3.9-8.72,8.72-8.72H826.2V1024.11z"/>
	<path class="st1" d="M1171.38,992.56H851.2c-4.82,0-8.72-3.9-8.72-8.72v0c0-4.82,3.9-8.72,8.72-8.72h320.19V992.56z"/>
	<path class="st1" d="M1171.38,1024.4H851.2c-4.82,0-8.72-3.9-8.72-8.72l0,0c0-4.82,3.9-8.72,8.72-8.72h320.19V1024.4z"/>
	<path class="st1" d="M1521.29,992.73H1201.1c-4.82,0-8.72-3.9-8.72-8.72v0c0-4.82,3.9-8.72,8.72-8.72h320.19V992.73z"/>
	<path class="st1" d="M1521.29,1024.58H1201.1c-4.82,0-8.72-3.9-8.72-8.72l0,0c0-4.82,3.9-8.72,8.72-8.72h320.19V1024.58z"/>
	<g>
		<line class="st3" x1="116.9" y1="368.8" x2="276.93" y2="368.8"/>
		<line class="st3" x1="116.9" y1="383.58" x2="276.93" y2="383.58"/>
		<line class="st3" x1="116.9" y1="398.36" x2="243.87" y2="398.36"/>
		<line class="st3" x1="116.9" y1="413.15" x2="276.93" y2="413.15"/>
		<line class="st3" x1="116.9" y1="625.53" x2="218.08" y2="625.53"/>
		<line class="st3" x1="116.9" y1="640.31" x2="276.93" y2="640.31"/>
		<line class="st3" x1="116.9" y1="733.64" x2="218.08" y2="733.64"/>
		<line class="st3" x1="116.9" y1="763.06" x2="218.08" y2="763.06"/>
		<line class="st3" x1="116.9" y1="924.58" x2="218.08" y2="924.58"/>
		<line class="st3" x1="116.9" y1="942.05" x2="258.42" y2="942.05"/>
		<line class="st3" x1="116.9" y1="748.42" x2="276.93" y2="748.42"/>
	</g>
	<g>
		<line class="st4" x1="1528.54" y1="477.43" x2="1639.15" y2="477.43"/>
		<line class="st4" x1="1528.54" y1="493.03" x2="1639.15" y2="493.03"/>
		<line class="st4" x1="1528.54" y1="508.63" x2="1618.65" y2="508.63"/>
		<line class="st4" x1="1528.54" y1="524.22" x2="1639.15" y2="524.22"/>
		<line class="st4" x1="1528.54" y1="539.82" x2="1639.15" y2="539.82"/>
		<line class="st4" x1="1528.54" y1="555.41" x2="1639.15" y2="555.41"/>
		<line class="st4" x1="1528.54" y1="571.01" x2="1587.42" y2="571.01"/>
		<line class="st4" x1="1528.54" y1="586.6" x2="1639.15" y2="586.6"/>
	</g>
	<path class="st1" d="M1541.65,974.97v49.58c12.19-0.55,21.92-11.43,21.92-24.79C1563.58,986.4,1553.84,975.52,1541.65,974.97z"/>
	<g>
		<circle class="st4" cx="1504.65" cy="334.86" r="33.93"/>
		<circle class="st2" cx="1489.49" cy="320.34" r="12.79"/>
	</g>
	<line class="st4" x1="907.17" y1="63.3" x2="1078.71" y2="63.3"/>
	<line class="st4" x1="907.17" y1="80.8" x2="1078.71" y2="80.8"/>
	<path class="st4" d="M1367.63,374.39h-202.36c-8.33,0-16.23,3.99-21.59,10.91l-79.66,103.97"/>
	<path class="st4" d="M1414.6,466.25h-202.36c-8.33,0-16.23,3.99-21.59,10.91l-31.39,40.51"/>
	<path class="st4" d="M1263.24,832.41h-202.36c-8.33,0-16.23-3.99-21.59-10.91l-31.39-40.51"/>
	<path class="st4" d="M1328.12,694.33h-133.28c-8.33,0-16.23-3.99-21.59-10.91l-50-63.98"/>
	<path class="st4" d="M1162.99,328.12h-133.28c-8.33,0-16.23,3.99-21.59,10.91l-20.3,26.2"/>
	<path class="st4" d="M527.74,440.78h109.41c8.33,0,16.23,3.99,21.59,10.91l20.3,26.2"/>
	<path class="st4" d="M594.9,333.71h109.41c8.33,0,16.23,3.99,21.59,10.91l20.3,26.2"/>
	<rect x="1300.91" y="466.25" class="st1" width="113.69" height="21.09"/>
	<rect x="1272.95" y="673.24" class="st1" width="113.69" height="21.09"/>
	<path class="st4" d="M521.37,758.83h133.28c8.33,0,16.23-3.99,21.59-10.91l36.65-46.89"/>
	
		<rect x="493.9" y="758.82" transform="matrix(-1 -4.871804e-11 4.871804e-11 -1 1101.4915 1538.7314)" class="st1" width="113.69" height="21.09"/>
	<rect x="1204.31" y="832.41" class="st1" width="59.27" height="21.09"/>
	<path class="st4" d="M580.51,832.41h101.92c8.33,0,16.23-3.99,21.59-10.91l31.39-40.51"/>
	
		<rect x="580.51" y="832.41" transform="matrix(-1 -4.486557e-11 4.486557e-11 -1 1220.288 1685.9187)" class="st1" width="59.27" height="21.09"/>
	<rect x="1348.18" y="353.3" class="st1" width="19.45" height="21.09"/>
	<rect x="1071.52" y="307.02" class="st1" width="92.29" height="21.09"/>
	<rect x="594.9" y="312.62" class="st1" width="19.45" height="21.09"/>
	<rect x="489.7" y="440.78" class="st1" width="113.69" height="21.09"/>
	<path class="st4" d="M742.56,710.8c-5.54,0-7.67,4.49-7.67,10.03v17.27c0,5.54,4.49,10.03,10.03,10.03h27.3"/>
	<path class="st5" d="M742.85,641.22c0,22.45-16.46,41.51-38.67,44.77l-39.94,5.87c-6.33,0.93-12.01-3.98-12.01-10.38V500.97
		c0-6.4,5.68-11.31,12.01-10.38l39.94,5.87c22.21,3.27,38.67,22.32,38.67,44.77"/>
	<line class="st5" x1="670.55" y1="663.02" x2="715.19" y2="656.89"/>
	<line class="st5" x1="714.9" y1="524.25" x2="670.56" y2="517.49"/>
	<path class="st5" d="M742.85,610.34v30.88c0,22.45-16.46,41.51-38.67,44.77l-39.94,5.87c-6.33,0.93-12.01-3.98-12.01-10.38V500.97
		c0-6.4,5.68-11.31,12.01-10.38l39.94,5.87c22.21,3.27,38.67,22.32,38.67,44.77v29.3"/>
	<path class="st4" d="M771.57,432.68h-27.3c-5.54,0-10.03,4.49-10.03,10.03v17.27c0,5.54,2.8,10.03,8.33,10.03"/>
	<path class="st5" d="M839.07,766.65h-75.82c-5.54,0-10.03,4.49-10.03,10.03v17.27c0,5.54,4.49,10.03,10.03,10.03h75.82
		c10.31,0,18.66-8.35,18.66-18.66l0,0C857.74,775,849.38,766.65,839.07,766.65z"/>
	<path class="st5" d="M839.07,378.12h-75.82c-5.54,0-10.03,4.49-10.03,10.03v17.27c0,5.54,4.49,10.03,10.03,10.03h75.82
		c10.31,0,18.66-8.36,18.66-18.66v0C857.74,386.48,849.38,378.12,839.07,378.12z"/>
	<path class="st4" d="M1034.19,685.63l-64.76,139.12c-12.49,26.82-39.42,43.94-69,43.86l-56.85-0.15
		c-12.9-0.03-24.68-7.29-30.52-18.79L681.28,590.1l132.28-259.18c5.88-11.52,17.74-18.76,30.67-18.73l56.94,0.15
		c29.5,0.08,56.28,17.24,68.67,44.01l64.35,139.02"/>
	<path class="st5" d="M745.07,610.34c17.61,60.05,114.79,105.92,249.05,105.92c11.23,0,15.55-0.72,26.41-2.05"/>
	<path class="st5" d="M1019.95,466.67c-10.86-1.32-14.61-2.05-25.83-2.05c-134.16,0-231.3,45.91-249.01,105.92"/>
	<path class="st6" d="M681.28,590.12"/>
	<path class="st4" d="M979.4,803.33c-12.41,23.99-47.39,37.33-74.4,37.27l-95.01-0.37"/>
	<path class="st4" d="M810.57,340.01l95.09,0.37c26.94,0.07,61.63,13.15,73.96,37.1"/>
	<path class="st4" d="M938.58,686c16.75,25.48,40.07,46.25,67.54,59.93"/>
	<path class="st4" d="M1006.8,436.2c-27.37,13.48-50.66,33.99-67.5,59.18"/>
	<path class="st7" d="M1137,652.36c-39.76,19.63-89.41,36.32-143.26,36.32c-114.21,0-209.52-33.63-231.67-78.34"/>
	<path class="st7" d="M761.97,570.76c21.94-44.83,117.37-78.57,231.78-78.57c107.7,0,198.59,66.79,227.17,90.23
		c5.06,4.15,5.06,11.88,0,16.03c-12.06,9.89-35.21,27.49-66.03,44.54"/>
	<g>
		<path class="st7" d="M1124.84,638.73c-11.36,5.08-23.79,8.44-36.83,8.44c-12.18,0-23.83-2.93-34.57-7.45
			c-34.65-14.6-34.65-83.95,0-98.55c10.74-4.53,22.39-7.45,34.57-7.45c40.45,0,75.12,32.31,89.69,48.16
			c3.97,4.32,3.97,12.81,0,17.13c-7.1,7.73-18.98,19.36-33.98,29.26"/>
	</g>
	<path class="st5" d="M1034.19,685.63l-146.78-72.27c-8.67-4.27-14.45-13-14.49-22.67c0-0.48,0.01-0.96,0.03-1.44
		c0.44-9.2,6.14-17.34,14.4-21.42l146.83-72.46"/>
	<path class="st5" d="M876.46,396.14L876.46,396.14c0-20.18-16.36-36.54-36.54-36.54h-40.99l-37.3,73.08h78.3
		C860.1,432.68,876.46,416.32,876.46,396.14z"/>
	<path class="st4" d="M876.46,396.14L876.46,396.14c0-20.18-16.36-36.54-36.54-36.54h-40.99l-37.3,73.08h78.3
		C860.1,432.68,876.46,416.32,876.46,396.14z"/>
	<path class="st4" d="M876.46,396.14L876.46,396.14c0-20.18-16.36-36.54-36.54-36.54h-40.99l-37.3,73.08h78.3
		C860.1,432.68,876.46,416.32,876.46,396.14z"/>
	<path class="st4" d="M798.61,821.21h41.31c20.18,0,36.54-16.36,36.54-36.54v0c0-20.18-16.36-36.54-36.54-36.54h-78.42
		L798.61,821.21z"/>
	<path class="st4" d="M798.61,821.21h41.31c20.18,0,36.54-16.36,36.54-36.54v0c0-20.18-16.36-36.54-36.54-36.54h-78.42
		L798.61,821.21z"/>
	<path class="st5" d="M707.15,593.42v-5.96c0-9.34,7.57-16.92,16.92-16.92h103.65c10.99,0,31.33,8.91,31.33,19.9l0,0
		c0,10.99-20.34,19.9-31.33,19.9H724.07C714.72,610.34,707.15,602.76,707.15,593.42z"/>
	<path class="st5" d="M707.15,593.42v-5.96c0-9.34,7.57-16.92,16.92-16.92h103.65c10.99,0,31.33,8.91,31.33,19.9l0,0
		c0,10.99-20.34,19.9-31.33,19.9H724.07C714.72,610.34,707.15,602.76,707.15,593.42z"/>
	<line class="st5" x1="670.55" y1="493.1" x2="670.55" y2="689.36"/>
	<line class="st4" x1="748.09" y1="458.56" x2="734.25" y2="458.56"/>
	<line class="st4" x1="748.09" y1="723.66" x2="735.42" y2="723.66"/>
</g>
<g id="THUMBS_1_">
</g>
<g id="TAB">
</g>
<g id="SOLUTION">
</g>
</svg>
