<?xml version="1.0" encoding="utf-8"?>
<!-- Generator: Adobe Illustrator 23.0.1, SVG Export Plug-In . SVG Version: 6.00 Build 0)  -->
<svg version="1.1" id="Layer_1" xmlns="http://www.w3.org/2000/svg" xmlns:xlink="http://www.w3.org/1999/xlink" x="0px" y="0px"
	 viewBox="0 0 2763.5 1404.42" style="enable-background:new 0 0 2763.5 1404.42;" xml:space="preserve">
<style type="text/css">
	.st0{fill:#F6E9D6;stroke:#667682;stroke-width:5;stroke-miterlimit:10;}
	.st1{fill:#EACAC2;}
	.st2{fill:none;stroke:#667682;stroke-width:5;stroke-miterlimit:10;}
	.st3{fill:#C3CED4;stroke:#667682;stroke-width:5;stroke-miterlimit:10;}
</style>
<g>
	<path class="st0" d="M2760.62,1413.8l-528.04,86.75l-24.29-147.86c-23.87-145.29-2.87-294.41,60.19-427.46l0,0l-186.35-340.45
		l322.9,57.44c141.24,25.12,251.27,136.62,274.52,278.18L2760.62,1413.8z"/>
	<path class="st1" d="M2380,658.13c141.24,25.12,251.27,136.62,274.52,278.18l79.17,481.91l26.93-4.42l-81.06-493.41
		c-23.26-141.56-133.28-253.05-274.52-278.18l-322.9-57.44l12.36,22.58L2380,658.13z"/>
	<path class="st2" d="M2760.62,1413.8l-528.04,86.75l-24.29-147.86c-23.87-145.29-2.87-294.41,60.19-427.46l0,0l-186.35-340.45
		l322.9,57.44c141.24,25.12,251.27,136.62,274.52,278.18L2760.62,1413.8z"/>
	<path class="st0" d="M2.87,1413.8l528.04,86.75l24.29-147.86c23.87-145.29,2.87-294.41-60.19-427.46l0,0l186.35-340.45
		l-322.9,57.44C217.21,667.33,107.19,778.83,83.93,920.39L2.87,1413.8z"/>
	<path class="st1" d="M495.01,925.22l186.34-340.45l-34.78,6.19L462.13,927.94v0c63.06,133.05,84.06,282.17,60.19,427.46
		l-22.99,139.95l31.58,5.19l24.29-147.86C579.07,1207.39,558.07,1058.28,495.01,925.22L495.01,925.22z"/>
	<path class="st2" d="M2.87,1413.8l528.04,86.75l24.29-147.86c23.87-145.29,2.87-294.41-60.19-427.46l0,0l186.35-340.45
		l-322.9,57.44C217.21,667.33,107.19,778.83,83.93,920.39L2.87,1413.8z"/>
</g>
<path class="st3" d="M2458.84,1174.02H286.58c-27.61,0-50-22.39-50-50V52.5c0-27.61,22.39-50,50-50h2172.26c27.61,0,50,22.39,50,50
	v1071.52C2508.84,1151.63,2486.46,1174.02,2458.84,1174.02z"/>
</svg>
